<svg width="32" height="32" viewBox="0 0 32 32" fill="none" xmlns="http://www.w3.org/2000/svg">
<path d="M15.665 0.5C12.121 0.5 9.24801 3.27601 9.24801 6.70001C9.2523 7.82093 9.56842 8.91858 10.161 9.87006C9.8586 9.8264 9.55354 9.80357 9.24801 9.80194C5.70501 9.80194 2.83301 12.5771 2.83301 16.0001C2.83301 19.4241 5.70401 22.2 9.24801 22.201C10.1047 22.203 10.9535 22.0379 11.747 21.715C12.8828 21.2501 13.8622 20.4705 14.57 19.468C14.634 19.376 14.69 19.278 14.749 19.183C14.126 24.086 13.646 29.7321 11.816 31.5001H19.515C17.685 29.7321 17.205 24.086 16.582 19.183C16.642 19.278 16.697 19.376 16.761 19.468C17.4688 20.4705 18.4482 21.2501 19.584 21.715C20.3775 22.0379 21.2263 22.203 22.083 22.201C25.627 22.201 28.5 19.425 28.5 16.001C28.5 12.576 25.626 9.80096 22.083 9.80096C21.778 9.80096 21.473 9.82703 21.172 9.87103C21.7634 8.91918 22.0785 7.82159 22.082 6.70099C22.083 3.27599 19.21 0.499977 15.665 0.500977V0.5Z" fill="black"/>
</svg>
