<svg width="630" height="880" viewBox="0 0 630 880" fill="none" xmlns="http://www.w3.org/2000/svg">
<rect x="2.5" y="2.5" width="625" height="875" rx="17.5" fill="white" stroke="black" stroke-width="5"/>
<path d="M184.975 97.8192C195.549 96.8166 205.491 105.457 211.914 112.319C224.048 93.2766 251.691 93.146 263.957 111.97C275.738 127.909 271.008 150.469 257.523 165.945L211.486 218.29L164.874 165.287C151.704 150.469 147.609 119.913 164.382 105.88C170.265 100.587 177.514 97.7116 184.978 97.7101L184.975 97.8192Z" fill="#E20000"/>
<path d="M390.975 97.8192C401.549 96.8166 411.491 105.457 417.914 112.319C430.048 93.2766 457.691 93.146 469.957 111.97C481.738 127.909 477.008 150.469 463.523 165.945L417.486 218.29L370.874 165.287C357.704 150.469 353.609 119.913 370.382 105.88C376.265 100.587 383.514 97.7116 390.978 97.7101L390.975 97.8192Z" fill="#E20000"/>
<path d="M184.975 782.181C195.549 783.183 205.491 774.543 211.914 767.681C224.048 786.723 251.691 786.854 263.957 768.03C275.738 752.091 271.008 729.531 257.523 714.055L211.486 661.71L164.874 714.713C151.704 729.531 147.609 760.087 164.382 774.12C170.265 779.413 177.514 782.288 184.978 782.29L184.975 782.181Z" fill="#E20000"/>
<path d="M390.975 782.181C401.549 783.183 411.491 774.543 417.914 767.681C430.048 786.723 457.691 786.854 469.957 768.03C481.738 752.091 477.008 729.531 463.523 714.055L417.486 661.71L370.874 714.713C357.704 729.531 353.609 760.087 370.382 774.12C376.265 779.413 383.514 782.288 390.978 782.29L390.975 782.181Z" fill="#E20000"/>
<path d="M124.625 69.25C124.625 72.5833 124.042 76.4167 122.875 80.75C121.792 85.0833 120.25 89.5 118.25 94C116.333 98.5 114.042 102.917 111.375 107.25C108.792 111.583 105.917 115.458 102.75 118.875C99.6667 122.292 96.4167 125.042 93 127.125C89.6667 129.208 86.2917 130.25 82.875 130.25C81.0417 130.25 79.375 129.667 77.875 128.5C76.4583 127.417 75.75 125.875 75.75 123.875C75.75 122.958 75.875 122.208 76.125 121.625C76.4583 120.958 76.875 120.292 77.375 119.625C79.2083 117.292 81.0833 115.167 83 113.25C84.9167 111.25 86.7917 109.292 88.625 107.375C90.5417 105.375 92.375 103.292 94.125 101.125C95.875 98.9583 97.4583 96.4583 98.875 93.625C96.125 94.375 93.2917 94.75 90.375 94.75C86.2083 94.75 82.4167 94.125 79 92.875C75.6667 91.5417 72.8333 89.6667 70.5 87.25C68.1667 84.8333 66.375 81.9583 65.125 78.625C63.875 75.2083 63.25 71.4167 63.25 67.25C63.25 62.5833 63.9583 58.2917 65.375 54.375C66.875 50.4583 68.9583 47.0833 71.625 44.25C74.375 41.3333 77.625 39.0833 81.375 37.5C85.2083 35.8333 89.5 35 94.25 35C99.25 35 103.625 35.9167 107.375 37.75C111.208 39.5 114.375 41.9583 116.875 45.125C119.458 48.2083 121.375 51.8333 122.625 56C123.958 60.1667 124.625 64.5833 124.625 69.25ZM108 67C108 65 107.708 63.0417 107.125 61.125C106.625 59.2083 105.833 57.5 104.75 56C103.667 54.5 102.292 53.2917 100.625 52.375C99.0417 51.4583 97.125 51 94.875 51C90.375 51 86.7917 52.4167 84.125 55.25C81.5417 58 80.25 61.625 80.25 66.125C80.25 70.4583 81.4167 73.7917 83.75 76.125C86.1667 78.375 89.5 79.5 93.75 79.5C98.1667 79.5 101.625 78.5417 104.125 76.625C106.708 74.7083 108 71.5 108 67Z" fill="#E20000"/>
<path d="M80.7979 160.148C86.746 159.584 92.3385 164.445 95.9512 168.304C102.776 157.593 118.326 157.52 125.225 168.108C131.853 177.074 129.191 189.764 121.606 198.469L95.7106 227.913L69.4914 198.099C62.083 189.764 59.7795 172.576 69.2147 164.682C72.5235 161.705 76.6014 160.088 80.8 160.087L80.7979 160.148Z" fill="#E20000"/>
<path d="M505.375 810.75C505.375 807.417 505.958 803.583 507.125 799.25C508.208 794.917 509.75 790.5 511.75 786C513.667 781.5 515.958 777.083 518.625 772.75C521.208 768.417 524.083 764.542 527.25 761.125C530.333 757.708 533.583 754.958 537 752.875C540.333 750.792 543.708 749.75 547.125 749.75C548.958 749.75 550.625 750.333 552.125 751.5C553.542 752.583 554.25 754.125 554.25 756.125C554.25 757.042 554.125 757.792 553.875 758.375C553.542 759.042 553.125 759.708 552.625 760.375C550.792 762.708 548.917 764.833 547 766.75C545.083 768.75 543.208 770.708 541.375 772.625C539.458 774.625 537.625 776.708 535.875 778.875C534.125 781.042 532.542 783.542 531.125 786.375C533.875 785.625 536.708 785.25 539.625 785.25C543.792 785.25 547.583 785.875 551 787.125C554.333 788.458 557.167 790.333 559.5 792.75C561.833 795.167 563.625 798.042 564.875 801.375C566.125 804.792 566.75 808.583 566.75 812.75C566.75 817.417 566.042 821.708 564.625 825.625C563.125 829.542 561.042 832.917 558.375 835.75C555.625 838.667 552.375 840.917 548.625 842.5C544.792 844.167 540.5 845 535.75 845C530.75 845 526.375 844.083 522.625 842.25C518.792 840.5 515.625 838.042 513.125 834.875C510.542 831.792 508.625 828.167 507.375 824C506.042 819.833 505.375 815.417 505.375 810.75ZM522 813C522 815 522.292 816.958 522.875 818.875C523.375 820.792 524.167 822.5 525.25 824C526.333 825.5 527.708 826.708 529.375 827.625C530.958 828.542 532.875 829 535.125 829C539.625 829 543.208 827.583 545.875 824.75C548.458 822 549.75 818.375 549.75 813.875C549.75 809.542 548.583 806.208 546.25 803.875C543.833 801.625 540.5 800.5 536.25 800.5C531.833 800.5 528.375 801.458 525.875 803.375C523.292 805.292 522 808.5 522 813Z" fill="#E20000"/>
<path d="M518.798 719.852C524.746 720.416 530.339 715.555 533.951 711.696C540.776 722.407 556.326 722.48 563.225 711.892C569.853 702.926 567.191 690.236 559.606 681.531L533.711 652.087L507.491 681.901C500.083 690.236 497.78 707.424 507.215 715.318C510.524 718.295 514.601 719.912 518.8 719.913L518.798 719.852Z" fill="#E20000"/>
<path d="M445.025 588.181C434.451 589.183 424.509 580.543 418.086 573.681C405.952 592.723 378.309 592.854 366.043 574.03C354.262 558.091 358.992 535.531 372.477 520.055L418.514 467.71L465.126 520.713C478.296 535.531 482.391 566.087 465.618 580.12C459.735 585.413 452.486 588.288 445.022 588.29L445.025 588.181Z" fill="#E20000"/>
<path d="M239.025 588.181C228.451 589.183 218.509 580.543 212.086 573.681C199.952 592.723 172.309 592.854 160.043 574.03C148.262 558.091 152.992 535.531 166.477 520.055L212.514 467.71L259.126 520.713C272.296 535.531 276.391 566.087 259.618 580.12C253.735 585.413 246.486 588.288 239.022 588.29L239.025 588.181Z" fill="#E20000"/>
<path d="M342.025 379.819C331.451 378.817 321.509 387.457 315.086 394.319C302.952 375.277 275.309 375.146 263.043 393.97C251.262 409.909 255.992 432.469 269.477 447.945L315.514 500.29L362.126 447.287C375.296 432.469 379.391 401.913 362.618 387.88C356.735 382.587 349.486 379.712 342.022 379.71L342.025 379.819Z" fill="#E20000"/>
<path d="M445.025 291.819C434.451 290.817 424.509 299.457 418.086 306.319C405.952 287.277 378.309 287.146 366.043 305.97C354.262 321.909 358.992 344.469 372.477 359.945L418.514 412.29L465.126 359.287C478.296 344.469 482.391 313.913 465.618 299.88C459.735 294.587 452.486 291.712 445.022 291.71L445.025 291.819Z" fill="#E20000"/>
<path d="M239.025 291.819C228.451 290.817 218.509 299.457 212.086 306.319C199.952 287.277 172.309 287.146 160.043 305.97C148.262 321.909 152.992 344.469 166.477 359.945L212.514 412.29L259.126 359.287C272.296 344.469 276.391 313.913 259.618 299.88C253.735 294.587 246.486 291.712 239.022 291.71L239.025 291.819Z" fill="#E20000"/>
</svg>
