<svg width="630" height="880" viewBox="0 0 630 880" fill="none" xmlns="http://www.w3.org/2000/svg">
<rect x="2.5" y="2.5" width="625" height="875" rx="17.5" fill="white" stroke="black" stroke-width="5"/>
<path fill-rule="evenodd" clip-rule="evenodd" d="M417.535 272L375.435 311.428C363.547 322.44 359.843 345.168 374.991 355.6C380.231 359.512 386.895 361.688 393.591 361.676V361.592C401.335 362.192 408.603 358.092 414.207 353.792C411.771 370.872 409.807 389.032 402.599 395.996H433.399C426.347 389.18 423.135 370.448 420.767 353.688C435.219 365.468 455.047 363.564 464.927 351.072C475.571 339.22 471.291 322.432 459.111 310.924L417.535 272Z" fill="black"/>
<path fill-rule="evenodd" clip-rule="evenodd" d="M211.535 272L169.435 311.428C157.547 322.44 153.843 345.168 168.991 355.6C174.231 359.512 180.895 361.688 187.591 361.676V361.592C195.335 362.192 202.603 358.092 208.207 353.792C205.771 370.872 203.807 389.032 196.599 395.996H227.399C220.347 389.18 217.135 370.448 214.767 353.688C229.219 365.468 249.047 363.564 258.927 351.072C269.571 339.22 265.291 322.432 253.111 310.924L211.535 272Z" fill="black"/>
<path fill-rule="evenodd" clip-rule="evenodd" d="M314.535 184L272.435 223.428C260.547 234.44 256.843 257.168 271.991 267.6C277.231 271.512 283.895 273.688 290.591 273.676V273.592C298.335 274.192 305.603 270.092 311.207 265.792C308.771 282.872 306.807 301.032 299.599 307.996H330.399C323.347 301.18 320.135 282.448 317.767 265.688C332.219 277.468 352.047 275.564 361.927 263.072C372.571 251.22 368.291 234.432 356.111 222.924L314.535 184Z" fill="black"/>
<path fill-rule="evenodd" clip-rule="evenodd" d="M417.535 96L375.435 135.428C363.547 146.44 359.843 169.168 374.991 179.6C380.231 183.512 386.895 185.688 393.591 185.676V185.592C401.335 186.192 408.603 182.092 414.207 177.792C411.771 194.872 409.807 213.032 402.599 219.996H433.399C426.347 213.18 423.135 194.448 420.767 177.688C435.219 189.468 455.047 187.564 464.927 175.072C475.571 163.22 471.291 146.432 459.111 134.924L417.535 96Z" fill="black"/>
<path fill-rule="evenodd" clip-rule="evenodd" d="M211.535 96L169.435 135.428C157.547 146.44 153.843 169.168 168.991 179.6C174.231 183.512 180.895 185.688 187.591 185.676V185.592C195.335 186.192 202.603 182.092 208.207 177.792C205.771 194.872 203.807 213.032 196.599 219.996H227.399C220.347 213.18 217.135 194.448 214.767 177.688C229.219 189.468 249.047 187.564 258.927 175.072C269.571 163.22 265.291 146.432 253.111 134.924L211.535 96Z" fill="black"/>
<path fill-rule="evenodd" clip-rule="evenodd" d="M212.465 784L254.565 744.572C266.453 733.56 270.157 710.832 255.009 700.4C249.769 696.488 243.105 694.312 236.409 694.324V694.408C228.665 693.808 221.397 697.908 215.793 702.208C218.229 685.128 220.193 666.968 227.401 660.004H196.601C203.653 666.82 206.865 685.552 209.233 702.312C194.781 690.532 174.953 692.436 165.073 704.928C154.429 716.78 158.709 733.568 170.889 745.076L212.465 784Z" fill="black"/>
<path fill-rule="evenodd" clip-rule="evenodd" d="M418.465 784L460.565 744.572C472.453 733.56 476.157 710.832 461.009 700.4C455.769 696.488 449.105 694.312 442.409 694.324V694.408C434.665 693.808 427.397 697.908 421.793 702.208C424.229 685.128 426.193 666.968 433.401 660.004H402.601C409.653 666.82 412.865 685.552 415.233 702.312C400.781 690.532 380.953 692.436 371.073 704.928C360.429 716.78 364.709 733.568 376.889 745.076L418.465 784Z" fill="black"/>
<path fill-rule="evenodd" clip-rule="evenodd" d="M315.465 696L357.565 656.572C369.453 645.56 373.157 622.832 358.009 612.4C352.769 608.488 346.105 606.312 339.409 606.324V606.408C331.665 605.808 324.397 609.908 318.793 614.208C321.229 597.128 323.193 578.968 330.401 572.004H299.601C306.653 578.82 309.865 597.552 312.233 614.312C297.781 602.532 277.953 604.436 268.073 616.928C257.429 628.78 261.709 645.568 273.889 657.076L315.465 696Z" fill="black"/>
<path fill-rule="evenodd" clip-rule="evenodd" d="M212.465 608L254.565 568.572C266.453 557.56 270.157 534.832 255.009 524.4C249.769 520.488 243.105 518.312 236.409 518.324V518.408C228.665 517.808 221.397 521.908 215.793 526.208C218.229 509.128 220.193 490.968 227.401 484.004H196.601C203.653 490.82 206.865 509.552 209.233 526.312C194.781 514.532 174.953 516.436 165.073 528.928C154.429 540.78 158.709 557.568 170.889 569.076L212.465 608Z" fill="black"/>
<path fill-rule="evenodd" clip-rule="evenodd" d="M418.465 608L460.565 568.572C472.453 557.56 476.157 534.832 461.009 524.4C455.769 520.488 449.105 518.312 442.409 518.324V518.408C434.665 517.808 427.397 521.908 421.793 526.208C424.229 509.128 426.193 490.968 433.401 484.004H402.601C409.653 490.82 412.865 509.552 415.233 526.312C400.781 514.532 380.953 516.436 371.073 528.928C360.429 540.78 364.709 557.568 376.889 569.076L418.465 608Z" fill="black"/>
<path d="M45.5 65.375C45.5 67.9583 45.4583 70.5417 45.375 73.125C45.2917 75.7083 45.2083 78.2917 45.125 80.875C44.9583 85.125 44.875 89.375 44.875 93.625C44.875 97.7917 44.75 102 44.5 106.25C44.4167 107.667 44.3333 109.583 44.25 112C44.1667 114.333 43.8333 116.667 43.25 119C42.75 121.25 41.9167 123.25 40.75 125C39.5833 126.667 37.9583 127.5 35.875 127.5C33.875 127.5 32.25 126.833 31 125.5C29.75 124.083 28.75 122.333 28 120.25C27.3333 118.083 26.875 115.708 26.625 113.125C26.375 110.458 26.2083 107.875 26.125 105.375C26.125 102.792 26.1667 100.417 26.25 98.25C26.3333 96.0833 26.375 94.4167 26.375 93.25C26.375 87.5833 26.375 81.9167 26.375 76.25C26.4583 70.5833 26.5417 64.9167 26.625 59.25C24.9583 57.8333 23.625 56.125 22.625 54.125C21.7083 52.0417 21.25 49.9167 21.25 47.75C21.25 44.3333 22.25 41.4167 24.25 39C26.3333 36.5833 29.1667 35.375 32.75 35.375C35.8333 35.375 38.25 36.5417 40 38.875C41.75 41.2083 43 44 43.75 47.25C44.5833 50.5 45.0833 53.8333 45.25 57.25C45.4167 60.5833 45.5 63.2917 45.5 65.375ZM128.875 83.625C128.875 89.2917 128 95 126.25 100.75C124.583 106.417 122.083 111.583 118.75 116.25C115.5 120.833 111.417 124.542 106.5 127.375C101.583 130.292 95.9167 131.75 89.5 131.75C84.0833 131.75 79.2083 130.333 74.875 127.5C70.5417 124.667 66.8333 121.083 63.75 116.75C60.75 112.333 58.4167 107.542 56.75 102.375C55.1667 97.125 54.375 92.0833 54.375 87.25C54.375 83.8333 54.8333 80.25 55.75 76.5C56.6667 72.75 57.9583 69.0417 59.625 65.375C61.375 61.7083 63.4167 58.2083 65.75 54.875C68.1667 51.4583 70.8333 48.5 73.75 46C76.75 43.4167 79.9583 41.375 83.375 39.875C86.875 38.375 90.5 37.625 94.25 37.625C100.667 37.625 106.083 39 110.5 41.75C114.917 44.5 118.458 48.0833 121.125 52.5C123.875 56.8333 125.833 61.75 127 67.25C128.25 72.6667 128.875 78.125 128.875 83.625ZM110.75 83C110.75 80.9167 110.458 78.4583 109.875 75.625C109.292 72.7917 108.375 70.125 107.125 67.625C105.958 65.125 104.417 63 102.5 61.25C100.583 59.5 98.2917 58.625 95.625 58.625C92.375 58.625 89.4583 59.6667 86.875 61.75C84.375 63.75 82.25 66.25 80.5 69.25C78.75 72.25 77.375 75.4583 76.375 78.875C75.4583 82.2917 75 85.375 75 88.125C75 90.2917 75.2917 92.75 75.875 95.5C76.4583 98.25 77.375 100.875 78.625 103.375C79.875 105.792 81.4583 107.875 83.375 109.625C85.375 111.292 87.7083 112.125 90.375 112.125C93.625 112.125 96.5 111.125 99 109.125C101.583 107.042 103.708 104.542 105.375 101.625C107.125 98.625 108.458 95.4583 109.375 92.125C110.292 88.7083 110.75 85.6667 110.75 83Z" fill="black"/>
<path fill-rule="evenodd" clip-rule="evenodd" d="M95.7395 159.125L72.0583 181.303C65.3713 187.498 63.2878 200.282 71.8085 206.15C74.756 208.35 78.5045 209.575 82.271 209.568V209.521C86.627 209.858 90.7153 207.552 93.8675 205.133C92.4973 214.74 91.3925 224.956 87.338 228.873H104.663C100.696 225.039 98.8895 214.502 97.5575 205.075C105.687 211.701 116.84 210.63 122.398 203.603C128.385 196.936 125.977 187.493 119.126 181.02L95.7395 159.125Z" fill="black"/>
<path d="M584.5 814.625C584.5 812.042 584.542 809.458 584.625 806.875C584.708 804.292 584.792 801.708 584.875 799.125C585.042 794.875 585.125 790.625 585.125 786.375C585.125 782.208 585.25 778 585.5 773.75C585.583 772.333 585.667 770.417 585.75 768C585.833 765.667 586.167 763.333 586.75 761C587.25 758.75 588.083 756.75 589.25 755C590.417 753.333 592.042 752.5 594.125 752.5C596.125 752.5 597.75 753.167 599 754.5C600.25 755.917 601.25 757.667 602 759.75C602.667 761.917 603.125 764.292 603.375 766.875C603.625 769.542 603.792 772.125 603.875 774.625C603.875 777.208 603.833 779.583 603.75 781.75C603.667 783.917 603.625 785.583 603.625 786.75C603.625 792.417 603.625 798.083 603.625 803.75C603.542 809.417 603.458 815.083 603.375 820.75C605.042 822.167 606.375 823.875 607.375 825.875C608.292 827.958 608.75 830.083 608.75 832.25C608.75 835.667 607.75 838.583 605.75 841C603.667 843.417 600.833 844.625 597.25 844.625C594.167 844.625 591.75 843.458 590 841.125C588.25 838.792 587 836 586.25 832.75C585.417 829.5 584.917 826.167 584.75 822.75C584.583 819.417 584.5 816.708 584.5 814.625ZM501.125 796.375C501.125 790.708 502 785 503.75 779.25C505.417 773.583 507.917 768.417 511.25 763.75C514.5 759.167 518.583 755.458 523.5 752.625C528.417 749.708 534.083 748.25 540.5 748.25C545.917 748.25 550.792 749.667 555.125 752.5C559.458 755.333 563.167 758.917 566.25 763.25C569.25 767.667 571.583 772.458 573.25 777.625C574.833 782.875 575.625 787.917 575.625 792.75C575.625 796.167 575.167 799.75 574.25 803.5C573.333 807.25 572.042 810.958 570.375 814.625C568.625 818.292 566.583 821.792 564.25 825.125C561.833 828.542 559.167 831.5 556.25 834C553.25 836.583 550.042 838.625 546.625 840.125C543.125 841.625 539.5 842.375 535.75 842.375C529.333 842.375 523.917 841 519.5 838.25C515.083 835.5 511.542 831.917 508.875 827.5C506.125 823.167 504.167 818.25 503 812.75C501.75 807.333 501.125 801.875 501.125 796.375ZM519.25 797C519.25 799.083 519.542 801.542 520.125 804.375C520.708 807.208 521.625 809.875 522.875 812.375C524.042 814.875 525.583 817 527.5 818.75C529.417 820.5 531.708 821.375 534.375 821.375C537.625 821.375 540.542 820.333 543.125 818.25C545.625 816.25 547.75 813.75 549.5 810.75C551.25 807.75 552.625 804.542 553.625 801.125C554.542 797.708 555 794.625 555 791.875C555 789.708 554.708 787.25 554.125 784.5C553.542 781.75 552.625 779.125 551.375 776.625C550.125 774.208 548.542 772.125 546.625 770.375C544.625 768.708 542.292 767.875 539.625 767.875C536.375 767.875 533.5 768.875 531 770.875C528.417 772.958 526.292 775.458 524.625 778.375C522.875 781.375 521.542 784.542 520.625 787.875C519.708 791.292 519.25 794.333 519.25 797Z" fill="black"/>
<path fill-rule="evenodd" clip-rule="evenodd" d="M534.26 720.875L557.942 698.697C564.629 692.502 566.712 679.718 558.191 673.85C555.244 671.65 551.495 670.425 547.729 670.432V670.479C543.373 670.142 539.285 672.448 536.132 674.867C537.503 665.26 538.607 655.044 542.662 651.127H525.337C529.304 654.961 531.11 665.498 532.442 674.925C524.313 668.299 513.16 669.37 507.602 676.397C501.615 683.064 504.023 692.507 510.874 698.98L534.26 720.875Z" fill="black"/>
</svg>
