<svg width="630" height="880" viewBox="0 0 630 880" fill="none" xmlns="http://www.w3.org/2000/svg">
<rect x="2.5" y="2.5" width="625" height="875" rx="17.5" fill="white" stroke="black" stroke-width="5"/>
<path fill-rule="evenodd" clip-rule="evenodd" d="M314.535 96L272.435 135.428C260.547 146.44 256.843 169.168 271.991 179.6C277.231 183.512 283.895 185.688 290.591 185.676V185.592C298.335 186.192 305.603 182.092 311.207 177.792C308.771 194.872 306.807 213.032 299.599 219.996H330.399C323.347 213.18 320.135 194.448 317.767 177.688C332.219 189.468 352.047 187.564 361.927 175.072C372.571 163.22 368.291 146.432 356.111 134.924L314.535 96Z" fill="black"/>
<path fill-rule="evenodd" clip-rule="evenodd" d="M315.465 784L357.565 744.572C369.453 733.56 373.157 710.832 358.009 700.4C352.769 696.488 346.105 694.312 339.409 694.324V694.408C331.665 693.808 324.397 697.908 318.793 702.208C321.229 685.128 323.193 666.968 330.401 660.004H299.601C306.653 666.82 309.865 685.552 312.233 702.312C297.781 690.532 277.953 692.436 268.073 704.928C257.429 716.78 261.709 733.568 273.889 745.076L315.465 784Z" fill="black"/>
<path d="M122.375 115.5C122.375 117.917 121.583 119.875 120 121.375C118.417 122.875 116.5 123.833 114.25 124.25C111.75 124.833 108.917 125.375 105.75 125.875C102.583 126.292 99.3333 126.667 96 127C92.75 127.333 89.5417 127.583 86.375 127.75C83.2083 127.917 80.3333 128 77.75 128C77.0833 128 76.125 127.958 74.875 127.875C73.7083 127.875 72.4583 127.792 71.125 127.625C69.875 127.542 68.6667 127.375 67.5 127.125C66.4167 126.875 65.5833 126.542 65 126.125C64.4167 125.625 63.875 124.958 63.375 124.125C62.9583 123.208 62.5833 122.25 62.25 121.25C61.9167 120.167 61.6667 119.125 61.5 118.125C61.3333 117.125 61.25 116.25 61.25 115.5C61.25 114.333 61.375 113.292 61.625 112.375C61.9583 111.375 62.5417 110.458 63.375 109.625C64.375 108.542 65.4167 107.5 66.5 106.5C67.5833 105.417 68.625 104.375 69.625 103.375C70.7917 102.125 72.3333 100.5 74.25 98.5C76.1667 96.4167 78.2083 94.125 80.375 91.625C82.625 89.0417 84.8333 86.375 87 83.625C89.25 80.7917 91.2917 78.0417 93.125 75.375C94.9583 72.7083 96.4167 70.2083 97.5 67.875C98.6667 65.5417 99.25 63.5417 99.25 61.875C99.25 60.2917 98.7917 59 97.875 58C96.9583 56.9167 95.7083 56.375 94.125 56.375C92.375 56.375 90.75 57 89.25 58.25C87.75 59.5 86.25 60.875 84.75 62.375C83.25 63.7917 81.625 65.125 79.875 66.375C78.2083 67.625 76.2917 68.25 74.125 68.25C71.5417 68.25 69.5 67.5 68 66C66.5833 64.5 65.875 62.5 65.875 60C65.875 56.3333 66.6667 52.9583 68.25 49.875C69.9167 46.7083 72.0833 44 74.75 41.75C77.4167 39.5 80.4167 37.75 83.75 36.5C87.0833 35.1667 90.5 34.5 94 34.5C97.5833 34.5 100.917 34.9167 104 35.75C107.083 36.5833 109.75 37.875 112 39.625C114.25 41.375 116 43.625 117.25 46.375C118.583 49.0417 119.25 52.2917 119.25 56.125C119.25 59.125 118.708 62.2917 117.625 65.625C116.625 68.875 115.25 72.1667 113.5 75.5C111.833 78.8333 109.875 82.1667 107.625 85.5C105.458 88.75 103.208 91.875 100.875 94.875C98.5417 97.875 96.2083 100.667 93.875 103.25C91.5417 105.833 89.4167 108.083 87.5 110C91.5833 109.5 95.875 109 100.375 108.5C104.875 108 109.208 107.75 113.375 107.75C115.792 107.75 117.875 108.417 119.625 109.75C121.458 111 122.375 112.917 122.375 115.5Z" fill="black"/>
<path fill-rule="evenodd" clip-rule="evenodd" d="M95.7395 159.125L72.0583 181.303C65.3713 187.498 63.2878 200.282 71.8085 206.15C74.756 208.35 78.5045 209.575 82.271 209.568V209.521C86.627 209.858 90.7153 207.552 93.8675 205.133C92.4973 214.74 91.3925 224.956 87.338 228.873H104.663C100.696 225.039 98.8895 214.502 97.5575 205.075C105.687 211.701 116.84 210.63 122.398 203.603C128.385 196.936 125.977 187.493 119.126 181.02L95.7395 159.125Z" fill="black"/>
<path d="M507.625 764.5C507.625 762.083 508.417 760.125 510 758.625C511.583 757.125 513.5 756.167 515.75 755.75C518.25 755.167 521.083 754.625 524.25 754.125C527.417 753.708 530.667 753.333 534 753C537.25 752.667 540.458 752.417 543.625 752.25C546.792 752.083 549.667 752 552.25 752C552.917 752 553.875 752.042 555.125 752.125C556.292 752.125 557.542 752.208 558.875 752.375C560.125 752.458 561.333 752.625 562.5 752.875C563.583 753.125 564.417 753.458 565 753.875C565.583 754.375 566.125 755.042 566.625 755.875C567.042 756.792 567.417 757.75 567.75 758.75C568.083 759.833 568.333 760.875 568.5 761.875C568.667 762.875 568.75 763.75 568.75 764.5C568.75 765.667 568.625 766.708 568.375 767.625C568.042 768.625 567.458 769.542 566.625 770.375C565.625 771.458 564.583 772.5 563.5 773.5C562.417 774.583 561.375 775.625 560.375 776.625C559.208 777.875 557.667 779.5 555.75 781.5C553.833 783.583 551.792 785.875 549.625 788.375C547.375 790.958 545.167 793.625 543 796.375C540.75 799.208 538.708 801.958 536.875 804.625C535.042 807.292 533.583 809.792 532.5 812.125C531.333 814.458 530.75 816.458 530.75 818.125C530.75 819.708 531.208 821 532.125 822C533.042 823.083 534.292 823.625 535.875 823.625C537.625 823.625 539.25 823 540.75 821.75C542.25 820.5 543.75 819.125 545.25 817.625C546.75 816.208 548.375 814.875 550.125 813.625C551.792 812.375 553.708 811.75 555.875 811.75C558.458 811.75 560.5 812.5 562 814C563.417 815.5 564.125 817.5 564.125 820C564.125 823.667 563.333 827.042 561.75 830.125C560.083 833.292 557.917 836 555.25 838.25C552.583 840.5 549.583 842.25 546.25 843.5C542.917 844.833 539.5 845.5 536 845.5C532.417 845.5 529.083 845.083 526 844.25C522.917 843.417 520.25 842.125 518 840.375C515.75 838.625 514 836.375 512.75 833.625C511.417 830.958 510.75 827.708 510.75 823.875C510.75 820.875 511.292 817.708 512.375 814.375C513.375 811.125 514.75 807.833 516.5 804.5C518.167 801.167 520.125 797.833 522.375 794.5C524.542 791.25 526.792 788.125 529.125 785.125C531.458 782.125 533.792 779.333 536.125 776.75C538.458 774.167 540.583 771.917 542.5 770C538.417 770.5 534.125 771 529.625 771.5C525.125 772 520.792 772.25 516.625 772.25C514.208 772.25 512.125 771.583 510.375 770.25C508.542 769 507.625 767.083 507.625 764.5Z" fill="black"/>
<path fill-rule="evenodd" clip-rule="evenodd" d="M534.26 720.875L557.942 698.697C564.629 692.502 566.712 679.718 558.191 673.85C555.244 671.65 551.495 670.425 547.729 670.432V670.479C543.373 670.142 539.285 672.448 536.132 674.867C537.503 665.26 538.607 655.044 542.662 651.127H525.337C529.304 654.961 531.11 665.498 532.442 674.925C524.313 668.299 513.16 669.37 507.602 676.397C501.615 683.064 504.023 692.507 510.874 698.98L534.26 720.875Z" fill="black"/>
</svg>
