<svg width="630" height="880" viewBox="0 0 630 880" fill="none" xmlns="http://www.w3.org/2000/svg">
<rect x="2.5" y="2.5" width="625" height="875" rx="17.5" fill="white" stroke="black" stroke-width="5"/>
<path fill-rule="evenodd" clip-rule="evenodd" d="M211.535 96L169.435 135.428C157.547 146.44 153.843 169.168 168.991 179.6C174.231 183.512 180.895 185.688 187.591 185.676V185.592C195.335 186.192 202.603 182.092 208.207 177.792C205.771 194.872 203.807 213.032 196.599 219.996H227.399C220.347 213.18 217.135 194.448 214.767 177.688C229.219 189.468 249.047 187.564 258.927 175.072C269.571 163.22 265.291 146.432 253.111 134.924L211.535 96Z" fill="black"/>
<path fill-rule="evenodd" clip-rule="evenodd" d="M417.535 96L375.435 135.428C363.547 146.44 359.843 169.168 374.991 179.6C380.231 183.512 386.895 185.688 393.591 185.676V185.592C401.335 186.192 408.603 182.092 414.207 177.792C411.771 194.872 409.807 213.032 402.599 219.996H433.399C426.347 213.18 423.135 194.448 420.767 177.688C435.219 189.468 455.047 187.564 464.927 175.072C475.571 163.22 471.291 146.432 459.111 134.924L417.535 96Z" fill="black"/>
<path fill-rule="evenodd" clip-rule="evenodd" d="M314.535 378L272.435 417.428C260.547 428.44 256.843 451.168 271.991 461.6C277.231 465.512 283.895 467.688 290.591 467.676V467.592C298.335 468.192 305.603 464.092 311.207 459.792C308.771 476.872 306.807 495.032 299.599 501.996H330.399C323.347 495.18 320.135 476.448 317.767 459.688C332.219 471.468 352.047 469.564 361.927 457.072C372.571 445.22 368.291 428.432 356.111 416.924L314.535 378Z" fill="black"/>
<path fill-rule="evenodd" clip-rule="evenodd" d="M212.465 784L254.565 744.572C266.453 733.56 270.157 710.832 255.009 700.4C249.769 696.488 243.105 694.312 236.409 694.324V694.408C228.665 693.808 221.397 697.908 215.793 702.208C218.229 685.128 220.193 666.968 227.401 660.004H196.601C203.653 666.82 206.865 685.552 209.233 702.312C194.781 690.532 174.953 692.436 165.073 704.928C154.429 716.78 158.709 733.568 170.889 745.076L212.465 784Z" fill="black"/>
<path fill-rule="evenodd" clip-rule="evenodd" d="M418.465 784L460.565 744.572C472.453 733.56 476.157 710.832 461.009 700.4C455.769 696.488 449.105 694.312 442.409 694.324V694.408C434.665 693.808 427.397 697.908 421.793 702.208C424.229 685.128 426.193 666.968 433.401 660.004H402.601C409.653 666.82 412.865 685.552 415.233 702.312C400.781 690.532 380.953 692.436 371.073 704.928C360.429 716.78 364.709 733.568 376.889 745.076L418.465 784Z" fill="black"/>
<path d="M123.25 97.75C123.25 102.667 122.458 107.042 120.875 110.875C119.375 114.708 117.208 117.958 114.375 120.625C111.625 123.292 108.292 125.333 104.375 126.75C100.542 128.167 96.25 128.875 91.5 128.875C88.9167 128.875 86.0417 128.417 82.875 127.5C79.7917 126.583 76.875 125.25 74.125 123.5C71.375 121.75 69.0833 119.667 67.25 117.25C65.4167 114.75 64.5 112 64.5 109C64.5 106.833 65.1667 105.083 66.5 103.75C67.8333 102.417 69.5833 101.75 71.75 101.75C73.8333 101.75 75.5833 102.167 77 103C78.4167 103.833 79.7917 104.792 81.125 105.875C82.5417 106.875 84.125 107.792 85.875 108.625C87.625 109.458 89.875 109.875 92.625 109.875C95.9583 109.875 98.6667 108.708 100.75 106.375C102.833 104.042 103.875 101.25 103.875 98C103.875 94.9167 103.167 92.25 101.75 90C100.333 87.75 98 86.625 94.75 86.625C93.25 86.625 91.875 86.7917 90.625 87.125C89.4583 87.4583 88.2917 87.8333 87.125 88.25C86.0417 88.6667 84.9167 89.0833 83.75 89.5C82.6667 89.8333 81.5417 90.0833 80.375 90.25C79.4583 90.4167 78.2917 90.375 76.875 90.125C75.4583 89.7917 74 89.3333 72.5 88.75C71.0833 88.1667 69.7917 87.5 68.625 86.75C67.4583 85.9167 66.7083 85.0417 66.375 84.125C66.125 83.375 65.875 81.75 65.625 79.25C65.4583 76.75 65.2917 74.0417 65.125 71.125C65.0417 68.2083 64.9583 65.4583 64.875 62.875C64.875 60.2083 64.875 58.375 64.875 57.375C64.875 56.7083 64.875 55.625 64.875 54.125C64.875 52.625 64.9167 51.0833 65 49.5C65.1667 47.8333 65.3333 46.2917 65.5 44.875C65.6667 43.4583 65.9583 42.5 66.375 42C66.875 41.25 68.0833 40.5417 70 39.875C72 39.2083 74.2917 38.5833 76.875 38C79.5417 37.4167 82.4167 36.9167 85.5 36.5C88.5833 36 91.5 35.5833 94.25 35.25C97.0833 34.9167 99.625 34.6667 101.875 34.5C104.208 34.3333 105.875 34.25 106.875 34.25C108.042 34.25 109.25 34.4167 110.5 34.75C111.833 35 113 35.4583 114 36.125C115.083 36.7083 115.958 37.5 116.625 38.5C117.292 39.5 117.625 40.7083 117.625 42.125C117.625 44.375 116.833 46.1667 115.25 47.5C113.667 48.8333 111.917 49.8333 110 50.5C108.5 51 106.667 51.4167 104.5 51.75C102.333 52.0833 100.125 52.4167 97.875 52.75C95.625 53 93.4167 53.2083 91.25 53.375C89.1667 53.5417 87.3333 53.6667 85.75 53.75L86 71.875C87.6667 71.5417 89.3333 71.2917 91 71.125C92.6667 70.875 94.375 70.75 96.125 70.75C104.958 70.75 111.667 73.0417 116.25 77.625C120.917 82.2083 123.25 88.9167 123.25 97.75Z" fill="black"/>
<path fill-rule="evenodd" clip-rule="evenodd" d="M95.7395 159.125L72.0583 181.303C65.3713 187.498 63.2878 200.282 71.8085 206.15C74.756 208.35 78.5045 209.575 82.271 209.568V209.521C86.627 209.858 90.7153 207.552 93.8675 205.133C92.4973 214.74 91.3925 224.956 87.338 228.873H104.663C100.696 225.039 98.8895 214.502 97.5575 205.075C105.687 211.701 116.84 210.63 122.398 203.603C128.385 196.936 125.977 187.493 119.126 181.02L95.7395 159.125Z" fill="black"/>
<path d="M506.75 782.25C506.75 777.333 507.542 772.958 509.125 769.125C510.625 765.292 512.792 762.042 515.625 759.375C518.375 756.708 521.708 754.667 525.625 753.25C529.458 751.833 533.75 751.125 538.5 751.125C541.083 751.125 543.958 751.583 547.125 752.5C550.208 753.417 553.125 754.75 555.875 756.5C558.625 758.25 560.917 760.333 562.75 762.75C564.583 765.25 565.5 768 565.5 771C565.5 773.167 564.833 774.917 563.5 776.25C562.167 777.583 560.417 778.25 558.25 778.25C556.167 778.25 554.417 777.833 553 777C551.583 776.167 550.208 775.208 548.875 774.125C547.458 773.125 545.875 772.208 544.125 771.375C542.375 770.542 540.125 770.125 537.375 770.125C534.042 770.125 531.333 771.292 529.25 773.625C527.167 775.958 526.125 778.75 526.125 782C526.125 785.083 526.833 787.75 528.25 790C529.667 792.25 532 793.375 535.25 793.375C536.75 793.375 538.125 793.208 539.375 792.875C540.542 792.542 541.708 792.167 542.875 791.75C543.958 791.333 545.083 790.917 546.25 790.5C547.333 790.167 548.458 789.917 549.625 789.75C550.542 789.583 551.708 789.625 553.125 789.875C554.542 790.208 556 790.667 557.5 791.25C558.917 791.833 560.208 792.5 561.375 793.25C562.542 794.083 563.292 794.958 563.625 795.875C563.875 796.625 564.125 798.25 564.375 800.75C564.542 803.25 564.708 805.958 564.875 808.875C564.958 811.792 565.042 814.542 565.125 817.125C565.125 819.792 565.125 821.625 565.125 822.625C565.125 823.292 565.125 824.375 565.125 825.875C565.125 827.375 565.083 828.917 565 830.5C564.833 832.167 564.667 833.708 564.5 835.125C564.333 836.542 564.042 837.5 563.625 838C563.125 838.75 561.917 839.458 560 840.125C558 840.792 555.708 841.417 553.125 842C550.458 842.583 547.583 843.083 544.5 843.5C541.417 844 538.5 844.417 535.75 844.75C532.917 845.083 530.375 845.333 528.125 845.5C525.792 845.667 524.125 845.75 523.125 845.75C521.958 845.75 520.75 845.583 519.5 845.25C518.167 845 517 844.542 516 843.875C514.917 843.292 514.042 842.5 513.375 841.5C512.708 840.5 512.375 839.292 512.375 837.875C512.375 835.625 513.167 833.833 514.75 832.5C516.333 831.167 518.083 830.167 520 829.5C521.5 829 523.333 828.583 525.5 828.25C527.667 827.917 529.875 827.583 532.125 827.25C534.375 827 536.583 826.792 538.75 826.625C540.833 826.458 542.667 826.333 544.25 826.25L544 808.125C542.333 808.458 540.667 808.708 539 808.875C537.333 809.125 535.625 809.25 533.875 809.25C525.042 809.25 518.333 806.958 513.75 802.375C509.083 797.792 506.75 791.083 506.75 782.25Z" fill="black"/>
<path fill-rule="evenodd" clip-rule="evenodd" d="M534.26 720.875L557.942 698.697C564.629 692.502 566.712 679.718 558.191 673.85C555.244 671.65 551.495 670.425 547.729 670.432V670.479C543.373 670.142 539.285 672.448 536.132 674.867C537.503 665.26 538.607 655.044 542.662 651.127H525.337C529.304 654.961 531.11 665.498 532.442 674.925C524.313 668.299 513.16 669.37 507.602 676.397C501.615 683.064 504.023 692.507 510.874 698.98L534.26 720.875Z" fill="black"/>
</svg>
