<svg width="257" height="257" viewBox="0 0 257 257" fill="none" xmlns="http://www.w3.org/2000/svg">
<circle cx="128.691" cy="128.688" r="128" fill="#202020"/>
<path d="M246.691 128.688C246.691 141.169 244.711 153.571 240.825 165.431L128.691 128.688H246.691Z" fill="#FF3D31"/>
<path d="M224.142 198.066C216.804 208.162 207.91 217.029 197.794 224.338L128.691 128.688L224.142 198.066Z" fill="#FF3D31"/>
<path d="M165.108 240.928C153.237 244.78 140.829 246.724 128.349 246.688L128.691 128.688L165.108 240.928Z" fill="#FF3D31"/>
<path d="M92.2107 240.908C80.3413 237.049 69.1592 231.332 59.0814 223.969L128.691 128.688L92.2107 240.908Z" fill="#FF3D31"/>
<path d="M33.1853 197.989C25.8553 187.887 20.1744 176.687 16.3544 164.805L128.691 128.688L33.1853 197.989Z" fill="#FF3D31"/>
<path d="M10.6914 128.688C10.6914 116.208 12.6715 103.806 16.5578 91.9453L128.691 128.688L10.6914 128.688Z" fill="#FF3D31"/>
<path d="M33.1729 59.4049C40.501 49.302 49.3854 40.4257 59.495 33.1068L128.691 128.688L33.1729 59.4049Z" fill="#FF3D31"/>
<path d="M92.1685 16.483C104.036 12.62 116.442 10.6642 128.923 10.6887L128.691 128.688L92.1685 16.483Z" fill="#FF3D31"/>
<path d="M165.126 16.4543C176.997 20.3079 188.181 26.0205 198.262 33.3789L128.691 128.688L165.126 16.4543Z" fill="#FF3D31"/>
<path d="M224.127 59.2903C231.467 69.3844 237.159 80.5791 240.991 92.4569L128.691 128.688L224.127 59.2903Z" fill="#FF3D31"/>
<path d="M240.912 92.2247C244.769 104.095 246.718 116.501 246.687 128.982L128.688 128.689L240.912 92.2247Z" fill="#EAEAEA"/>
<path d="M240.905 165.175C237.046 177.044 231.328 188.226 223.965 198.303L128.688 128.689L240.905 165.175Z" fill="#EAEAEA"/>
<path d="M198.006 224.182C187.906 231.514 176.706 237.197 164.825 241.019L128.688 128.689L198.006 224.182Z" fill="#EAEAEA"/>
<path d="M128.67 246.689C116.189 246.687 103.788 244.705 91.9279 240.817L128.688 128.689L128.67 246.689Z" fill="#EAEAEA"/>
<path d="M59.2708 224.111C49.178 216.768 40.314 207.871 33.0092 197.751L128.688 128.689L59.2708 224.111Z" fill="#EAEAEA"/>
<path d="M16.4628 165.153C12.606 153.283 10.6568 140.876 10.6879 128.395L128.688 128.689L16.4628 165.153Z" fill="#EAEAEA"/>
<path d="M16.4342 92.313C20.2816 80.44 25.9883 69.2527 33.3414 59.168L128.688 128.689L16.4342 92.313Z" fill="#EAEAEA"/>
<path d="M59.2788 33.2611C69.372 25.9198 80.5661 20.2263 92.4435 16.3928L128.688 128.689L59.2788 33.2611Z" fill="#EAEAEA"/>
<path d="M128.657 10.6887C141.137 10.6855 153.54 12.6623 165.401 16.5454L128.688 128.689L128.657 10.6887Z" fill="#EAEAEA"/>
<path d="M198.007 33.196C208.107 40.5278 216.98 49.4156 224.295 59.5279L128.688 128.689L198.007 33.196Z" fill="#EAEAEA"/>
<circle cx="128.691" cy="128.688" r="96" fill="#FF3D31"/>
<circle cx="128.691" cy="128.688" r="86" fill="#202020"/>
<circle cx="128.691" cy="128.688" r="76" fill="#EAEAEA"/>
<path d="M132.759 172.688H78.7429V161.168L109.207 121.872C111.084 119.483 112.578 117.435 113.687 115.728C114.882 114.022 115.778 112.486 116.375 111.12C117.058 109.67 117.484 108.347 117.655 107.152C117.911 105.958 118.039 104.72 118.039 103.44C118.039 98.9178 117.015 95.2911 114.967 92.5605C113.004 89.7445 109.804 88.3365 105.367 88.3365C102.807 88.3365 100.674 88.8058 98.9669 89.7445C97.2602 90.6831 95.8949 91.9631 94.8709 93.5845C93.8469 95.1205 93.0789 96.9978 92.5669 99.2165C92.1402 101.35 91.9269 103.654 91.9269 106.128H79.1269C79.1269 102.288 79.5536 98.7045 80.4069 95.3765C81.2602 92.0485 82.7109 89.1898 84.7589 86.8005C86.8069 84.4111 89.4949 82.5338 92.8229 81.1685C96.1509 79.8031 100.29 79.1205 105.239 79.1205C109.932 79.1205 113.943 79.7605 117.271 81.0405C120.599 82.2351 123.287 83.8991 125.335 86.0325C127.468 88.1658 129.004 90.6831 129.943 93.5845C130.882 96.4858 131.351 99.6005 131.351 102.928C131.351 104.123 131.266 105.403 131.095 106.768C130.924 108.048 130.498 109.584 129.815 111.376C129.132 113.083 128.108 115.088 126.743 117.392C125.463 119.611 123.671 122.214 121.367 125.2L92.8229 163.088H120.087L122.647 147.728H132.759V172.688ZM168.968 162.448L180.872 165.008V172.688H143.112V165.008L156.296 162.448V91.9205L142.6 92.9445V84.1125L168.968 80.5285V162.448Z" fill="black"/>
</svg>
