<svg width="281" height="285" viewBox="0 0 281 285" fill="none" xmlns="http://www.w3.org/2000/svg">
<rect x="1.83219" y="32.9046" width="181.494" height="253.787" rx="5.07573" transform="rotate(-10 1.83219 32.9046)" fill="white" stroke="black" stroke-width="1.45021"/>
<path d="M36.7196 49.8918L36.877 50.7844C37.0085 51.6693 37.1267 52.6179 37.2316 53.6302C37.3364 54.6425 37.3916 55.6514 37.3971 56.6567C37.4025 57.662 37.3184 58.6462 37.1446 59.6095C36.9667 60.549 36.6529 61.4142 36.2034 62.2052C35.7538 62.9963 35.1482 63.6675 34.3864 64.2191C33.6246 64.7706 32.6487 65.1513 31.4585 65.3612C30.1732 65.5878 28.9943 65.5135 27.9218 65.1381C26.8732 64.7585 25.9499 64.185 25.1519 63.4176C24.3497 62.6264 23.6974 61.7107 23.1949 60.6703C22.6882 59.6061 22.3341 58.5027 22.1326 57.3602C22.0445 56.8603 22.0054 56.2905 22.0153 55.6506C22.0013 55.015 22.0791 54.4122 22.2486 53.8424C22.4139 53.2487 22.6674 52.7377 23.0091 52.3093C23.3704 51.8529 23.8724 51.5681 24.5151 51.4547C25.2054 51.333 25.7507 51.4332 26.1511 51.7553C26.5753 52.0732 26.9092 52.5052 27.1527 53.0513C27.4159 53.5694 27.63 54.1574 27.7951 54.8155C27.9561 55.4498 28.1226 56.0463 28.2948 56.605C28.4627 57.1399 28.6636 57.583 28.8973 57.9345C29.1549 58.2818 29.4979 58.4176 29.9264 58.3421C30.4262 58.2539 30.7812 57.9705 30.9913 57.4917C31.2014 57.0128 31.3156 56.4773 31.3339 55.885C31.3717 55.2648 31.3501 54.655 31.269 54.0557C31.2117 53.4523 31.1536 52.9839 31.0949 52.6507C30.8598 51.3177 30.5121 50.0414 30.0516 48.8219C29.6107 47.5743 29.1083 46.3253 28.5442 45.0749C28.26 44.4378 27.9619 43.7909 27.6498 43.1342C27.3376 42.4774 27.1207 41.8039 26.999 41.1137C26.8563 40.3044 26.9551 39.612 27.2954 39.0366C27.6315 38.4374 28.2161 38.0643 29.0492 37.9174C29.6681 37.8083 30.1791 37.8532 30.5824 38.0521C30.9814 38.2271 31.4014 38.5212 31.8424 38.9343C32.5199 39.5757 33.1212 40.3409 33.6461 41.2301C34.1949 42.1151 34.6666 43.0504 35.0613 44.0362C35.456 45.0219 35.7933 46.0301 36.0732 47.0606C36.3488 48.0674 36.5643 49.0111 36.7196 49.8918Z" fill="#E20000"/>
<g clip-path="url(#clip0_247_231)">
<path d="M32.1593 73.9877C33.8319 73.5267 35.676 74.633 36.9035 75.5533C38.3159 72.1496 42.7589 71.3445 45.2654 74.0211C47.6121 76.2478 47.4903 80.0067 45.7595 82.8758L39.8369 92.5918L30.8373 85.3979C28.2988 83.3907 26.7744 78.5974 29.0751 75.8669C29.8714 74.8497 30.9561 74.1821 32.1568 73.9701L32.1593 73.9877Z" fill="#E20000"/>
</g>
<path d="M189.733 234.334L189.576 233.442C189.445 232.557 189.326 231.608 189.222 230.596C189.117 229.584 189.062 228.575 189.056 227.569C189.051 226.564 189.135 225.58 189.309 224.617C189.486 223.677 189.8 222.812 190.25 222.021C190.699 221.23 191.305 220.559 192.067 220.007C192.828 219.455 193.804 219.075 194.995 218.865C196.28 218.638 197.459 218.713 198.531 219.088C199.58 219.468 200.503 220.041 201.301 220.808C202.103 221.6 202.756 222.515 203.258 223.556C203.765 224.62 204.119 225.723 204.32 226.866C204.409 227.366 204.448 227.936 204.438 228.575C204.452 229.211 204.374 229.814 204.204 230.384C204.039 230.977 203.786 231.488 203.444 231.917C203.083 232.373 202.581 232.658 201.938 232.771C201.248 232.893 200.702 232.793 200.302 232.471C199.878 232.153 199.544 231.721 199.3 231.175C199.037 230.657 198.823 230.069 198.658 229.411C198.497 228.776 198.331 228.18 198.158 227.621C197.99 227.086 197.79 226.643 197.556 226.292C197.298 225.944 196.955 225.808 196.527 225.884C196.027 225.972 195.672 226.256 195.462 226.734C195.252 227.213 195.138 227.749 195.119 228.341C195.081 228.961 195.103 229.571 195.184 230.17C195.241 230.774 195.299 231.242 195.358 231.575C195.593 232.908 195.941 234.185 196.402 235.404C196.842 236.652 197.345 237.901 197.909 239.151C198.193 239.788 198.491 240.435 198.803 241.092C199.116 241.749 199.332 242.422 199.454 243.112C199.597 243.922 199.498 244.614 199.158 245.189C198.822 245.789 198.237 246.162 197.404 246.309C196.785 246.418 196.274 246.373 195.871 246.174C195.472 245.999 195.052 245.705 194.611 245.292C193.933 244.65 193.332 243.885 192.807 242.996C192.258 242.111 191.787 241.176 191.392 240.19C190.997 239.204 190.66 238.196 190.38 237.165C190.104 236.159 189.889 235.215 189.733 234.334Z" fill="#E20000"/>
<g clip-path="url(#clip1_247_231)">
<path d="M185.606 211.771C187.336 211.632 188.69 209.962 189.529 208.678C192.02 211.393 196.471 210.63 197.91 207.257C199.354 204.362 197.954 200.872 195.346 198.768L186.458 191.663L180.461 201.501C178.763 204.256 178.97 209.281 182.065 211.06C183.162 211.744 184.409 212 185.61 211.789L185.606 211.771Z" fill="#E20000"/>
</g>
<path d="M116.392 73.1358C110.095 75.139 110.173 79.2077 102.359 80.5855C94.5449 81.9633 93.1026 78.1352 86.6244 78.3845L86.6025 78.2609C87.8004 75.6258 90.2891 73.7836 90.2891 73.7836C92.4057 72.007 95.5581 70.303 100.395 69.4501C111.558 67.4818 116.392 73.1358 116.392 73.1358Z" fill="#E20000"/>
<path d="M116.516 73.1137C118.456 72.5163 121.331 72.1371 121.331 72.1371C127.248 71.604 130.515 73.452 131.082 76.6688C131.737 80.3806 123.014 88.9351 123.014 88.9351C123.014 88.9351 119.77 85.042 114.809 85.9168C109.847 86.7916 110.066 88.0288 103.864 89.1223C97.6625 90.2158 97.4444 88.9786 93.7235 89.6347C88.7623 90.5095 85.805 95.4961 85.805 95.4961C85.805 95.4961 74.6828 90.4407 74.0283 86.7289C73.3738 83.0171 76.6584 79.8864 84.1002 78.5742C84.9683 78.4211 85.8367 78.268 86.6026 78.2605C93.0809 78.0112 94.6472 81.8174 102.337 80.4614C110.173 79.2075 110.095 75.1388 116.516 73.1137Z" fill="#E20000"/>
<path d="M106.257 142.097C107.815 142.23 108.986 141.616 109.59 140.693C110.397 141.639 111.505 142.123 113.118 141.838L77.1466 148.181L77.4571 142.689C77.7676 137.197 82.4968 135.004 87.4582 134.129L90.4352 133.604L90.4119 133.473C90.8073 133.539 91.0554 133.495 91.4508 133.561C91.536 134.77 91.8692 135.934 93.218 137.056C94.5435 138.045 95.8304 138.09 96.9002 137.63C97.2334 138.794 97.9388 139.893 99.4426 140.444C100.946 140.994 102.164 140.644 103.086 140.073C103.645 141.062 104.551 141.854 106.257 142.097ZM125.491 135.851C126.716 134.819 126.979 133.413 126.917 132.337C128.057 132.272 129.274 131.921 130.181 130.538C131.088 129.155 130.98 127.815 130.647 126.65C130.895 126.606 131.143 126.562 131.368 126.387L134.717 125.796C139.678 124.922 144.872 125.365 147.042 130.42L149.213 135.474L113.242 141.817C114.854 141.532 115.707 140.566 116.165 139.534C117.172 140.172 118.358 140.371 119.901 139.691C121.32 139.033 121.878 137.847 122.188 136.705C123.002 136.969 124.266 136.882 125.491 135.851Z" fill="#E20000"/>
<path d="M117.769 121.5C115.988 123.728 113.543 125.817 110.442 126.364C107.341 126.911 104.329 125.783 101.893 124.299L102.346 123.964C102.346 123.964 107.089 121.852 109.133 118.94C112.05 120.977 117.229 121.34 117.229 121.34L117.769 121.5Z" fill="#AE938D"/>
<path d="M130.589 126.766C130.91 127.857 131.004 129.117 130.084 130.427C129.164 131.737 127.945 132.08 126.807 132.153C126.88 133.288 126.58 134.489 125.347 135.472C124.113 136.455 122.851 136.55 121.771 136.23C121.574 137.286 121.004 138.406 119.457 139.062C118.034 139.696 116.853 139.521 115.73 138.954C115.262 139.929 114.401 140.847 112.788 141.131C111.176 141.415 110.053 140.848 109.28 140.091C108.543 140.987 107.492 141.555 105.814 141.468C104.26 141.359 103.341 140.5 102.795 139.576C101.89 140.246 100.671 140.589 99.176 140.087C97.6808 139.585 96.9883 138.559 96.668 137.467C95.5735 137.788 94.3115 137.883 92.9989 136.966C91.6863 136.049 91.3441 134.834 91.2718 133.699C90.8997 133.764 90.6297 133.684 90.2358 133.626C89.448 133.51 88.6166 133.146 87.8218 132.266C86.5241 130.708 86.7585 129.136 87.2845 127.768L96.0793 120.349L96.3056 120.181C97.2679 121.287 99.2294 122.983 101.519 124.365C103.955 125.849 106.967 126.976 110.068 126.429C113.169 125.883 115.614 123.793 117.395 121.565C119.074 119.483 120.192 117.118 120.842 115.727L121.257 115.909L131.935 119.894C132.876 120.877 133.78 122.376 132.969 124.305C132.545 125.528 131.764 126.176 130.94 126.576C131.064 126.554 130.837 126.722 130.589 126.766Z" fill="#ECF4F7"/>
<path d="M109.124 118.942C107.079 121.854 102.336 123.966 102.336 123.966L101.884 124.301C99.594 122.918 97.7347 121.077 96.6701 120.117C96.5243 120.015 96.5243 120.015 96.5025 119.891C93.3673 116.617 88.3374 109.849 88.3374 109.849C86.9731 110.09 85.6604 109.173 85.4205 107.812L84.5478 102.863C84.3078 101.502 85.2277 100.192 86.5921 99.9513L85.8722 95.8683L85.8067 95.4971C85.8067 95.4971 88.764 90.5105 93.7252 89.6357C97.4461 88.9796 97.6642 90.2168 103.866 89.1233C110.067 88.0298 109.849 86.7926 114.81 85.9178C119.771 85.0431 123.016 88.9361 123.016 88.9361L123.081 89.3073L123.779 93.2666C125.144 93.0261 126.456 93.9428 126.696 95.3038L127.569 100.253C127.809 101.614 126.889 102.924 125.525 103.165C125.525 103.165 123.113 111.245 121.287 115.394L121.184 115.539C120.658 116.908 119.395 119.172 117.738 121.378L117.198 121.218C117.22 121.341 112.041 120.979 109.124 118.942Z" fill="#FFD0A1"/>
<path d="M149.131 135.488C148.883 135.532 148.591 135.328 148.423 135.102L146.31 130.372C144.642 126.711 140.842 125.468 134.764 126.539C134.392 126.605 134.1 126.401 134.035 126.03C133.97 125.659 134.174 125.368 134.546 125.302C141.244 124.121 145.605 125.648 147.507 129.906L149.62 134.636C149.809 134.985 149.605 135.277 149.255 135.466L149.131 135.488ZM77.1932 148.172L77.0693 148.194C76.6754 148.136 76.5077 147.91 76.4423 147.539L76.8099 142.372C77.1408 137.721 80.7171 134.794 87.4147 133.613C87.7868 133.547 88.0785 133.751 88.144 134.122C88.2094 134.493 88.005 134.784 87.6329 134.85C81.4313 135.943 78.4098 138.39 78.0939 142.4L77.7263 147.568C77.6458 147.837 77.4414 148.129 77.1932 148.172ZM113.162 141.83C111.798 142.071 110.594 141.773 109.573 141.059C108.566 141.875 107.493 142.319 106.063 142.189C104.634 142.058 103.635 141.469 102.818 140.464C101.643 141.054 100.505 141.128 99.1339 140.604C97.7627 140.08 96.9898 139.324 96.3996 138.152C95.1593 138.37 93.9776 138.196 92.8108 137.381C91.6439 136.566 91.0755 135.518 90.8574 134.281C89.5735 134.252 88.4503 133.685 87.6119 132.557C85.979 130.549 86.4177 128.685 86.9655 127.44C86.9437 127.317 87.0677 127.295 87.17 127.149L92.7389 122.468C92.9652 122.3 93.3373 122.235 93.6507 122.562C93.8183 122.788 93.8837 123.159 93.5553 123.472L88.0887 128.008C87.4605 129.522 87.6569 130.635 88.4951 131.763C89.1657 132.666 89.9971 133.029 91.1352 132.956L95.1134 128.683C95.3179 128.391 95.7118 128.45 96.0034 128.653C96.2951 128.857 96.2365 129.25 96.0321 129.541L92.0539 133.815C92.1045 134.826 92.6293 135.627 93.5043 136.238C94.3794 136.849 95.313 137.067 96.2835 136.769L98.9491 131.578C99.1536 131.287 99.5038 131.098 99.7955 131.302C100.087 131.505 100.277 131.855 100.072 132.146L97.4066 137.336C97.7051 138.304 98.3322 138.959 99.4334 139.402C100.513 139.722 101.403 139.693 102.33 139.147L103.624 133.433C103.683 133.04 104.033 132.851 104.427 132.909C104.821 132.967 105.01 133.316 104.952 133.709L103.657 139.423C104.204 140.347 105.035 140.711 106.093 140.907C107.129 140.98 108.099 140.681 108.734 139.931L108.475 134.109C108.41 133.737 108.738 133.424 109.132 133.483C109.504 133.417 109.818 133.744 109.759 134.137L110.018 139.96C110.791 140.717 111.725 140.935 112.841 140.738C113.957 140.541 114.636 140.039 115.228 139.042L113.48 133.481C113.414 133.11 113.619 132.819 113.845 132.651C114.217 132.586 114.509 132.79 114.676 133.015L116.424 138.575C117.401 139.041 118.292 139.011 119.24 138.589C120.189 138.167 120.824 137.417 121.145 136.339L117.975 131.413C117.785 131.064 117.866 130.794 118.194 130.481C118.544 130.292 118.814 130.372 119.128 130.699L122.298 135.626C123.356 135.822 124.202 135.545 125.107 134.875C126.012 134.206 126.378 133.376 126.305 132.24L122.025 128.275C121.734 128.071 121.792 127.678 121.997 127.387C122.201 127.096 122.595 127.154 122.887 127.358L127.167 131.323C128.181 131.272 128.983 130.747 129.597 129.874C130.21 129 130.429 128.069 130.131 127.101L124.931 124.446C124.639 124.242 124.45 123.892 124.654 123.601C124.859 123.31 125.209 123.121 125.5 123.325L130.7 125.98C131.671 125.681 132.328 125.055 132.773 123.956C133.299 122.587 132.979 121.496 131.871 120.288L125.183 117.895C124.913 117.815 124.724 117.466 124.782 117.073C124.863 116.804 125.213 116.614 125.607 116.672L132.441 119.167C132.565 119.145 132.587 119.269 132.733 119.371C134.155 120.906 134.584 122.616 133.999 124.378C133.473 125.746 132.714 126.518 131.539 127.108C131.758 128.345 131.582 129.524 130.764 130.689C129.946 131.854 128.896 132.422 127.655 132.641C127.625 133.922 127.056 135.043 125.925 135.88C124.815 136.841 123.721 137.162 122.415 137.009C121.991 138.232 121.254 139.128 119.955 139.739C118.656 140.351 117.518 140.424 116.271 139.879C115.555 140.898 114.526 141.589 113.162 141.83ZM110.544 126.983C104.467 128.054 98.8956 123.296 96.074 120.349C93.2525 117.402 89.0828 111.886 88.0768 110.533C86.5448 110.548 85.0864 109.529 84.8028 107.921L83.9301 102.971C83.6247 101.239 84.7491 99.6377 86.4854 99.3315C86.8575 99.2659 87.1492 99.4697 87.2147 99.8409C87.2801 100.212 87.0757 100.503 86.7036 100.569C85.7113 100.744 84.9958 101.763 85.1704 102.753L86.043 107.702C86.2176 108.692 87.2384 109.405 88.2307 109.23C88.4788 109.186 88.7486 109.266 88.7922 109.513C88.8141 109.637 93.8221 116.281 96.9355 119.432C98.1677 120.618 99.8592 122.233 101.879 123.535C102.003 123.514 101.981 123.39 102.106 123.368C102.106 123.368 106.725 121.278 108.667 118.511C108.871 118.22 109.243 118.155 109.535 118.358C112.306 120.294 117.237 120.7 117.361 120.678C117.485 120.656 117.507 120.78 117.631 120.758C119.084 118.843 120.121 116.747 120.873 115.211C122.721 111.185 125.009 103.127 125.133 103.106C125.213 102.836 125.44 102.669 125.564 102.647C126.556 102.472 127.271 101.453 127.097 100.463L126.224 95.5138C126.05 94.524 125.029 93.811 124.036 93.986C123.664 94.0516 123.373 93.8478 123.307 93.4766C123.242 93.1055 123.446 92.8142 123.818 92.7486C125.555 92.4424 127.159 93.5629 127.464 95.295L128.337 100.244C128.621 101.852 127.599 103.308 126.154 103.818C125.671 105.434 123.64 112.044 121.996 115.778C120.229 119.534 116.621 125.911 110.544 126.983ZM103.17 124.328C105.416 125.463 107.845 126.183 110.326 125.746C112.806 125.308 114.967 123.779 116.565 121.966C115.26 121.814 111.714 121.291 109.279 119.807C107.497 122.034 104.345 123.738 103.17 124.328ZM109.821 115.629L107.34 116.066C106.968 116.132 106.676 115.928 106.611 115.557C106.545 115.186 106.75 114.894 107.122 114.829L109.603 114.391C109.975 114.326 110.266 114.529 110.332 114.901C110.397 115.272 110.193 115.563 109.821 115.629ZM116.826 111.842C116.578 111.886 110.997 112.87 107.555 110.032C105.27 113.752 99.7101 114.86 99.4621 114.904C99.09 114.969 98.7983 114.765 98.7328 114.394C98.6674 114.023 98.8719 113.732 99.2439 113.666C99.2439 113.666 104.949 112.66 106.717 108.904L106.106 105.44C106.041 105.069 106.245 104.777 106.617 104.712C106.989 104.646 107.281 104.85 107.346 105.221L107.957 108.685C110.881 111.487 116.608 110.604 116.608 110.604C116.98 110.539 117.272 110.743 117.338 111.114C117.403 111.485 117.198 111.776 116.826 111.842ZM113.404 99.6879C113.032 99.7535 112.74 99.5498 112.675 99.1786L112.566 98.5599L110.705 98.888C110.333 98.9536 110.042 98.7498 109.976 98.3786C109.911 98.0075 110.115 97.7162 110.487 97.6506L115.448 96.7758C115.821 96.7102 116.112 96.914 116.178 97.2851C116.243 97.6563 116.039 97.9476 115.667 98.0132L113.806 98.3412L113.915 98.9599C113.981 99.3311 113.776 99.6223 113.404 99.6879ZM98.5207 102.312C98.1486 102.378 97.8569 102.174 97.7915 101.803L97.6824 101.184L95.8219 101.512C95.4498 101.578 95.1581 101.374 95.0926 101.003C95.0272 100.632 95.2316 100.341 95.6037 100.275L100.565 99.4002C100.937 99.3346 101.229 99.5383 101.294 99.9095C101.36 100.281 101.155 100.572 100.783 100.638L98.9226 100.966L99.0317 101.584C99.0973 101.955 98.8928 102.247 98.5207 102.312ZM85.94 96.2383C85.816 96.2601 85.6919 96.282 85.5461 96.1802C84.4229 95.6128 74.1321 90.9211 73.434 86.9618C72.6704 82.6313 76.5752 79.3914 84.017 78.0792C88.4821 77.2919 91.0786 78.2374 93.4053 79.1028C95.732 79.9683 98.0368 80.71 102.254 79.9664C106.471 79.2229 108.259 77.7594 110.149 76.1504C111.485 75.0219 112.945 73.8714 115.214 72.961C113.566 71.5932 108.819 68.6031 100.509 70.0684C96.5396 70.7682 93.2195 72.2466 90.7527 74.2125C90.5264 74.3799 90.1543 74.4455 89.8409 74.118C89.6733 73.8924 89.6078 73.5212 89.9363 73.2082C92.6073 70.9512 96.1755 69.4291 100.268 68.7074C111.679 66.6953 116.659 72.4511 116.826 72.6768C116.972 72.7786 117.016 73.0261 116.935 73.2954C116.855 73.5648 116.753 73.7104 116.505 73.7541C113.841 74.6064 112.382 75.7568 110.82 77.0528C108.93 78.6618 106.813 80.4384 102.348 81.2257C97.8829 82.013 95.2863 81.0675 92.9596 80.202C90.6329 79.3366 88.3282 78.5948 84.1111 79.3384C77.4134 80.5194 73.9176 83.1769 74.5503 86.7651C75.0084 89.3633 82.2285 93.3208 85.4302 94.7974C86.3502 93.487 89.1754 89.9271 93.5165 89.1617C95.2529 88.8555 96.2887 88.928 97.3246 89.0004C98.7544 89.131 100.184 89.2617 103.657 88.6493C106.882 88.0807 108.305 87.447 109.75 86.9371C111.07 86.449 112.245 85.8592 114.602 85.4436C118.819 84.7001 121.801 87.1084 122.887 88.1926C125.493 85.5643 130.822 79.5218 130.364 76.9235C129.818 73.8304 126.617 72.3537 121.218 72.9229C120.846 72.9885 120.532 72.661 120.489 72.4135C120.423 72.0424 120.752 71.7292 121 71.6855C127.04 71.1306 130.826 73.0147 131.48 76.7265C132.178 80.6858 124.113 88.6143 123.251 89.5316C123.149 89.6771 122.901 89.7209 122.777 89.7427C122.653 89.7646 122.383 89.6847 122.361 89.5609C122.361 89.5609 119.307 86.0171 114.718 86.8263C112.485 87.2199 111.288 87.6861 110.092 88.1522C108.669 88.7858 107.122 89.4413 103.773 90.0318C100.176 90.666 98.6223 90.5572 97.1926 90.4266C96.1567 90.3541 95.2449 90.2598 93.6325 90.5441C89.0435 91.3533 86.1665 96.0705 86.1665 96.0705C86.2903 96.049 86.064 96.2164 85.94 96.2383Z" fill="#51565F"/>
<path d="M110.066 211.09C116.362 209.087 116.284 205.018 124.098 203.641C131.912 202.263 133.354 206.091 139.833 205.842L139.854 205.965C138.657 208.6 136.168 210.442 136.168 210.442C134.051 212.219 130.899 213.923 126.062 214.776C114.899 216.744 110.066 211.09 110.066 211.09Z" fill="#E20000"/>
<path d="M109.941 211.112C108.001 211.71 105.126 212.089 105.126 212.089C99.2094 212.622 95.9422 210.774 95.375 207.557C94.7205 203.845 103.443 195.291 103.443 195.291C103.443 195.291 106.687 199.184 111.648 198.309C116.61 197.434 116.391 196.197 122.593 195.104C128.795 194.01 129.013 195.247 132.734 194.591C137.695 193.717 140.652 188.73 140.652 188.73C140.652 188.73 151.774 193.785 152.429 197.497C153.083 201.209 149.799 204.34 142.357 205.652C141.489 205.805 140.62 205.958 139.854 205.966C133.376 206.215 131.81 202.409 124.12 203.765C116.284 205.019 116.362 209.087 109.941 211.112Z" fill="#E20000"/>
<path d="M120.208 142.129C118.65 141.996 117.479 142.61 116.874 143.532C116.068 142.587 114.96 142.103 113.347 142.387L149.318 136.045L149.008 141.537C148.697 147.028 143.968 149.222 139.007 150.097L136.03 150.622L136.053 150.753C135.658 150.687 135.409 150.731 135.014 150.665C134.929 149.456 134.596 148.292 133.247 147.17C131.921 146.181 130.634 146.136 129.565 146.596C129.231 145.431 128.526 144.333 127.022 143.782C125.518 143.232 124.301 143.582 123.379 144.153C122.82 143.164 121.913 142.372 120.208 142.129ZM100.974 148.375C99.7491 149.407 99.4854 150.812 99.5474 151.889C98.4078 151.954 97.1907 152.304 96.2836 153.688C95.3765 155.071 95.4849 156.411 95.8181 157.576C95.57 157.62 95.322 157.663 95.0971 157.839L91.7481 158.429C86.7866 159.304 81.5926 158.861 79.4224 153.806L77.2523 148.752L113.223 142.409C111.611 142.693 110.758 143.659 110.3 144.692C109.293 144.054 108.107 143.855 106.564 144.535C105.145 145.193 104.587 146.379 104.277 147.521C103.463 147.257 102.199 147.344 100.974 148.375Z" fill="#E20000"/>
<path d="M108.696 162.726C110.477 160.498 112.922 158.409 116.023 157.862C119.123 157.315 122.136 158.443 124.571 159.927L124.119 160.262C124.119 160.262 119.376 162.374 117.332 165.286C114.415 163.248 109.235 162.886 109.235 162.886L108.696 162.726Z" fill="#AE938D"/>
<path d="M95.8756 157.46C95.5553 156.368 95.4611 155.109 96.381 153.799C97.3009 152.488 98.5194 152.146 99.6574 152.073C99.5851 150.937 99.8849 149.736 101.118 148.753C102.352 147.771 103.614 147.675 104.693 147.996C104.891 146.94 105.461 145.819 107.007 145.164C108.43 144.53 109.612 144.704 110.735 145.272C111.203 144.296 112.064 143.379 113.677 143.095C115.289 142.81 116.412 143.378 117.185 144.135C117.922 143.239 118.973 142.671 120.651 142.758C122.205 142.867 123.123 143.725 123.67 144.649C124.575 143.98 125.794 143.637 127.289 144.139C128.784 144.641 129.477 145.667 129.797 146.758C130.891 146.438 132.153 146.343 133.466 147.26C134.779 148.176 135.121 149.392 135.193 150.527C135.565 150.461 135.835 150.541 136.229 150.6C137.017 150.716 137.848 151.08 138.643 151.96C139.941 153.517 139.706 155.09 139.18 156.458L130.386 163.877L130.159 164.044C129.197 162.938 127.235 161.243 124.945 159.861C122.51 158.377 119.497 157.25 116.397 157.796C113.296 158.343 110.851 160.433 109.07 162.66C107.391 164.742 106.273 167.108 105.623 168.499L105.207 168.317L94.5295 164.331C93.589 163.349 92.6852 161.85 93.496 159.921C93.9199 158.698 94.7008 158.05 95.5253 157.649C95.4012 157.671 95.6275 157.504 95.8756 157.46Z" fill="#ECF4F7"/>
<path d="M117.341 165.284C119.386 162.372 124.129 160.26 124.129 160.26L124.581 159.925C126.871 161.308 128.73 163.148 129.795 164.109C129.941 164.211 129.941 164.211 129.962 164.334C133.098 167.609 138.127 174.376 138.127 174.376C139.492 174.136 140.804 175.052 141.044 176.414L141.917 181.363C142.157 182.724 141.237 184.034 139.873 184.275L140.593 188.358L140.658 188.729C140.658 188.729 137.701 193.715 132.74 194.59C129.019 195.246 128.801 194.009 122.599 195.102C116.398 196.196 116.616 197.433 111.655 198.308C106.693 199.183 103.449 195.29 103.449 195.29L103.384 194.919L102.686 190.959C101.321 191.2 100.009 190.283 99.7686 188.922L98.8959 183.973C98.656 182.612 99.5759 181.302 100.94 181.061C100.94 181.061 103.352 172.981 105.178 168.832L105.28 168.686C105.807 167.318 107.07 165.054 108.727 162.848L109.267 163.008C109.245 162.885 114.424 163.247 117.341 165.284Z" fill="#FFD0A1"/>
<path d="M77.3264 148.739C77.5745 148.695 77.8661 148.899 78.0338 149.124L80.1467 153.854C81.8153 157.515 85.6154 158.758 91.6928 157.687C92.0649 157.621 92.3566 157.825 92.4221 158.196C92.4875 158.567 92.283 158.859 91.911 158.924C85.2133 160.105 80.8516 158.578 78.95 154.321L76.8371 149.59C76.6477 149.241 76.852 148.95 77.2023 148.76L77.3264 148.739ZM149.264 136.054L149.388 136.032C149.782 136.09 149.949 136.316 150.015 136.687L149.647 141.855C149.316 146.506 145.74 149.433 139.042 150.614C138.67 150.679 138.379 150.476 138.313 150.104C138.248 149.733 138.452 149.442 138.824 149.376C145.026 148.283 148.047 145.836 148.363 141.826L148.731 136.658C148.811 136.389 149.016 136.098 149.264 136.054ZM113.295 142.396C114.659 142.156 115.863 142.454 116.884 143.167C117.891 142.351 118.964 141.907 120.394 142.038C121.823 142.168 122.822 142.758 123.639 143.762C124.814 143.172 125.952 143.099 127.323 143.622C128.694 144.146 129.467 144.903 130.057 146.075C131.298 145.856 132.479 146.03 133.646 146.845C134.813 147.66 135.382 148.708 135.6 149.945C136.884 149.974 138.007 150.541 138.845 151.669C140.478 153.678 140.039 155.541 139.491 156.786C139.513 156.91 139.389 156.931 139.287 157.077L133.718 161.759C133.492 161.926 133.12 161.992 132.806 161.664C132.639 161.439 132.573 161.067 132.902 160.755L138.368 156.219C138.996 154.704 138.8 153.591 137.962 152.463C137.291 151.561 136.46 151.197 135.322 151.27L131.344 155.544C131.139 155.835 130.745 155.777 130.454 155.573C130.162 155.369 130.221 154.976 130.425 154.685L134.403 150.412C134.353 149.4 133.828 148.6 132.953 147.988C132.078 147.377 131.144 147.159 130.174 147.458L127.508 152.648C127.303 152.939 126.953 153.129 126.662 152.925C126.37 152.721 126.18 152.372 126.385 152.081L129.05 146.89C128.752 145.922 128.125 145.267 127.024 144.824C125.944 144.504 125.054 144.533 124.127 145.079L122.833 150.793C122.774 151.186 122.424 151.376 122.03 151.318C121.636 151.259 121.447 150.91 121.505 150.517L122.8 144.803C122.253 143.879 121.422 143.515 120.364 143.319C119.328 143.247 118.358 143.545 117.723 144.295L117.982 150.118C118.047 150.489 117.719 150.802 117.325 150.744C116.953 150.809 116.639 150.482 116.698 150.089L116.439 144.266C115.666 143.51 114.732 143.292 113.616 143.488C112.5 143.685 111.821 144.188 111.229 145.185L112.977 150.745C113.043 151.116 112.838 151.407 112.612 151.575C112.24 151.64 111.948 151.437 111.781 151.211L110.033 145.651C109.056 145.185 108.165 145.215 107.217 145.637C106.268 146.06 105.633 146.809 105.312 147.887L108.482 152.813C108.672 153.163 108.591 153.432 108.263 153.745C107.913 153.934 107.643 153.854 107.329 153.527L104.159 148.6C103.101 148.404 102.255 148.681 101.35 149.351C100.445 150.021 100.079 150.851 100.152 151.986L104.432 155.951C104.724 156.155 104.665 156.548 104.46 156.839C104.256 157.131 103.862 157.072 103.571 156.869L99.2905 152.903C98.2764 152.955 97.4737 153.479 96.8604 154.352C96.2472 155.226 96.0278 156.158 96.3263 157.126L101.526 159.781C101.818 159.985 102.007 160.334 101.803 160.625C101.598 160.916 101.248 161.105 100.957 160.902L95.7566 158.247C94.7862 158.545 94.1293 159.171 93.6837 160.27C93.1577 161.639 93.478 162.731 94.5863 163.939L101.274 166.331C101.544 166.411 101.733 166.76 101.675 167.153C101.594 167.423 101.244 167.612 100.85 167.554L94.0159 165.059C93.8919 165.081 93.8701 164.958 93.7241 164.856C92.3024 163.32 91.873 161.61 92.4576 159.848C92.9836 158.48 93.7426 157.708 94.9176 157.118C94.6994 155.881 94.8752 154.702 95.6929 153.537C96.5107 152.372 97.5615 151.804 98.8017 151.585C98.8317 150.305 99.4013 149.183 100.532 148.346C101.642 147.385 102.736 147.065 104.042 147.217C104.466 145.994 105.203 145.099 106.502 144.487C107.801 143.875 108.939 143.802 110.186 144.348C110.902 143.329 111.931 142.637 113.295 142.396ZM115.913 157.244C121.99 156.172 127.561 160.93 130.383 163.877C133.205 166.824 137.374 172.34 138.38 173.694C139.912 173.679 141.371 174.697 141.654 176.306L142.527 181.255C142.832 182.987 141.708 184.589 139.972 184.895C139.6 184.96 139.308 184.757 139.242 184.385C139.177 184.014 139.381 183.723 139.753 183.657C140.746 183.482 141.461 182.463 141.287 181.473L140.414 176.524C140.239 175.535 139.219 174.822 138.226 174.997C137.978 175.04 137.708 174.96 137.665 174.713C137.643 174.589 132.635 167.945 129.522 164.795C128.289 163.609 126.598 161.993 124.578 160.691C124.454 160.713 124.476 160.836 124.351 160.858C124.351 160.858 119.732 162.949 117.79 165.715C117.586 166.006 117.214 166.072 116.922 165.868C114.151 163.933 109.22 163.526 109.096 163.548C108.972 163.57 108.95 163.447 108.826 163.468C107.373 165.383 106.336 167.479 105.584 169.015C103.736 173.041 101.448 181.099 101.324 181.121C101.244 181.39 101.017 181.558 100.893 181.579C99.9011 181.754 99.1856 182.773 99.3602 183.763L100.233 188.712C100.407 189.702 101.428 190.415 102.421 190.24C102.793 190.175 103.084 190.378 103.15 190.75C103.215 191.121 103.011 191.412 102.639 191.478C100.902 191.784 99.298 190.663 98.9926 188.931L98.12 183.982C97.8364 182.374 98.8584 180.918 100.303 180.408C100.786 178.792 102.817 172.183 104.461 168.448C106.228 164.692 109.836 158.315 115.913 157.244ZM123.287 159.898C121.041 158.763 118.612 158.043 116.131 158.481C113.651 158.918 111.49 160.447 109.892 162.26C111.197 162.412 114.743 162.936 117.178 164.42C118.96 162.192 122.112 160.488 123.287 159.898ZM116.636 168.598L119.117 168.16C119.489 168.095 119.781 168.298 119.846 168.67C119.912 169.041 119.707 169.332 119.335 169.398L116.854 169.835C116.482 169.901 116.191 169.697 116.125 169.326C116.06 168.955 116.264 168.663 116.636 168.598ZM109.631 172.384C109.879 172.341 115.46 171.357 118.902 174.194C121.187 170.474 126.747 169.366 126.995 169.323C127.367 169.257 127.659 169.461 127.724 169.832C127.79 170.203 127.585 170.494 127.213 170.56C127.213 170.56 121.508 171.566 119.74 175.322L120.351 178.787C120.416 179.158 120.212 179.449 119.84 179.515C119.468 179.58 119.176 179.376 119.111 179.005L118.5 175.541C115.576 172.74 109.849 173.622 109.849 173.622C109.477 173.687 109.185 173.484 109.119 173.113C109.054 172.741 109.259 172.45 109.631 172.384ZM113.053 184.538C113.425 184.473 113.717 184.677 113.782 185.048L113.891 185.666L115.752 185.338C116.124 185.273 116.415 185.477 116.481 185.848C116.546 186.219 116.342 186.51 115.97 186.576L111.009 187.451C110.636 187.516 110.345 187.312 110.279 186.941C110.214 186.57 110.418 186.279 110.79 186.213L112.651 185.885L112.542 185.266C112.476 184.895 112.681 184.604 113.053 184.538ZM127.936 181.914C128.308 181.848 128.6 182.052 128.666 182.423L128.775 183.042L130.635 182.714C131.007 182.648 131.299 182.852 131.364 183.223C131.43 183.594 131.225 183.886 130.853 183.951L125.892 184.826C125.52 184.892 125.228 184.688 125.163 184.317C125.097 183.946 125.302 183.654 125.674 183.589L127.534 183.261L127.425 182.642C127.36 182.271 127.564 181.98 127.936 181.914ZM140.517 187.988C140.641 187.966 140.765 187.944 140.911 188.046C142.034 188.614 152.325 193.305 153.023 197.265C153.787 201.595 149.882 204.835 142.44 206.147C137.975 206.934 135.378 205.989 133.052 205.123C130.725 204.258 128.42 203.516 124.203 204.26C119.986 205.003 118.198 206.467 116.308 208.076C114.972 209.204 113.512 210.355 111.243 211.265C112.891 212.633 117.639 215.623 125.948 214.158C129.917 213.458 133.238 211.98 135.704 210.014C135.931 209.846 136.303 209.781 136.616 210.108C136.784 210.334 136.849 210.705 136.521 211.018C133.85 213.275 130.282 214.797 126.189 215.519C114.778 217.531 109.798 211.775 109.631 211.55C109.485 211.448 109.441 211.2 109.522 210.931C109.602 210.662 109.704 210.516 109.952 210.472C112.616 209.62 114.075 208.47 115.637 207.174C117.528 205.565 119.644 203.788 124.109 203.001C128.574 202.213 131.171 203.159 133.497 204.024C135.824 204.89 138.129 205.631 142.346 204.888C149.044 203.707 152.539 201.049 151.907 197.461C151.449 194.863 144.229 190.905 141.027 189.429C140.107 190.739 137.282 194.299 132.941 195.065C131.204 195.371 130.168 195.298 129.132 195.226C127.703 195.095 126.273 194.965 122.8 195.577C119.575 196.146 118.152 196.779 116.708 197.289C115.387 197.777 114.212 198.367 111.855 198.783C107.639 199.526 104.656 197.118 103.57 196.034C100.964 198.662 95.635 204.705 96.0932 207.303C96.6386 210.396 99.8404 211.873 105.239 211.303C105.611 211.238 105.925 211.565 105.968 211.813C106.034 212.184 105.705 212.497 105.457 212.541C99.4166 213.096 95.6314 211.212 94.9769 207.5C94.2788 203.54 102.344 195.612 103.206 194.695C103.308 194.549 103.556 194.505 103.68 194.484C103.804 194.462 104.074 194.542 104.096 194.665C104.096 194.665 107.15 198.209 111.74 197.4C113.972 197.006 115.169 196.54 116.365 196.074C117.788 195.441 119.335 194.785 122.684 194.195C126.281 193.56 127.835 193.669 129.264 193.8C130.3 193.872 131.212 193.967 132.824 193.682C137.414 192.873 140.291 188.156 140.291 188.156C140.167 188.177 140.393 188.01 140.517 187.988Z" fill="#51565F"/>
<line x1="60.8989" y1="151.341" x2="165.566" y2="132.885" stroke="black" stroke-width="0.580084"/>
<rect x="75.4241" y="2.05533" width="181.494" height="253.786" rx="5.07573" transform="rotate(10 75.4241 2.05533)" fill="white" stroke="black" stroke-width="1.45021"/>
<g clip-path="url(#clip2_247_231)">
<path fill-rule="evenodd" clip-rule="evenodd" d="M148.746 107.316L120.695 125.595C112.786 130.687 108.378 143.297 115.992 150.784C118.595 153.547 122.187 155.462 126.018 156.131L126.026 156.083C130.395 157.207 134.965 155.597 138.603 153.706C135.49 163.218 132.537 173.394 127.713 176.645L145.329 179.751C141.982 175.147 142.032 164.122 142.366 154.308C149.445 162.495 160.978 163.407 167.887 157.267C175.168 151.57 174.412 141.548 168.604 133.745L148.746 107.316Z" fill="black"/>
</g>
<path d="M105.609 38.763C105.525 39.2391 105.376 39.802 105.164 40.4516C104.975 41.1055 104.707 41.7209 104.36 42.2978C104.017 42.8509 103.605 43.306 103.125 43.6632C102.649 43.9965 102.078 44.1043 101.411 43.9868C100.53 43.8315 99.9205 43.3927 99.5816 42.6702C99.2665 41.952 99.0913 41.1358 99.0562 40.2215C99.0253 39.2834 99.0678 38.346 99.1839 37.4093C99.3238 36.4768 99.4301 35.7347 99.5028 35.183C97.7387 35.1665 96.0046 35.1184 94.3006 35.0388C94.1565 35.5779 93.9297 36.2374 93.6204 37.0173C93.3349 37.8014 92.9584 38.545 92.4908 39.2479C92.0513 39.9312 91.5214 40.5005 90.9012 40.9556C90.3048 41.4149 89.6376 41.5795 88.8998 41.4494C88.3285 41.3487 87.9119 41.0666 87.65 40.6032C87.4161 40.1202 87.2662 39.5784 87.2003 38.9777C87.1345 38.3771 87.1302 37.775 87.1875 37.1715C87.2728 36.5484 87.3511 36.0346 87.4225 35.6299C87.6617 34.2732 88.0039 32.9591 88.449 31.6877C88.8982 30.3925 89.3811 29.1155 89.8976 27.8567C90.1621 27.1916 90.4952 26.4159 90.8969 25.5295C91.2987 24.6432 91.7522 23.7414 92.2575 22.8243C92.7908 21.8875 93.3676 20.9829 93.9877 20.1106C94.6358 19.2186 95.3246 18.4442 96.054 17.7875C96.7834 17.1307 97.5709 16.6314 98.4165 16.2897C99.2621 15.9479 100.149 15.8589 101.077 16.0226C101.982 16.1821 102.732 16.5229 103.327 17.0451C103.922 17.5672 104.411 18.2056 104.793 18.9603C105.175 19.7149 105.458 20.55 105.64 21.4657C105.826 22.3575 105.949 23.2627 106.008 24.1812C106.095 25.0801 106.136 25.9587 106.132 26.817C106.152 27.6794 106.164 28.4425 106.17 29.1062C106.207 30.7079 106.192 32.3251 106.125 33.9577C106.062 35.5664 105.89 37.1682 105.609 38.763ZM100.248 28.8718C100.298 28.5861 100.356 28.1178 100.422 27.4667C100.515 26.796 100.559 26.1289 100.554 25.4652C100.552 24.7777 100.465 24.161 100.291 23.6149C100.145 23.0493 99.8581 22.7287 99.4297 22.6532C99.1917 22.6112 98.9362 22.7379 98.6632 23.0334C98.3944 23.3051 98.1326 23.6762 97.8778 24.1466C97.6273 24.5933 97.3781 25.1016 97.1304 25.6715C96.9064 26.2456 96.6986 26.798 96.5068 27.3286C96.3151 27.8593 96.1556 28.3466 96.0282 28.7905C95.9051 29.2105 95.8148 29.5137 95.7574 29.6999C97.2066 29.8327 98.6424 29.9018 100.065 29.9072L100.248 28.8718Z" fill="black"/>
<g clip-path="url(#clip3_247_231)">
<path fill-rule="evenodd" clip-rule="evenodd" d="M94.214 51.4968L86.3247 56.6375C84.1004 58.0696 82.8607 61.6162 85.0019 63.722C85.734 64.4992 86.7443 65.0378 87.8218 65.2258L87.8242 65.2123C89.0529 65.5284 90.3382 65.0758 91.3615 64.5439C90.4857 67.219 89.6553 70.0811 88.2985 70.9955L93.2531 71.8691C92.3118 70.574 92.3258 67.4732 92.4197 64.7132C94.4107 67.0158 97.6542 67.2723 99.5974 65.5455C101.645 63.9431 101.433 61.1244 99.7993 58.9299L94.214 51.4968Z" fill="black"/>
</g>
<path d="M179.911 246.795C179.995 246.319 180.143 245.756 180.356 245.107C180.545 244.453 180.813 243.837 181.16 243.261C181.503 242.707 181.915 242.252 182.395 241.895C182.871 241.562 183.442 241.454 184.108 241.572C184.989 241.727 185.599 242.166 185.938 242.888C186.253 243.606 186.428 244.423 186.463 245.337C186.494 246.275 186.452 247.212 186.336 248.149C186.196 249.082 186.089 249.824 186.017 250.375C187.781 250.392 189.515 250.44 191.219 250.52C191.363 249.98 191.59 249.321 191.899 248.541C192.185 247.757 192.561 247.013 193.029 246.31C193.468 245.627 193.998 245.058 194.618 244.603C195.215 244.143 195.882 243.979 196.62 244.109C197.191 244.21 197.608 244.492 197.87 244.955C198.103 245.438 198.253 245.98 198.319 246.581C198.385 247.181 198.389 247.783 198.332 248.387C198.247 249.01 198.168 249.524 198.097 249.928C197.858 251.285 197.516 252.599 197.071 253.871C196.621 255.166 196.138 256.443 195.622 257.702C195.357 258.367 195.024 259.142 194.623 260.029C194.221 260.915 193.767 261.817 193.262 262.734C192.729 263.671 192.152 264.575 191.532 265.448C190.884 266.34 190.195 267.114 189.466 267.771C188.736 268.428 187.949 268.927 187.103 269.269C186.257 269.61 185.37 269.699 184.442 269.536C183.538 269.376 182.788 269.035 182.193 268.513C181.598 267.991 181.109 267.353 180.726 266.598C180.344 265.843 180.062 265.008 179.88 264.093C179.693 263.201 179.571 262.296 179.512 261.377C179.425 260.478 179.383 259.6 179.387 258.741C179.368 257.879 179.355 257.116 179.349 256.452C179.313 254.85 179.328 253.233 179.395 251.601C179.458 249.992 179.63 248.39 179.911 246.795ZM185.272 256.687C185.222 256.972 185.164 257.441 185.098 258.092C185.004 258.762 184.96 259.429 184.966 260.093C184.967 260.781 185.055 261.397 185.229 261.943C185.374 262.509 185.661 262.83 186.09 262.905C186.328 262.947 186.583 262.82 186.856 262.525C187.125 262.253 187.387 261.882 187.642 261.412C187.892 260.965 188.141 260.457 188.389 259.887C188.613 259.313 188.821 258.76 189.013 258.23C189.204 257.699 189.364 257.212 189.491 256.768C189.614 256.348 189.705 256.045 189.762 255.858C188.313 255.726 186.877 255.657 185.455 255.651L185.272 256.687Z" fill="black"/>
<g clip-path="url(#clip4_247_231)">
<path fill-rule="evenodd" clip-rule="evenodd" d="M191.309 234.061L199.199 228.921C201.423 227.488 202.663 223.942 200.522 221.836C199.789 221.059 198.779 220.52 197.702 220.332L197.699 220.346C196.471 220.03 195.185 220.482 194.162 221.014C195.038 218.339 195.868 215.477 197.225 214.563L192.27 213.689C193.212 214.984 193.198 218.085 193.104 220.845C191.113 218.542 187.869 218.286 185.926 220.013C183.878 221.615 184.091 224.434 185.724 226.628L191.309 234.061Z" fill="black"/>
</g>
<circle cx="217" cy="220" r="64" fill="#202020"/>
<path d="M276 220C276 226.24 275.01 232.441 273.067 238.371L217 220H276Z" fill="#FF3D31"/>
<path d="M264.725 254.689C261.056 259.737 256.61 264.17 251.551 267.825L217 220L264.725 254.689Z" fill="#FF3D31"/>
<path d="M235.209 276.12C229.273 278.046 223.069 279.018 216.829 279L217 220L235.209 276.12Z" fill="#FF3D31"/>
<path d="M198.76 276.11C192.825 274.18 187.234 271.322 182.195 267.64L217 220L198.76 276.11Z" fill="#FF3D31"/>
<path d="M169.247 254.65C165.582 249.599 162.742 243.999 160.831 238.058L217 220L169.247 254.65Z" fill="#FF3D31"/>
<path d="M158 220C158 213.76 158.99 207.559 160.933 201.628L217 220L158 220Z" fill="#FF3D31"/>
<path d="M169.241 185.358C172.905 180.307 177.347 175.869 182.402 172.209L217 220L169.241 185.358Z" fill="#FF3D31"/>
<path d="M198.739 163.897C204.672 161.966 210.875 160.988 217.116 161L217 220L198.739 163.897Z" fill="#FF3D31"/>
<path d="M235.217 163.883C241.153 165.81 246.745 168.666 251.785 172.345L217 220L235.217 163.883Z" fill="#FF3D31"/>
<path d="M264.718 185.301C268.388 190.348 271.234 195.945 273.15 201.884L217 220L264.718 185.301Z" fill="#FF3D31"/>
<path d="M273.108 201.768C275.037 207.703 276.011 213.906 275.996 220.147L216.996 220L273.108 201.768Z" fill="#EAEAEA"/>
<path d="M273.105 238.243C271.175 244.178 268.316 249.769 264.635 254.807L216.996 220L273.105 238.243Z" fill="#EAEAEA"/>
<path d="M251.655 267.747C246.605 271.412 241.006 274.254 235.065 276.165L216.996 220L251.655 267.747Z" fill="#EAEAEA"/>
<path d="M216.987 279C210.747 278.999 204.546 278.008 198.616 276.064L216.996 220L216.987 279Z" fill="#EAEAEA"/>
<path d="M182.288 267.711C177.241 264.04 172.809 259.591 169.157 254.531L216.996 220L182.288 267.711Z" fill="#EAEAEA"/>
<path d="M160.884 238.232C158.955 232.297 157.981 226.094 157.996 219.853L216.996 220L160.884 238.232Z" fill="#EAEAEA"/>
<path d="M160.869 201.812C162.793 195.876 165.646 190.282 169.323 185.24L216.996 220L160.869 201.812Z" fill="#EAEAEA"/>
<path d="M182.292 172.286C187.338 168.616 192.935 165.769 198.874 163.852L216.996 220L182.292 172.286Z" fill="#EAEAEA"/>
<path d="M216.981 161C223.221 160.998 229.422 161.987 235.353 163.928L216.996 220L216.981 161Z" fill="#EAEAEA"/>
<path d="M251.656 172.254C256.706 175.92 261.142 180.363 264.8 185.42L216.996 220L251.656 172.254Z" fill="#EAEAEA"/>
<circle cx="217" cy="220" r="48" fill="#FF3D31"/>
<circle cx="217" cy="220" r="43" fill="#202020"/>
<circle cx="217" cy="220" r="38" fill="#EAEAEA"/>
<path d="M219.034 242H192.026V236.24L207.258 216.592C208.196 215.397 208.943 214.373 209.498 213.52C210.095 212.667 210.543 211.899 210.842 211.216C211.183 210.491 211.396 209.829 211.482 209.232C211.61 208.635 211.674 208.016 211.674 207.376C211.674 205.115 211.162 203.301 210.138 201.936C209.156 200.528 207.556 199.824 205.338 199.824C204.058 199.824 202.991 200.059 202.138 200.528C201.284 200.997 200.602 201.637 200.09 202.448C199.578 203.216 199.194 204.155 198.938 205.264C198.724 206.331 198.618 207.483 198.618 208.72H192.218C192.218 206.8 192.431 205.008 192.858 203.344C193.284 201.68 194.01 200.251 195.034 199.056C196.058 197.861 197.402 196.923 199.066 196.24C200.73 195.557 202.799 195.216 205.274 195.216C207.62 195.216 209.626 195.536 211.29 196.176C212.954 196.773 214.298 197.605 215.322 198.672C216.388 199.739 217.156 200.997 217.626 202.448C218.095 203.899 218.33 205.456 218.33 207.12C218.33 207.717 218.287 208.357 218.202 209.04C218.116 209.68 217.903 210.448 217.562 211.344C217.22 212.197 216.708 213.2 216.026 214.352C215.386 215.461 214.49 216.763 213.338 218.256L199.066 237.2H212.698L213.978 229.52H219.034V242ZM237.138 236.88L243.09 238.16V242H224.21V238.16L230.802 236.88V201.616L223.954 202.128V197.712L237.138 195.92V236.88Z" fill="black"/>
<defs>
<clipPath id="clip0_247_231">
<rect width="20.9079" height="20.883" fill="white" transform="translate(26.1016 74.4229) rotate(-10)"/>
</clipPath>
<clipPath id="clip1_247_231">
<rect width="20.9079" height="20.883" fill="white" transform="matrix(0.984808 -0.173648 -0.173648 -0.984808 179.77 213.433)"/>
</clipPath>
<clipPath id="clip2_247_231">
<rect x="112.609" y="99.7654" width="74.3393" height="74.2506" transform="rotate(10 112.609 99.7654)" fill="white"/>
</clipPath>
<clipPath id="clip3_247_231">
<rect x="84.0469" y="49.3723" width="20.9079" height="20.883" transform="rotate(10 84.0469 49.3723)" fill="white"/>
</clipPath>
<clipPath id="clip4_247_231">
<rect x="201.473" y="236.186" width="20.9079" height="20.883" transform="rotate(-170 201.473 236.186)" fill="white"/>
</clipPath>
</defs>
</svg>
