<svg width="630" height="880" viewBox="0 0 630 880" fill="none" xmlns="http://www.w3.org/2000/svg">
<rect x="2.5" y="2.5" width="625" height="875" rx="17.5" fill="white" stroke="black" stroke-width="5"/>
<path d="M445.025 273.819C434.451 272.817 424.509 281.457 418.086 288.319C405.952 269.277 378.309 269.146 366.043 287.97C354.262 303.909 358.992 326.469 372.477 341.945L418.514 394.29L465.126 341.287C478.296 326.469 482.391 295.913 465.618 281.88C459.735 276.587 452.486 273.712 445.022 273.71L445.025 273.819Z" fill="#E20000"/>
<path d="M239.025 273.819C228.451 272.817 218.509 281.457 212.086 288.319C199.952 269.277 172.309 269.146 160.043 287.97C148.262 303.909 152.992 326.469 166.477 341.945L212.514 394.29L259.126 341.287C272.296 326.469 276.391 295.913 259.618 281.88C253.735 276.587 246.486 273.712 239.022 273.71L239.025 273.819Z" fill="#E20000"/>
<path d="M342.025 185.819C331.451 184.817 321.509 193.457 315.086 200.319C302.952 181.277 275.309 181.146 263.043 199.97C251.262 215.909 255.992 238.469 269.477 253.945L315.514 306.29L362.126 253.287C375.296 238.469 379.391 207.913 362.618 193.88C356.735 188.587 349.486 185.712 342.022 185.71L342.025 185.819Z" fill="#E20000"/>
<path d="M445.025 97.8192C434.451 96.8166 424.509 105.457 418.086 112.319C405.952 93.2766 378.309 93.146 366.043 111.97C354.262 127.909 358.992 150.469 372.477 165.945L418.514 218.29L465.126 165.287C478.296 150.469 482.391 119.913 465.618 105.88C459.735 100.587 452.486 97.7116 445.022 97.7101L445.025 97.8192Z" fill="#E20000"/>
<path d="M239.025 97.8192C228.451 96.8166 218.509 105.457 212.086 112.319C199.952 93.2766 172.309 93.146 160.043 111.97C148.262 127.909 152.992 150.469 166.477 165.945L212.514 218.29L259.126 165.287C272.296 150.469 276.391 119.913 259.618 105.88C253.735 100.587 246.486 97.7116 239.022 97.7101L239.025 97.8192Z" fill="#E20000"/>
<path d="M184.975 782.181C195.549 783.183 205.491 774.543 211.914 767.681C224.048 786.723 251.691 786.854 263.957 768.03C275.738 752.091 271.008 729.531 257.523 714.055L211.486 661.71L164.874 714.713C151.704 729.531 147.609 760.087 164.382 774.12C170.265 779.413 177.514 782.288 184.978 782.29L184.975 782.181Z" fill="#E20000"/>
<path d="M390.975 782.181C401.549 783.183 411.491 774.543 417.914 767.681C430.048 786.723 457.691 786.854 469.957 768.03C481.738 752.091 477.008 729.531 463.523 714.055L417.486 661.71L370.874 714.713C357.704 729.531 353.609 760.087 370.382 774.12C376.265 779.413 383.514 782.288 390.978 782.29L390.975 782.181Z" fill="#E20000"/>
<path d="M287.975 694.181C298.549 695.183 308.491 686.543 314.914 679.681C327.048 698.723 354.691 698.854 366.957 680.03C378.738 664.091 374.008 641.531 360.523 626.055L314.486 573.71L267.874 626.713C254.704 641.531 250.609 672.087 267.382 686.12C273.265 691.413 280.514 694.288 287.978 694.29L287.975 694.181Z" fill="#E20000"/>
<path d="M184.975 606.181C195.549 607.183 205.491 598.543 211.914 591.681C224.048 610.723 251.691 610.854 263.957 592.03C275.738 576.091 271.008 553.531 257.523 538.055L211.486 485.71L164.874 538.713C151.704 553.531 147.609 584.087 164.382 598.12C170.265 603.413 177.514 606.288 184.978 606.29L184.975 606.181Z" fill="#E20000"/>
<path d="M390.975 606.181C401.549 607.183 411.491 598.543 417.914 591.681C430.048 610.723 457.691 610.854 469.957 592.03C481.738 576.091 477.008 553.531 463.523 538.055L417.486 485.71L370.874 538.713C357.704 553.531 353.609 584.087 370.382 598.12C376.265 603.413 383.514 606.288 390.978 606.29L390.975 606.181Z" fill="#E20000"/>
<path d="M45.5 65.375C45.5 67.9583 45.4583 70.5417 45.375 73.125C45.2917 75.7083 45.2083 78.2917 45.125 80.875C44.9583 85.125 44.875 89.375 44.875 93.625C44.875 97.7917 44.75 102 44.5 106.25C44.4167 107.667 44.3333 109.583 44.25 112C44.1667 114.333 43.8333 116.667 43.25 119C42.75 121.25 41.9167 123.25 40.75 125C39.5833 126.667 37.9583 127.5 35.875 127.5C33.875 127.5 32.25 126.833 31 125.5C29.75 124.083 28.75 122.333 28 120.25C27.3333 118.083 26.875 115.708 26.625 113.125C26.375 110.458 26.2083 107.875 26.125 105.375C26.125 102.792 26.1667 100.417 26.25 98.25C26.3333 96.0833 26.375 94.4167 26.375 93.25C26.375 87.5833 26.375 81.9167 26.375 76.25C26.4583 70.5833 26.5417 64.9167 26.625 59.25C24.9583 57.8333 23.625 56.125 22.625 54.125C21.7083 52.0417 21.25 49.9167 21.25 47.75C21.25 44.3333 22.25 41.4167 24.25 39C26.3333 36.5833 29.1667 35.375 32.75 35.375C35.8333 35.375 38.25 36.5417 40 38.875C41.75 41.2083 43 44 43.75 47.25C44.5833 50.5 45.0833 53.8333 45.25 57.25C45.4167 60.5833 45.5 63.2917 45.5 65.375ZM128.875 83.625C128.875 89.2917 128 95 126.25 100.75C124.583 106.417 122.083 111.583 118.75 116.25C115.5 120.833 111.417 124.542 106.5 127.375C101.583 130.292 95.9167 131.75 89.5 131.75C84.0833 131.75 79.2083 130.333 74.875 127.5C70.5417 124.667 66.8333 121.083 63.75 116.75C60.75 112.333 58.4167 107.542 56.75 102.375C55.1667 97.125 54.375 92.0833 54.375 87.25C54.375 83.8333 54.8333 80.25 55.75 76.5C56.6667 72.75 57.9583 69.0417 59.625 65.375C61.375 61.7083 63.4167 58.2083 65.75 54.875C68.1667 51.4583 70.8333 48.5 73.75 46C76.75 43.4167 79.9583 41.375 83.375 39.875C86.875 38.375 90.5 37.625 94.25 37.625C100.667 37.625 106.083 39 110.5 41.75C114.917 44.5 118.458 48.0833 121.125 52.5C123.875 56.8333 125.833 61.75 127 67.25C128.25 72.6667 128.875 78.125 128.875 83.625ZM110.75 83C110.75 80.9167 110.458 78.4583 109.875 75.625C109.292 72.7917 108.375 70.125 107.125 67.625C105.958 65.125 104.417 63 102.5 61.25C100.583 59.5 98.2917 58.625 95.625 58.625C92.375 58.625 89.4583 59.6667 86.875 61.75C84.375 63.75 82.25 66.25 80.5 69.25C78.75 72.25 77.375 75.4583 76.375 78.875C75.4583 82.2917 75 85.375 75 88.125C75 90.2917 75.2917 92.75 75.875 95.5C76.4583 98.25 77.375 100.875 78.625 103.375C79.875 105.792 81.4583 107.875 83.375 109.625C85.375 111.292 87.7083 112.125 90.375 112.125C93.625 112.125 96.5 111.125 99 109.125C101.583 107.042 103.708 104.542 105.375 101.625C107.125 98.625 108.458 95.4583 109.375 92.125C110.292 88.7083 110.75 85.6667 110.75 83Z" fill="#E20000"/>
<path d="M80.7979 160.148C86.746 159.584 92.3385 164.445 95.9512 168.304C102.776 157.593 118.326 157.52 125.225 168.108C131.853 177.074 129.191 189.764 121.606 198.469L95.7106 227.913L69.4914 198.099C62.083 189.764 59.7795 172.576 69.2147 164.682C72.5235 161.705 76.6014 160.088 80.8 160.087L80.7979 160.148Z" fill="#E20000"/>
<path d="M584.5 814.625C584.5 812.042 584.542 809.458 584.625 806.875C584.708 804.292 584.792 801.708 584.875 799.125C585.042 794.875 585.125 790.625 585.125 786.375C585.125 782.208 585.25 778 585.5 773.75C585.583 772.333 585.667 770.417 585.75 768C585.833 765.667 586.167 763.333 586.75 761C587.25 758.75 588.083 756.75 589.25 755C590.417 753.333 592.042 752.5 594.125 752.5C596.125 752.5 597.75 753.167 599 754.5C600.25 755.917 601.25 757.667 602 759.75C602.667 761.917 603.125 764.292 603.375 766.875C603.625 769.542 603.792 772.125 603.875 774.625C603.875 777.208 603.833 779.583 603.75 781.75C603.667 783.917 603.625 785.583 603.625 786.75C603.625 792.417 603.625 798.083 603.625 803.75C603.542 809.417 603.458 815.083 603.375 820.75C605.042 822.167 606.375 823.875 607.375 825.875C608.292 827.958 608.75 830.083 608.75 832.25C608.75 835.667 607.75 838.583 605.75 841C603.667 843.417 600.833 844.625 597.25 844.625C594.167 844.625 591.75 843.458 590 841.125C588.25 838.792 587 836 586.25 832.75C585.417 829.5 584.917 826.167 584.75 822.75C584.583 819.417 584.5 816.708 584.5 814.625ZM501.125 796.375C501.125 790.708 502 785 503.75 779.25C505.417 773.583 507.917 768.417 511.25 763.75C514.5 759.167 518.583 755.458 523.5 752.625C528.417 749.708 534.083 748.25 540.5 748.25C545.917 748.25 550.792 749.667 555.125 752.5C559.458 755.333 563.167 758.917 566.25 763.25C569.25 767.667 571.583 772.458 573.25 777.625C574.833 782.875 575.625 787.917 575.625 792.75C575.625 796.167 575.167 799.75 574.25 803.5C573.333 807.25 572.042 810.958 570.375 814.625C568.625 818.292 566.583 821.792 564.25 825.125C561.833 828.542 559.167 831.5 556.25 834C553.25 836.583 550.042 838.625 546.625 840.125C543.125 841.625 539.5 842.375 535.75 842.375C529.333 842.375 523.917 841 519.5 838.25C515.083 835.5 511.542 831.917 508.875 827.5C506.125 823.167 504.167 818.25 503 812.75C501.75 807.333 501.125 801.875 501.125 796.375ZM519.25 797C519.25 799.083 519.542 801.542 520.125 804.375C520.708 807.208 521.625 809.875 522.875 812.375C524.042 814.875 525.583 817 527.5 818.75C529.417 820.5 531.708 821.375 534.375 821.375C537.625 821.375 540.542 820.333 543.125 818.25C545.625 816.25 547.75 813.75 549.5 810.75C551.25 807.75 552.625 804.542 553.625 801.125C554.542 797.708 555 794.625 555 791.875C555 789.708 554.708 787.25 554.125 784.5C553.542 781.75 552.625 779.125 551.375 776.625C550.125 774.208 548.542 772.125 546.625 770.375C544.625 768.708 542.292 767.875 539.625 767.875C536.375 767.875 533.5 768.875 531 770.875C528.417 772.958 526.292 775.458 524.625 778.375C522.875 781.375 521.542 784.542 520.625 787.875C519.708 791.292 519.25 794.333 519.25 797Z" fill="#E20000"/>
<path d="M518.798 719.852C524.746 720.416 530.339 715.555 533.951 711.696C540.776 722.407 556.326 722.48 563.225 711.892C569.853 702.926 567.191 690.236 559.606 681.531L533.711 652.087L507.491 681.901C500.083 690.236 497.78 707.424 507.215 715.318C510.524 718.295 514.601 719.912 518.8 719.913L518.798 719.852Z" fill="#E20000"/>
</svg>
