<svg width="630" height="880" viewBox="0 0 630 880" fill="none" xmlns="http://www.w3.org/2000/svg">
<rect x="2.5" y="2.5" width="625" height="875" rx="17.5" fill="white" stroke="black" stroke-width="5"/>
<path d="M416.66 272C402.484 272 390.992 283.104 390.992 296.8C391.009 301.284 392.274 305.674 394.644 309.48C393.434 309.306 392.214 309.214 390.992 309.208C376.82 309.208 365.332 320.308 365.332 334C365.332 347.696 376.816 358.8 390.992 358.804C394.419 358.812 397.814 358.152 400.988 356.86C405.531 355 409.449 351.882 412.28 347.872C412.536 347.504 412.76 347.112 412.996 346.732C410.504 366.344 408.584 388.928 401.264 396H432.06C424.74 388.928 422.82 366.344 420.328 346.732C420.568 347.112 420.788 347.504 421.044 347.872C423.875 351.882 427.793 355 432.336 356.86C435.51 358.152 438.905 358.812 442.332 358.804C456.508 358.804 468 347.7 468 334.004C468 320.304 456.504 309.204 442.332 309.204C441.112 309.204 439.892 309.308 438.688 309.484C441.054 305.677 442.314 301.286 442.328 296.804C442.332 283.104 430.84 272 416.66 272.004V272Z" fill="black"/>
<path d="M210.66 272C196.484 272 184.992 283.104 184.992 296.8C185.009 301.284 186.274 305.674 188.644 309.48C187.434 309.306 186.214 309.214 184.992 309.208C170.82 309.208 159.332 320.308 159.332 334C159.332 347.696 170.816 358.8 184.992 358.804C188.419 358.812 191.814 358.152 194.988 356.86C199.531 355 203.449 351.882 206.28 347.872C206.536 347.504 206.76 347.112 206.996 346.732C204.504 366.344 202.584 388.928 195.264 396H226.06C218.74 388.928 216.82 366.344 214.328 346.732C214.568 347.112 214.788 347.504 215.044 347.872C217.875 351.882 221.793 355 226.336 356.86C229.51 358.152 232.905 358.812 236.332 358.804C250.508 358.804 262 347.7 262 334.004C262 320.304 250.504 309.204 236.332 309.204C235.112 309.204 233.892 309.308 232.688 309.484C235.054 305.677 236.314 301.286 236.328 296.804C236.332 283.104 224.84 272 210.66 272.004V272Z" fill="black"/>
<path d="M313.66 184C299.484 184 287.992 195.104 287.992 208.8C288.009 213.284 289.274 217.674 291.644 221.48C290.434 221.306 289.214 221.214 287.992 221.208C273.82 221.208 262.332 232.308 262.332 246C262.332 259.696 273.816 270.8 287.992 270.804C291.419 270.812 294.814 270.152 297.988 268.86C302.531 267 306.449 263.882 309.28 259.872C309.536 259.504 309.76 259.112 309.996 258.732C307.504 278.344 305.584 300.928 298.264 308H329.06C321.74 300.928 319.82 278.344 317.328 258.732C317.568 259.112 317.788 259.504 318.044 259.872C320.875 263.882 324.793 267 329.336 268.86C332.51 270.152 335.905 270.812 339.332 270.804C353.508 270.804 365 259.7 365 246.004C365 232.304 353.504 221.204 339.332 221.204C338.112 221.204 336.892 221.308 335.688 221.484C338.054 217.677 339.314 213.286 339.328 208.804C339.332 195.104 327.84 184 313.66 184.004V184Z" fill="black"/>
<path d="M416.66 96C402.484 96 390.992 107.104 390.992 120.8C391.009 125.284 392.274 129.674 394.644 133.48C393.434 133.306 392.214 133.214 390.992 133.208C376.82 133.208 365.332 144.308 365.332 158C365.332 171.696 376.816 182.8 390.992 182.804C394.419 182.812 397.814 182.152 400.988 180.86C405.531 179 409.449 175.882 412.28 171.872C412.536 171.504 412.76 171.112 412.996 170.732C410.504 190.344 408.584 212.928 401.264 220H432.06C424.74 212.928 422.82 190.344 420.328 170.732C420.568 171.112 420.788 171.504 421.044 171.872C423.875 175.882 427.793 179 432.336 180.86C435.51 182.152 438.905 182.812 442.332 182.804C456.508 182.804 468 171.7 468 158.004C468 144.304 456.504 133.204 442.332 133.204C441.112 133.204 439.892 133.308 438.688 133.484C441.054 129.677 442.314 125.286 442.328 120.804C442.332 107.104 430.84 95.9999 416.66 96.0039V96Z" fill="black"/>
<path d="M210.66 96C196.484 96 184.992 107.104 184.992 120.8C185.009 125.284 186.274 129.674 188.644 133.48C187.434 133.306 186.214 133.214 184.992 133.208C170.82 133.208 159.332 144.308 159.332 158C159.332 171.696 170.816 182.8 184.992 182.804C188.419 182.812 191.814 182.152 194.988 180.86C199.531 179 203.449 175.882 206.28 171.872C206.536 171.504 206.76 171.112 206.996 170.732C204.504 190.344 202.584 212.928 195.264 220H226.06C218.74 212.928 216.82 190.344 214.328 170.732C214.568 171.112 214.788 171.504 215.044 171.872C217.875 175.882 221.793 179 226.336 180.86C229.51 182.152 232.905 182.812 236.332 182.804C250.508 182.804 262 171.7 262 158.004C262 144.304 250.504 133.204 236.332 133.204C235.112 133.204 233.892 133.308 232.688 133.484C235.054 129.677 236.314 125.286 236.328 120.804C236.332 107.104 224.84 95.9999 210.66 96.0039V96Z" fill="black"/>
<path d="M213.34 784C227.516 784 239.008 772.896 239.008 759.2C238.991 754.716 237.726 750.326 235.356 746.52C236.566 746.694 237.786 746.786 239.008 746.792C253.18 746.792 264.668 735.692 264.668 722C264.668 708.304 253.184 697.2 239.008 697.196C235.581 697.188 232.186 697.848 229.012 699.14C224.469 701 220.551 704.118 217.72 708.128C217.464 708.496 217.24 708.888 217.004 709.268C219.496 689.656 221.416 667.072 228.736 660H197.94C205.26 667.072 207.18 689.656 209.672 709.268C209.432 708.888 209.212 708.496 208.956 708.128C206.125 704.118 202.207 701 197.664 699.14C194.49 697.848 191.095 697.188 187.668 697.196C173.492 697.196 162 708.3 162 721.996C162 735.696 173.496 746.796 187.668 746.796C188.888 746.796 190.108 746.692 191.312 746.516C188.946 750.323 187.686 754.714 187.672 759.196C187.668 772.896 199.16 784 213.34 783.996V784Z" fill="black"/>
<path d="M419.34 784C433.516 784 445.008 772.896 445.008 759.2C444.991 754.716 443.726 750.326 441.356 746.52C442.566 746.694 443.786 746.786 445.008 746.792C459.18 746.792 470.668 735.692 470.668 722C470.668 708.304 459.184 697.2 445.008 697.196C441.581 697.188 438.186 697.848 435.012 699.14C430.469 701 426.551 704.118 423.72 708.128C423.464 708.496 423.24 708.888 423.004 709.268C425.496 689.656 427.416 667.072 434.736 660H403.94C411.26 667.072 413.18 689.656 415.672 709.268C415.432 708.888 415.212 708.496 414.956 708.128C412.125 704.118 408.207 701 403.664 699.14C400.49 697.848 397.095 697.188 393.668 697.196C379.492 697.196 368 708.3 368 721.996C368 735.696 379.496 746.796 393.668 746.796C394.888 746.796 396.108 746.692 397.312 746.516C394.946 750.323 393.686 754.714 393.672 759.196C393.668 772.896 405.16 784 419.34 783.996V784Z" fill="black"/>
<path d="M316.34 696C330.516 696 342.008 684.896 342.008 671.2C341.991 666.716 340.726 662.326 338.356 658.52C339.566 658.694 340.786 658.786 342.008 658.792C356.18 658.792 367.668 647.692 367.668 634C367.668 620.304 356.184 609.2 342.008 609.196C338.581 609.188 335.186 609.848 332.012 611.14C327.469 613 323.551 616.118 320.72 620.128C320.464 620.496 320.24 620.888 320.004 621.268C322.496 601.656 324.416 579.072 331.736 572H300.94C308.26 579.072 310.18 601.656 312.672 621.268C312.432 620.888 312.212 620.496 311.956 620.128C309.125 616.118 305.207 613 300.664 611.14C297.49 609.848 294.095 609.188 290.668 609.196C276.492 609.196 265 620.3 265 633.996C265 647.696 276.496 658.796 290.668 658.796C291.888 658.796 293.108 658.692 294.312 658.516C291.946 662.323 290.686 666.714 290.672 671.196C290.668 684.896 302.16 696 316.34 695.996V696Z" fill="black"/>
<path d="M213.34 608C227.516 608 239.008 596.896 239.008 583.2C238.991 578.716 237.726 574.326 235.356 570.52C236.566 570.694 237.786 570.786 239.008 570.792C253.18 570.792 264.668 559.692 264.668 546C264.668 532.304 253.184 521.2 239.008 521.196C235.581 521.188 232.186 521.848 229.012 523.14C224.469 525 220.551 528.118 217.72 532.128C217.464 532.496 217.24 532.888 217.004 533.268C219.496 513.656 221.416 491.072 228.736 484H197.94C205.26 491.072 207.18 513.656 209.672 533.268C209.432 532.888 209.212 532.496 208.956 532.128C206.125 528.118 202.207 525 197.664 523.14C194.49 521.848 191.095 521.188 187.668 521.196C173.492 521.196 162 532.3 162 545.996C162 559.696 173.496 570.796 187.668 570.796C188.888 570.796 190.108 570.692 191.312 570.516C188.946 574.323 187.686 578.714 187.672 583.196C187.668 596.896 199.16 608 213.34 607.996V608Z" fill="black"/>
<path d="M419.34 608C433.516 608 445.008 596.896 445.008 583.2C444.991 578.716 443.726 574.326 441.356 570.52C442.566 570.694 443.786 570.786 445.008 570.792C459.18 570.792 470.668 559.692 470.668 546C470.668 532.304 459.184 521.2 445.008 521.196C441.581 521.188 438.186 521.848 435.012 523.14C430.469 525 426.551 528.118 423.72 532.128C423.464 532.496 423.24 532.888 423.004 533.268C425.496 513.656 427.416 491.072 434.736 484H403.94C411.26 491.072 413.18 513.656 415.672 533.268C415.432 532.888 415.212 532.496 414.956 532.128C412.125 528.118 408.207 525 403.664 523.14C400.49 521.848 397.095 521.188 393.668 521.196C379.492 521.196 368 532.3 368 545.996C368 559.696 379.496 570.796 393.668 570.796C394.888 570.796 396.108 570.692 397.312 570.516C394.946 574.323 393.686 578.714 393.672 583.196C393.668 596.896 405.16 608 419.34 607.996V608Z" fill="black"/>
<path d="M45.5 65.375C45.5 67.9583 45.4583 70.5417 45.375 73.125C45.2917 75.7083 45.2083 78.2917 45.125 80.875C44.9583 85.125 44.875 89.375 44.875 93.625C44.875 97.7917 44.75 102 44.5 106.25C44.4167 107.667 44.3333 109.583 44.25 112C44.1667 114.333 43.8333 116.667 43.25 119C42.75 121.25 41.9167 123.25 40.75 125C39.5833 126.667 37.9583 127.5 35.875 127.5C33.875 127.5 32.25 126.833 31 125.5C29.75 124.083 28.75 122.333 28 120.25C27.3333 118.083 26.875 115.708 26.625 113.125C26.375 110.458 26.2083 107.875 26.125 105.375C26.125 102.792 26.1667 100.417 26.25 98.25C26.3333 96.0833 26.375 94.4167 26.375 93.25C26.375 87.5833 26.375 81.9167 26.375 76.25C26.4583 70.5833 26.5417 64.9167 26.625 59.25C24.9583 57.8333 23.625 56.125 22.625 54.125C21.7083 52.0417 21.25 49.9167 21.25 47.75C21.25 44.3333 22.25 41.4167 24.25 39C26.3333 36.5833 29.1667 35.375 32.75 35.375C35.8333 35.375 38.25 36.5417 40 38.875C41.75 41.2083 43 44 43.75 47.25C44.5833 50.5 45.0833 53.8333 45.25 57.25C45.4167 60.5833 45.5 63.2917 45.5 65.375ZM128.875 83.625C128.875 89.2917 128 95 126.25 100.75C124.583 106.417 122.083 111.583 118.75 116.25C115.5 120.833 111.417 124.542 106.5 127.375C101.583 130.292 95.9167 131.75 89.5 131.75C84.0833 131.75 79.2083 130.333 74.875 127.5C70.5417 124.667 66.8333 121.083 63.75 116.75C60.75 112.333 58.4167 107.542 56.75 102.375C55.1667 97.125 54.375 92.0833 54.375 87.25C54.375 83.8333 54.8333 80.25 55.75 76.5C56.6667 72.75 57.9583 69.0417 59.625 65.375C61.375 61.7083 63.4167 58.2083 65.75 54.875C68.1667 51.4583 70.8333 48.5 73.75 46C76.75 43.4167 79.9583 41.375 83.375 39.875C86.875 38.375 90.5 37.625 94.25 37.625C100.667 37.625 106.083 39 110.5 41.75C114.917 44.5 118.458 48.0833 121.125 52.5C123.875 56.8333 125.833 61.75 127 67.25C128.25 72.6667 128.875 78.125 128.875 83.625ZM110.75 83C110.75 80.9167 110.458 78.4583 109.875 75.625C109.292 72.7917 108.375 70.125 107.125 67.625C105.958 65.125 104.417 63 102.5 61.25C100.583 59.5 98.2917 58.625 95.625 58.625C92.375 58.625 89.4583 59.6667 86.875 61.75C84.375 63.75 82.25 66.25 80.5 69.25C78.75 72.25 77.375 75.4583 76.375 78.875C75.4583 82.2917 75 85.375 75 88.125C75 90.2917 75.2917 92.75 75.875 95.5C76.4583 98.25 77.375 100.875 78.625 103.375C79.875 105.792 81.4583 107.875 83.375 109.625C85.375 111.292 87.7083 112.125 90.375 112.125C93.625 112.125 96.5 111.125 99 109.125C101.583 107.042 103.708 104.542 105.375 101.625C107.125 98.625 108.458 95.4583 109.375 92.125C110.292 88.7083 110.75 85.6667 110.75 83Z" fill="black"/>
<path d="M95.247 159.125C87.273 159.125 80.8087 165.371 80.8087 173.075C80.8184 175.597 81.5297 178.067 82.863 180.208C82.1826 180.109 81.4962 180.058 80.8087 180.054C72.837 180.054 66.375 186.298 66.375 194C66.375 201.704 72.8348 207.95 80.8087 207.952C82.7363 207.957 84.6461 207.585 86.4315 206.859C88.987 205.813 91.1906 204.059 92.7832 201.803C92.9272 201.596 93.0532 201.376 93.186 201.162C91.7842 212.194 90.7042 224.897 86.5867 228.875H103.909C99.792 224.897 98.712 212.194 97.3103 201.162C97.4453 201.376 97.569 201.596 97.713 201.803C99.3056 204.059 101.509 205.813 104.065 206.859C105.85 207.585 107.76 207.957 109.688 207.952C117.661 207.952 124.126 201.706 124.126 194.002C124.126 186.296 117.659 180.052 109.688 180.052C109.001 180.052 108.315 180.111 107.638 180.21C108.968 178.068 109.677 175.599 109.685 173.077C109.688 165.371 103.223 159.125 95.247 159.127V159.125Z" fill="black"/>
<path d="M584.5 814.625C584.5 812.042 584.542 809.458 584.625 806.875C584.708 804.292 584.792 801.708 584.875 799.125C585.042 794.875 585.125 790.625 585.125 786.375C585.125 782.208 585.25 778 585.5 773.75C585.583 772.333 585.667 770.417 585.75 768C585.833 765.667 586.167 763.333 586.75 761C587.25 758.75 588.083 756.75 589.25 755C590.417 753.333 592.042 752.5 594.125 752.5C596.125 752.5 597.75 753.167 599 754.5C600.25 755.917 601.25 757.667 602 759.75C602.667 761.917 603.125 764.292 603.375 766.875C603.625 769.542 603.792 772.125 603.875 774.625C603.875 777.208 603.833 779.583 603.75 781.75C603.667 783.917 603.625 785.583 603.625 786.75C603.625 792.417 603.625 798.083 603.625 803.75C603.542 809.417 603.458 815.083 603.375 820.75C605.042 822.167 606.375 823.875 607.375 825.875C608.292 827.958 608.75 830.083 608.75 832.25C608.75 835.667 607.75 838.583 605.75 841C603.667 843.417 600.833 844.625 597.25 844.625C594.167 844.625 591.75 843.458 590 841.125C588.25 838.792 587 836 586.25 832.75C585.417 829.5 584.917 826.167 584.75 822.75C584.583 819.417 584.5 816.708 584.5 814.625ZM501.125 796.375C501.125 790.708 502 785 503.75 779.25C505.417 773.583 507.917 768.417 511.25 763.75C514.5 759.167 518.583 755.458 523.5 752.625C528.417 749.708 534.083 748.25 540.5 748.25C545.917 748.25 550.792 749.667 555.125 752.5C559.458 755.333 563.167 758.917 566.25 763.25C569.25 767.667 571.583 772.458 573.25 777.625C574.833 782.875 575.625 787.917 575.625 792.75C575.625 796.167 575.167 799.75 574.25 803.5C573.333 807.25 572.042 810.958 570.375 814.625C568.625 818.292 566.583 821.792 564.25 825.125C561.833 828.542 559.167 831.5 556.25 834C553.25 836.583 550.042 838.625 546.625 840.125C543.125 841.625 539.5 842.375 535.75 842.375C529.333 842.375 523.917 841 519.5 838.25C515.083 835.5 511.542 831.917 508.875 827.5C506.125 823.167 504.167 818.25 503 812.75C501.75 807.333 501.125 801.875 501.125 796.375ZM519.25 797C519.25 799.083 519.542 801.542 520.125 804.375C520.708 807.208 521.625 809.875 522.875 812.375C524.042 814.875 525.583 817 527.5 818.75C529.417 820.5 531.708 821.375 534.375 821.375C537.625 821.375 540.542 820.333 543.125 818.25C545.625 816.25 547.75 813.75 549.5 810.75C551.25 807.75 552.625 804.542 553.625 801.125C554.542 797.708 555 794.625 555 791.875C555 789.708 554.708 787.25 554.125 784.5C553.542 781.75 552.625 779.125 551.375 776.625C550.125 774.208 548.542 772.125 546.625 770.375C544.625 768.708 542.292 767.875 539.625 767.875C536.375 767.875 533.5 768.875 531 770.875C528.417 772.958 526.292 775.458 524.625 778.375C522.875 781.375 521.542 784.542 520.625 787.875C519.708 791.292 519.25 794.333 519.25 797Z" fill="black"/>
<path d="M534.753 720.875C542.727 720.875 549.191 714.629 549.191 706.925C549.182 704.403 548.47 701.933 547.137 699.792C547.817 699.891 548.504 699.942 549.191 699.946C557.163 699.946 563.625 693.702 563.625 686C563.625 678.296 557.165 672.05 549.191 672.048C547.264 672.043 545.354 672.415 543.569 673.141C541.013 674.187 538.809 675.941 537.217 678.197C537.073 678.404 536.947 678.624 536.814 678.838C538.216 667.806 539.296 655.103 543.413 651.125H526.091C530.208 655.103 531.288 667.806 532.69 678.838C532.555 678.624 532.431 678.404 532.287 678.197C530.694 675.941 528.491 674.187 525.935 673.141C524.15 672.415 522.24 672.043 520.312 672.048C512.339 672.048 505.874 678.294 505.874 685.998C505.874 693.704 512.341 699.948 520.312 699.948C520.999 699.948 521.685 699.889 522.362 699.79C521.032 701.932 520.323 704.401 520.315 706.923C520.312 714.629 526.777 720.875 534.753 720.873V720.875Z" fill="black"/>
</svg>
