<svg width="630" height="880" viewBox="0 0 630 880" fill="none" xmlns="http://www.w3.org/2000/svg">
<rect x="2.5" y="2.5" width="625" height="875" rx="17.5" fill="white" stroke="black" stroke-width="5"/>
<path d="M313.66 96C299.484 96 287.992 107.104 287.992 120.8C288.009 125.284 289.274 129.674 291.644 133.48C290.434 133.306 289.214 133.214 287.992 133.208C273.82 133.208 262.332 144.308 262.332 158C262.332 171.696 273.816 182.8 287.992 182.804C291.419 182.812 294.814 182.152 297.988 180.86C302.531 179 306.449 175.882 309.28 171.872C309.536 171.504 309.76 171.112 309.996 170.732C307.504 190.344 305.584 212.928 298.264 220H329.06C321.74 212.928 319.82 190.344 317.328 170.732C317.568 171.112 317.788 171.504 318.044 171.872C320.875 175.882 324.793 179 329.336 180.86C332.51 182.152 335.905 182.812 339.332 182.804C353.508 182.804 365 171.7 365 158.004C365 144.304 353.504 133.204 339.332 133.204C338.112 133.204 336.892 133.308 335.688 133.484C338.054 129.677 339.314 125.286 339.328 120.804C339.332 107.104 327.84 95.9999 313.66 96.0039V96Z" fill="black"/>
<path d="M316.34 784C330.516 784 342.008 772.896 342.008 759.2C341.991 754.716 340.726 750.326 338.356 746.52C339.566 746.694 340.786 746.786 342.008 746.792C356.18 746.792 367.668 735.692 367.668 722C367.668 708.304 356.184 697.2 342.008 697.196C338.581 697.188 335.186 697.848 332.012 699.14C327.469 701 323.551 704.118 320.72 708.128C320.464 708.496 320.24 708.888 320.004 709.268C322.496 689.656 324.416 667.072 331.736 660H300.94C308.26 667.072 310.18 689.656 312.672 709.268C312.432 708.888 312.212 708.496 311.956 708.128C309.125 704.118 305.207 701 300.664 699.14C297.49 697.848 294.095 697.188 290.668 697.196C276.492 697.196 265 708.3 265 721.996C265 735.696 276.496 746.796 290.668 746.796C291.888 746.796 293.108 746.692 294.312 746.516C291.946 750.323 290.686 754.714 290.672 759.196C290.668 772.896 302.16 784 316.34 783.996V784Z" fill="black"/>
<path d="M122.375 115.5C122.375 117.917 121.583 119.875 120 121.375C118.417 122.875 116.5 123.833 114.25 124.25C111.75 124.833 108.917 125.375 105.75 125.875C102.583 126.292 99.3333 126.667 96 127C92.75 127.333 89.5417 127.583 86.375 127.75C83.2083 127.917 80.3333 128 77.75 128C77.0833 128 76.125 127.958 74.875 127.875C73.7083 127.875 72.4583 127.792 71.125 127.625C69.875 127.542 68.6667 127.375 67.5 127.125C66.4167 126.875 65.5833 126.542 65 126.125C64.4167 125.625 63.875 124.958 63.375 124.125C62.9583 123.208 62.5833 122.25 62.25 121.25C61.9167 120.167 61.6667 119.125 61.5 118.125C61.3333 117.125 61.25 116.25 61.25 115.5C61.25 114.333 61.375 113.292 61.625 112.375C61.9583 111.375 62.5417 110.458 63.375 109.625C64.375 108.542 65.4167 107.5 66.5 106.5C67.5833 105.417 68.625 104.375 69.625 103.375C70.7917 102.125 72.3333 100.5 74.25 98.5C76.1667 96.4167 78.2083 94.125 80.375 91.625C82.625 89.0417 84.8333 86.375 87 83.625C89.25 80.7917 91.2917 78.0417 93.125 75.375C94.9583 72.7083 96.4167 70.2083 97.5 67.875C98.6667 65.5417 99.25 63.5417 99.25 61.875C99.25 60.2917 98.7917 59 97.875 58C96.9583 56.9167 95.7083 56.375 94.125 56.375C92.375 56.375 90.75 57 89.25 58.25C87.75 59.5 86.25 60.875 84.75 62.375C83.25 63.7917 81.625 65.125 79.875 66.375C78.2083 67.625 76.2917 68.25 74.125 68.25C71.5417 68.25 69.5 67.5 68 66C66.5833 64.5 65.875 62.5 65.875 60C65.875 56.3333 66.6667 52.9583 68.25 49.875C69.9167 46.7083 72.0833 44 74.75 41.75C77.4167 39.5 80.4167 37.75 83.75 36.5C87.0833 35.1667 90.5 34.5 94 34.5C97.5833 34.5 100.917 34.9167 104 35.75C107.083 36.5833 109.75 37.875 112 39.625C114.25 41.375 116 43.625 117.25 46.375C118.583 49.0417 119.25 52.2917 119.25 56.125C119.25 59.125 118.708 62.2917 117.625 65.625C116.625 68.875 115.25 72.1667 113.5 75.5C111.833 78.8333 109.875 82.1667 107.625 85.5C105.458 88.75 103.208 91.875 100.875 94.875C98.5417 97.875 96.2083 100.667 93.875 103.25C91.5417 105.833 89.4167 108.083 87.5 110C91.5833 109.5 95.875 109 100.375 108.5C104.875 108 109.208 107.75 113.375 107.75C115.792 107.75 117.875 108.417 119.625 109.75C121.458 111 122.375 112.917 122.375 115.5Z" fill="black"/>
<path d="M95.247 159.125C87.273 159.125 80.8087 165.371 80.8087 173.075C80.8184 175.597 81.5297 178.067 82.863 180.208C82.1826 180.109 81.4962 180.058 80.8087 180.054C72.837 180.054 66.375 186.298 66.375 194C66.375 201.704 72.8348 207.95 80.8087 207.952C82.7363 207.957 84.6461 207.585 86.4315 206.859C88.987 205.813 91.1906 204.059 92.7832 201.803C92.9272 201.596 93.0532 201.376 93.186 201.162C91.7842 212.194 90.7042 224.897 86.5867 228.875H103.909C99.792 224.897 98.712 212.194 97.3103 201.162C97.4453 201.376 97.569 201.596 97.713 201.803C99.3056 204.059 101.509 205.813 104.065 206.859C105.85 207.585 107.76 207.957 109.688 207.952C117.661 207.952 124.126 201.706 124.126 194.002C124.126 186.296 117.659 180.052 109.688 180.052C109.001 180.052 108.315 180.111 107.638 180.21C108.968 178.068 109.677 175.599 109.685 173.077C109.688 165.371 103.223 159.125 95.247 159.127V159.125Z" fill="black"/>
<path d="M507.625 764.5C507.625 762.083 508.417 760.125 510 758.625C511.583 757.125 513.5 756.167 515.75 755.75C518.25 755.167 521.083 754.625 524.25 754.125C527.417 753.708 530.667 753.333 534 753C537.25 752.667 540.458 752.417 543.625 752.25C546.792 752.083 549.667 752 552.25 752C552.917 752 553.875 752.042 555.125 752.125C556.292 752.125 557.542 752.208 558.875 752.375C560.125 752.458 561.333 752.625 562.5 752.875C563.583 753.125 564.417 753.458 565 753.875C565.583 754.375 566.125 755.042 566.625 755.875C567.042 756.792 567.417 757.75 567.75 758.75C568.083 759.833 568.333 760.875 568.5 761.875C568.667 762.875 568.75 763.75 568.75 764.5C568.75 765.667 568.625 766.708 568.375 767.625C568.042 768.625 567.458 769.542 566.625 770.375C565.625 771.458 564.583 772.5 563.5 773.5C562.417 774.583 561.375 775.625 560.375 776.625C559.208 777.875 557.667 779.5 555.75 781.5C553.833 783.583 551.792 785.875 549.625 788.375C547.375 790.958 545.167 793.625 543 796.375C540.75 799.208 538.708 801.958 536.875 804.625C535.042 807.292 533.583 809.792 532.5 812.125C531.333 814.458 530.75 816.458 530.75 818.125C530.75 819.708 531.208 821 532.125 822C533.042 823.083 534.292 823.625 535.875 823.625C537.625 823.625 539.25 823 540.75 821.75C542.25 820.5 543.75 819.125 545.25 817.625C546.75 816.208 548.375 814.875 550.125 813.625C551.792 812.375 553.708 811.75 555.875 811.75C558.458 811.75 560.5 812.5 562 814C563.417 815.5 564.125 817.5 564.125 820C564.125 823.667 563.333 827.042 561.75 830.125C560.083 833.292 557.917 836 555.25 838.25C552.583 840.5 549.583 842.25 546.25 843.5C542.917 844.833 539.5 845.5 536 845.5C532.417 845.5 529.083 845.083 526 844.25C522.917 843.417 520.25 842.125 518 840.375C515.75 838.625 514 836.375 512.75 833.625C511.417 830.958 510.75 827.708 510.75 823.875C510.75 820.875 511.292 817.708 512.375 814.375C513.375 811.125 514.75 807.833 516.5 804.5C518.167 801.167 520.125 797.833 522.375 794.5C524.542 791.25 526.792 788.125 529.125 785.125C531.458 782.125 533.792 779.333 536.125 776.75C538.458 774.167 540.583 771.917 542.5 770C538.417 770.5 534.125 771 529.625 771.5C525.125 772 520.792 772.25 516.625 772.25C514.208 772.25 512.125 771.583 510.375 770.25C508.542 769 507.625 767.083 507.625 764.5Z" fill="black"/>
<path d="M534.753 720.875C542.727 720.875 549.191 714.629 549.191 706.925C549.182 704.403 548.47 701.933 547.137 699.792C547.817 699.891 548.504 699.942 549.191 699.946C557.163 699.946 563.625 693.702 563.625 686C563.625 678.296 557.165 672.05 549.191 672.048C547.264 672.043 545.354 672.415 543.569 673.141C541.013 674.187 538.809 675.941 537.217 678.197C537.073 678.404 536.947 678.624 536.814 678.838C538.216 667.806 539.296 655.103 543.413 651.125H526.091C530.208 655.103 531.288 667.806 532.69 678.838C532.555 678.624 532.431 678.404 532.287 678.197C530.694 675.941 528.491 674.187 525.935 673.141C524.15 672.415 522.24 672.043 520.312 672.048C512.339 672.048 505.874 678.294 505.874 685.998C505.874 693.704 512.341 699.948 520.312 699.948C520.999 699.948 521.685 699.889 522.362 699.79C521.032 701.932 520.323 704.401 520.315 706.923C520.312 714.629 526.777 720.875 534.753 720.873V720.875Z" fill="black"/>
</svg>
