<svg width="630" height="880" viewBox="0 0 630 880" fill="none" xmlns="http://www.w3.org/2000/svg">
<rect x="2.5" y="2.5" width="625" height="875" rx="17.5" fill="white" stroke="black" stroke-width="5"/>
<path fill-rule="evenodd" clip-rule="evenodd" d="M259 160C277.368 147.6 301.86 122.8 314.104 98C326.348 122.8 350.84 147.6 369.208 160C350.84 172.4 326.348 197.2 314.104 222C301.86 197.2 277.368 172.4 259 160Z" fill="#E20000"/>
<path fill-rule="evenodd" clip-rule="evenodd" d="M259 442C277.368 429.6 301.86 404.8 314.104 380C326.348 404.8 350.84 429.6 369.208 442C350.84 454.4 326.348 479.2 314.104 504C301.86 479.2 277.368 454.4 259 442Z" fill="#E20000"/>
<path fill-rule="evenodd" clip-rule="evenodd" d="M371 720C352.632 732.4 328.14 757.2 315.896 782C303.652 757.2 279.16 732.4 260.792 720C279.16 707.6 303.652 682.8 315.896 658C328.14 682.8 352.632 707.6 371 720Z" fill="#E20000"/>
<path d="M118.5 98C118.5 102.667 117.583 106.958 115.75 110.875C113.917 114.792 111.458 118.208 108.375 121.125C105.292 123.958 101.708 126.167 97.625 127.75C93.5417 129.417 89.2917 130.25 84.875 130.25C83.2083 130.25 81.125 130.083 78.625 129.75C76.2083 129.5 73.875 128.958 71.625 128.125C69.375 127.292 67.4583 126.167 65.875 124.75C64.2917 123.333 63.5 121.5 63.5 119.25C63.5 116.833 64.125 114.958 65.375 113.625C66.7083 112.292 68.5833 111.625 71 111.625C73.4167 111.625 75.75 111.875 78 112.375C80.3333 112.792 82.7083 113 85.125 113C86.9583 113 88.7917 112.708 90.625 112.125C92.4583 111.542 94.0833 110.708 95.5 109.625C97 108.458 98.2083 107.125 99.125 105.625C100.042 104.042 100.5 102.25 100.5 100.25C100.5 99.1667 100.292 97.8333 99.875 96.25C99.4583 94.6667 98.875 93.2083 98.125 91.875C97.375 90.4583 96.4583 89.25 95.375 88.25C94.2917 87.25 93.0833 86.75 91.75 86.75C90.5 86.75 89.25 86.9583 88 87.375C86.8333 87.7917 85.5833 88.25 84.25 88.75C83 89.1667 81.7083 89.5833 80.375 90C79.0417 90.4167 77.6667 90.625 76.25 90.625C74.4167 90.625 73.0417 89.875 72.125 88.375C71.2917 86.7917 70.875 85.25 70.875 83.75C70.875 80.25 72.4583 77.875 75.625 76.625C77.2917 75.9583 79.375 75.0833 81.875 74C84.4583 72.8333 86.9583 71.5 89.375 70C91.7917 68.5 93.875 66.8333 95.625 65C97.375 63.0833 98.25 61.0417 98.25 58.875C98.25 57.2083 97.5833 55.5833 96.25 54C94.9167 52.4167 93.3333 51.625 91.5 51.625C89.6667 51.625 87.9583 52.125 86.375 53.125C84.7917 54.125 83.2083 55.25 81.625 56.5C80.125 57.6667 78.5417 58.75 76.875 59.75C75.2917 60.75 73.5833 61.25 71.75 61.25C70.8333 61.25 69.875 61.0833 68.875 60.75C67.875 60.3333 66.9583 59.8333 66.125 59.25C65.2917 58.5833 64.5833 57.7917 64 56.875C63.5 55.9583 63.25 55 63.25 54C63.25 52.8333 63.5 51.625 64 50.375C64.5 49.125 65.0833 48.0417 65.75 47.125C68.5833 42.7917 72.3333 39.5417 77 37.375C81.75 35.2083 86.625 34.125 91.625 34.125C99.2917 34.125 105.375 36.2083 109.875 40.375C114.458 44.5417 116.75 50.4167 116.75 58C116.75 62.5 115.792 66.4583 113.875 69.875C112.042 73.2917 108.875 75.75 104.375 77.25C106.792 77.75 108.875 78.7083 110.625 80.125C112.458 81.4583 113.958 83.0833 115.125 85C116.292 86.9167 117.125 89 117.625 91.25C118.208 93.5 118.5 95.75 118.5 98Z" fill="#E20000"/>
<path fill-rule="evenodd" clip-rule="evenodd" d="M64.5 195.125C74.832 188.15 88.6087 174.2 95.496 160.25C102.383 174.2 116.16 188.15 126.492 195.125C116.16 202.1 102.383 216.05 95.496 230C88.6087 216.05 74.832 202.1 64.5 195.125Z" fill="#E20000"/>
<path d="M511.5 782C511.5 777.333 512.417 773.042 514.25 769.125C516.083 765.208 518.542 761.792 521.625 758.875C524.708 756.042 528.292 753.833 532.375 752.25C536.458 750.583 540.708 749.75 545.125 749.75C546.792 749.75 548.875 749.917 551.375 750.25C553.792 750.5 556.125 751.042 558.375 751.875C560.625 752.708 562.542 753.833 564.125 755.25C565.708 756.667 566.5 758.5 566.5 760.75C566.5 763.167 565.875 765.042 564.625 766.375C563.292 767.708 561.417 768.375 559 768.375C556.583 768.375 554.25 768.125 552 767.625C549.667 767.208 547.292 767 544.875 767C543.042 767 541.208 767.292 539.375 767.875C537.542 768.458 535.917 769.292 534.5 770.375C533 771.542 531.792 772.875 530.875 774.375C529.958 775.958 529.5 777.75 529.5 779.75C529.5 780.833 529.708 782.167 530.125 783.75C530.542 785.333 531.125 786.792 531.875 788.125C532.625 789.542 533.542 790.75 534.625 791.75C535.708 792.75 536.917 793.25 538.25 793.25C539.5 793.25 540.75 793.042 542 792.625C543.167 792.208 544.417 791.75 545.75 791.25C547 790.833 548.292 790.417 549.625 790C550.958 789.583 552.333 789.375 553.75 789.375C555.583 789.375 556.958 790.125 557.875 791.625C558.708 793.208 559.125 794.75 559.125 796.25C559.125 799.75 557.542 802.125 554.375 803.375C552.708 804.042 550.625 804.917 548.125 806C545.542 807.167 543.042 808.5 540.625 810C538.208 811.5 536.125 813.167 534.375 815C532.625 816.917 531.75 818.958 531.75 821.125C531.75 822.792 532.417 824.417 533.75 826C535.083 827.583 536.667 828.375 538.5 828.375C540.333 828.375 542.042 827.875 543.625 826.875C545.208 825.875 546.792 824.75 548.375 823.5C549.875 822.333 551.458 821.25 553.125 820.25C554.708 819.25 556.417 818.75 558.25 818.75C559.167 818.75 560.125 818.917 561.125 819.25C562.125 819.667 563.042 820.167 563.875 820.75C564.708 821.417 565.417 822.208 566 823.125C566.5 824.042 566.75 825 566.75 826C566.75 827.167 566.5 828.375 566 829.625C565.5 830.875 564.917 831.958 564.25 832.875C561.417 837.208 557.667 840.458 553 842.625C548.25 844.792 543.375 845.875 538.375 845.875C530.708 845.875 524.625 843.792 520.125 839.625C515.542 835.458 513.25 829.583 513.25 822C513.25 817.5 514.208 813.542 516.125 810.125C517.958 806.708 521.125 804.25 525.625 802.75C523.208 802.25 521.125 801.292 519.375 799.875C517.542 798.542 516.042 796.917 514.875 795C513.708 793.083 512.875 791 512.375 788.75C511.792 786.5 511.5 784.25 511.5 782Z" fill="#E20000"/>
<path fill-rule="evenodd" clip-rule="evenodd" d="M565.5 684.875C555.168 691.85 541.391 705.8 534.504 719.75C527.617 705.8 513.84 691.85 503.508 684.875C513.84 677.9 527.617 663.95 534.504 650C541.391 663.95 555.168 677.9 565.5 684.875Z" fill="#E20000"/>
</svg>
