<svg width="630" height="880" viewBox="0 0 630 880" fill="none" xmlns="http://www.w3.org/2000/svg">
<rect x="2.5" y="2.5" width="625" height="875" rx="17.5" fill="white" stroke="black" stroke-width="5"/>
<path fill-rule="evenodd" clip-rule="evenodd" d="M314.535 96L272.435 135.428C260.547 146.44 256.843 169.168 271.991 179.6C277.231 183.512 283.895 185.688 290.591 185.676V185.592C298.335 186.192 305.603 182.092 311.207 177.792C308.771 194.872 306.807 213.032 299.599 219.996H330.399C323.347 213.18 320.135 194.448 317.767 177.688C332.219 189.468 352.047 187.564 361.927 175.072C372.571 163.22 368.291 146.432 356.111 134.924L314.535 96Z" fill="black"/>
<path fill-rule="evenodd" clip-rule="evenodd" d="M314.535 378L272.435 417.428C260.547 428.44 256.843 451.168 271.991 461.6C277.231 465.512 283.895 467.688 290.591 467.676V467.592C298.335 468.192 305.603 464.092 311.207 459.792C308.771 476.872 306.807 495.032 299.599 501.996H330.399C323.347 495.18 320.135 476.448 317.767 459.688C332.219 471.468 352.047 469.564 361.927 457.072C372.571 445.22 368.291 428.432 356.111 416.924L314.535 378Z" fill="black"/>
<path fill-rule="evenodd" clip-rule="evenodd" d="M315.465 784L357.565 744.572C369.453 733.56 373.157 710.832 358.009 700.4C352.769 696.488 346.105 694.312 339.409 694.324V694.408C331.665 693.808 324.397 697.908 318.793 702.208C321.229 685.128 323.193 666.968 330.401 660.004H299.601C306.653 666.82 309.865 685.552 312.233 702.312C297.781 690.532 277.953 692.436 268.073 704.928C257.429 716.78 261.709 733.568 273.889 745.076L315.465 784Z" fill="black"/>
<path d="M118.5 98C118.5 102.667 117.583 106.958 115.75 110.875C113.917 114.792 111.458 118.208 108.375 121.125C105.292 123.958 101.708 126.167 97.625 127.75C93.5417 129.417 89.2917 130.25 84.875 130.25C83.2083 130.25 81.125 130.083 78.625 129.75C76.2083 129.5 73.875 128.958 71.625 128.125C69.375 127.292 67.4583 126.167 65.875 124.75C64.2917 123.333 63.5 121.5 63.5 119.25C63.5 116.833 64.125 114.958 65.375 113.625C66.7083 112.292 68.5833 111.625 71 111.625C73.4167 111.625 75.75 111.875 78 112.375C80.3333 112.792 82.7083 113 85.125 113C86.9583 113 88.7917 112.708 90.625 112.125C92.4583 111.542 94.0833 110.708 95.5 109.625C97 108.458 98.2083 107.125 99.125 105.625C100.042 104.042 100.5 102.25 100.5 100.25C100.5 99.1667 100.292 97.8333 99.875 96.25C99.4583 94.6667 98.875 93.2083 98.125 91.875C97.375 90.4583 96.4583 89.25 95.375 88.25C94.2917 87.25 93.0833 86.75 91.75 86.75C90.5 86.75 89.25 86.9583 88 87.375C86.8333 87.7917 85.5833 88.25 84.25 88.75C83 89.1667 81.7083 89.5833 80.375 90C79.0417 90.4167 77.6667 90.625 76.25 90.625C74.4167 90.625 73.0417 89.875 72.125 88.375C71.2917 86.7917 70.875 85.25 70.875 83.75C70.875 80.25 72.4583 77.875 75.625 76.625C77.2917 75.9583 79.375 75.0833 81.875 74C84.4583 72.8333 86.9583 71.5 89.375 70C91.7917 68.5 93.875 66.8333 95.625 65C97.375 63.0833 98.25 61.0417 98.25 58.875C98.25 57.2083 97.5833 55.5833 96.25 54C94.9167 52.4167 93.3333 51.625 91.5 51.625C89.6667 51.625 87.9583 52.125 86.375 53.125C84.7917 54.125 83.2083 55.25 81.625 56.5C80.125 57.6667 78.5417 58.75 76.875 59.75C75.2917 60.75 73.5833 61.25 71.75 61.25C70.8333 61.25 69.875 61.0833 68.875 60.75C67.875 60.3333 66.9583 59.8333 66.125 59.25C65.2917 58.5833 64.5833 57.7917 64 56.875C63.5 55.9583 63.25 55 63.25 54C63.25 52.8333 63.5 51.625 64 50.375C64.5 49.125 65.0833 48.0417 65.75 47.125C68.5833 42.7917 72.3333 39.5417 77 37.375C81.75 35.2083 86.625 34.125 91.625 34.125C99.2917 34.125 105.375 36.2083 109.875 40.375C114.458 44.5417 116.75 50.4167 116.75 58C116.75 62.5 115.792 66.4583 113.875 69.875C112.042 73.2917 108.875 75.75 104.375 77.25C106.792 77.75 108.875 78.7083 110.625 80.125C112.458 81.4583 113.958 83.0833 115.125 85C116.292 86.9167 117.125 89 117.625 91.25C118.208 93.5 118.5 95.75 118.5 98Z" fill="black"/>
<path fill-rule="evenodd" clip-rule="evenodd" d="M95.7395 159.125L72.0583 181.303C65.3713 187.498 63.2878 200.282 71.8085 206.15C74.756 208.35 78.5045 209.575 82.271 209.568V209.521C86.627 209.858 90.7153 207.552 93.8675 205.133C92.4973 214.74 91.3925 224.956 87.338 228.873H104.663C100.696 225.039 98.8895 214.502 97.5575 205.075C105.687 211.701 116.84 210.63 122.398 203.603C128.385 196.936 125.977 187.493 119.126 181.02L95.7395 159.125Z" fill="black"/>
<path d="M511.5 782C511.5 777.333 512.417 773.042 514.25 769.125C516.083 765.208 518.542 761.792 521.625 758.875C524.708 756.042 528.292 753.833 532.375 752.25C536.458 750.583 540.708 749.75 545.125 749.75C546.792 749.75 548.875 749.917 551.375 750.25C553.792 750.5 556.125 751.042 558.375 751.875C560.625 752.708 562.542 753.833 564.125 755.25C565.708 756.667 566.5 758.5 566.5 760.75C566.5 763.167 565.875 765.042 564.625 766.375C563.292 767.708 561.417 768.375 559 768.375C556.583 768.375 554.25 768.125 552 767.625C549.667 767.208 547.292 767 544.875 767C543.042 767 541.208 767.292 539.375 767.875C537.542 768.458 535.917 769.292 534.5 770.375C533 771.542 531.792 772.875 530.875 774.375C529.958 775.958 529.5 777.75 529.5 779.75C529.5 780.833 529.708 782.167 530.125 783.75C530.542 785.333 531.125 786.792 531.875 788.125C532.625 789.542 533.542 790.75 534.625 791.75C535.708 792.75 536.917 793.25 538.25 793.25C539.5 793.25 540.75 793.042 542 792.625C543.167 792.208 544.417 791.75 545.75 791.25C547 790.833 548.292 790.417 549.625 790C550.958 789.583 552.333 789.375 553.75 789.375C555.583 789.375 556.958 790.125 557.875 791.625C558.708 793.208 559.125 794.75 559.125 796.25C559.125 799.75 557.542 802.125 554.375 803.375C552.708 804.042 550.625 804.917 548.125 806C545.542 807.167 543.042 808.5 540.625 810C538.208 811.5 536.125 813.167 534.375 815C532.625 816.917 531.75 818.958 531.75 821.125C531.75 822.792 532.417 824.417 533.75 826C535.083 827.583 536.667 828.375 538.5 828.375C540.333 828.375 542.042 827.875 543.625 826.875C545.208 825.875 546.792 824.75 548.375 823.5C549.875 822.333 551.458 821.25 553.125 820.25C554.708 819.25 556.417 818.75 558.25 818.75C559.167 818.75 560.125 818.917 561.125 819.25C562.125 819.667 563.042 820.167 563.875 820.75C564.708 821.417 565.417 822.208 566 823.125C566.5 824.042 566.75 825 566.75 826C566.75 827.167 566.5 828.375 566 829.625C565.5 830.875 564.917 831.958 564.25 832.875C561.417 837.208 557.667 840.458 553 842.625C548.25 844.792 543.375 845.875 538.375 845.875C530.708 845.875 524.625 843.792 520.125 839.625C515.542 835.458 513.25 829.583 513.25 822C513.25 817.5 514.208 813.542 516.125 810.125C517.958 806.708 521.125 804.25 525.625 802.75C523.208 802.25 521.125 801.292 519.375 799.875C517.542 798.542 516.042 796.917 514.875 795C513.708 793.083 512.875 791 512.375 788.75C511.792 786.5 511.5 784.25 511.5 782Z" fill="black"/>
<path fill-rule="evenodd" clip-rule="evenodd" d="M534.26 720.875L557.942 698.697C564.629 692.502 566.712 679.718 558.191 673.85C555.244 671.65 551.495 670.425 547.729 670.432V670.479C543.373 670.142 539.285 672.448 536.132 674.867C537.503 665.26 538.607 655.044 542.662 651.127H525.337C529.304 654.961 531.11 665.498 532.442 674.925C524.313 668.299 513.16 669.37 507.602 676.397C501.615 683.064 504.023 692.507 510.874 698.98L534.26 720.875Z" fill="black"/>
</svg>
