<svg width="630" height="880" viewBox="0 0 630 880" fill="none" xmlns="http://www.w3.org/2000/svg">
<rect x="2.5" y="2.5" width="625" height="875" rx="17.5" fill="white" stroke="black" stroke-width="5"/>
<path fill-rule="evenodd" clip-rule="evenodd" d="M156 160C174.368 147.6 198.86 122.8 211.104 98C223.348 122.8 247.84 147.6 266.208 160C247.84 172.4 223.348 197.2 211.104 222C198.86 197.2 174.368 172.4 156 160Z" fill="#E20000"/>
<path fill-rule="evenodd" clip-rule="evenodd" d="M362 160C380.368 147.6 404.86 122.8 417.104 98C429.348 122.8 453.84 147.6 472.208 160C453.84 172.4 429.348 197.2 417.104 222C404.86 197.2 380.368 172.4 362 160Z" fill="#E20000"/>
<path fill-rule="evenodd" clip-rule="evenodd" d="M268 720C249.632 732.4 225.14 757.2 212.896 782C200.652 757.2 176.16 732.4 157.792 720C176.16 707.6 200.652 682.8 212.896 658C225.14 682.8 249.632 707.6 268 720Z" fill="#E20000"/>
<path fill-rule="evenodd" clip-rule="evenodd" d="M474 720C455.632 732.4 431.14 757.2 418.896 782C406.652 757.2 382.16 732.4 363.792 720C382.16 707.6 406.652 682.8 418.896 658C431.14 682.8 455.632 707.6 474 720Z" fill="#E20000"/>
<path d="M130.5 76.625C130.5 78.7917 129.917 80.5 128.75 81.75C127.583 83 126 83.8333 124 84.25C120.083 85.1667 116.25 85.7917 112.5 86.125C112.167 89.375 111.875 92.625 111.625 95.875C111.375 99.0417 111.125 102.208 110.875 105.375C110.708 106.875 110.542 108.958 110.375 111.625C110.208 114.208 109.792 116.75 109.125 119.25C108.542 121.75 107.625 123.958 106.375 125.875C105.208 127.708 103.583 128.625 101.5 128.625C99.5 128.625 97.9167 127.75 96.75 126C95.6667 124.25 94.8333 122.208 94.25 119.875C93.6667 117.542 93.2917 115.208 93.125 112.875C92.9583 110.458 92.875 108.583 92.875 107.25C92.875 103.833 92.9583 100.5 93.125 97.25C93.375 93.9167 93.5833 90.5833 93.75 87.25C91.5833 87.4167 89.4167 87.5417 87.25 87.625C85.0833 87.625 82.9167 87.625 80.75 87.625C79.75 87.625 78.5 87.625 77 87.625C75.5 87.5417 74 87.4167 72.5 87.25C71 87.0833 69.5833 86.7917 68.25 86.375C67 85.875 66.0833 85.1667 65.5 84.25C65.0833 83.6667 64.75 82.6667 64.5 81.25C64.3333 79.75 64.1667 78.1667 64 76.5C63.9167 74.75 63.875 73.0833 63.875 71.5C63.875 69.9167 63.875 68.75 63.875 68C63.875 66.0833 63.875 64.2083 63.875 62.375C63.875 60.5417 63.9583 58.6667 64.125 56.75C64.2083 54.9167 64.2917 52.75 64.375 50.25C64.5417 47.6667 64.9583 45.2083 65.625 42.875C66.375 40.5417 67.4167 38.5417 68.75 36.875C70.1667 35.2083 72.1667 34.375 74.75 34.375C76.3333 34.375 77.5833 35.125 78.5 36.625C79.5 38.125 80.25 39.875 80.75 41.875C81.3333 43.875 81.7083 45.9167 81.875 48C82.0417 50 82.125 51.5417 82.125 52.625C82.125 55.125 82 57.625 81.75 60.125C81.5833 62.625 81.2917 65.0833 80.875 67.5C83.2917 67.3333 85.6667 67.2083 88 67.125C90.4167 66.9583 92.8333 66.7917 95.25 66.625C95.3333 65.7917 95.4583 64.125 95.625 61.625C95.875 59.0417 96.1667 56.3333 96.5 53.5C96.8333 50.5833 97.1667 47.875 97.5 45.375C97.8333 42.875 98.1667 41.25 98.5 40.5C99.1667 38.9167 100.208 37.625 101.625 36.625C103.042 35.5417 104.667 35 106.5 35C108.667 35 110.208 35.6667 111.125 37C112.042 38.3333 112.667 39.9167 113 41.75C113.417 44.0833 113.667 46.5 113.75 49C113.833 51.5 113.875 53.9583 113.875 56.375C113.875 59.9583 113.75 63.5417 113.5 67.125C115.333 67.2917 117.125 67.5 118.875 67.75C120.625 68 122.417 68.3333 124.25 68.75C126.25 69.1667 127.792 70.0833 128.875 71.5C129.958 72.9167 130.5 74.625 130.5 76.625Z" fill="#E20000"/>
<path fill-rule="evenodd" clip-rule="evenodd" d="M64.5 195.125C74.832 188.15 88.6087 174.2 95.496 160.25C102.383 174.2 116.16 188.15 126.492 195.125C116.16 202.1 102.383 216.05 95.496 230C88.6087 216.05 74.832 202.1 64.5 195.125Z" fill="#E20000"/>
<path d="M499.5 803.375C499.5 801.208 500.083 799.5 501.25 798.25C502.417 797 504 796.167 506 795.75C509.917 794.833 513.75 794.208 517.5 793.875C517.833 790.625 518.125 787.375 518.375 784.125C518.625 780.958 518.875 777.792 519.125 774.625C519.292 773.125 519.458 771.042 519.625 768.375C519.792 765.792 520.208 763.25 520.875 760.75C521.458 758.25 522.375 756.042 523.625 754.125C524.792 752.292 526.417 751.375 528.5 751.375C530.5 751.375 532.083 752.25 533.25 754C534.333 755.75 535.167 757.792 535.75 760.125C536.333 762.458 536.708 764.792 536.875 767.125C537.042 769.542 537.125 771.417 537.125 772.75C537.125 776.167 537.042 779.5 536.875 782.75C536.625 786.083 536.417 789.417 536.25 792.75C538.417 792.583 540.583 792.458 542.75 792.375C544.917 792.375 547.083 792.375 549.25 792.375C550.25 792.375 551.5 792.375 553 792.375C554.5 792.458 556 792.583 557.5 792.75C559 792.917 560.417 793.208 561.75 793.625C563 794.125 563.917 794.833 564.5 795.75C564.917 796.333 565.25 797.333 565.5 798.75C565.667 800.25 565.833 801.833 566 803.5C566.083 805.25 566.125 806.917 566.125 808.5C566.125 810.083 566.125 811.25 566.125 812C566.125 813.917 566.125 815.792 566.125 817.625C566.125 819.458 566.042 821.333 565.875 823.25C565.792 825.083 565.708 827.25 565.625 829.75C565.458 832.333 565.042 834.792 564.375 837.125C563.625 839.458 562.583 841.458 561.25 843.125C559.833 844.792 557.833 845.625 555.25 845.625C553.667 845.625 552.417 844.875 551.5 843.375C550.5 841.875 549.75 840.125 549.25 838.125C548.667 836.125 548.292 834.083 548.125 832C547.958 830 547.875 828.458 547.875 827.375C547.875 824.875 548 822.375 548.25 819.875C548.417 817.375 548.708 814.917 549.125 812.5C546.708 812.667 544.333 812.792 542 812.875C539.583 813.042 537.167 813.208 534.75 813.375C534.667 814.208 534.542 815.875 534.375 818.375C534.125 820.958 533.833 823.667 533.5 826.5C533.167 829.417 532.833 832.125 532.5 834.625C532.167 837.125 531.833 838.75 531.5 839.5C530.833 841.083 529.792 842.375 528.375 843.375C526.958 844.458 525.333 845 523.5 845C521.333 845 519.792 844.333 518.875 843C517.958 841.667 517.333 840.083 517 838.25C516.583 835.917 516.333 833.5 516.25 831C516.167 828.5 516.125 826.042 516.125 823.625C516.125 820.042 516.25 816.458 516.5 812.875C514.667 812.708 512.875 812.5 511.125 812.25C509.375 812 507.583 811.667 505.75 811.25C503.75 810.833 502.208 809.917 501.125 808.5C500.042 807.083 499.5 805.375 499.5 803.375Z" fill="#E20000"/>
<path fill-rule="evenodd" clip-rule="evenodd" d="M565.5 684.875C555.168 691.85 541.391 705.8 534.504 719.75C527.617 705.8 513.84 691.85 503.508 684.875C513.84 677.9 527.617 663.95 534.504 650C541.391 663.95 555.168 677.9 565.5 684.875Z" fill="#E20000"/>
</svg>
