<svg width="630" height="880" viewBox="0 0 630 880" fill="none" xmlns="http://www.w3.org/2000/svg">
<rect x="2.5" y="2.5" width="625" height="875" rx="17.5" fill="white" stroke="black" stroke-width="5"/>
<path d="M210.66 96C196.484 96 184.992 107.104 184.992 120.8C185.009 125.284 186.274 129.674 188.644 133.48C187.434 133.306 186.214 133.214 184.992 133.208C170.82 133.208 159.332 144.308 159.332 158C159.332 171.696 170.816 182.8 184.992 182.804C188.419 182.812 191.814 182.152 194.988 180.86C199.531 179 203.449 175.882 206.28 171.872C206.536 171.504 206.76 171.112 206.996 170.732C204.504 190.344 202.584 212.928 195.264 220H226.06C218.74 212.928 216.82 190.344 214.328 170.732C214.568 171.112 214.788 171.504 215.044 171.872C217.875 175.882 221.793 179 226.336 180.86C229.51 182.152 232.905 182.812 236.332 182.804C250.508 182.804 262 171.7 262 158.004C262 144.304 250.504 133.204 236.332 133.204C235.112 133.204 233.892 133.308 232.688 133.484C235.054 129.677 236.314 125.286 236.328 120.804C236.332 107.104 224.84 95.9999 210.66 96.0039V96Z" fill="black"/>
<path d="M416.66 96C402.484 96 390.992 107.104 390.992 120.8C391.009 125.284 392.274 129.674 394.644 133.48C393.434 133.306 392.214 133.214 390.992 133.208C376.82 133.208 365.332 144.308 365.332 158C365.332 171.696 376.816 182.8 390.992 182.804C394.419 182.812 397.814 182.152 400.988 180.86C405.531 179 409.449 175.882 412.28 171.872C412.536 171.504 412.76 171.112 412.996 170.732C410.504 190.344 408.584 212.928 401.264 220H432.06C424.74 212.928 422.82 190.344 420.328 170.732C420.568 171.112 420.788 171.504 421.044 171.872C423.875 175.882 427.793 179 432.336 180.86C435.51 182.152 438.905 182.812 442.332 182.804C456.508 182.804 468 171.7 468 158.004C468 144.304 456.504 133.204 442.332 133.204C441.112 133.204 439.892 133.308 438.688 133.484C441.054 129.677 442.314 125.286 442.328 120.804C442.332 107.104 430.84 95.9999 416.66 96.0039V96Z" fill="black"/>
<path d="M213.34 784C227.516 784 239.008 772.896 239.008 759.2C238.991 754.716 237.726 750.326 235.356 746.52C236.566 746.694 237.786 746.786 239.008 746.792C253.18 746.792 264.668 735.692 264.668 722C264.668 708.304 253.184 697.2 239.008 697.196C235.581 697.188 232.186 697.848 229.012 699.14C224.469 701 220.551 704.118 217.72 708.128C217.464 708.496 217.24 708.888 217.004 709.268C219.496 689.656 221.416 667.072 228.736 660H197.94C205.26 667.072 207.18 689.656 209.672 709.268C209.432 708.888 209.212 708.496 208.956 708.128C206.125 704.118 202.207 701 197.664 699.14C194.49 697.848 191.095 697.188 187.668 697.196C173.492 697.196 162 708.3 162 721.996C162 735.696 173.496 746.796 187.668 746.796C188.888 746.796 190.108 746.692 191.312 746.516C188.946 750.323 187.686 754.714 187.672 759.196C187.668 772.896 199.16 784 213.34 783.996V784Z" fill="black"/>
<path d="M419.34 784C433.516 784 445.008 772.896 445.008 759.2C444.991 754.716 443.726 750.326 441.356 746.52C442.566 746.694 443.786 746.786 445.008 746.792C459.18 746.792 470.668 735.692 470.668 722C470.668 708.304 459.184 697.2 445.008 697.196C441.581 697.188 438.186 697.848 435.012 699.14C430.469 701 426.551 704.118 423.72 708.128C423.464 708.496 423.24 708.888 423.004 709.268C425.496 689.656 427.416 667.072 434.736 660H403.94C411.26 667.072 413.18 689.656 415.672 709.268C415.432 708.888 415.212 708.496 414.956 708.128C412.125 704.118 408.207 701 403.664 699.14C400.49 697.848 397.095 697.188 393.668 697.196C379.492 697.196 368 708.3 368 721.996C368 735.696 379.496 746.796 393.668 746.796C394.888 746.796 396.108 746.692 397.312 746.516C394.946 750.323 393.686 754.714 393.672 759.196C393.668 772.896 405.16 784 419.34 783.996V784Z" fill="black"/>
<path d="M130.5 76.625C130.5 78.7917 129.917 80.5 128.75 81.75C127.583 83 126 83.8333 124 84.25C120.083 85.1667 116.25 85.7917 112.5 86.125C112.167 89.375 111.875 92.625 111.625 95.875C111.375 99.0417 111.125 102.208 110.875 105.375C110.708 106.875 110.542 108.958 110.375 111.625C110.208 114.208 109.792 116.75 109.125 119.25C108.542 121.75 107.625 123.958 106.375 125.875C105.208 127.708 103.583 128.625 101.5 128.625C99.5 128.625 97.9167 127.75 96.75 126C95.6667 124.25 94.8333 122.208 94.25 119.875C93.6667 117.542 93.2917 115.208 93.125 112.875C92.9583 110.458 92.875 108.583 92.875 107.25C92.875 103.833 92.9583 100.5 93.125 97.25C93.375 93.9167 93.5833 90.5833 93.75 87.25C91.5833 87.4167 89.4167 87.5417 87.25 87.625C85.0833 87.625 82.9167 87.625 80.75 87.625C79.75 87.625 78.5 87.625 77 87.625C75.5 87.5417 74 87.4167 72.5 87.25C71 87.0833 69.5833 86.7917 68.25 86.375C67 85.875 66.0833 85.1667 65.5 84.25C65.0833 83.6667 64.75 82.6667 64.5 81.25C64.3333 79.75 64.1667 78.1667 64 76.5C63.9167 74.75 63.875 73.0833 63.875 71.5C63.875 69.9167 63.875 68.75 63.875 68C63.875 66.0833 63.875 64.2083 63.875 62.375C63.875 60.5417 63.9583 58.6667 64.125 56.75C64.2083 54.9167 64.2917 52.75 64.375 50.25C64.5417 47.6667 64.9583 45.2083 65.625 42.875C66.375 40.5417 67.4167 38.5417 68.75 36.875C70.1667 35.2083 72.1667 34.375 74.75 34.375C76.3333 34.375 77.5833 35.125 78.5 36.625C79.5 38.125 80.25 39.875 80.75 41.875C81.3333 43.875 81.7083 45.9167 81.875 48C82.0417 50 82.125 51.5417 82.125 52.625C82.125 55.125 82 57.625 81.75 60.125C81.5833 62.625 81.2917 65.0833 80.875 67.5C83.2917 67.3333 85.6667 67.2083 88 67.125C90.4167 66.9583 92.8333 66.7917 95.25 66.625C95.3333 65.7917 95.4583 64.125 95.625 61.625C95.875 59.0417 96.1667 56.3333 96.5 53.5C96.8333 50.5833 97.1667 47.875 97.5 45.375C97.8333 42.875 98.1667 41.25 98.5 40.5C99.1667 38.9167 100.208 37.625 101.625 36.625C103.042 35.5417 104.667 35 106.5 35C108.667 35 110.208 35.6667 111.125 37C112.042 38.3333 112.667 39.9167 113 41.75C113.417 44.0833 113.667 46.5 113.75 49C113.833 51.5 113.875 53.9583 113.875 56.375C113.875 59.9583 113.75 63.5417 113.5 67.125C115.333 67.2917 117.125 67.5 118.875 67.75C120.625 68 122.417 68.3333 124.25 68.75C126.25 69.1667 127.792 70.0833 128.875 71.5C129.958 72.9167 130.5 74.625 130.5 76.625Z" fill="black"/>
<path d="M95.247 159.125C87.273 159.125 80.8087 165.371 80.8087 173.075C80.8184 175.597 81.5297 178.067 82.863 180.208C82.1826 180.109 81.4962 180.058 80.8087 180.054C72.837 180.054 66.375 186.298 66.375 194C66.375 201.704 72.8348 207.95 80.8087 207.952C82.7363 207.957 84.6461 207.585 86.4315 206.859C88.987 205.813 91.1906 204.059 92.7832 201.803C92.9272 201.596 93.0532 201.376 93.186 201.162C91.7842 212.194 90.7042 224.897 86.5867 228.875H103.909C99.792 224.897 98.712 212.194 97.3103 201.162C97.4453 201.376 97.569 201.596 97.713 201.803C99.3056 204.059 101.509 205.813 104.065 206.859C105.85 207.585 107.76 207.957 109.688 207.952C117.661 207.952 124.126 201.706 124.126 194.002C124.126 186.296 117.659 180.052 109.688 180.052C109.001 180.052 108.315 180.111 107.638 180.21C108.968 178.068 109.677 175.599 109.685 173.077C109.688 165.371 103.223 159.125 95.247 159.127V159.125Z" fill="black"/>
<path d="M499.5 803.375C499.5 801.208 500.083 799.5 501.25 798.25C502.417 797 504 796.167 506 795.75C509.917 794.833 513.75 794.208 517.5 793.875C517.833 790.625 518.125 787.375 518.375 784.125C518.625 780.958 518.875 777.792 519.125 774.625C519.292 773.125 519.458 771.042 519.625 768.375C519.792 765.792 520.208 763.25 520.875 760.75C521.458 758.25 522.375 756.042 523.625 754.125C524.792 752.292 526.417 751.375 528.5 751.375C530.5 751.375 532.083 752.25 533.25 754C534.333 755.75 535.167 757.792 535.75 760.125C536.333 762.458 536.708 764.792 536.875 767.125C537.042 769.542 537.125 771.417 537.125 772.75C537.125 776.167 537.042 779.5 536.875 782.75C536.625 786.083 536.417 789.417 536.25 792.75C538.417 792.583 540.583 792.458 542.75 792.375C544.917 792.375 547.083 792.375 549.25 792.375C550.25 792.375 551.5 792.375 553 792.375C554.5 792.458 556 792.583 557.5 792.75C559 792.917 560.417 793.208 561.75 793.625C563 794.125 563.917 794.833 564.5 795.75C564.917 796.333 565.25 797.333 565.5 798.75C565.667 800.25 565.833 801.833 566 803.5C566.083 805.25 566.125 806.917 566.125 808.5C566.125 810.083 566.125 811.25 566.125 812C566.125 813.917 566.125 815.792 566.125 817.625C566.125 819.458 566.042 821.333 565.875 823.25C565.792 825.083 565.708 827.25 565.625 829.75C565.458 832.333 565.042 834.792 564.375 837.125C563.625 839.458 562.583 841.458 561.25 843.125C559.833 844.792 557.833 845.625 555.25 845.625C553.667 845.625 552.417 844.875 551.5 843.375C550.5 841.875 549.75 840.125 549.25 838.125C548.667 836.125 548.292 834.083 548.125 832C547.958 830 547.875 828.458 547.875 827.375C547.875 824.875 548 822.375 548.25 819.875C548.417 817.375 548.708 814.917 549.125 812.5C546.708 812.667 544.333 812.792 542 812.875C539.583 813.042 537.167 813.208 534.75 813.375C534.667 814.208 534.542 815.875 534.375 818.375C534.125 820.958 533.833 823.667 533.5 826.5C533.167 829.417 532.833 832.125 532.5 834.625C532.167 837.125 531.833 838.75 531.5 839.5C530.833 841.083 529.792 842.375 528.375 843.375C526.958 844.458 525.333 845 523.5 845C521.333 845 519.792 844.333 518.875 843C517.958 841.667 517.333 840.083 517 838.25C516.583 835.917 516.333 833.5 516.25 831C516.167 828.5 516.125 826.042 516.125 823.625C516.125 820.042 516.25 816.458 516.5 812.875C514.667 812.708 512.875 812.5 511.125 812.25C509.375 812 507.583 811.667 505.75 811.25C503.75 810.833 502.208 809.917 501.125 808.5C500.042 807.083 499.5 805.375 499.5 803.375Z" fill="black"/>
<path d="M534.753 720.875C542.727 720.875 549.191 714.629 549.191 706.925C549.182 704.403 548.47 701.933 547.137 699.792C547.817 699.891 548.504 699.942 549.191 699.946C557.163 699.946 563.625 693.702 563.625 686C563.625 678.296 557.165 672.05 549.191 672.048C547.264 672.043 545.354 672.415 543.569 673.141C541.013 674.187 538.809 675.941 537.217 678.197C537.073 678.404 536.947 678.624 536.814 678.838C538.216 667.806 539.296 655.103 543.413 651.125H526.091C530.208 655.103 531.288 667.806 532.69 678.838C532.555 678.624 532.431 678.404 532.287 678.197C530.694 675.941 528.491 674.187 525.935 673.141C524.15 672.415 522.24 672.043 520.312 672.048C512.339 672.048 505.874 678.294 505.874 685.998C505.874 693.704 512.341 699.948 520.312 699.948C520.999 699.948 521.685 699.889 522.362 699.79C521.032 701.932 520.323 704.401 520.315 706.923C520.312 714.629 526.777 720.875 534.753 720.873V720.875Z" fill="black"/>
</svg>
