<svg width="630" height="880" viewBox="0 0 630 880" fill="none" xmlns="http://www.w3.org/2000/svg">
<rect x="2.5" y="2.5" width="625" height="875" rx="17.5" fill="white" stroke="black" stroke-width="5"/>
<path d="M184.975 97.8192C195.549 96.8166 205.491 105.457 211.914 112.319C224.048 93.2766 251.691 93.146 263.957 111.97C275.738 127.909 271.008 150.469 257.523 165.945L211.486 218.29L164.874 165.287C151.704 150.469 147.609 119.913 164.382 105.88C170.265 100.587 177.514 97.7116 184.978 97.7101L184.975 97.8192Z" fill="#E20000"/>
<path d="M390.975 97.8192C401.549 96.8166 411.491 105.457 417.914 112.319C430.048 93.2766 457.691 93.146 469.957 111.97C481.738 127.909 477.008 150.469 463.523 165.945L417.486 218.29L370.874 165.287C357.704 150.469 353.609 119.913 370.382 105.88C376.265 100.587 383.514 97.7116 390.978 97.7101L390.975 97.8192Z" fill="#E20000"/>
<path d="M287.975 379.819C298.549 378.817 308.491 387.457 314.914 394.319C327.048 375.277 354.691 375.146 366.957 393.97C378.738 409.909 374.008 432.469 360.523 447.945L314.486 500.29L267.874 447.287C254.704 432.469 250.609 401.913 267.382 387.88C273.265 382.587 280.514 379.712 287.978 379.71L287.975 379.819Z" fill="#E20000"/>
<path d="M184.975 782.181C195.549 783.183 205.491 774.543 211.914 767.681C224.048 786.723 251.691 786.854 263.957 768.03C275.738 752.091 271.008 729.531 257.523 714.055L211.486 661.71L164.874 714.713C151.704 729.531 147.609 760.087 164.382 774.12C170.265 779.413 177.514 782.288 184.978 782.29L184.975 782.181Z" fill="#E20000"/>
<path d="M390.975 782.181C401.549 783.183 411.491 774.543 417.914 767.681C430.048 786.723 457.691 786.854 469.957 768.03C481.738 752.091 477.008 729.531 463.523 714.055L417.486 661.71L370.874 714.713C357.704 729.531 353.609 760.087 370.382 774.12C376.265 779.413 383.514 782.288 390.978 782.29L390.975 782.181Z" fill="#E20000"/>
<path d="M123.25 97.75C123.25 102.667 122.458 107.042 120.875 110.875C119.375 114.708 117.208 117.958 114.375 120.625C111.625 123.292 108.292 125.333 104.375 126.75C100.542 128.167 96.25 128.875 91.5 128.875C88.9167 128.875 86.0417 128.417 82.875 127.5C79.7917 126.583 76.875 125.25 74.125 123.5C71.375 121.75 69.0833 119.667 67.25 117.25C65.4167 114.75 64.5 112 64.5 109C64.5 106.833 65.1667 105.083 66.5 103.75C67.8333 102.417 69.5833 101.75 71.75 101.75C73.8333 101.75 75.5833 102.167 77 103C78.4167 103.833 79.7917 104.792 81.125 105.875C82.5417 106.875 84.125 107.792 85.875 108.625C87.625 109.458 89.875 109.875 92.625 109.875C95.9583 109.875 98.6667 108.708 100.75 106.375C102.833 104.042 103.875 101.25 103.875 98C103.875 94.9167 103.167 92.25 101.75 90C100.333 87.75 98 86.625 94.75 86.625C93.25 86.625 91.875 86.7917 90.625 87.125C89.4583 87.4583 88.2917 87.8333 87.125 88.25C86.0417 88.6667 84.9167 89.0833 83.75 89.5C82.6667 89.8333 81.5417 90.0833 80.375 90.25C79.4583 90.4167 78.2917 90.375 76.875 90.125C75.4583 89.7917 74 89.3333 72.5 88.75C71.0833 88.1667 69.7917 87.5 68.625 86.75C67.4583 85.9167 66.7083 85.0417 66.375 84.125C66.125 83.375 65.875 81.75 65.625 79.25C65.4583 76.75 65.2917 74.0417 65.125 71.125C65.0417 68.2083 64.9583 65.4583 64.875 62.875C64.875 60.2083 64.875 58.375 64.875 57.375C64.875 56.7083 64.875 55.625 64.875 54.125C64.875 52.625 64.9167 51.0833 65 49.5C65.1667 47.8333 65.3333 46.2917 65.5 44.875C65.6667 43.4583 65.9583 42.5 66.375 42C66.875 41.25 68.0833 40.5417 70 39.875C72 39.2083 74.2917 38.5833 76.875 38C79.5417 37.4167 82.4167 36.9167 85.5 36.5C88.5833 36 91.5 35.5833 94.25 35.25C97.0833 34.9167 99.625 34.6667 101.875 34.5C104.208 34.3333 105.875 34.25 106.875 34.25C108.042 34.25 109.25 34.4167 110.5 34.75C111.833 35 113 35.4583 114 36.125C115.083 36.7083 115.958 37.5 116.625 38.5C117.292 39.5 117.625 40.7083 117.625 42.125C117.625 44.375 116.833 46.1667 115.25 47.5C113.667 48.8333 111.917 49.8333 110 50.5C108.5 51 106.667 51.4167 104.5 51.75C102.333 52.0833 100.125 52.4167 97.875 52.75C95.625 53 93.4167 53.2083 91.25 53.375C89.1667 53.5417 87.3333 53.6667 85.75 53.75L86 71.875C87.6667 71.5417 89.3333 71.2917 91 71.125C92.6667 70.875 94.375 70.75 96.125 70.75C104.958 70.75 111.667 73.0417 116.25 77.625C120.917 82.2083 123.25 88.9167 123.25 97.75Z" fill="#E20000"/>
<path d="M80.7979 160.148C86.746 159.584 92.3385 164.445 95.9512 168.304C102.776 157.593 118.326 157.52 125.225 168.108C131.853 177.074 129.191 189.764 121.606 198.469L95.7106 227.913L69.4914 198.099C62.083 189.764 59.7795 172.576 69.2147 164.682C72.5235 161.705 76.6014 160.088 80.8 160.087L80.7979 160.148Z" fill="#E20000"/>
<path d="M506.75 782.25C506.75 777.333 507.542 772.958 509.125 769.125C510.625 765.292 512.792 762.042 515.625 759.375C518.375 756.708 521.708 754.667 525.625 753.25C529.458 751.833 533.75 751.125 538.5 751.125C541.083 751.125 543.958 751.583 547.125 752.5C550.208 753.417 553.125 754.75 555.875 756.5C558.625 758.25 560.917 760.333 562.75 762.75C564.583 765.25 565.5 768 565.5 771C565.5 773.167 564.833 774.917 563.5 776.25C562.167 777.583 560.417 778.25 558.25 778.25C556.167 778.25 554.417 777.833 553 777C551.583 776.167 550.208 775.208 548.875 774.125C547.458 773.125 545.875 772.208 544.125 771.375C542.375 770.542 540.125 770.125 537.375 770.125C534.042 770.125 531.333 771.292 529.25 773.625C527.167 775.958 526.125 778.75 526.125 782C526.125 785.083 526.833 787.75 528.25 790C529.667 792.25 532 793.375 535.25 793.375C536.75 793.375 538.125 793.208 539.375 792.875C540.542 792.542 541.708 792.167 542.875 791.75C543.958 791.333 545.083 790.917 546.25 790.5C547.333 790.167 548.458 789.917 549.625 789.75C550.542 789.583 551.708 789.625 553.125 789.875C554.542 790.208 556 790.667 557.5 791.25C558.917 791.833 560.208 792.5 561.375 793.25C562.542 794.083 563.292 794.958 563.625 795.875C563.875 796.625 564.125 798.25 564.375 800.75C564.542 803.25 564.708 805.958 564.875 808.875C564.958 811.792 565.042 814.542 565.125 817.125C565.125 819.792 565.125 821.625 565.125 822.625C565.125 823.292 565.125 824.375 565.125 825.875C565.125 827.375 565.083 828.917 565 830.5C564.833 832.167 564.667 833.708 564.5 835.125C564.333 836.542 564.042 837.5 563.625 838C563.125 838.75 561.917 839.458 560 840.125C558 840.792 555.708 841.417 553.125 842C550.458 842.583 547.583 843.083 544.5 843.5C541.417 844 538.5 844.417 535.75 844.75C532.917 845.083 530.375 845.333 528.125 845.5C525.792 845.667 524.125 845.75 523.125 845.75C521.958 845.75 520.75 845.583 519.5 845.25C518.167 845 517 844.542 516 843.875C514.917 843.292 514.042 842.5 513.375 841.5C512.708 840.5 512.375 839.292 512.375 837.875C512.375 835.625 513.167 833.833 514.75 832.5C516.333 831.167 518.083 830.167 520 829.5C521.5 829 523.333 828.583 525.5 828.25C527.667 827.917 529.875 827.583 532.125 827.25C534.375 827 536.583 826.792 538.75 826.625C540.833 826.458 542.667 826.333 544.25 826.25L544 808.125C542.333 808.458 540.667 808.708 539 808.875C537.333 809.125 535.625 809.25 533.875 809.25C525.042 809.25 518.333 806.958 513.75 802.375C509.083 797.792 506.75 791.083 506.75 782.25Z" fill="#E20000"/>
<path d="M518.798 719.852C524.746 720.416 530.339 715.555 533.951 711.696C540.776 722.407 556.326 722.48 563.225 711.892C569.853 702.926 567.191 690.236 559.606 681.531L533.711 652.087L507.491 681.901C500.083 690.236 497.78 707.424 507.215 715.318C510.524 718.295 514.601 719.912 518.8 719.913L518.798 719.852Z" fill="#E20000"/>
</svg>
