<svg width="630" height="880" viewBox="0 0 630 880" fill="none" xmlns="http://www.w3.org/2000/svg">
<rect x="2.5" y="2.5" width="625" height="875" rx="17.5" fill="white" stroke="black" stroke-width="5"/>
<path fill-rule="evenodd" clip-rule="evenodd" d="M156 160C174.368 147.6 198.86 122.8 211.104 98C223.348 122.8 247.84 147.6 266.208 160C247.84 172.4 223.348 197.2 211.104 222C198.86 197.2 174.368 172.4 156 160Z" fill="#E20000"/>
<path fill-rule="evenodd" clip-rule="evenodd" d="M362 160C380.368 147.6 404.86 122.8 417.104 98C429.348 122.8 453.84 147.6 472.208 160C453.84 172.4 429.348 197.2 417.104 222C404.86 197.2 380.368 172.4 362 160Z" fill="#E20000"/>
<path fill-rule="evenodd" clip-rule="evenodd" d="M259 442C277.368 429.6 301.86 404.8 314.104 380C326.348 404.8 350.84 429.6 369.208 442C350.84 454.4 326.348 479.2 314.104 504C301.86 479.2 277.368 454.4 259 442Z" fill="#E20000"/>
<path fill-rule="evenodd" clip-rule="evenodd" d="M268 720C249.632 732.4 225.14 757.2 212.896 782C200.652 757.2 176.16 732.4 157.792 720C176.16 707.6 200.652 682.8 212.896 658C225.14 682.8 249.632 707.6 268 720Z" fill="#E20000"/>
<path fill-rule="evenodd" clip-rule="evenodd" d="M474 720C455.632 732.4 431.14 757.2 418.896 782C406.652 757.2 382.16 732.4 363.792 720C382.16 707.6 406.652 682.8 418.896 658C431.14 682.8 455.632 707.6 474 720Z" fill="#E20000"/>
<path d="M123.25 97.75C123.25 102.667 122.458 107.042 120.875 110.875C119.375 114.708 117.208 117.958 114.375 120.625C111.625 123.292 108.292 125.333 104.375 126.75C100.542 128.167 96.25 128.875 91.5 128.875C88.9167 128.875 86.0417 128.417 82.875 127.5C79.7917 126.583 76.875 125.25 74.125 123.5C71.375 121.75 69.0833 119.667 67.25 117.25C65.4167 114.75 64.5 112 64.5 109C64.5 106.833 65.1667 105.083 66.5 103.75C67.8333 102.417 69.5833 101.75 71.75 101.75C73.8333 101.75 75.5833 102.167 77 103C78.4167 103.833 79.7917 104.792 81.125 105.875C82.5417 106.875 84.125 107.792 85.875 108.625C87.625 109.458 89.875 109.875 92.625 109.875C95.9583 109.875 98.6667 108.708 100.75 106.375C102.833 104.042 103.875 101.25 103.875 98C103.875 94.9167 103.167 92.25 101.75 90C100.333 87.75 98 86.625 94.75 86.625C93.25 86.625 91.875 86.7917 90.625 87.125C89.4583 87.4583 88.2917 87.8333 87.125 88.25C86.0417 88.6667 84.9167 89.0833 83.75 89.5C82.6667 89.8333 81.5417 90.0833 80.375 90.25C79.4583 90.4167 78.2917 90.375 76.875 90.125C75.4583 89.7917 74 89.3333 72.5 88.75C71.0833 88.1667 69.7917 87.5 68.625 86.75C67.4583 85.9167 66.7083 85.0417 66.375 84.125C66.125 83.375 65.875 81.75 65.625 79.25C65.4583 76.75 65.2917 74.0417 65.125 71.125C65.0417 68.2083 64.9583 65.4583 64.875 62.875C64.875 60.2083 64.875 58.375 64.875 57.375C64.875 56.7083 64.875 55.625 64.875 54.125C64.875 52.625 64.9167 51.0833 65 49.5C65.1667 47.8333 65.3333 46.2917 65.5 44.875C65.6667 43.4583 65.9583 42.5 66.375 42C66.875 41.25 68.0833 40.5417 70 39.875C72 39.2083 74.2917 38.5833 76.875 38C79.5417 37.4167 82.4167 36.9167 85.5 36.5C88.5833 36 91.5 35.5833 94.25 35.25C97.0833 34.9167 99.625 34.6667 101.875 34.5C104.208 34.3333 105.875 34.25 106.875 34.25C108.042 34.25 109.25 34.4167 110.5 34.75C111.833 35 113 35.4583 114 36.125C115.083 36.7083 115.958 37.5 116.625 38.5C117.292 39.5 117.625 40.7083 117.625 42.125C117.625 44.375 116.833 46.1667 115.25 47.5C113.667 48.8333 111.917 49.8333 110 50.5C108.5 51 106.667 51.4167 104.5 51.75C102.333 52.0833 100.125 52.4167 97.875 52.75C95.625 53 93.4167 53.2083 91.25 53.375C89.1667 53.5417 87.3333 53.6667 85.75 53.75L86 71.875C87.6667 71.5417 89.3333 71.2917 91 71.125C92.6667 70.875 94.375 70.75 96.125 70.75C104.958 70.75 111.667 73.0417 116.25 77.625C120.917 82.2083 123.25 88.9167 123.25 97.75Z" fill="#E20000"/>
<path fill-rule="evenodd" clip-rule="evenodd" d="M64.5 195.125C74.832 188.15 88.6087 174.2 95.496 160.25C102.383 174.2 116.16 188.15 126.492 195.125C116.16 202.1 102.383 216.05 95.496 230C88.6087 216.05 74.832 202.1 64.5 195.125Z" fill="#E20000"/>
<path d="M506.75 782.25C506.75 777.333 507.542 772.958 509.125 769.125C510.625 765.292 512.792 762.042 515.625 759.375C518.375 756.708 521.708 754.667 525.625 753.25C529.458 751.833 533.75 751.125 538.5 751.125C541.083 751.125 543.958 751.583 547.125 752.5C550.208 753.417 553.125 754.75 555.875 756.5C558.625 758.25 560.917 760.333 562.75 762.75C564.583 765.25 565.5 768 565.5 771C565.5 773.167 564.833 774.917 563.5 776.25C562.167 777.583 560.417 778.25 558.25 778.25C556.167 778.25 554.417 777.833 553 777C551.583 776.167 550.208 775.208 548.875 774.125C547.458 773.125 545.875 772.208 544.125 771.375C542.375 770.542 540.125 770.125 537.375 770.125C534.042 770.125 531.333 771.292 529.25 773.625C527.167 775.958 526.125 778.75 526.125 782C526.125 785.083 526.833 787.75 528.25 790C529.667 792.25 532 793.375 535.25 793.375C536.75 793.375 538.125 793.208 539.375 792.875C540.542 792.542 541.708 792.167 542.875 791.75C543.958 791.333 545.083 790.917 546.25 790.5C547.333 790.167 548.458 789.917 549.625 789.75C550.542 789.583 551.708 789.625 553.125 789.875C554.542 790.208 556 790.667 557.5 791.25C558.917 791.833 560.208 792.5 561.375 793.25C562.542 794.083 563.292 794.958 563.625 795.875C563.875 796.625 564.125 798.25 564.375 800.75C564.542 803.25 564.708 805.958 564.875 808.875C564.958 811.792 565.042 814.542 565.125 817.125C565.125 819.792 565.125 821.625 565.125 822.625C565.125 823.292 565.125 824.375 565.125 825.875C565.125 827.375 565.083 828.917 565 830.5C564.833 832.167 564.667 833.708 564.5 835.125C564.333 836.542 564.042 837.5 563.625 838C563.125 838.75 561.917 839.458 560 840.125C558 840.792 555.708 841.417 553.125 842C550.458 842.583 547.583 843.083 544.5 843.5C541.417 844 538.5 844.417 535.75 844.75C532.917 845.083 530.375 845.333 528.125 845.5C525.792 845.667 524.125 845.75 523.125 845.75C521.958 845.75 520.75 845.583 519.5 845.25C518.167 845 517 844.542 516 843.875C514.917 843.292 514.042 842.5 513.375 841.5C512.708 840.5 512.375 839.292 512.375 837.875C512.375 835.625 513.167 833.833 514.75 832.5C516.333 831.167 518.083 830.167 520 829.5C521.5 829 523.333 828.583 525.5 828.25C527.667 827.917 529.875 827.583 532.125 827.25C534.375 827 536.583 826.792 538.75 826.625C540.833 826.458 542.667 826.333 544.25 826.25L544 808.125C542.333 808.458 540.667 808.708 539 808.875C537.333 809.125 535.625 809.25 533.875 809.25C525.042 809.25 518.333 806.958 513.75 802.375C509.083 797.792 506.75 791.083 506.75 782.25Z" fill="#E20000"/>
<path fill-rule="evenodd" clip-rule="evenodd" d="M565.5 684.875C555.168 691.85 541.391 705.8 534.504 719.75C527.617 705.8 513.84 691.85 503.508 684.875C513.84 677.9 527.617 663.95 534.504 650C541.391 663.95 555.168 677.9 565.5 684.875Z" fill="#E20000"/>
</svg>
