<svg width="630" height="880" viewBox="0 0 630 880" fill="none" xmlns="http://www.w3.org/2000/svg">
<rect x="2.5" y="2.5" width="625" height="875" rx="17.5" fill="white" stroke="black" stroke-width="5"/>
<path fill-rule="evenodd" clip-rule="evenodd" d="M156 160C174.368 147.6 198.86 122.8 211.104 98C223.348 122.8 247.84 147.6 266.208 160C247.84 172.4 223.348 197.2 211.104 222C198.86 197.2 174.368 172.4 156 160Z" fill="#E20000"/>
<path fill-rule="evenodd" clip-rule="evenodd" d="M362 160C380.368 147.6 404.86 122.8 417.104 98C429.348 122.8 453.84 147.6 472.208 160C453.84 172.4 429.348 197.2 417.104 222C404.86 197.2 380.368 172.4 362 160Z" fill="#E20000"/>
<path fill-rule="evenodd" clip-rule="evenodd" d="M156 442C174.368 429.6 198.86 404.8 211.104 380C223.348 404.8 247.84 429.6 266.208 442C247.84 454.4 223.348 479.2 211.104 504C198.86 479.2 174.368 454.4 156 442Z" fill="#E20000"/>
<path fill-rule="evenodd" clip-rule="evenodd" d="M362 442C380.368 429.6 404.86 404.8 417.104 380C429.348 404.8 453.84 429.6 472.208 442C453.84 454.4 429.348 479.2 417.104 504C404.86 479.2 380.368 454.4 362 442Z" fill="#E20000"/>
<path fill-rule="evenodd" clip-rule="evenodd" d="M268 720C249.632 732.4 225.14 757.2 212.896 782C200.652 757.2 176.16 732.4 157.792 720C176.16 707.6 200.652 682.8 212.896 658C225.14 682.8 249.632 707.6 268 720Z" fill="#E20000"/>
<path fill-rule="evenodd" clip-rule="evenodd" d="M474 720C455.632 732.4 431.14 757.2 418.896 782C406.652 757.2 382.16 732.4 363.792 720C382.16 707.6 406.652 682.8 418.896 658C431.14 682.8 455.632 707.6 474 720Z" fill="#E20000"/>
<path d="M124.375 99.75C124.375 104.583 123.5 108.833 121.75 112.5C120.083 116.167 117.792 119.208 114.875 121.625C111.958 124.042 108.5 125.875 104.5 127.125C100.583 128.375 96.3333 129 91.75 129C86.5833 129 82.0833 127.958 78.25 125.875C74.5 123.792 71.4167 121.042 69 117.625C66.5833 114.125 64.7917 110.208 63.625 105.875C62.4583 101.458 61.875 96.9167 61.875 92.25C61.875 88.9167 62.4583 85.1667 63.625 81C64.7917 76.8333 66.4167 72.625 68.5 68.375C70.5833 64.0417 73 59.875 75.75 55.875C78.5 51.7917 81.4583 48.1667 84.625 45C87.7917 41.8333 91.0833 39.2917 94.5 37.375C98 35.4583 101.417 34.5 104.75 34.5C106.667 34.5 108.375 35.0417 109.875 36.125C111.458 37.125 112.25 38.6667 112.25 40.75C112.25 41.9167 111.75 43.1667 110.75 44.5C109.75 45.8333 108.542 47.1667 107.125 48.5C105.792 49.75 104.375 51 102.875 52.25C101.458 53.4167 100.333 54.5 99.5 55.5C97.5833 57.6667 95.7917 60 94.125 62.5C92.5417 64.9167 91.1667 67.4583 90 70.125C91.25 69.7083 92.5417 69.4167 93.875 69.25C95.2083 69 96.5417 68.875 97.875 68.875C102.125 68.875 105.875 69.75 109.125 71.5C112.458 73.25 115.25 75.5833 117.5 78.5C119.75 81.3333 121.458 84.625 122.625 88.375C123.792 92.0417 124.375 95.8333 124.375 99.75ZM106.875 99.875C106.875 95.4583 105.5 92.0833 102.75 89.75C100.083 87.3333 96.625 86.125 92.375 86.125C90.9583 86.125 89.3333 86.3333 87.5 86.75C85.6667 87.1667 84.0833 87.7917 82.75 88.625C82.25 88.9583 81.9583 89.5833 81.875 90.5C81.7917 91.4167 81.75 92.1667 81.75 92.75C81.75 94.6667 82 96.7083 82.5 98.875C83.0833 100.958 83.9167 102.917 85 104.75C86.0833 106.583 87.4583 108.083 89.125 109.25C90.7917 110.417 92.75 111 95 111C98.4167 111 101.25 110.042 103.5 108.125C105.75 106.208 106.875 103.458 106.875 99.875Z" fill="#E20000"/>
<path fill-rule="evenodd" clip-rule="evenodd" d="M64.5 195.125C74.832 188.15 88.6087 174.2 95.496 160.25C102.383 174.2 116.16 188.15 126.492 195.125C116.16 202.1 102.383 216.05 95.496 230C88.6087 216.05 74.832 202.1 64.5 195.125Z" fill="#E20000"/>
<path d="M505.625 780.25C505.625 775.417 506.5 771.167 508.25 767.5C509.917 763.833 512.208 760.792 515.125 758.375C518.042 755.958 521.5 754.125 525.5 752.875C529.417 751.625 533.667 751 538.25 751C543.417 751 547.917 752.042 551.75 754.125C555.5 756.208 558.583 758.958 561 762.375C563.417 765.875 565.208 769.792 566.375 774.125C567.542 778.542 568.125 783.083 568.125 787.75C568.125 791.083 567.542 794.833 566.375 799C565.208 803.167 563.583 807.375 561.5 811.625C559.417 815.958 557 820.125 554.25 824.125C551.5 828.208 548.542 831.833 545.375 835C542.208 838.167 538.917 840.708 535.5 842.625C532 844.542 528.583 845.5 525.25 845.5C523.333 845.5 521.625 844.958 520.125 843.875C518.542 842.875 517.75 841.333 517.75 839.25C517.75 838.083 518.25 836.833 519.25 835.5C520.25 834.167 521.458 832.833 522.875 831.5C524.208 830.25 525.625 829 527.125 827.75C528.542 826.583 529.667 825.5 530.5 824.5C532.417 822.333 534.208 820 535.875 817.5C537.458 815.083 538.833 812.542 540 809.875C538.75 810.292 537.458 810.583 536.125 810.75C534.792 811 533.458 811.125 532.125 811.125C527.875 811.125 524.125 810.25 520.875 808.5C517.542 806.75 514.75 804.417 512.5 801.5C510.25 798.667 508.542 795.375 507.375 791.625C506.208 787.958 505.625 784.167 505.625 780.25ZM523.125 780.125C523.125 784.542 524.5 787.917 527.25 790.25C529.917 792.667 533.375 793.875 537.625 793.875C539.042 793.875 540.667 793.667 542.5 793.25C544.333 792.833 545.917 792.208 547.25 791.375C547.75 791.042 548.042 790.417 548.125 789.5C548.208 788.583 548.25 787.833 548.25 787.25C548.25 785.333 548 783.292 547.5 781.125C546.917 779.042 546.083 777.083 545 775.25C543.917 773.417 542.542 771.917 540.875 770.75C539.208 769.583 537.25 769 535 769C531.583 769 528.75 769.958 526.5 771.875C524.25 773.792 523.125 776.542 523.125 780.125Z" fill="#E20000"/>
<path fill-rule="evenodd" clip-rule="evenodd" d="M565.5 684.875C555.168 691.85 541.391 705.8 534.504 719.75C527.617 705.8 513.84 691.85 503.508 684.875C513.84 677.9 527.617 663.95 534.504 650C541.391 663.95 555.168 677.9 565.5 684.875Z" fill="#E20000"/>
</svg>
