<svg width="630" height="880" viewBox="0 0 630 880" fill="none" xmlns="http://www.w3.org/2000/svg">
<rect x="2.5" y="2.5" width="625" height="875" rx="17.5" fill="white" stroke="black" stroke-width="5"/>
<path d="M210.66 96C196.484 96 184.992 107.104 184.992 120.8C185.009 125.284 186.274 129.674 188.644 133.48C187.434 133.306 186.214 133.214 184.992 133.208C170.82 133.208 159.332 144.308 159.332 158C159.332 171.696 170.816 182.8 184.992 182.804C188.419 182.812 191.814 182.152 194.988 180.86C199.531 179 203.449 175.882 206.28 171.872C206.536 171.504 206.76 171.112 206.996 170.732C204.504 190.344 202.584 212.928 195.264 220H226.06C218.74 212.928 216.82 190.344 214.328 170.732C214.568 171.112 214.788 171.504 215.044 171.872C217.875 175.882 221.793 179 226.336 180.86C229.51 182.152 232.905 182.812 236.332 182.804C250.508 182.804 262 171.7 262 158.004C262 144.304 250.504 133.204 236.332 133.204C235.112 133.204 233.892 133.308 232.688 133.484C235.054 129.677 236.314 125.286 236.328 120.804C236.332 107.104 224.84 95.9999 210.66 96.0039V96Z" fill="black"/>
<path d="M416.66 96C402.484 96 390.992 107.104 390.992 120.8C391.009 125.284 392.274 129.674 394.644 133.48C393.434 133.306 392.214 133.214 390.992 133.208C376.82 133.208 365.332 144.308 365.332 158C365.332 171.696 376.816 182.8 390.992 182.804C394.419 182.812 397.814 182.152 400.988 180.86C405.531 179 409.449 175.882 412.28 171.872C412.536 171.504 412.76 171.112 412.996 170.732C410.504 190.344 408.584 212.928 401.264 220H432.06C424.74 212.928 422.82 190.344 420.328 170.732C420.568 171.112 420.788 171.504 421.044 171.872C423.875 175.882 427.793 179 432.336 180.86C435.51 182.152 438.905 182.812 442.332 182.804C456.508 182.804 468 171.7 468 158.004C468 144.304 456.504 133.204 442.332 133.204C441.112 133.204 439.892 133.308 438.688 133.484C441.054 129.677 442.314 125.286 442.328 120.804C442.332 107.104 430.84 95.9999 416.66 96.0039V96Z" fill="black"/>
<path d="M210.66 378C196.484 378 184.992 389.104 184.992 402.8C185.009 407.284 186.274 411.674 188.644 415.48C187.434 415.306 186.214 415.214 184.992 415.208C170.82 415.208 159.332 426.308 159.332 440C159.332 453.696 170.816 464.8 184.992 464.804C188.419 464.812 191.814 464.152 194.988 462.86C199.531 461 203.449 457.882 206.28 453.872C206.536 453.504 206.76 453.112 206.996 452.732C204.504 472.344 202.584 494.928 195.264 502H226.06C218.74 494.928 216.82 472.344 214.328 452.732C214.568 453.112 214.788 453.504 215.044 453.872C217.875 457.882 221.793 461 226.336 462.86C229.51 464.152 232.905 464.812 236.332 464.804C250.508 464.804 262 453.7 262 440.004C262 426.304 250.504 415.204 236.332 415.204C235.112 415.204 233.892 415.308 232.688 415.484C235.054 411.677 236.314 407.286 236.328 402.804C236.332 389.104 224.84 378 210.66 378.004V378Z" fill="black"/>
<path d="M416.66 378C402.484 378 390.992 389.104 390.992 402.8C391.009 407.284 392.274 411.674 394.644 415.48C393.434 415.306 392.214 415.214 390.992 415.208C376.82 415.208 365.332 426.308 365.332 440C365.332 453.696 376.816 464.8 390.992 464.804C394.419 464.812 397.814 464.152 400.988 462.86C405.531 461 409.449 457.882 412.28 453.872C412.536 453.504 412.76 453.112 412.996 452.732C410.504 472.344 408.584 494.928 401.264 502H432.06C424.74 494.928 422.82 472.344 420.328 452.732C420.568 453.112 420.788 453.504 421.044 453.872C423.875 457.882 427.793 461 432.336 462.86C435.51 464.152 438.905 464.812 442.332 464.804C456.508 464.804 468 453.7 468 440.004C468 426.304 456.504 415.204 442.332 415.204C441.112 415.204 439.892 415.308 438.688 415.484C441.054 411.677 442.314 407.286 442.328 402.804C442.332 389.104 430.84 378 416.66 378.004V378Z" fill="black"/>
<path d="M213.34 784C227.516 784 239.008 772.896 239.008 759.2C238.991 754.716 237.726 750.326 235.356 746.52C236.566 746.694 237.786 746.786 239.008 746.792C253.18 746.792 264.668 735.692 264.668 722C264.668 708.304 253.184 697.2 239.008 697.196C235.581 697.188 232.186 697.848 229.012 699.14C224.469 701 220.551 704.118 217.72 708.128C217.464 708.496 217.24 708.888 217.004 709.268C219.496 689.656 221.416 667.072 228.736 660H197.94C205.26 667.072 207.18 689.656 209.672 709.268C209.432 708.888 209.212 708.496 208.956 708.128C206.125 704.118 202.207 701 197.664 699.14C194.49 697.848 191.095 697.188 187.668 697.196C173.492 697.196 162 708.3 162 721.996C162 735.696 173.496 746.796 187.668 746.796C188.888 746.796 190.108 746.692 191.312 746.516C188.946 750.323 187.686 754.714 187.672 759.196C187.668 772.896 199.16 784 213.34 783.996V784Z" fill="black"/>
<path d="M419.34 784C433.516 784 445.008 772.896 445.008 759.2C444.991 754.716 443.726 750.326 441.356 746.52C442.566 746.694 443.786 746.786 445.008 746.792C459.18 746.792 470.668 735.692 470.668 722C470.668 708.304 459.184 697.2 445.008 697.196C441.581 697.188 438.186 697.848 435.012 699.14C430.469 701 426.551 704.118 423.72 708.128C423.464 708.496 423.24 708.888 423.004 709.268C425.496 689.656 427.416 667.072 434.736 660H403.94C411.26 667.072 413.18 689.656 415.672 709.268C415.432 708.888 415.212 708.496 414.956 708.128C412.125 704.118 408.207 701 403.664 699.14C400.49 697.848 397.095 697.188 393.668 697.196C379.492 697.196 368 708.3 368 721.996C368 735.696 379.496 746.796 393.668 746.796C394.888 746.796 396.108 746.692 397.312 746.516C394.946 750.323 393.686 754.714 393.672 759.196C393.668 772.896 405.16 784 419.34 783.996V784Z" fill="black"/>
<path d="M124.375 99.75C124.375 104.583 123.5 108.833 121.75 112.5C120.083 116.167 117.792 119.208 114.875 121.625C111.958 124.042 108.5 125.875 104.5 127.125C100.583 128.375 96.3333 129 91.75 129C86.5833 129 82.0833 127.958 78.25 125.875C74.5 123.792 71.4167 121.042 69 117.625C66.5833 114.125 64.7917 110.208 63.625 105.875C62.4583 101.458 61.875 96.9167 61.875 92.25C61.875 88.9167 62.4583 85.1667 63.625 81C64.7917 76.8333 66.4167 72.625 68.5 68.375C70.5833 64.0417 73 59.875 75.75 55.875C78.5 51.7917 81.4583 48.1667 84.625 45C87.7917 41.8333 91.0833 39.2917 94.5 37.375C98 35.4583 101.417 34.5 104.75 34.5C106.667 34.5 108.375 35.0417 109.875 36.125C111.458 37.125 112.25 38.6667 112.25 40.75C112.25 41.9167 111.75 43.1667 110.75 44.5C109.75 45.8333 108.542 47.1667 107.125 48.5C105.792 49.75 104.375 51 102.875 52.25C101.458 53.4167 100.333 54.5 99.5 55.5C97.5833 57.6667 95.7917 60 94.125 62.5C92.5417 64.9167 91.1667 67.4583 90 70.125C91.25 69.7083 92.5417 69.4167 93.875 69.25C95.2083 69 96.5417 68.875 97.875 68.875C102.125 68.875 105.875 69.75 109.125 71.5C112.458 73.25 115.25 75.5833 117.5 78.5C119.75 81.3333 121.458 84.625 122.625 88.375C123.792 92.0417 124.375 95.8333 124.375 99.75ZM106.875 99.875C106.875 95.4583 105.5 92.0833 102.75 89.75C100.083 87.3333 96.625 86.125 92.375 86.125C90.9583 86.125 89.3333 86.3333 87.5 86.75C85.6667 87.1667 84.0833 87.7917 82.75 88.625C82.25 88.9583 81.9583 89.5833 81.875 90.5C81.7917 91.4167 81.75 92.1667 81.75 92.75C81.75 94.6667 82 96.7083 82.5 98.875C83.0833 100.958 83.9167 102.917 85 104.75C86.0833 106.583 87.4583 108.083 89.125 109.25C90.7917 110.417 92.75 111 95 111C98.4167 111 101.25 110.042 103.5 108.125C105.75 106.208 106.875 103.458 106.875 99.875Z" fill="black"/>
<path d="M95.247 159.125C87.273 159.125 80.8087 165.371 80.8087 173.075C80.8184 175.597 81.5297 178.067 82.863 180.208C82.1826 180.109 81.4962 180.058 80.8087 180.054C72.837 180.054 66.375 186.298 66.375 194C66.375 201.704 72.8348 207.95 80.8087 207.952C82.7363 207.957 84.6461 207.585 86.4315 206.859C88.987 205.813 91.1906 204.059 92.7832 201.803C92.9272 201.596 93.0532 201.376 93.186 201.162C91.7842 212.194 90.7042 224.897 86.5867 228.875H103.909C99.792 224.897 98.712 212.194 97.3103 201.162C97.4453 201.376 97.569 201.596 97.713 201.803C99.3056 204.059 101.509 205.813 104.065 206.859C105.85 207.585 107.76 207.957 109.688 207.952C117.661 207.952 124.126 201.706 124.126 194.002C124.126 186.296 117.659 180.052 109.688 180.052C109.001 180.052 108.315 180.111 107.638 180.21C108.968 178.068 109.677 175.599 109.685 173.077C109.688 165.371 103.223 159.125 95.247 159.127V159.125Z" fill="black"/>
<path d="M505.625 780.25C505.625 775.417 506.5 771.167 508.25 767.5C509.917 763.833 512.208 760.792 515.125 758.375C518.042 755.958 521.5 754.125 525.5 752.875C529.417 751.625 533.667 751 538.25 751C543.417 751 547.917 752.042 551.75 754.125C555.5 756.208 558.583 758.958 561 762.375C563.417 765.875 565.208 769.792 566.375 774.125C567.542 778.542 568.125 783.083 568.125 787.75C568.125 791.083 567.542 794.833 566.375 799C565.208 803.167 563.583 807.375 561.5 811.625C559.417 815.958 557 820.125 554.25 824.125C551.5 828.208 548.542 831.833 545.375 835C542.208 838.167 538.917 840.708 535.5 842.625C532 844.542 528.583 845.5 525.25 845.5C523.333 845.5 521.625 844.958 520.125 843.875C518.542 842.875 517.75 841.333 517.75 839.25C517.75 838.083 518.25 836.833 519.25 835.5C520.25 834.167 521.458 832.833 522.875 831.5C524.208 830.25 525.625 829 527.125 827.75C528.542 826.583 529.667 825.5 530.5 824.5C532.417 822.333 534.208 820 535.875 817.5C537.458 815.083 538.833 812.542 540 809.875C538.75 810.292 537.458 810.583 536.125 810.75C534.792 811 533.458 811.125 532.125 811.125C527.875 811.125 524.125 810.25 520.875 808.5C517.542 806.75 514.75 804.417 512.5 801.5C510.25 798.667 508.542 795.375 507.375 791.625C506.208 787.958 505.625 784.167 505.625 780.25ZM523.125 780.125C523.125 784.542 524.5 787.917 527.25 790.25C529.917 792.667 533.375 793.875 537.625 793.875C539.042 793.875 540.667 793.667 542.5 793.25C544.333 792.833 545.917 792.208 547.25 791.375C547.75 791.042 548.042 790.417 548.125 789.5C548.208 788.583 548.25 787.833 548.25 787.25C548.25 785.333 548 783.292 547.5 781.125C546.917 779.042 546.083 777.083 545 775.25C543.917 773.417 542.542 771.917 540.875 770.75C539.208 769.583 537.25 769 535 769C531.583 769 528.75 769.958 526.5 771.875C524.25 773.792 523.125 776.542 523.125 780.125Z" fill="black"/>
<path d="M534.753 720.875C542.727 720.875 549.191 714.629 549.191 706.925C549.182 704.403 548.47 701.933 547.137 699.792C547.817 699.891 548.504 699.942 549.191 699.946C557.163 699.946 563.625 693.702 563.625 686C563.625 678.296 557.165 672.05 549.191 672.048C547.264 672.043 545.354 672.415 543.569 673.141C541.013 674.187 538.809 675.941 537.217 678.197C537.073 678.404 536.947 678.624 536.814 678.838C538.216 667.806 539.296 655.103 543.413 651.125H526.091C530.208 655.103 531.288 667.806 532.69 678.838C532.555 678.624 532.431 678.404 532.287 678.197C530.694 675.941 528.491 674.187 525.935 673.141C524.15 672.415 522.24 672.043 520.312 672.048C512.339 672.048 505.874 678.294 505.874 685.998C505.874 693.704 512.341 699.948 520.312 699.948C520.999 699.948 521.685 699.889 522.362 699.79C521.032 701.932 520.323 704.401 520.315 706.923C520.312 714.629 526.777 720.875 534.753 720.873V720.875Z" fill="black"/>
</svg>
