<svg width="630" height="880" viewBox="0 0 630 880" fill="none" xmlns="http://www.w3.org/2000/svg">
<rect x="2.5" y="2.5" width="625" height="875" rx="17.5" fill="white" stroke="black" stroke-width="5"/>
<path fill-rule="evenodd" clip-rule="evenodd" d="M211.535 96L169.435 135.428C157.547 146.44 153.843 169.168 168.991 179.6C174.231 183.512 180.895 185.688 187.591 185.676V185.592C195.335 186.192 202.603 182.092 208.207 177.792C205.771 194.872 203.807 213.032 196.599 219.996H227.399C220.347 213.18 217.135 194.448 214.767 177.688C229.219 189.468 249.047 187.564 258.927 175.072C269.571 163.22 265.291 146.432 253.111 134.924L211.535 96Z" fill="black"/>
<path fill-rule="evenodd" clip-rule="evenodd" d="M417.535 96L375.435 135.428C363.547 146.44 359.843 169.168 374.991 179.6C380.231 183.512 386.895 185.688 393.591 185.676V185.592C401.335 186.192 408.603 182.092 414.207 177.792C411.771 194.872 409.807 213.032 402.599 219.996H433.399C426.347 213.18 423.135 194.448 420.767 177.688C435.219 189.468 455.047 187.564 464.927 175.072C475.571 163.22 471.291 146.432 459.111 134.924L417.535 96Z" fill="black"/>
<path fill-rule="evenodd" clip-rule="evenodd" d="M211.535 378L169.435 417.428C157.547 428.44 153.843 451.168 168.991 461.6C174.231 465.512 180.895 467.688 187.591 467.676V467.592C195.335 468.192 202.603 464.092 208.207 459.792C205.771 476.872 203.807 495.032 196.599 501.996H227.399C220.347 495.18 217.135 476.448 214.767 459.688C229.219 471.468 249.047 469.564 258.927 457.072C269.571 445.22 265.291 428.432 253.111 416.924L211.535 378Z" fill="black"/>
<path fill-rule="evenodd" clip-rule="evenodd" d="M417.535 378L375.435 417.428C363.547 428.44 359.843 451.168 374.991 461.6C380.231 465.512 386.895 467.688 393.591 467.676V467.592C401.335 468.192 408.603 464.092 414.207 459.792C411.771 476.872 409.807 495.032 402.599 501.996H433.399C426.347 495.18 423.135 476.448 420.767 459.688C435.219 471.468 455.047 469.564 464.927 457.072C475.571 445.22 471.291 428.432 459.111 416.924L417.535 378Z" fill="black"/>
<path fill-rule="evenodd" clip-rule="evenodd" d="M212.465 784L254.565 744.572C266.453 733.56 270.157 710.832 255.009 700.4C249.769 696.488 243.105 694.312 236.409 694.324V694.408C228.665 693.808 221.397 697.908 215.793 702.208C218.229 685.128 220.193 666.968 227.401 660.004H196.601C203.653 666.82 206.865 685.552 209.233 702.312C194.781 690.532 174.953 692.436 165.073 704.928C154.429 716.78 158.709 733.568 170.889 745.076L212.465 784Z" fill="black"/>
<path fill-rule="evenodd" clip-rule="evenodd" d="M418.465 784L460.565 744.572C472.453 733.56 476.157 710.832 461.009 700.4C455.769 696.488 449.105 694.312 442.409 694.324V694.408C434.665 693.808 427.397 697.908 421.793 702.208C424.229 685.128 426.193 666.968 433.401 660.004H402.601C409.653 666.82 412.865 685.552 415.233 702.312C400.781 690.532 380.953 692.436 371.073 704.928C360.429 716.78 364.709 733.568 376.889 745.076L418.465 784Z" fill="black"/>
<path d="M124.375 99.75C124.375 104.583 123.5 108.833 121.75 112.5C120.083 116.167 117.792 119.208 114.875 121.625C111.958 124.042 108.5 125.875 104.5 127.125C100.583 128.375 96.3333 129 91.75 129C86.5833 129 82.0833 127.958 78.25 125.875C74.5 123.792 71.4167 121.042 69 117.625C66.5833 114.125 64.7917 110.208 63.625 105.875C62.4583 101.458 61.875 96.9167 61.875 92.25C61.875 88.9167 62.4583 85.1667 63.625 81C64.7917 76.8333 66.4167 72.625 68.5 68.375C70.5833 64.0417 73 59.875 75.75 55.875C78.5 51.7917 81.4583 48.1667 84.625 45C87.7917 41.8333 91.0833 39.2917 94.5 37.375C98 35.4583 101.417 34.5 104.75 34.5C106.667 34.5 108.375 35.0417 109.875 36.125C111.458 37.125 112.25 38.6667 112.25 40.75C112.25 41.9167 111.75 43.1667 110.75 44.5C109.75 45.8333 108.542 47.1667 107.125 48.5C105.792 49.75 104.375 51 102.875 52.25C101.458 53.4167 100.333 54.5 99.5 55.5C97.5833 57.6667 95.7917 60 94.125 62.5C92.5417 64.9167 91.1667 67.4583 90 70.125C91.25 69.7083 92.5417 69.4167 93.875 69.25C95.2083 69 96.5417 68.875 97.875 68.875C102.125 68.875 105.875 69.75 109.125 71.5C112.458 73.25 115.25 75.5833 117.5 78.5C119.75 81.3333 121.458 84.625 122.625 88.375C123.792 92.0417 124.375 95.8333 124.375 99.75ZM106.875 99.875C106.875 95.4583 105.5 92.0833 102.75 89.75C100.083 87.3333 96.625 86.125 92.375 86.125C90.9583 86.125 89.3333 86.3333 87.5 86.75C85.6667 87.1667 84.0833 87.7917 82.75 88.625C82.25 88.9583 81.9583 89.5833 81.875 90.5C81.7917 91.4167 81.75 92.1667 81.75 92.75C81.75 94.6667 82 96.7083 82.5 98.875C83.0833 100.958 83.9167 102.917 85 104.75C86.0833 106.583 87.4583 108.083 89.125 109.25C90.7917 110.417 92.75 111 95 111C98.4167 111 101.25 110.042 103.5 108.125C105.75 106.208 106.875 103.458 106.875 99.875Z" fill="black"/>
<path fill-rule="evenodd" clip-rule="evenodd" d="M95.7395 159.125L72.0583 181.303C65.3713 187.498 63.2878 200.282 71.8085 206.15C74.756 208.35 78.5045 209.575 82.271 209.568V209.521C86.627 209.858 90.7153 207.552 93.8675 205.133C92.4973 214.74 91.3925 224.956 87.338 228.873H104.663C100.696 225.039 98.8895 214.502 97.5575 205.075C105.687 211.701 116.84 210.63 122.398 203.603C128.385 196.936 125.977 187.493 119.126 181.02L95.7395 159.125Z" fill="black"/>
<path d="M505.625 780.25C505.625 775.417 506.5 771.167 508.25 767.5C509.917 763.833 512.208 760.792 515.125 758.375C518.042 755.958 521.5 754.125 525.5 752.875C529.417 751.625 533.667 751 538.25 751C543.417 751 547.917 752.042 551.75 754.125C555.5 756.208 558.583 758.958 561 762.375C563.417 765.875 565.208 769.792 566.375 774.125C567.542 778.542 568.125 783.083 568.125 787.75C568.125 791.083 567.542 794.833 566.375 799C565.208 803.167 563.583 807.375 561.5 811.625C559.417 815.958 557 820.125 554.25 824.125C551.5 828.208 548.542 831.833 545.375 835C542.208 838.167 538.917 840.708 535.5 842.625C532 844.542 528.583 845.5 525.25 845.5C523.333 845.5 521.625 844.958 520.125 843.875C518.542 842.875 517.75 841.333 517.75 839.25C517.75 838.083 518.25 836.833 519.25 835.5C520.25 834.167 521.458 832.833 522.875 831.5C524.208 830.25 525.625 829 527.125 827.75C528.542 826.583 529.667 825.5 530.5 824.5C532.417 822.333 534.208 820 535.875 817.5C537.458 815.083 538.833 812.542 540 809.875C538.75 810.292 537.458 810.583 536.125 810.75C534.792 811 533.458 811.125 532.125 811.125C527.875 811.125 524.125 810.25 520.875 808.5C517.542 806.75 514.75 804.417 512.5 801.5C510.25 798.667 508.542 795.375 507.375 791.625C506.208 787.958 505.625 784.167 505.625 780.25ZM523.125 780.125C523.125 784.542 524.5 787.917 527.25 790.25C529.917 792.667 533.375 793.875 537.625 793.875C539.042 793.875 540.667 793.667 542.5 793.25C544.333 792.833 545.917 792.208 547.25 791.375C547.75 791.042 548.042 790.417 548.125 789.5C548.208 788.583 548.25 787.833 548.25 787.25C548.25 785.333 548 783.292 547.5 781.125C546.917 779.042 546.083 777.083 545 775.25C543.917 773.417 542.542 771.917 540.875 770.75C539.208 769.583 537.25 769 535 769C531.583 769 528.75 769.958 526.5 771.875C524.25 773.792 523.125 776.542 523.125 780.125Z" fill="black"/>
<path fill-rule="evenodd" clip-rule="evenodd" d="M534.26 720.875L557.942 698.697C564.629 692.502 566.712 679.718 558.191 673.85C555.244 671.65 551.495 670.425 547.729 670.432V670.479C543.373 670.142 539.285 672.448 536.132 674.867C537.503 665.26 538.607 655.044 542.662 651.127H525.337C529.304 654.961 531.11 665.498 532.442 674.925C524.313 668.299 513.16 669.37 507.602 676.397C501.615 683.064 504.023 692.507 510.874 698.98L534.26 720.875Z" fill="black"/>
</svg>
