<svg width="630" height="880" viewBox="0 0 630 880" fill="none" xmlns="http://www.w3.org/2000/svg">
<rect x="2.5" y="2.5" width="625" height="875" rx="17.5" fill="white" stroke="black" stroke-width="5"/>
<path d="M184.975 97.8192C195.549 96.8166 205.491 105.457 211.914 112.319C224.048 93.2766 251.691 93.146 263.957 111.97C275.738 127.909 271.008 150.469 257.523 165.945L211.486 218.29L164.874 165.287C151.704 150.469 147.609 119.913 164.382 105.88C170.265 100.587 177.514 97.7116 184.978 97.7101L184.975 97.8192Z" fill="#E20000"/>
<path d="M390.975 97.8192C401.549 96.8166 411.491 105.457 417.914 112.319C430.048 93.2766 457.691 93.146 469.957 111.97C481.738 127.909 477.008 150.469 463.523 165.945L417.486 218.29L370.874 165.287C357.704 150.469 353.609 119.913 370.382 105.88C376.265 100.587 383.514 97.7116 390.978 97.7101L390.975 97.8192Z" fill="#E20000"/>
<path d="M287.975 238.819C298.549 237.817 308.491 246.457 314.914 253.319C327.048 234.277 354.691 234.146 366.957 252.97C378.738 268.909 374.008 291.469 360.523 306.945L314.486 359.29L267.874 306.287C254.704 291.469 250.609 260.913 267.382 246.88C273.265 241.587 280.514 238.712 287.978 238.71L287.975 238.819Z" fill="#E20000"/>
<path d="M184.975 379.819C195.549 378.817 205.491 387.457 211.914 394.319C224.048 375.277 251.691 375.146 263.957 393.97C275.738 409.909 271.008 432.469 257.523 447.945L211.486 500.29L164.874 447.287C151.704 432.469 147.609 401.913 164.382 387.88C170.265 382.587 177.514 379.712 184.978 379.71L184.975 379.819Z" fill="#E20000"/>
<path d="M390.975 379.819C401.549 378.817 411.491 387.457 417.914 394.319C430.048 375.277 457.691 375.146 469.957 393.97C481.738 409.909 477.008 432.469 463.523 447.945L417.486 500.29L370.874 447.287C357.704 432.469 353.609 401.913 370.382 387.88C376.265 382.587 383.514 379.712 390.978 379.71L390.975 379.819Z" fill="#E20000"/>
<path d="M184.975 782.181C195.549 783.183 205.491 774.543 211.914 767.681C224.048 786.723 251.691 786.854 263.957 768.03C275.738 752.091 271.008 729.531 257.523 714.055L211.486 661.71L164.874 714.713C151.704 729.531 147.609 760.087 164.382 774.12C170.265 779.413 177.514 782.288 184.978 782.29L184.975 782.181Z" fill="#E20000"/>
<path d="M390.975 782.181C401.549 783.183 411.491 774.543 417.914 767.681C430.048 786.723 457.691 786.854 469.957 768.03C481.738 752.091 477.008 729.531 463.523 714.055L417.486 661.71L370.874 714.713C357.704 729.531 353.609 760.087 370.382 774.12C376.265 779.413 383.514 782.288 390.978 782.29L390.975 782.181Z" fill="#E20000"/>
<path d="M125.5 44.5C125.5 45.6667 125.167 47.2917 124.5 49.375C123.917 51.4583 123.125 53.8333 122.125 56.5C121.208 59.0833 120.125 61.8333 118.875 64.75C117.708 67.5833 116.542 70.3333 115.375 73C114.208 75.5833 113.125 78 112.125 80.25C111.125 82.5 110.333 84.25 109.75 85.5C108.667 88 107.292 91.1667 105.625 95C103.958 98.75 102.167 102.625 100.25 106.625C98.3333 110.542 96.3333 114.25 94.25 117.75C92.25 121.167 90.375 123.833 88.625 125.75C86.875 127.667 84.7917 128.625 82.375 128.625C80.5417 128.625 79 128.042 77.75 126.875C76.5 125.708 75.875 124.167 75.875 122.25C75.875 119.667 76.4167 116.583 77.5 113C78.6667 109.417 80 105.792 81.5 102.125C83.0833 98.375 84.7083 94.75 86.375 91.25C88.0417 87.75 89.4583 84.75 90.625 82.25C92.7917 77.3333 94.9583 72.5 97.125 67.75C99.2917 62.9167 101.458 58.0417 103.625 53.125C102.458 52.9583 101.208 52.8333 99.875 52.75C98.625 52.6667 97.4167 52.625 96.25 52.625C92 52.625 87.625 52.9583 83.125 53.625C78.7083 54.2083 74.4167 54.9167 70.25 55.75C69.8333 55.8333 69.2083 55.875 68.375 55.875C66.4583 55.875 64.875 55.2917 63.625 54.125C62.4583 52.9583 61.875 51.4167 61.875 49.5C61.875 47.5 62.5417 45.75 63.875 44.25C65.2917 42.75 67.0833 41.5 69.25 40.5C71.5 39.4167 73.9583 38.5417 76.625 37.875C79.375 37.2083 82.0417 36.6667 84.625 36.25C87.2917 35.8333 89.75 35.5833 92 35.5C94.25 35.3333 96.0417 35.25 97.375 35.25C98.7917 35.25 100.833 35.375 103.5 35.625C106.25 35.7917 109.042 36.125 111.875 36.625C114.792 37.0417 117.458 37.6667 119.875 38.5C122.292 39.25 123.917 40.25 124.75 41.5C125.167 42 125.375 42.5 125.375 43C125.458 43.4167 125.5 43.9167 125.5 44.5Z" fill="#E20000"/>
<path d="M80.7979 160.148C86.746 159.584 92.3385 164.445 95.9512 168.304C102.776 157.593 118.326 157.52 125.225 168.108C131.853 177.074 129.191 189.764 121.606 198.469L95.7106 227.913L69.4914 198.099C62.083 189.764 59.7795 172.576 69.2147 164.682C72.5235 161.705 76.6014 160.088 80.8 160.087L80.7979 160.148Z" fill="#E20000"/>
<path d="M504.5 835.5C504.5 834.333 504.833 832.708 505.5 830.625C506.083 828.542 506.875 826.167 507.875 823.5C508.792 820.917 509.875 818.167 511.125 815.25C512.292 812.417 513.458 809.667 514.625 807C515.792 804.417 516.875 802 517.875 799.75C518.875 797.5 519.667 795.75 520.25 794.5C521.333 792 522.708 788.833 524.375 785C526.042 781.25 527.833 777.375 529.75 773.375C531.667 769.458 533.667 765.75 535.75 762.25C537.75 758.833 539.625 756.167 541.375 754.25C543.125 752.333 545.208 751.375 547.625 751.375C549.458 751.375 551 751.958 552.25 753.125C553.5 754.292 554.125 755.833 554.125 757.75C554.125 760.333 553.583 763.417 552.5 767C551.333 770.583 550 774.208 548.5 777.875C546.917 781.625 545.292 785.25 543.625 788.75C541.958 792.25 540.542 795.25 539.375 797.75C537.208 802.667 535.042 807.5 532.875 812.25C530.708 817.083 528.542 821.958 526.375 826.875C527.542 827.042 528.792 827.167 530.125 827.25C531.375 827.333 532.583 827.375 533.75 827.375C538 827.375 542.375 827.042 546.875 826.375C551.292 825.792 555.583 825.083 559.75 824.25C560.167 824.167 560.792 824.125 561.625 824.125C563.542 824.125 565.125 824.708 566.375 825.875C567.542 827.042 568.125 828.583 568.125 830.5C568.125 832.5 567.458 834.25 566.125 835.75C564.708 837.25 562.917 838.5 560.75 839.5C558.5 840.583 556.042 841.458 553.375 842.125C550.625 842.792 547.958 843.333 545.375 843.75C542.708 844.167 540.25 844.417 538 844.5C535.75 844.667 533.958 844.75 532.625 844.75C531.208 844.75 529.167 844.625 526.5 844.375C523.75 844.208 520.958 843.875 518.125 843.375C515.208 842.958 512.542 842.333 510.125 841.5C507.708 840.75 506.083 839.75 505.25 838.5C504.833 838 504.625 837.5 504.625 837C504.542 836.583 504.5 836.083 504.5 835.5Z" fill="#E20000"/>
<path d="M518.798 719.852C524.746 720.416 530.339 715.555 533.951 711.696C540.776 722.407 556.326 722.48 563.225 711.892C569.853 702.926 567.191 690.236 559.606 681.531L533.711 652.087L507.491 681.901C500.083 690.236 497.78 707.424 507.215 715.318C510.524 718.295 514.601 719.912 518.8 719.913L518.798 719.852Z" fill="#E20000"/>
</svg>
