<svg width="630" height="880" viewBox="0 0 630 880" fill="none" xmlns="http://www.w3.org/2000/svg">
<rect x="2.5" y="2.5" width="625" height="875" rx="17.5" fill="white" stroke="black" stroke-width="5"/>
<path fill-rule="evenodd" clip-rule="evenodd" d="M156 160C174.368 147.6 198.86 122.8 211.104 98C223.348 122.8 247.84 147.6 266.208 160C247.84 172.4 223.348 197.2 211.104 222C198.86 197.2 174.368 172.4 156 160Z" fill="#E20000"/>
<path fill-rule="evenodd" clip-rule="evenodd" d="M362 160C380.368 147.6 404.86 122.8 417.104 98C429.348 122.8 453.84 147.6 472.208 160C453.84 172.4 429.348 197.2 417.104 222C404.86 197.2 380.368 172.4 362 160Z" fill="#E20000"/>
<path fill-rule="evenodd" clip-rule="evenodd" d="M259 301C277.368 288.6 301.86 263.8 314.104 239C326.348 263.8 350.84 288.6 369.208 301C350.84 313.4 326.348 338.2 314.104 363C301.86 338.2 277.368 313.4 259 301Z" fill="#E20000"/>
<path fill-rule="evenodd" clip-rule="evenodd" d="M156 442C174.368 429.6 198.86 404.8 211.104 380C223.348 404.8 247.84 429.6 266.208 442C247.84 454.4 223.348 479.2 211.104 504C198.86 479.2 174.368 454.4 156 442Z" fill="#E20000"/>
<path fill-rule="evenodd" clip-rule="evenodd" d="M362 442C380.368 429.6 404.86 404.8 417.104 380C429.348 404.8 453.84 429.6 472.208 442C453.84 454.4 429.348 479.2 417.104 504C404.86 479.2 380.368 454.4 362 442Z" fill="#E20000"/>
<path fill-rule="evenodd" clip-rule="evenodd" d="M268 720C249.632 732.4 225.14 757.2 212.896 782C200.652 757.2 176.16 732.4 157.792 720C176.16 707.6 200.652 682.8 212.896 658C225.14 682.8 249.632 707.6 268 720Z" fill="#E20000"/>
<path fill-rule="evenodd" clip-rule="evenodd" d="M474 720C455.632 732.4 431.14 757.2 418.896 782C406.652 757.2 382.16 732.4 363.792 720C382.16 707.6 406.652 682.8 418.896 658C431.14 682.8 455.632 707.6 474 720Z" fill="#E20000"/>
<path d="M125.5 44.5C125.5 45.6667 125.167 47.2917 124.5 49.375C123.917 51.4583 123.125 53.8333 122.125 56.5C121.208 59.0833 120.125 61.8333 118.875 64.75C117.708 67.5833 116.542 70.3333 115.375 73C114.208 75.5833 113.125 78 112.125 80.25C111.125 82.5 110.333 84.25 109.75 85.5C108.667 88 107.292 91.1667 105.625 95C103.958 98.75 102.167 102.625 100.25 106.625C98.3333 110.542 96.3333 114.25 94.25 117.75C92.25 121.167 90.375 123.833 88.625 125.75C86.875 127.667 84.7917 128.625 82.375 128.625C80.5417 128.625 79 128.042 77.75 126.875C76.5 125.708 75.875 124.167 75.875 122.25C75.875 119.667 76.4167 116.583 77.5 113C78.6667 109.417 80 105.792 81.5 102.125C83.0833 98.375 84.7083 94.75 86.375 91.25C88.0417 87.75 89.4583 84.75 90.625 82.25C92.7917 77.3333 94.9583 72.5 97.125 67.75C99.2917 62.9167 101.458 58.0417 103.625 53.125C102.458 52.9583 101.208 52.8333 99.875 52.75C98.625 52.6667 97.4167 52.625 96.25 52.625C92 52.625 87.625 52.9583 83.125 53.625C78.7083 54.2083 74.4167 54.9167 70.25 55.75C69.8333 55.8333 69.2083 55.875 68.375 55.875C66.4583 55.875 64.875 55.2917 63.625 54.125C62.4583 52.9583 61.875 51.4167 61.875 49.5C61.875 47.5 62.5417 45.75 63.875 44.25C65.2917 42.75 67.0833 41.5 69.25 40.5C71.5 39.4167 73.9583 38.5417 76.625 37.875C79.375 37.2083 82.0417 36.6667 84.625 36.25C87.2917 35.8333 89.75 35.5833 92 35.5C94.25 35.3333 96.0417 35.25 97.375 35.25C98.7917 35.25 100.833 35.375 103.5 35.625C106.25 35.7917 109.042 36.125 111.875 36.625C114.792 37.0417 117.458 37.6667 119.875 38.5C122.292 39.25 123.917 40.25 124.75 41.5C125.167 42 125.375 42.5 125.375 43C125.458 43.4167 125.5 43.9167 125.5 44.5Z" fill="#E20000"/>
<path fill-rule="evenodd" clip-rule="evenodd" d="M64.5 195.125C74.832 188.15 88.6087 174.2 95.496 160.25C102.383 174.2 116.16 188.15 126.492 195.125C116.16 202.1 102.383 216.05 95.496 230C88.6087 216.05 74.832 202.1 64.5 195.125Z" fill="#E20000"/>
<path d="M504.5 835.5C504.5 834.333 504.833 832.708 505.5 830.625C506.083 828.542 506.875 826.167 507.875 823.5C508.792 820.917 509.875 818.167 511.125 815.25C512.292 812.417 513.458 809.667 514.625 807C515.792 804.417 516.875 802 517.875 799.75C518.875 797.5 519.667 795.75 520.25 794.5C521.333 792 522.708 788.833 524.375 785C526.042 781.25 527.833 777.375 529.75 773.375C531.667 769.458 533.667 765.75 535.75 762.25C537.75 758.833 539.625 756.167 541.375 754.25C543.125 752.333 545.208 751.375 547.625 751.375C549.458 751.375 551 751.958 552.25 753.125C553.5 754.292 554.125 755.833 554.125 757.75C554.125 760.333 553.583 763.417 552.5 767C551.333 770.583 550 774.208 548.5 777.875C546.917 781.625 545.292 785.25 543.625 788.75C541.958 792.25 540.542 795.25 539.375 797.75C537.208 802.667 535.042 807.5 532.875 812.25C530.708 817.083 528.542 821.958 526.375 826.875C527.542 827.042 528.792 827.167 530.125 827.25C531.375 827.333 532.583 827.375 533.75 827.375C538 827.375 542.375 827.042 546.875 826.375C551.292 825.792 555.583 825.083 559.75 824.25C560.167 824.167 560.792 824.125 561.625 824.125C563.542 824.125 565.125 824.708 566.375 825.875C567.542 827.042 568.125 828.583 568.125 830.5C568.125 832.5 567.458 834.25 566.125 835.75C564.708 837.25 562.917 838.5 560.75 839.5C558.5 840.583 556.042 841.458 553.375 842.125C550.625 842.792 547.958 843.333 545.375 843.75C542.708 844.167 540.25 844.417 538 844.5C535.75 844.667 533.958 844.75 532.625 844.75C531.208 844.75 529.167 844.625 526.5 844.375C523.75 844.208 520.958 843.875 518.125 843.375C515.208 842.958 512.542 842.333 510.125 841.5C507.708 840.75 506.083 839.75 505.25 838.5C504.833 838 504.625 837.5 504.625 837C504.542 836.583 504.5 836.083 504.5 835.5Z" fill="#E20000"/>
<path fill-rule="evenodd" clip-rule="evenodd" d="M565.5 684.875C555.168 691.85 541.391 705.8 534.504 719.75C527.617 705.8 513.84 691.85 503.508 684.875C513.84 677.9 527.617 663.95 534.504 650C541.391 663.95 555.168 677.9 565.5 684.875Z" fill="#E20000"/>
</svg>
