<svg width="630" height="880" viewBox="0 0 630 880" fill="none" xmlns="http://www.w3.org/2000/svg">
<rect x="2.5" y="2.5" width="625" height="875" rx="17.5" fill="white" stroke="black" stroke-width="5"/>
<path d="M210.66 96C196.484 96 184.992 107.104 184.992 120.8C185.009 125.284 186.274 129.674 188.644 133.48C187.434 133.306 186.214 133.214 184.992 133.208C170.82 133.208 159.332 144.308 159.332 158C159.332 171.696 170.816 182.8 184.992 182.804C188.419 182.812 191.814 182.152 194.988 180.86C199.531 179 203.449 175.882 206.28 171.872C206.536 171.504 206.76 171.112 206.996 170.732C204.504 190.344 202.584 212.928 195.264 220H226.06C218.74 212.928 216.82 190.344 214.328 170.732C214.568 171.112 214.788 171.504 215.044 171.872C217.875 175.882 221.793 179 226.336 180.86C229.51 182.152 232.905 182.812 236.332 182.804C250.508 182.804 262 171.7 262 158.004C262 144.304 250.504 133.204 236.332 133.204C235.112 133.204 233.892 133.308 232.688 133.484C235.054 129.677 236.314 125.286 236.328 120.804C236.332 107.104 224.84 95.9999 210.66 96.0039V96Z" fill="black"/>
<path d="M416.66 96C402.484 96 390.992 107.104 390.992 120.8C391.009 125.284 392.274 129.674 394.644 133.48C393.434 133.306 392.214 133.214 390.992 133.208C376.82 133.208 365.332 144.308 365.332 158C365.332 171.696 376.816 182.8 390.992 182.804C394.419 182.812 397.814 182.152 400.988 180.86C405.531 179 409.449 175.882 412.28 171.872C412.536 171.504 412.76 171.112 412.996 170.732C410.504 190.344 408.584 212.928 401.264 220H432.06C424.74 212.928 422.82 190.344 420.328 170.732C420.568 171.112 420.788 171.504 421.044 171.872C423.875 175.882 427.793 179 432.336 180.86C435.51 182.152 438.905 182.812 442.332 182.804C456.508 182.804 468 171.7 468 158.004C468 144.304 456.504 133.204 442.332 133.204C441.112 133.204 439.892 133.308 438.688 133.484C441.054 129.677 442.314 125.286 442.328 120.804C442.332 107.104 430.84 95.9999 416.66 96.0039V96Z" fill="black"/>
<path d="M313.66 237C299.484 237 287.992 248.104 287.992 261.8C288.009 266.284 289.274 270.674 291.644 274.48C290.434 274.306 289.214 274.214 287.992 274.208C273.82 274.208 262.332 285.308 262.332 299C262.332 312.696 273.816 323.8 287.992 323.804C291.419 323.812 294.814 323.152 297.988 321.86C302.531 320 306.449 316.882 309.28 312.872C309.536 312.504 309.76 312.112 309.996 311.732C307.504 331.344 305.584 353.928 298.264 361H329.06C321.74 353.928 319.82 331.344 317.328 311.732C317.568 312.112 317.788 312.504 318.044 312.872C320.875 316.882 324.793 320 329.336 321.86C332.51 323.152 335.905 323.812 339.332 323.804C353.508 323.804 365 312.7 365 299.004C365 285.304 353.504 274.204 339.332 274.204C338.112 274.204 336.892 274.308 335.688 274.484C338.054 270.677 339.314 266.286 339.328 261.804C339.332 248.104 327.84 237 313.66 237.004V237Z" fill="black"/>
<path d="M210.66 378C196.484 378 184.992 389.104 184.992 402.8C185.009 407.284 186.274 411.674 188.644 415.48C187.434 415.306 186.214 415.214 184.992 415.208C170.82 415.208 159.332 426.308 159.332 440C159.332 453.696 170.816 464.8 184.992 464.804C188.419 464.812 191.814 464.152 194.988 462.86C199.531 461 203.449 457.882 206.28 453.872C206.536 453.504 206.76 453.112 206.996 452.732C204.504 472.344 202.584 494.928 195.264 502H226.06C218.74 494.928 216.82 472.344 214.328 452.732C214.568 453.112 214.788 453.504 215.044 453.872C217.875 457.882 221.793 461 226.336 462.86C229.51 464.152 232.905 464.812 236.332 464.804C250.508 464.804 262 453.7 262 440.004C262 426.304 250.504 415.204 236.332 415.204C235.112 415.204 233.892 415.308 232.688 415.484C235.054 411.677 236.314 407.286 236.328 402.804C236.332 389.104 224.84 378 210.66 378.004V378Z" fill="black"/>
<path d="M416.66 378C402.484 378 390.992 389.104 390.992 402.8C391.009 407.284 392.274 411.674 394.644 415.48C393.434 415.306 392.214 415.214 390.992 415.208C376.82 415.208 365.332 426.308 365.332 440C365.332 453.696 376.816 464.8 390.992 464.804C394.419 464.812 397.814 464.152 400.988 462.86C405.531 461 409.449 457.882 412.28 453.872C412.536 453.504 412.76 453.112 412.996 452.732C410.504 472.344 408.584 494.928 401.264 502H432.06C424.74 494.928 422.82 472.344 420.328 452.732C420.568 453.112 420.788 453.504 421.044 453.872C423.875 457.882 427.793 461 432.336 462.86C435.51 464.152 438.905 464.812 442.332 464.804C456.508 464.804 468 453.7 468 440.004C468 426.304 456.504 415.204 442.332 415.204C441.112 415.204 439.892 415.308 438.688 415.484C441.054 411.677 442.314 407.286 442.328 402.804C442.332 389.104 430.84 378 416.66 378.004V378Z" fill="black"/>
<path d="M213.34 784C227.516 784 239.008 772.896 239.008 759.2C238.991 754.716 237.726 750.326 235.356 746.52C236.566 746.694 237.786 746.786 239.008 746.792C253.18 746.792 264.668 735.692 264.668 722C264.668 708.304 253.184 697.2 239.008 697.196C235.581 697.188 232.186 697.848 229.012 699.14C224.469 701 220.551 704.118 217.72 708.128C217.464 708.496 217.24 708.888 217.004 709.268C219.496 689.656 221.416 667.072 228.736 660H197.94C205.26 667.072 207.18 689.656 209.672 709.268C209.432 708.888 209.212 708.496 208.956 708.128C206.125 704.118 202.207 701 197.664 699.14C194.49 697.848 191.095 697.188 187.668 697.196C173.492 697.196 162 708.3 162 721.996C162 735.696 173.496 746.796 187.668 746.796C188.888 746.796 190.108 746.692 191.312 746.516C188.946 750.323 187.686 754.714 187.672 759.196C187.668 772.896 199.16 784 213.34 783.996V784Z" fill="black"/>
<path d="M419.34 784C433.516 784 445.008 772.896 445.008 759.2C444.991 754.716 443.726 750.326 441.356 746.52C442.566 746.694 443.786 746.786 445.008 746.792C459.18 746.792 470.668 735.692 470.668 722C470.668 708.304 459.184 697.2 445.008 697.196C441.581 697.188 438.186 697.848 435.012 699.14C430.469 701 426.551 704.118 423.72 708.128C423.464 708.496 423.24 708.888 423.004 709.268C425.496 689.656 427.416 667.072 434.736 660H403.94C411.26 667.072 413.18 689.656 415.672 709.268C415.432 708.888 415.212 708.496 414.956 708.128C412.125 704.118 408.207 701 403.664 699.14C400.49 697.848 397.095 697.188 393.668 697.196C379.492 697.196 368 708.3 368 721.996C368 735.696 379.496 746.796 393.668 746.796C394.888 746.796 396.108 746.692 397.312 746.516C394.946 750.323 393.686 754.714 393.672 759.196C393.668 772.896 405.16 784 419.34 783.996V784Z" fill="black"/>
<path d="M125.5 44.5C125.5 45.6667 125.167 47.2917 124.5 49.375C123.917 51.4583 123.125 53.8333 122.125 56.5C121.208 59.0833 120.125 61.8333 118.875 64.75C117.708 67.5833 116.542 70.3333 115.375 73C114.208 75.5833 113.125 78 112.125 80.25C111.125 82.5 110.333 84.25 109.75 85.5C108.667 88 107.292 91.1667 105.625 95C103.958 98.75 102.167 102.625 100.25 106.625C98.3333 110.542 96.3333 114.25 94.25 117.75C92.25 121.167 90.375 123.833 88.625 125.75C86.875 127.667 84.7917 128.625 82.375 128.625C80.5417 128.625 79 128.042 77.75 126.875C76.5 125.708 75.875 124.167 75.875 122.25C75.875 119.667 76.4167 116.583 77.5 113C78.6667 109.417 80 105.792 81.5 102.125C83.0833 98.375 84.7083 94.75 86.375 91.25C88.0417 87.75 89.4583 84.75 90.625 82.25C92.7917 77.3333 94.9583 72.5 97.125 67.75C99.2917 62.9167 101.458 58.0417 103.625 53.125C102.458 52.9583 101.208 52.8333 99.875 52.75C98.625 52.6667 97.4167 52.625 96.25 52.625C92 52.625 87.625 52.9583 83.125 53.625C78.7083 54.2083 74.4167 54.9167 70.25 55.75C69.8333 55.8333 69.2083 55.875 68.375 55.875C66.4583 55.875 64.875 55.2917 63.625 54.125C62.4583 52.9583 61.875 51.4167 61.875 49.5C61.875 47.5 62.5417 45.75 63.875 44.25C65.2917 42.75 67.0833 41.5 69.25 40.5C71.5 39.4167 73.9583 38.5417 76.625 37.875C79.375 37.2083 82.0417 36.6667 84.625 36.25C87.2917 35.8333 89.75 35.5833 92 35.5C94.25 35.3333 96.0417 35.25 97.375 35.25C98.7917 35.25 100.833 35.375 103.5 35.625C106.25 35.7917 109.042 36.125 111.875 36.625C114.792 37.0417 117.458 37.6667 119.875 38.5C122.292 39.25 123.917 40.25 124.75 41.5C125.167 42 125.375 42.5 125.375 43C125.458 43.4167 125.5 43.9167 125.5 44.5Z" fill="black"/>
<path d="M95.247 159.125C87.273 159.125 80.8087 165.371 80.8087 173.075C80.8184 175.597 81.5297 178.067 82.863 180.208C82.1826 180.109 81.4962 180.058 80.8087 180.054C72.837 180.054 66.375 186.298 66.375 194C66.375 201.704 72.8348 207.95 80.8087 207.952C82.7363 207.957 84.6461 207.585 86.4315 206.859C88.987 205.813 91.1906 204.059 92.7832 201.803C92.9272 201.596 93.0532 201.376 93.186 201.162C91.7842 212.194 90.7042 224.897 86.5867 228.875H103.909C99.792 224.897 98.712 212.194 97.3103 201.162C97.4453 201.376 97.569 201.596 97.713 201.803C99.3056 204.059 101.509 205.813 104.065 206.859C105.85 207.585 107.76 207.957 109.688 207.952C117.661 207.952 124.126 201.706 124.126 194.002C124.126 186.296 117.659 180.052 109.688 180.052C109.001 180.052 108.315 180.111 107.638 180.21C108.968 178.068 109.677 175.599 109.685 173.077C109.688 165.371 103.223 159.125 95.247 159.127V159.125Z" fill="black"/>
<path d="M504.5 835.5C504.5 834.333 504.833 832.708 505.5 830.625C506.083 828.542 506.875 826.167 507.875 823.5C508.792 820.917 509.875 818.167 511.125 815.25C512.292 812.417 513.458 809.667 514.625 807C515.792 804.417 516.875 802 517.875 799.75C518.875 797.5 519.667 795.75 520.25 794.5C521.333 792 522.708 788.833 524.375 785C526.042 781.25 527.833 777.375 529.75 773.375C531.667 769.458 533.667 765.75 535.75 762.25C537.75 758.833 539.625 756.167 541.375 754.25C543.125 752.333 545.208 751.375 547.625 751.375C549.458 751.375 551 751.958 552.25 753.125C553.5 754.292 554.125 755.833 554.125 757.75C554.125 760.333 553.583 763.417 552.5 767C551.333 770.583 550 774.208 548.5 777.875C546.917 781.625 545.292 785.25 543.625 788.75C541.958 792.25 540.542 795.25 539.375 797.75C537.208 802.667 535.042 807.5 532.875 812.25C530.708 817.083 528.542 821.958 526.375 826.875C527.542 827.042 528.792 827.167 530.125 827.25C531.375 827.333 532.583 827.375 533.75 827.375C538 827.375 542.375 827.042 546.875 826.375C551.292 825.792 555.583 825.083 559.75 824.25C560.167 824.167 560.792 824.125 561.625 824.125C563.542 824.125 565.125 824.708 566.375 825.875C567.542 827.042 568.125 828.583 568.125 830.5C568.125 832.5 567.458 834.25 566.125 835.75C564.708 837.25 562.917 838.5 560.75 839.5C558.5 840.583 556.042 841.458 553.375 842.125C550.625 842.792 547.958 843.333 545.375 843.75C542.708 844.167 540.25 844.417 538 844.5C535.75 844.667 533.958 844.75 532.625 844.75C531.208 844.75 529.167 844.625 526.5 844.375C523.75 844.208 520.958 843.875 518.125 843.375C515.208 842.958 512.542 842.333 510.125 841.5C507.708 840.75 506.083 839.75 505.25 838.5C504.833 838 504.625 837.5 504.625 837C504.542 836.583 504.5 836.083 504.5 835.5Z" fill="black"/>
<path d="M534.753 720.875C542.727 720.875 549.191 714.629 549.191 706.925C549.182 704.403 548.47 701.933 547.137 699.792C547.817 699.891 548.504 699.942 549.191 699.946C557.163 699.946 563.625 693.702 563.625 686C563.625 678.296 557.165 672.05 549.191 672.048C547.264 672.043 545.354 672.415 543.569 673.141C541.013 674.187 538.809 675.941 537.217 678.197C537.073 678.404 536.947 678.624 536.814 678.838C538.216 667.806 539.296 655.103 543.413 651.125H526.091C530.208 655.103 531.288 667.806 532.69 678.838C532.555 678.624 532.431 678.404 532.287 678.197C530.694 675.941 528.491 674.187 525.935 673.141C524.15 672.415 522.24 672.043 520.312 672.048C512.339 672.048 505.874 678.294 505.874 685.998C505.874 693.704 512.341 699.948 520.312 699.948C520.999 699.948 521.685 699.889 522.362 699.79C521.032 701.932 520.323 704.401 520.315 706.923C520.312 714.629 526.777 720.875 534.753 720.873V720.875Z" fill="black"/>
</svg>
