<svg width="630" height="880" viewBox="0 0 630 880" fill="none" xmlns="http://www.w3.org/2000/svg">
<rect x="2.5" y="2.5" width="625" height="875" rx="17.5" fill="white" stroke="black" stroke-width="5"/>
<path fill-rule="evenodd" clip-rule="evenodd" d="M211.535 96L169.435 135.428C157.547 146.44 153.843 169.168 168.991 179.6C174.231 183.512 180.895 185.688 187.591 185.676V185.592C195.335 186.192 202.603 182.092 208.207 177.792C205.771 194.872 203.807 213.032 196.599 219.996H227.399C220.347 213.18 217.135 194.448 214.767 177.688C229.219 189.468 249.047 187.564 258.927 175.072C269.571 163.22 265.291 146.432 253.111 134.924L211.535 96Z" fill="black"/>
<path fill-rule="evenodd" clip-rule="evenodd" d="M417.535 96L375.435 135.428C363.547 146.44 359.843 169.168 374.991 179.6C380.231 183.512 386.895 185.688 393.591 185.676V185.592C401.335 186.192 408.603 182.092 414.207 177.792C411.771 194.872 409.807 213.032 402.599 219.996H433.399C426.347 213.18 423.135 194.448 420.767 177.688C435.219 189.468 455.047 187.564 464.927 175.072C475.571 163.22 471.291 146.432 459.111 134.924L417.535 96Z" fill="black"/>
<path fill-rule="evenodd" clip-rule="evenodd" d="M314.535 237L272.435 276.428C260.547 287.44 256.843 310.168 271.991 320.6C277.231 324.512 283.895 326.688 290.591 326.676V326.592C298.335 327.192 305.603 323.092 311.207 318.792C308.771 335.872 306.807 354.032 299.599 360.996H330.399C323.347 354.18 320.135 335.448 317.767 318.688C332.219 330.468 352.047 328.564 361.927 316.072C372.571 304.22 368.291 287.432 356.111 275.924L314.535 237Z" fill="black"/>
<path fill-rule="evenodd" clip-rule="evenodd" d="M211.535 378L169.435 417.428C157.547 428.44 153.843 451.168 168.991 461.6C174.231 465.512 180.895 467.688 187.591 467.676V467.592C195.335 468.192 202.603 464.092 208.207 459.792C205.771 476.872 203.807 495.032 196.599 501.996H227.399C220.347 495.18 217.135 476.448 214.767 459.688C229.219 471.468 249.047 469.564 258.927 457.072C269.571 445.22 265.291 428.432 253.111 416.924L211.535 378Z" fill="black"/>
<path fill-rule="evenodd" clip-rule="evenodd" d="M417.535 378L375.435 417.428C363.547 428.44 359.843 451.168 374.991 461.6C380.231 465.512 386.895 467.688 393.591 467.676V467.592C401.335 468.192 408.603 464.092 414.207 459.792C411.771 476.872 409.807 495.032 402.599 501.996H433.399C426.347 495.18 423.135 476.448 420.767 459.688C435.219 471.468 455.047 469.564 464.927 457.072C475.571 445.22 471.291 428.432 459.111 416.924L417.535 378Z" fill="black"/>
<path fill-rule="evenodd" clip-rule="evenodd" d="M212.465 784L254.565 744.572C266.453 733.56 270.157 710.832 255.009 700.4C249.769 696.488 243.105 694.312 236.409 694.324V694.408C228.665 693.808 221.397 697.908 215.793 702.208C218.229 685.128 220.193 666.968 227.401 660.004H196.601C203.653 666.82 206.865 685.552 209.233 702.312C194.781 690.532 174.953 692.436 165.073 704.928C154.429 716.78 158.709 733.568 170.889 745.076L212.465 784Z" fill="black"/>
<path fill-rule="evenodd" clip-rule="evenodd" d="M418.465 784L460.565 744.572C472.453 733.56 476.157 710.832 461.009 700.4C455.769 696.488 449.105 694.312 442.409 694.324V694.408C434.665 693.808 427.397 697.908 421.793 702.208C424.229 685.128 426.193 666.968 433.401 660.004H402.601C409.653 666.82 412.865 685.552 415.233 702.312C400.781 690.532 380.953 692.436 371.073 704.928C360.429 716.78 364.709 733.568 376.889 745.076L418.465 784Z" fill="black"/>
<path d="M125.5 44.5C125.5 45.6667 125.167 47.2917 124.5 49.375C123.917 51.4583 123.125 53.8333 122.125 56.5C121.208 59.0833 120.125 61.8333 118.875 64.75C117.708 67.5833 116.542 70.3333 115.375 73C114.208 75.5833 113.125 78 112.125 80.25C111.125 82.5 110.333 84.25 109.75 85.5C108.667 88 107.292 91.1667 105.625 95C103.958 98.75 102.167 102.625 100.25 106.625C98.3333 110.542 96.3333 114.25 94.25 117.75C92.25 121.167 90.375 123.833 88.625 125.75C86.875 127.667 84.7917 128.625 82.375 128.625C80.5417 128.625 79 128.042 77.75 126.875C76.5 125.708 75.875 124.167 75.875 122.25C75.875 119.667 76.4167 116.583 77.5 113C78.6667 109.417 80 105.792 81.5 102.125C83.0833 98.375 84.7083 94.75 86.375 91.25C88.0417 87.75 89.4583 84.75 90.625 82.25C92.7917 77.3333 94.9583 72.5 97.125 67.75C99.2917 62.9167 101.458 58.0417 103.625 53.125C102.458 52.9583 101.208 52.8333 99.875 52.75C98.625 52.6667 97.4167 52.625 96.25 52.625C92 52.625 87.625 52.9583 83.125 53.625C78.7083 54.2083 74.4167 54.9167 70.25 55.75C69.8333 55.8333 69.2083 55.875 68.375 55.875C66.4583 55.875 64.875 55.2917 63.625 54.125C62.4583 52.9583 61.875 51.4167 61.875 49.5C61.875 47.5 62.5417 45.75 63.875 44.25C65.2917 42.75 67.0833 41.5 69.25 40.5C71.5 39.4167 73.9583 38.5417 76.625 37.875C79.375 37.2083 82.0417 36.6667 84.625 36.25C87.2917 35.8333 89.75 35.5833 92 35.5C94.25 35.3333 96.0417 35.25 97.375 35.25C98.7917 35.25 100.833 35.375 103.5 35.625C106.25 35.7917 109.042 36.125 111.875 36.625C114.792 37.0417 117.458 37.6667 119.875 38.5C122.292 39.25 123.917 40.25 124.75 41.5C125.167 42 125.375 42.5 125.375 43C125.458 43.4167 125.5 43.9167 125.5 44.5Z" fill="black"/>
<path fill-rule="evenodd" clip-rule="evenodd" d="M95.7395 159.125L72.0583 181.303C65.3713 187.498 63.2878 200.282 71.8085 206.15C74.756 208.35 78.5045 209.575 82.271 209.568V209.521C86.627 209.858 90.7153 207.552 93.8675 205.133C92.4973 214.74 91.3925 224.956 87.338 228.873H104.663C100.696 225.039 98.8895 214.502 97.5575 205.075C105.687 211.701 116.84 210.63 122.398 203.603C128.385 196.936 125.977 187.493 119.126 181.02L95.7395 159.125Z" fill="black"/>
<path d="M504.5 835.5C504.5 834.333 504.833 832.708 505.5 830.625C506.083 828.542 506.875 826.167 507.875 823.5C508.792 820.917 509.875 818.167 511.125 815.25C512.292 812.417 513.458 809.667 514.625 807C515.792 804.417 516.875 802 517.875 799.75C518.875 797.5 519.667 795.75 520.25 794.5C521.333 792 522.708 788.833 524.375 785C526.042 781.25 527.833 777.375 529.75 773.375C531.667 769.458 533.667 765.75 535.75 762.25C537.75 758.833 539.625 756.167 541.375 754.25C543.125 752.333 545.208 751.375 547.625 751.375C549.458 751.375 551 751.958 552.25 753.125C553.5 754.292 554.125 755.833 554.125 757.75C554.125 760.333 553.583 763.417 552.5 767C551.333 770.583 550 774.208 548.5 777.875C546.917 781.625 545.292 785.25 543.625 788.75C541.958 792.25 540.542 795.25 539.375 797.75C537.208 802.667 535.042 807.5 532.875 812.25C530.708 817.083 528.542 821.958 526.375 826.875C527.542 827.042 528.792 827.167 530.125 827.25C531.375 827.333 532.583 827.375 533.75 827.375C538 827.375 542.375 827.042 546.875 826.375C551.292 825.792 555.583 825.083 559.75 824.25C560.167 824.167 560.792 824.125 561.625 824.125C563.542 824.125 565.125 824.708 566.375 825.875C567.542 827.042 568.125 828.583 568.125 830.5C568.125 832.5 567.458 834.25 566.125 835.75C564.708 837.25 562.917 838.5 560.75 839.5C558.5 840.583 556.042 841.458 553.375 842.125C550.625 842.792 547.958 843.333 545.375 843.75C542.708 844.167 540.25 844.417 538 844.5C535.75 844.667 533.958 844.75 532.625 844.75C531.208 844.75 529.167 844.625 526.5 844.375C523.75 844.208 520.958 843.875 518.125 843.375C515.208 842.958 512.542 842.333 510.125 841.5C507.708 840.75 506.083 839.75 505.25 838.5C504.833 838 504.625 837.5 504.625 837C504.542 836.583 504.5 836.083 504.5 835.5Z" fill="black"/>
<path fill-rule="evenodd" clip-rule="evenodd" d="M534.26 720.875L557.942 698.697C564.629 692.502 566.712 679.718 558.191 673.85C555.244 671.65 551.495 670.425 547.729 670.432V670.479C543.373 670.142 539.285 672.448 536.132 674.867C537.503 665.26 538.607 655.044 542.662 651.127H525.337C529.304 654.961 531.11 665.498 532.442 674.925C524.313 668.299 513.16 669.37 507.602 676.397C501.615 683.064 504.023 692.507 510.874 698.98L534.26 720.875Z" fill="black"/>
</svg>
