<svg width="630" height="880" viewBox="0 0 630 880" fill="none" xmlns="http://www.w3.org/2000/svg">
<rect x="2.5" y="2.5" width="625" height="875" rx="17.5" fill="white" stroke="black" stroke-width="5"/>
<path d="M184.975 97.8192C195.549 96.8166 205.491 105.457 211.914 112.319C224.048 93.2766 251.691 93.146 263.957 111.97C275.738 127.909 271.008 150.469 257.523 165.945L211.486 218.29L164.874 165.287C151.704 150.469 147.609 119.913 164.382 105.88C170.265 100.587 177.514 97.7116 184.978 97.7101L184.975 97.8192Z" fill="#E20000"/>
<path d="M390.975 97.8192C401.549 96.8166 411.491 105.457 417.914 112.319C430.048 93.2766 457.691 93.146 469.957 111.97C481.738 127.909 477.008 150.469 463.523 165.945L417.486 218.29L370.874 165.287C357.704 150.469 353.609 119.913 370.382 105.88C376.265 100.587 383.514 97.7116 390.978 97.7101L390.975 97.8192Z" fill="#E20000"/>
<path d="M287.975 238.819C298.549 237.817 308.491 246.457 314.914 253.319C327.048 234.277 354.691 234.146 366.957 252.97C378.738 268.909 374.008 291.469 360.523 306.945L314.486 359.29L267.874 306.287C254.704 291.469 250.609 260.913 267.382 246.88C273.265 241.587 280.514 238.712 287.978 238.71L287.975 238.819Z" fill="#E20000"/>
<path d="M184.975 379.819C195.549 378.817 205.491 387.457 211.914 394.319C224.048 375.277 251.691 375.146 263.957 393.97C275.738 409.909 271.008 432.469 257.523 447.945L211.486 500.29L164.874 447.287C151.704 432.469 147.609 401.913 164.382 387.88C170.265 382.587 177.514 379.712 184.978 379.71L184.975 379.819Z" fill="#E20000"/>
<path d="M390.975 379.819C401.549 378.817 411.491 387.457 417.914 394.319C430.048 375.277 457.691 375.146 469.957 393.97C481.738 409.909 477.008 432.469 463.523 447.945L417.486 500.29L370.874 447.287C357.704 432.469 353.609 401.913 370.382 387.88C376.265 382.587 383.514 379.712 390.978 379.71L390.975 379.819Z" fill="#E20000"/>
<path d="M342.025 641.181C331.451 642.183 321.509 633.543 315.086 626.681C302.952 645.723 275.309 645.854 263.043 627.03C251.262 611.091 255.992 588.531 269.477 573.055L315.514 520.71L362.126 573.713C375.296 588.531 379.391 619.087 362.618 633.12C356.735 638.413 349.486 641.288 342.022 641.29L342.025 641.181Z" fill="#E20000"/>
<path d="M184.975 782.181C195.549 783.183 205.491 774.543 211.914 767.681C224.048 786.723 251.691 786.854 263.957 768.03C275.738 752.091 271.008 729.531 257.523 714.055L211.486 661.71L164.874 714.713C151.704 729.531 147.609 760.087 164.382 774.12C170.265 779.413 177.514 782.288 184.978 782.29L184.975 782.181Z" fill="#E20000"/>
<path d="M390.975 782.181C401.549 783.183 411.491 774.543 417.914 767.681C430.048 786.723 457.691 786.854 469.957 768.03C481.738 752.091 477.008 729.531 463.523 714.055L417.486 661.71L370.874 714.713C357.704 729.531 353.609 760.087 370.382 774.12C376.265 779.413 383.514 782.288 390.978 782.29L390.975 782.181Z" fill="#E20000"/>
<path d="M133.25 103.875C133.25 109.042 132 113.5 129.5 117.25C127 121 123.792 124.083 119.875 126.5C116.042 128.917 111.75 130.708 107 131.875C102.333 133.042 97.75 133.625 93.25 133.625C89.9167 133.625 86.375 133.125 82.625 132.125C78.875 131.208 75.4167 129.75 72.25 127.75C69.0833 125.833 66.4583 123.375 64.375 120.375C62.2917 117.375 61.25 113.875 61.25 109.875C61.25 106.625 61.7917 103.583 62.875 100.75C63.9583 97.8333 65.4167 95.1667 67.25 92.75C69.1667 90.25 71.3333 88.0417 73.75 86.125C76.25 84.2083 78.875 82.5417 81.625 81.125C79.5417 80.4583 77.5 79.5 75.5 78.25C73.5833 77 71.875 75.5417 70.375 73.875C68.875 72.2083 67.6667 70.3333 66.75 68.25C65.8333 66.1667 65.375 63.9583 65.375 61.625C65.375 57.0417 66.5833 53.0833 69 49.75C71.5 46.3333 74.625 43.5417 78.375 41.375C82.125 39.2083 86.1667 37.625 90.5 36.625C94.9167 35.5417 99.0417 35 102.875 35C105.792 35 108.75 35.3333 111.75 36C114.75 36.6667 117.458 37.75 119.875 39.25C122.375 40.75 124.417 42.7083 126 45.125C127.583 47.5417 128.375 50.4583 128.375 53.875C128.375 59.2083 126.833 63.9167 123.75 68C120.75 72 117 75.25 112.5 77.75C115.417 78.5 118.125 79.7083 120.625 81.375C123.208 83.0417 125.417 85.0417 127.25 87.375C129.167 89.625 130.625 92.1667 131.625 95C132.708 97.8333 133.25 100.792 133.25 103.875ZM109.375 56.75C109.375 55.75 109.042 54.9583 108.375 54.375C107.792 53.7917 107.042 53.3333 106.125 53C105.292 52.5833 104.375 52.3333 103.375 52.25C102.458 52.0833 101.667 52 101 52C100 52 98.7083 52.125 97.125 52.375C95.5417 52.625 94 53.0417 92.5 53.625C91 54.2083 89.7083 55 88.625 56C87.5417 56.9167 87 58.0417 87 59.375C87 60.7917 87.375 62.0417 88.125 63.125C88.875 64.125 89.7917 65 90.875 65.75C92.0417 66.5 93.25 67.0833 94.5 67.5C95.8333 67.8333 97.0833 68.0417 98.25 68.125C99.0833 67.625 100.125 67 101.375 66.25C102.625 65.4167 103.833 64.5 105 63.5C106.25 62.4167 107.292 61.3333 108.125 60.25C108.958 59.0833 109.375 57.9167 109.375 56.75ZM112.75 104.625C112.75 102.625 112.292 100.833 111.375 99.25C110.458 97.5833 109.25 96.1667 107.75 95C106.333 93.8333 104.708 92.875 102.875 92.125C101.125 91.2917 99.375 90.7083 97.625 90.375C95.9583 91.125 94.2083 92.0833 92.375 93.25C90.5417 94.3333 88.8333 95.625 87.25 97.125C85.75 98.625 84.5 100.292 83.5 102.125C82.5 103.875 82 105.792 82 107.875C82 109.375 82.5417 110.625 83.625 111.625C84.7083 112.625 86 113.417 87.5 114C89 114.583 90.5417 115 92.125 115.25C93.7917 115.5 95.1667 115.625 96.25 115.625C97.9167 115.625 99.7083 115.458 101.625 115.125C103.625 114.708 105.417 114.083 107 113.25C108.667 112.333 110.042 111.167 111.125 109.75C112.208 108.333 112.75 106.625 112.75 104.625Z" fill="#E20000"/>
<path d="M80.7979 160.148C86.746 159.584 92.3385 164.445 95.9512 168.304C102.776 157.593 118.326 157.52 125.225 168.108C131.853 177.074 129.191 189.764 121.606 198.469L95.7106 227.913L69.4914 198.099C62.083 189.764 59.7795 172.576 69.2147 164.682C72.5235 161.705 76.6014 160.088 80.8 160.087L80.7979 160.148Z" fill="#E20000"/>
<path d="M496.75 776.125C496.75 770.958 498 766.5 500.5 762.75C503 759 506.208 755.917 510.125 753.5C513.958 751.083 518.25 749.292 523 748.125C527.667 746.958 532.25 746.375 536.75 746.375C540.083 746.375 543.625 746.875 547.375 747.875C551.125 748.792 554.583 750.25 557.75 752.25C560.917 754.167 563.542 756.625 565.625 759.625C567.708 762.625 568.75 766.125 568.75 770.125C568.75 773.375 568.208 776.417 567.125 779.25C566.042 782.167 564.583 784.833 562.75 787.25C560.833 789.75 558.667 791.958 556.25 793.875C553.75 795.792 551.125 797.458 548.375 798.875C550.458 799.542 552.5 800.5 554.5 801.75C556.417 803 558.125 804.458 559.625 806.125C561.125 807.792 562.333 809.667 563.25 811.75C564.167 813.833 564.625 816.042 564.625 818.375C564.625 822.958 563.417 826.917 561 830.25C558.5 833.667 555.375 836.458 551.625 838.625C547.875 840.792 543.833 842.375 539.5 843.375C535.083 844.458 530.958 845 527.125 845C524.208 845 521.25 844.667 518.25 844C515.25 843.333 512.542 842.25 510.125 840.75C507.625 839.25 505.583 837.292 504 834.875C502.417 832.458 501.625 829.542 501.625 826.125C501.625 820.792 503.167 816.083 506.25 812C509.25 808 513 804.75 517.5 802.25C514.583 801.5 511.875 800.292 509.375 798.625C506.792 796.958 504.583 794.958 502.75 792.625C500.833 790.375 499.375 787.833 498.375 785C497.292 782.167 496.75 779.208 496.75 776.125ZM520.625 823.25C520.625 824.25 520.958 825.042 521.625 825.625C522.208 826.208 522.958 826.667 523.875 827C524.708 827.417 525.625 827.667 526.625 827.75C527.542 827.917 528.333 828 529 828C530 828 531.292 827.875 532.875 827.625C534.458 827.375 536 826.958 537.5 826.375C539 825.792 540.292 825 541.375 824C542.458 823.083 543 821.958 543 820.625C543 819.208 542.625 817.958 541.875 816.875C541.125 815.875 540.208 815 539.125 814.25C537.958 813.5 536.75 812.917 535.5 812.5C534.167 812.167 532.917 811.958 531.75 811.875C530.917 812.375 529.875 813 528.625 813.75C527.375 814.583 526.167 815.5 525 816.5C523.75 817.583 522.708 818.667 521.875 819.75C521.042 820.917 520.625 822.083 520.625 823.25ZM517.25 775.375C517.25 777.375 517.708 779.167 518.625 780.75C519.542 782.417 520.75 783.833 522.25 785C523.667 786.167 525.292 787.125 527.125 787.875C528.875 788.708 530.625 789.292 532.375 789.625C534.042 788.875 535.792 787.917 537.625 786.75C539.458 785.667 541.167 784.375 542.75 782.875C544.25 781.375 545.5 779.708 546.5 777.875C547.5 776.125 548 774.208 548 772.125C548 770.625 547.458 769.375 546.375 768.375C545.292 767.375 544 766.583 542.5 766C541 765.417 539.458 765 537.875 764.75C536.208 764.5 534.833 764.375 533.75 764.375C532.083 764.375 530.292 764.542 528.375 764.875C526.375 765.292 524.583 765.917 523 766.75C521.333 767.667 519.958 768.833 518.875 770.25C517.792 771.667 517.25 773.375 517.25 775.375Z" fill="#E20000"/>
<path d="M518.798 719.852C524.746 720.416 530.339 715.555 533.951 711.696C540.776 722.407 556.326 722.48 563.225 711.892C569.853 702.926 567.191 690.236 559.606 681.531L533.711 652.087L507.491 681.901C500.083 690.236 497.78 707.424 507.215 715.318C510.524 718.295 514.601 719.912 518.8 719.913L518.798 719.852Z" fill="#E20000"/>
</svg>
