<svg width="630" height="880" viewBox="0 0 630 880" fill="none" xmlns="http://www.w3.org/2000/svg">
<rect x="2.5" y="2.5" width="625" height="875" rx="17.5" fill="white" stroke="black" stroke-width="5"/>
<path fill-rule="evenodd" clip-rule="evenodd" d="M211.535 96L169.435 135.428C157.547 146.44 153.843 169.168 168.991 179.6C174.231 183.512 180.895 185.688 187.591 185.676V185.592C195.335 186.192 202.603 182.092 208.207 177.792C205.771 194.872 203.807 213.032 196.599 219.996H227.399C220.347 213.18 217.135 194.448 214.767 177.688C229.219 189.468 249.047 187.564 258.927 175.072C269.571 163.22 265.291 146.432 253.111 134.924L211.535 96Z" fill="black"/>
<path fill-rule="evenodd" clip-rule="evenodd" d="M417.535 96L375.435 135.428C363.547 146.44 359.843 169.168 374.991 179.6C380.231 183.512 386.895 185.688 393.591 185.676V185.592C401.335 186.192 408.603 182.092 414.207 177.792C411.771 194.872 409.807 213.032 402.599 219.996H433.399C426.347 213.18 423.135 194.448 420.767 177.688C435.219 189.468 455.047 187.564 464.927 175.072C475.571 163.22 471.291 146.432 459.111 134.924L417.535 96Z" fill="black"/>
<path fill-rule="evenodd" clip-rule="evenodd" d="M314.535 237L272.435 276.428C260.547 287.44 256.843 310.168 271.991 320.6C277.231 324.512 283.895 326.688 290.591 326.676V326.592C298.335 327.192 305.603 323.092 311.207 318.792C308.771 335.872 306.807 354.032 299.599 360.996H330.399C323.347 354.18 320.135 335.448 317.767 318.688C332.219 330.468 352.047 328.564 361.927 316.072C372.571 304.22 368.291 287.432 356.111 275.924L314.535 237Z" fill="black"/>
<path fill-rule="evenodd" clip-rule="evenodd" d="M211.535 378L169.435 417.428C157.547 428.44 153.843 451.168 168.991 461.6C174.231 465.512 180.895 467.688 187.591 467.676V467.592C195.335 468.192 202.603 464.092 208.207 459.792C205.771 476.872 203.807 495.032 196.599 501.996H227.399C220.347 495.18 217.135 476.448 214.767 459.688C229.219 471.468 249.047 469.564 258.927 457.072C269.571 445.22 265.291 428.432 253.111 416.924L211.535 378Z" fill="black"/>
<path fill-rule="evenodd" clip-rule="evenodd" d="M417.535 378L375.435 417.428C363.547 428.44 359.843 451.168 374.991 461.6C380.231 465.512 386.895 467.688 393.591 467.676V467.592C401.335 468.192 408.603 464.092 414.207 459.792C411.771 476.872 409.807 495.032 402.599 501.996H433.399C426.347 495.18 423.135 476.448 420.767 459.688C435.219 471.468 455.047 469.564 464.927 457.072C475.571 445.22 471.291 428.432 459.111 416.924L417.535 378Z" fill="black"/>
<path fill-rule="evenodd" clip-rule="evenodd" d="M315.465 643L357.565 603.572C369.453 592.56 373.157 569.832 358.009 559.4C352.769 555.488 346.105 553.312 339.409 553.324V553.408C331.665 552.808 324.397 556.908 318.793 561.208C321.229 544.128 323.193 525.968 330.401 519.004H299.601C306.653 525.82 309.865 544.552 312.233 561.312C297.781 549.532 277.953 551.436 268.073 563.928C257.429 575.78 261.709 592.568 273.889 604.076L315.465 643Z" fill="black"/>
<path fill-rule="evenodd" clip-rule="evenodd" d="M212.465 784L254.565 744.572C266.453 733.56 270.157 710.832 255.009 700.4C249.769 696.488 243.105 694.312 236.409 694.324V694.408C228.665 693.808 221.397 697.908 215.793 702.208C218.229 685.128 220.193 666.968 227.401 660.004H196.601C203.653 666.82 206.865 685.552 209.233 702.312C194.781 690.532 174.953 692.436 165.073 704.928C154.429 716.78 158.709 733.568 170.889 745.076L212.465 784Z" fill="black"/>
<path fill-rule="evenodd" clip-rule="evenodd" d="M418.465 784L460.565 744.572C472.453 733.56 476.157 710.832 461.009 700.4C455.769 696.488 449.105 694.312 442.409 694.324V694.408C434.665 693.808 427.397 697.908 421.793 702.208C424.229 685.128 426.193 666.968 433.401 660.004H402.601C409.653 666.82 412.865 685.552 415.233 702.312C400.781 690.532 380.953 692.436 371.073 704.928C360.429 716.78 364.709 733.568 376.889 745.076L418.465 784Z" fill="black"/>
<path d="M133.25 103.875C133.25 109.042 132 113.5 129.5 117.25C127 121 123.792 124.083 119.875 126.5C116.042 128.917 111.75 130.708 107 131.875C102.333 133.042 97.75 133.625 93.25 133.625C89.9167 133.625 86.375 133.125 82.625 132.125C78.875 131.208 75.4167 129.75 72.25 127.75C69.0833 125.833 66.4583 123.375 64.375 120.375C62.2917 117.375 61.25 113.875 61.25 109.875C61.25 106.625 61.7917 103.583 62.875 100.75C63.9583 97.8333 65.4167 95.1667 67.25 92.75C69.1667 90.25 71.3333 88.0417 73.75 86.125C76.25 84.2083 78.875 82.5417 81.625 81.125C79.5417 80.4583 77.5 79.5 75.5 78.25C73.5833 77 71.875 75.5417 70.375 73.875C68.875 72.2083 67.6667 70.3333 66.75 68.25C65.8333 66.1667 65.375 63.9583 65.375 61.625C65.375 57.0417 66.5833 53.0833 69 49.75C71.5 46.3333 74.625 43.5417 78.375 41.375C82.125 39.2083 86.1667 37.625 90.5 36.625C94.9167 35.5417 99.0417 35 102.875 35C105.792 35 108.75 35.3333 111.75 36C114.75 36.6667 117.458 37.75 119.875 39.25C122.375 40.75 124.417 42.7083 126 45.125C127.583 47.5417 128.375 50.4583 128.375 53.875C128.375 59.2083 126.833 63.9167 123.75 68C120.75 72 117 75.25 112.5 77.75C115.417 78.5 118.125 79.7083 120.625 81.375C123.208 83.0417 125.417 85.0417 127.25 87.375C129.167 89.625 130.625 92.1667 131.625 95C132.708 97.8333 133.25 100.792 133.25 103.875ZM109.375 56.75C109.375 55.75 109.042 54.9583 108.375 54.375C107.792 53.7917 107.042 53.3333 106.125 53C105.292 52.5833 104.375 52.3333 103.375 52.25C102.458 52.0833 101.667 52 101 52C100 52 98.7083 52.125 97.125 52.375C95.5417 52.625 94 53.0417 92.5 53.625C91 54.2083 89.7083 55 88.625 56C87.5417 56.9167 87 58.0417 87 59.375C87 60.7917 87.375 62.0417 88.125 63.125C88.875 64.125 89.7917 65 90.875 65.75C92.0417 66.5 93.25 67.0833 94.5 67.5C95.8333 67.8333 97.0833 68.0417 98.25 68.125C99.0833 67.625 100.125 67 101.375 66.25C102.625 65.4167 103.833 64.5 105 63.5C106.25 62.4167 107.292 61.3333 108.125 60.25C108.958 59.0833 109.375 57.9167 109.375 56.75ZM112.75 104.625C112.75 102.625 112.292 100.833 111.375 99.25C110.458 97.5833 109.25 96.1667 107.75 95C106.333 93.8333 104.708 92.875 102.875 92.125C101.125 91.2917 99.375 90.7083 97.625 90.375C95.9583 91.125 94.2083 92.0833 92.375 93.25C90.5417 94.3333 88.8333 95.625 87.25 97.125C85.75 98.625 84.5 100.292 83.5 102.125C82.5 103.875 82 105.792 82 107.875C82 109.375 82.5417 110.625 83.625 111.625C84.7083 112.625 86 113.417 87.5 114C89 114.583 90.5417 115 92.125 115.25C93.7917 115.5 95.1667 115.625 96.25 115.625C97.9167 115.625 99.7083 115.458 101.625 115.125C103.625 114.708 105.417 114.083 107 113.25C108.667 112.333 110.042 111.167 111.125 109.75C112.208 108.333 112.75 106.625 112.75 104.625Z" fill="black"/>
<path fill-rule="evenodd" clip-rule="evenodd" d="M95.7395 159.125L72.0583 181.303C65.3713 187.498 63.2878 200.282 71.8085 206.15C74.756 208.35 78.5045 209.575 82.271 209.568V209.521C86.627 209.858 90.7153 207.552 93.8675 205.133C92.4973 214.74 91.3925 224.956 87.338 228.873H104.663C100.696 225.039 98.8895 214.502 97.5575 205.075C105.687 211.701 116.84 210.63 122.398 203.603C128.385 196.936 125.977 187.493 119.126 181.02L95.7395 159.125Z" fill="black"/>
<path d="M496.75 776.125C496.75 770.958 498 766.5 500.5 762.75C503 759 506.208 755.917 510.125 753.5C513.958 751.083 518.25 749.292 523 748.125C527.667 746.958 532.25 746.375 536.75 746.375C540.083 746.375 543.625 746.875 547.375 747.875C551.125 748.792 554.583 750.25 557.75 752.25C560.917 754.167 563.542 756.625 565.625 759.625C567.708 762.625 568.75 766.125 568.75 770.125C568.75 773.375 568.208 776.417 567.125 779.25C566.042 782.167 564.583 784.833 562.75 787.25C560.833 789.75 558.667 791.958 556.25 793.875C553.75 795.792 551.125 797.458 548.375 798.875C550.458 799.542 552.5 800.5 554.5 801.75C556.417 803 558.125 804.458 559.625 806.125C561.125 807.792 562.333 809.667 563.25 811.75C564.167 813.833 564.625 816.042 564.625 818.375C564.625 822.958 563.417 826.917 561 830.25C558.5 833.667 555.375 836.458 551.625 838.625C547.875 840.792 543.833 842.375 539.5 843.375C535.083 844.458 530.958 845 527.125 845C524.208 845 521.25 844.667 518.25 844C515.25 843.333 512.542 842.25 510.125 840.75C507.625 839.25 505.583 837.292 504 834.875C502.417 832.458 501.625 829.542 501.625 826.125C501.625 820.792 503.167 816.083 506.25 812C509.25 808 513 804.75 517.5 802.25C514.583 801.5 511.875 800.292 509.375 798.625C506.792 796.958 504.583 794.958 502.75 792.625C500.833 790.375 499.375 787.833 498.375 785C497.292 782.167 496.75 779.208 496.75 776.125ZM520.625 823.25C520.625 824.25 520.958 825.042 521.625 825.625C522.208 826.208 522.958 826.667 523.875 827C524.708 827.417 525.625 827.667 526.625 827.75C527.542 827.917 528.333 828 529 828C530 828 531.292 827.875 532.875 827.625C534.458 827.375 536 826.958 537.5 826.375C539 825.792 540.292 825 541.375 824C542.458 823.083 543 821.958 543 820.625C543 819.208 542.625 817.958 541.875 816.875C541.125 815.875 540.208 815 539.125 814.25C537.958 813.5 536.75 812.917 535.5 812.5C534.167 812.167 532.917 811.958 531.75 811.875C530.917 812.375 529.875 813 528.625 813.75C527.375 814.583 526.167 815.5 525 816.5C523.75 817.583 522.708 818.667 521.875 819.75C521.042 820.917 520.625 822.083 520.625 823.25ZM517.25 775.375C517.25 777.375 517.708 779.167 518.625 780.75C519.542 782.417 520.75 783.833 522.25 785C523.667 786.167 525.292 787.125 527.125 787.875C528.875 788.708 530.625 789.292 532.375 789.625C534.042 788.875 535.792 787.917 537.625 786.75C539.458 785.667 541.167 784.375 542.75 782.875C544.25 781.375 545.5 779.708 546.5 777.875C547.5 776.125 548 774.208 548 772.125C548 770.625 547.458 769.375 546.375 768.375C545.292 767.375 544 766.583 542.5 766C541 765.417 539.458 765 537.875 764.75C536.208 764.5 534.833 764.375 533.75 764.375C532.083 764.375 530.292 764.542 528.375 764.875C526.375 765.292 524.583 765.917 523 766.75C521.333 767.667 519.958 768.833 518.875 770.25C517.792 771.667 517.25 773.375 517.25 775.375Z" fill="black"/>
<path fill-rule="evenodd" clip-rule="evenodd" d="M534.26 720.875L557.942 698.697C564.629 692.502 566.712 679.718 558.191 673.85C555.244 671.65 551.495 670.425 547.729 670.432V670.479C543.373 670.142 539.285 672.448 536.132 674.867C537.503 665.26 538.607 655.044 542.662 651.127H525.337C529.304 654.961 531.11 665.498 532.442 674.925C524.313 668.299 513.16 669.37 507.602 676.397C501.615 683.064 504.023 692.507 510.874 698.98L534.26 720.875Z" fill="black"/>
</svg>
