<svg width="630" height="880" viewBox="0 0 630 880" fill="none" xmlns="http://www.w3.org/2000/svg">
<rect x="2.5" y="2.5" width="625" height="875" rx="17.5" fill="white" stroke="black" stroke-width="5"/>
<path fill-rule="evenodd" clip-rule="evenodd" d="M156 160C174.368 147.6 198.86 122.8 211.104 98C223.348 122.8 247.84 147.6 266.208 160C247.84 172.4 223.348 197.2 211.104 222C198.86 197.2 174.368 172.4 156 160Z" fill="#E20000"/>
<path fill-rule="evenodd" clip-rule="evenodd" d="M362 160C380.368 147.6 404.86 122.8 417.104 98C429.348 122.8 453.84 147.6 472.208 160C453.84 172.4 429.348 197.2 417.104 222C404.86 197.2 380.368 172.4 362 160Z" fill="#E20000"/>
<path fill-rule="evenodd" clip-rule="evenodd" d="M268 720C249.632 732.4 225.14 757.2 212.896 782C200.652 757.2 176.16 732.4 157.792 720C176.16 707.6 200.652 682.8 212.896 658C225.14 682.8 249.632 707.6 268 720Z" fill="#E20000"/>
<path fill-rule="evenodd" clip-rule="evenodd" d="M474 720C455.632 732.4 431.14 757.2 418.896 782C406.652 757.2 382.16 732.4 363.792 720C382.16 707.6 406.652 682.8 418.896 658C431.14 682.8 455.632 707.6 474 720Z" fill="#E20000"/>
<path d="M124.625 69.25C124.625 72.5833 124.042 76.4167 122.875 80.75C121.792 85.0833 120.25 89.5 118.25 94C116.333 98.5 114.042 102.917 111.375 107.25C108.792 111.583 105.917 115.458 102.75 118.875C99.6667 122.292 96.4167 125.042 93 127.125C89.6667 129.208 86.2917 130.25 82.875 130.25C81.0417 130.25 79.375 129.667 77.875 128.5C76.4583 127.417 75.75 125.875 75.75 123.875C75.75 122.958 75.875 122.208 76.125 121.625C76.4583 120.958 76.875 120.292 77.375 119.625C79.2083 117.292 81.0833 115.167 83 113.25C84.9167 111.25 86.7917 109.292 88.625 107.375C90.5417 105.375 92.375 103.292 94.125 101.125C95.875 98.9583 97.4583 96.4583 98.875 93.625C96.125 94.375 93.2917 94.75 90.375 94.75C86.2083 94.75 82.4167 94.125 79 92.875C75.6667 91.5417 72.8333 89.6667 70.5 87.25C68.1667 84.8333 66.375 81.9583 65.125 78.625C63.875 75.2083 63.25 71.4167 63.25 67.25C63.25 62.5833 63.9583 58.2917 65.375 54.375C66.875 50.4583 68.9583 47.0833 71.625 44.25C74.375 41.3333 77.625 39.0833 81.375 37.5C85.2083 35.8333 89.5 35 94.25 35C99.25 35 103.625 35.9167 107.375 37.75C111.208 39.5 114.375 41.9583 116.875 45.125C119.458 48.2083 121.375 51.8333 122.625 56C123.958 60.1667 124.625 64.5833 124.625 69.25ZM108 67C108 65 107.708 63.0417 107.125 61.125C106.625 59.2083 105.833 57.5 104.75 56C103.667 54.5 102.292 53.2917 100.625 52.375C99.0417 51.4583 97.125 51 94.875 51C90.375 51 86.7917 52.4167 84.125 55.25C81.5417 58 80.25 61.625 80.25 66.125C80.25 70.4583 81.4167 73.7917 83.75 76.125C86.1667 78.375 89.5 79.5 93.75 79.5C98.1667 79.5 101.625 78.5417 104.125 76.625C106.708 74.7083 108 71.5 108 67Z" fill="#E20000"/>
<path fill-rule="evenodd" clip-rule="evenodd" d="M64.5 195.125C74.832 188.15 88.6087 174.2 95.496 160.25C102.383 174.2 116.16 188.15 126.492 195.125C116.16 202.1 102.383 216.05 95.496 230C88.6087 216.05 74.832 202.1 64.5 195.125Z" fill="#E20000"/>
<path d="M505.375 810.75C505.375 807.417 505.958 803.583 507.125 799.25C508.208 794.917 509.75 790.5 511.75 786C513.667 781.5 515.958 777.083 518.625 772.75C521.208 768.417 524.083 764.542 527.25 761.125C530.333 757.708 533.583 754.958 537 752.875C540.333 750.792 543.708 749.75 547.125 749.75C548.958 749.75 550.625 750.333 552.125 751.5C553.542 752.583 554.25 754.125 554.25 756.125C554.25 757.042 554.125 757.792 553.875 758.375C553.542 759.042 553.125 759.708 552.625 760.375C550.792 762.708 548.917 764.833 547 766.75C545.083 768.75 543.208 770.708 541.375 772.625C539.458 774.625 537.625 776.708 535.875 778.875C534.125 781.042 532.542 783.542 531.125 786.375C533.875 785.625 536.708 785.25 539.625 785.25C543.792 785.25 547.583 785.875 551 787.125C554.333 788.458 557.167 790.333 559.5 792.75C561.833 795.167 563.625 798.042 564.875 801.375C566.125 804.792 566.75 808.583 566.75 812.75C566.75 817.417 566.042 821.708 564.625 825.625C563.125 829.542 561.042 832.917 558.375 835.75C555.625 838.667 552.375 840.917 548.625 842.5C544.792 844.167 540.5 845 535.75 845C530.75 845 526.375 844.083 522.625 842.25C518.792 840.5 515.625 838.042 513.125 834.875C510.542 831.792 508.625 828.167 507.375 824C506.042 819.833 505.375 815.417 505.375 810.75ZM522 813C522 815 522.292 816.958 522.875 818.875C523.375 820.792 524.167 822.5 525.25 824C526.333 825.5 527.708 826.708 529.375 827.625C530.958 828.542 532.875 829 535.125 829C539.625 829 543.208 827.583 545.875 824.75C548.458 822 549.75 818.375 549.75 813.875C549.75 809.542 548.583 806.208 546.25 803.875C543.833 801.625 540.5 800.5 536.25 800.5C531.833 800.5 528.375 801.458 525.875 803.375C523.292 805.292 522 808.5 522 813Z" fill="#E20000"/>
<path fill-rule="evenodd" clip-rule="evenodd" d="M565.5 684.875C555.168 691.85 541.391 705.8 534.504 719.75C527.617 705.8 513.84 691.85 503.508 684.875C513.84 677.9 527.617 663.95 534.504 650C541.391 663.95 555.168 677.9 565.5 684.875Z" fill="#E20000"/>
<path fill-rule="evenodd" clip-rule="evenodd" d="M474 526C455.632 538.4 431.14 563.2 418.896 588C406.652 563.2 382.16 538.4 363.792 526C382.16 513.6 406.652 488.8 418.896 464C431.14 488.8 455.632 513.6 474 526Z" fill="#E20000"/>
<path fill-rule="evenodd" clip-rule="evenodd" d="M268 526C249.632 538.4 225.14 563.2 212.896 588C200.652 563.2 176.16 538.4 157.792 526C176.16 513.6 200.652 488.8 212.896 464C225.14 488.8 249.632 513.6 268 526Z" fill="#E20000"/>
<path fill-rule="evenodd" clip-rule="evenodd" d="M259 442C277.368 429.6 301.86 404.8 314.104 380C326.348 404.8 350.84 429.6 369.208 442C350.84 454.4 326.348 479.2 314.104 504C301.86 479.2 277.368 454.4 259 442Z" fill="#E20000"/>
<path fill-rule="evenodd" clip-rule="evenodd" d="M362 354C380.368 341.6 404.86 316.8 417.104 292C429.348 316.8 453.84 341.6 472.208 354C453.84 366.4 429.348 391.2 417.104 416C404.86 391.2 380.368 366.4 362 354Z" fill="#E20000"/>
<path fill-rule="evenodd" clip-rule="evenodd" d="M156 354C174.368 341.6 198.86 316.8 211.104 292C223.348 316.8 247.84 341.6 266.208 354C247.84 366.4 223.348 391.2 211.104 416C198.86 391.2 174.368 366.4 156 354Z" fill="#E20000"/>
</svg>
