<svg width="630" height="880" viewBox="0 0 630 880" fill="none" xmlns="http://www.w3.org/2000/svg">
<rect x="2.5" y="2.5" width="625" height="875" rx="17.5" fill="white" stroke="black" stroke-width="5"/>
<path fill-rule="evenodd" clip-rule="evenodd" d="M211.535 96L169.435 135.428C157.547 146.44 153.843 169.168 168.991 179.6C174.231 183.512 180.895 185.688 187.591 185.676V185.592C195.335 186.192 202.603 182.092 208.207 177.792C205.771 194.872 203.807 213.032 196.599 219.996H227.399C220.347 213.18 217.135 194.448 214.767 177.688C229.219 189.468 249.047 187.564 258.927 175.072C269.571 163.22 265.291 146.432 253.111 134.924L211.535 96Z" fill="black"/>
<path fill-rule="evenodd" clip-rule="evenodd" d="M417.535 96L375.435 135.428C363.547 146.44 359.843 169.168 374.991 179.6C380.231 183.512 386.895 185.688 393.591 185.676V185.592C401.335 186.192 408.603 182.092 414.207 177.792C411.771 194.872 409.807 213.032 402.599 219.996H433.399C426.347 213.18 423.135 194.448 420.767 177.688C435.219 189.468 455.047 187.564 464.927 175.072C475.571 163.22 471.291 146.432 459.111 134.924L417.535 96Z" fill="black"/>
<path fill-rule="evenodd" clip-rule="evenodd" d="M212.465 784L254.565 744.572C266.453 733.56 270.157 710.832 255.009 700.4C249.769 696.488 243.105 694.312 236.409 694.324V694.408C228.665 693.808 221.397 697.908 215.793 702.208C218.229 685.128 220.193 666.968 227.401 660.004H196.601C203.653 666.82 206.865 685.552 209.233 702.312C194.781 690.532 174.953 692.436 165.073 704.928C154.429 716.78 158.709 733.568 170.889 745.076L212.465 784Z" fill="black"/>
<path fill-rule="evenodd" clip-rule="evenodd" d="M418.465 784L460.565 744.572C472.453 733.56 476.157 710.832 461.009 700.4C455.769 696.488 449.105 694.312 442.409 694.324V694.408C434.665 693.808 427.397 697.908 421.793 702.208C424.229 685.128 426.193 666.968 433.401 660.004H402.601C409.653 666.82 412.865 685.552 415.233 702.312C400.781 690.532 380.953 692.436 371.073 704.928C360.429 716.78 364.709 733.568 376.889 745.076L418.465 784Z" fill="black"/>
<path d="M124.625 69.25C124.625 72.5833 124.042 76.4167 122.875 80.75C121.792 85.0833 120.25 89.5 118.25 94C116.333 98.5 114.042 102.917 111.375 107.25C108.792 111.583 105.917 115.458 102.75 118.875C99.6667 122.292 96.4167 125.042 93 127.125C89.6667 129.208 86.2917 130.25 82.875 130.25C81.0417 130.25 79.375 129.667 77.875 128.5C76.4583 127.417 75.75 125.875 75.75 123.875C75.75 122.958 75.875 122.208 76.125 121.625C76.4583 120.958 76.875 120.292 77.375 119.625C79.2083 117.292 81.0833 115.167 83 113.25C84.9167 111.25 86.7917 109.292 88.625 107.375C90.5417 105.375 92.375 103.292 94.125 101.125C95.875 98.9583 97.4583 96.4583 98.875 93.625C96.125 94.375 93.2917 94.75 90.375 94.75C86.2083 94.75 82.4167 94.125 79 92.875C75.6667 91.5417 72.8333 89.6667 70.5 87.25C68.1667 84.8333 66.375 81.9583 65.125 78.625C63.875 75.2083 63.25 71.4167 63.25 67.25C63.25 62.5833 63.9583 58.2917 65.375 54.375C66.875 50.4583 68.9583 47.0833 71.625 44.25C74.375 41.3333 77.625 39.0833 81.375 37.5C85.2083 35.8333 89.5 35 94.25 35C99.25 35 103.625 35.9167 107.375 37.75C111.208 39.5 114.375 41.9583 116.875 45.125C119.458 48.2083 121.375 51.8333 122.625 56C123.958 60.1667 124.625 64.5833 124.625 69.25ZM108 67C108 65 107.708 63.0417 107.125 61.125C106.625 59.2083 105.833 57.5 104.75 56C103.667 54.5 102.292 53.2917 100.625 52.375C99.0417 51.4583 97.125 51 94.875 51C90.375 51 86.7917 52.4167 84.125 55.25C81.5417 58 80.25 61.625 80.25 66.125C80.25 70.4583 81.4167 73.7917 83.75 76.125C86.1667 78.375 89.5 79.5 93.75 79.5C98.1667 79.5 101.625 78.5417 104.125 76.625C106.708 74.7083 108 71.5 108 67Z" fill="black"/>
<path fill-rule="evenodd" clip-rule="evenodd" d="M95.7395 159.125L72.0583 181.303C65.3713 187.498 63.2878 200.282 71.8085 206.15C74.756 208.35 78.5045 209.575 82.271 209.568V209.521C86.627 209.858 90.7153 207.552 93.8675 205.133C92.4973 214.74 91.3925 224.956 87.338 228.873H104.663C100.696 225.039 98.8895 214.502 97.5575 205.075C105.687 211.701 116.84 210.63 122.398 203.603C128.385 196.936 125.977 187.493 119.126 181.02L95.7395 159.125Z" fill="black"/>
<path d="M505.375 810.75C505.375 807.417 505.958 803.583 507.125 799.25C508.208 794.917 509.75 790.5 511.75 786C513.667 781.5 515.958 777.083 518.625 772.75C521.208 768.417 524.083 764.542 527.25 761.125C530.333 757.708 533.583 754.958 537 752.875C540.333 750.792 543.708 749.75 547.125 749.75C548.958 749.75 550.625 750.333 552.125 751.5C553.542 752.583 554.25 754.125 554.25 756.125C554.25 757.042 554.125 757.792 553.875 758.375C553.542 759.042 553.125 759.708 552.625 760.375C550.792 762.708 548.917 764.833 547 766.75C545.083 768.75 543.208 770.708 541.375 772.625C539.458 774.625 537.625 776.708 535.875 778.875C534.125 781.042 532.542 783.542 531.125 786.375C533.875 785.625 536.708 785.25 539.625 785.25C543.792 785.25 547.583 785.875 551 787.125C554.333 788.458 557.167 790.333 559.5 792.75C561.833 795.167 563.625 798.042 564.875 801.375C566.125 804.792 566.75 808.583 566.75 812.75C566.75 817.417 566.042 821.708 564.625 825.625C563.125 829.542 561.042 832.917 558.375 835.75C555.625 838.667 552.375 840.917 548.625 842.5C544.792 844.167 540.5 845 535.75 845C530.75 845 526.375 844.083 522.625 842.25C518.792 840.5 515.625 838.042 513.125 834.875C510.542 831.792 508.625 828.167 507.375 824C506.042 819.833 505.375 815.417 505.375 810.75ZM522 813C522 815 522.292 816.958 522.875 818.875C523.375 820.792 524.167 822.5 525.25 824C526.333 825.5 527.708 826.708 529.375 827.625C530.958 828.542 532.875 829 535.125 829C539.625 829 543.208 827.583 545.875 824.75C548.458 822 549.75 818.375 549.75 813.875C549.75 809.542 548.583 806.208 546.25 803.875C543.833 801.625 540.5 800.5 536.25 800.5C531.833 800.5 528.375 801.458 525.875 803.375C523.292 805.292 522 808.5 522 813Z" fill="black"/>
<path fill-rule="evenodd" clip-rule="evenodd" d="M534.26 720.875L557.942 698.697C564.629 692.502 566.712 679.718 558.191 673.85C555.244 671.65 551.495 670.425 547.729 670.432V670.479C543.373 670.142 539.285 672.448 536.132 674.867C537.503 665.26 538.607 655.044 542.662 651.127H525.337C529.304 654.961 531.11 665.498 532.442 674.925C524.313 668.299 513.16 669.37 507.602 676.397C501.615 683.064 504.023 692.507 510.874 698.98L534.26 720.875Z" fill="black"/>
<path fill-rule="evenodd" clip-rule="evenodd" d="M418.465 590L460.565 550.572C472.453 539.56 476.157 516.832 461.009 506.4C455.769 502.488 449.105 500.312 442.409 500.324V500.408C434.665 499.808 427.397 503.908 421.793 508.208C424.229 491.128 426.193 472.968 433.401 466.004H402.601C409.653 472.82 412.865 491.552 415.233 508.312C400.781 496.532 380.953 498.436 371.073 510.928C360.429 522.78 364.709 539.568 376.889 551.076L418.465 590Z" fill="black"/>
<path fill-rule="evenodd" clip-rule="evenodd" d="M212.465 590L254.565 550.572C266.453 539.56 270.157 516.832 255.009 506.4C249.769 502.488 243.105 500.312 236.409 500.324V500.408C228.665 499.808 221.397 503.908 215.793 508.208C218.229 491.128 220.193 472.968 227.401 466.004H196.601C203.653 472.82 206.865 491.552 209.233 508.312C194.781 496.532 174.953 498.436 165.073 510.928C154.429 522.78 158.709 539.568 170.889 551.076L212.465 590Z" fill="black"/>
<path fill-rule="evenodd" clip-rule="evenodd" d="M314.535 378L272.435 417.428C260.547 428.44 256.843 451.168 271.991 461.6C277.231 465.512 283.895 467.688 290.591 467.676V467.592C298.335 468.192 305.603 464.092 311.207 459.792C308.771 476.872 306.807 495.032 299.599 501.996H330.399C323.347 495.18 320.135 476.448 317.767 459.688C332.219 471.468 352.047 469.564 361.927 457.072C372.571 445.22 368.291 428.432 356.111 416.924L314.535 378Z" fill="black"/>
<path fill-rule="evenodd" clip-rule="evenodd" d="M417.535 290L375.435 329.428C363.547 340.44 359.843 363.168 374.991 373.6C380.231 377.512 386.895 379.688 393.591 379.676V379.592C401.335 380.192 408.603 376.092 414.207 371.792C411.771 388.872 409.807 407.032 402.599 413.996H433.399C426.347 407.18 423.135 388.448 420.767 371.688C435.219 383.468 455.047 381.564 464.927 369.072C475.571 357.22 471.291 340.432 459.111 328.924L417.535 290Z" fill="black"/>
<path fill-rule="evenodd" clip-rule="evenodd" d="M211.535 290L169.435 329.428C157.547 340.44 153.843 363.168 168.991 373.6C174.231 377.512 180.895 379.688 187.591 379.676V379.592C195.335 380.192 202.603 376.092 208.207 371.792C205.771 388.872 203.807 407.032 196.599 413.996H227.399C220.347 407.18 217.135 388.448 214.767 371.688C229.219 383.468 249.047 381.564 258.927 369.072C269.571 357.22 265.291 340.432 253.111 328.924L211.535 290Z" fill="black"/>
</svg>
