<svg width="630" height="880" viewBox="0 0 630 880" fill="none" xmlns="http://www.w3.org/2000/svg">
<rect x="2.5" y="2.5" width="625" height="875" rx="17.5" fill="white" stroke="black" stroke-width="5"/>
<path d="M312.32 316C283.968 316 260.984 338.208 260.984 365.6C261.018 374.567 263.547 383.349 268.288 390.96C265.869 390.611 263.428 390.429 260.984 390.416C232.64 390.416 209.664 412.616 209.664 440.001C209.664 467.393 232.632 489.6 260.984 489.608C267.837 489.624 274.628 488.303 280.976 485.72C290.062 482.001 297.897 475.764 303.56 467.744C304.072 467.008 304.52 466.224 304.992 465.464C300.008 504.688 296.168 549.857 281.528 564.001H343.12C328.48 549.857 324.64 504.688 319.656 465.464C320.136 466.224 320.576 467.008 321.088 467.744C326.751 475.764 334.586 482.001 343.672 485.72C350.02 488.303 356.811 489.624 363.664 489.608C392.016 489.608 415 467.4 415 440.008C415 412.608 392.008 390.408 363.664 390.408C361.224 390.408 358.784 390.616 356.376 390.968C361.107 383.353 363.628 374.573 363.656 365.608C363.664 338.208 340.68 316 312.32 316.008V316Z" fill="black"/>
<path d="M126.875 108.5C126.875 110.167 126.708 112.167 126.375 114.5C126.125 116.833 125.583 119.083 124.75 121.25C123.917 123.333 122.792 125.125 121.375 126.625C119.958 128.042 118.083 128.75 115.75 128.75C112.667 128.75 110.333 127.625 108.75 125.375C107.25 123.125 106.167 120.458 105.5 117.375C104.833 114.208 104.417 111 104.25 107.75C104.167 104.5 104.083 101.917 104 100C98 101 92.0833 101.875 86.25 102.625C86.0833 104.542 85.7083 106.917 85.125 109.75C84.625 112.583 83.7917 115.333 82.625 118C81.5417 120.583 80.0833 122.833 78.25 124.75C76.5 126.667 74.3333 127.625 71.75 127.625C69.75 127.625 68.1667 126.917 67 125.5C65.9167 124 65.0833 122.25 64.5 120.25C63.9167 118.25 63.5417 116.208 63.375 114.125C63.2917 111.958 63.25 110.167 63.25 108.75C63.25 104 63.625 99.3333 64.375 94.75C65.125 90.0833 66 85.4583 67 80.875C67.5 78.4583 68.1667 75.625 69 72.375C69.8333 69.125 70.8333 65.7917 72 62.375C73.25 58.875 74.6667 55.4583 76.25 52.125C77.9167 48.7083 79.7917 45.6667 81.875 43C83.9583 40.3333 86.3333 38.1667 89 36.5C91.6667 34.8333 94.625 34 97.875 34C101.042 34 103.792 34.7083 106.125 36.125C108.458 37.5417 110.5 39.4167 112.25 41.75C114 44.0833 115.458 46.75 116.625 49.75C117.792 52.6667 118.75 55.6667 119.5 58.75C120.333 61.75 121 64.7083 121.5 67.625C122.083 70.5417 122.583 73.125 123 75.375C124.083 80.7917 125 86.2917 125.75 91.875C126.5 97.375 126.875 102.917 126.875 108.5ZM102.75 78.125C102.75 77.125 102.667 75.5 102.5 73.25C102.417 70.9167 102.167 68.625 101.75 66.375C101.333 64.0417 100.667 62 99.75 60.25C98.9167 58.4167 97.75 57.5 96.25 57.5C95.4167 57.5 94.625 58.0833 93.875 59.25C93.125 60.3333 92.4583 61.75 91.875 63.5C91.2917 65.1667 90.75 67.0417 90.25 69.125C89.8333 71.2083 89.4583 73.2083 89.125 75.125C88.7917 77.0417 88.5417 78.7917 88.375 80.375C88.2083 81.875 88.0833 82.9583 88 83.625C93 83.2083 97.9167 82.5833 102.75 81.75V78.125Z" fill="black"/>
<path d="M95.247 159.125C87.273 159.125 80.8087 165.371 80.8087 173.075C80.8184 175.597 81.5297 178.067 82.863 180.208C82.1826 180.109 81.4962 180.058 80.8087 180.054C72.837 180.054 66.375 186.298 66.375 194C66.375 201.704 72.8348 207.95 80.8087 207.952C82.7363 207.957 84.6461 207.585 86.4315 206.859C88.987 205.813 91.1906 204.059 92.7832 201.803C92.9272 201.596 93.0532 201.376 93.186 201.162C91.7842 212.194 90.7042 224.897 86.5867 228.875H103.909C99.792 224.897 98.712 212.194 97.3103 201.162C97.4453 201.376 97.569 201.596 97.713 201.803C99.3056 204.059 101.509 205.813 104.065 206.859C105.85 207.585 107.76 207.957 109.688 207.952C117.661 207.952 124.126 201.706 124.126 194.002C124.126 186.296 117.659 180.052 109.688 180.052C109.001 180.052 108.315 180.111 107.638 180.21C108.968 178.068 109.677 175.599 109.685 173.077C109.688 165.371 103.223 159.125 95.247 159.127V159.125Z" fill="black"/>
<path d="M503.125 771.5C503.125 769.833 503.292 767.833 503.625 765.5C503.875 763.167 504.417 760.917 505.25 758.75C506.083 756.667 507.208 754.875 508.625 753.375C510.042 751.958 511.917 751.25 514.25 751.25C517.333 751.25 519.667 752.375 521.25 754.625C522.75 756.875 523.833 759.542 524.5 762.625C525.167 765.792 525.583 769 525.75 772.25C525.833 775.5 525.917 778.083 526 780C532 779 537.917 778.125 543.75 777.375C543.917 775.458 544.292 773.083 544.875 770.25C545.375 767.417 546.208 764.667 547.375 762C548.458 759.417 549.917 757.167 551.75 755.25C553.5 753.333 555.667 752.375 558.25 752.375C560.25 752.375 561.833 753.083 563 754.5C564.083 756 564.917 757.75 565.5 759.75C566.083 761.75 566.458 763.792 566.625 765.875C566.708 768.042 566.75 769.833 566.75 771.25C566.75 776 566.375 780.667 565.625 785.25C564.875 789.917 564 794.542 563 799.125C562.5 801.542 561.833 804.375 561 807.625C560.167 810.875 559.167 814.208 558 817.625C556.75 821.125 555.333 824.542 553.75 827.875C552.083 831.292 550.208 834.333 548.125 837C546.042 839.667 543.667 841.833 541 843.5C538.333 845.167 535.375 846 532.125 846C528.958 846 526.208 845.292 523.875 843.875C521.542 842.458 519.5 840.583 517.75 838.25C516 835.917 514.542 833.25 513.375 830.25C512.208 827.333 511.25 824.333 510.5 821.25C509.667 818.25 509 815.292 508.5 812.375C507.917 809.458 507.417 806.875 507 804.625C505.917 799.208 505 793.708 504.25 788.125C503.5 782.625 503.125 777.083 503.125 771.5ZM527.25 801.875C527.25 802.875 527.333 804.5 527.5 806.75C527.583 809.083 527.833 811.375 528.25 813.625C528.667 815.958 529.333 818 530.25 819.75C531.083 821.583 532.25 822.5 533.75 822.5C534.583 822.5 535.375 821.917 536.125 820.75C536.875 819.667 537.542 818.25 538.125 816.5C538.708 814.833 539.25 812.958 539.75 810.875C540.167 808.792 540.542 806.792 540.875 804.875C541.208 802.958 541.458 801.208 541.625 799.625C541.792 798.125 541.917 797.042 542 796.375C537 796.792 532.083 797.417 527.25 798.25V801.875Z" fill="black"/>
<path d="M534.753 720.875C542.727 720.875 549.191 714.629 549.191 706.925C549.182 704.403 548.47 701.933 547.137 699.792C547.817 699.891 548.504 699.942 549.191 699.946C557.163 699.946 563.625 693.702 563.625 686C563.625 678.296 557.165 672.05 549.191 672.048C547.264 672.043 545.354 672.415 543.569 673.141C541.013 674.187 538.809 675.941 537.217 678.197C537.073 678.404 536.947 678.624 536.814 678.838C538.216 667.806 539.296 655.103 543.413 651.125H526.091C530.208 655.103 531.288 667.806 532.69 678.838C532.555 678.624 532.431 678.404 532.287 678.197C530.694 675.941 528.491 674.187 525.935 673.141C524.15 672.415 522.24 672.043 520.312 672.048C512.339 672.048 505.874 678.294 505.874 685.998C505.874 693.704 512.341 699.948 520.312 699.948C520.999 699.948 521.685 699.889 522.362 699.79C521.032 701.932 520.323 704.401 520.315 706.923C520.312 714.629 526.777 720.875 534.753 720.873V720.875Z" fill="black"/>
</svg>
