<svg width="630" height="880" viewBox="0 0 630 880" fill="none" xmlns="http://www.w3.org/2000/svg">
<rect x="2.5" y="2.5" width="625" height="875" rx="17.5" fill="white" stroke="black" stroke-width="5"/>
<path fill-rule="evenodd" clip-rule="evenodd" d="M203 444C239.736 419.2 288.72 369.6 313.208 320C337.696 369.6 386.68 419.2 423.416 444C386.68 468.8 337.696 518.4 313.208 568C288.72 518.4 239.736 468.8 203 444Z" fill="#E20000"/>
<path d="M126.875 108.5C126.875 110.167 126.708 112.167 126.375 114.5C126.125 116.833 125.583 119.083 124.75 121.25C123.917 123.333 122.792 125.125 121.375 126.625C119.958 128.042 118.083 128.75 115.75 128.75C112.667 128.75 110.333 127.625 108.75 125.375C107.25 123.125 106.167 120.458 105.5 117.375C104.833 114.208 104.417 111 104.25 107.75C104.167 104.5 104.083 101.917 104 100C98 101 92.0833 101.875 86.25 102.625C86.0833 104.542 85.7083 106.917 85.125 109.75C84.625 112.583 83.7917 115.333 82.625 118C81.5417 120.583 80.0833 122.833 78.25 124.75C76.5 126.667 74.3333 127.625 71.75 127.625C69.75 127.625 68.1667 126.917 67 125.5C65.9167 124 65.0833 122.25 64.5 120.25C63.9167 118.25 63.5417 116.208 63.375 114.125C63.2917 111.958 63.25 110.167 63.25 108.75C63.25 104 63.625 99.3333 64.375 94.75C65.125 90.0833 66 85.4583 67 80.875C67.5 78.4583 68.1667 75.625 69 72.375C69.8333 69.125 70.8333 65.7917 72 62.375C73.25 58.875 74.6667 55.4583 76.25 52.125C77.9167 48.7083 79.7917 45.6667 81.875 43C83.9583 40.3333 86.3333 38.1667 89 36.5C91.6667 34.8333 94.625 34 97.875 34C101.042 34 103.792 34.7083 106.125 36.125C108.458 37.5417 110.5 39.4167 112.25 41.75C114 44.0833 115.458 46.75 116.625 49.75C117.792 52.6667 118.75 55.6667 119.5 58.75C120.333 61.75 121 64.7083 121.5 67.625C122.083 70.5417 122.583 73.125 123 75.375C124.083 80.7917 125 86.2917 125.75 91.875C126.5 97.375 126.875 102.917 126.875 108.5ZM102.75 78.125C102.75 77.125 102.667 75.5 102.5 73.25C102.417 70.9167 102.167 68.625 101.75 66.375C101.333 64.0417 100.667 62 99.75 60.25C98.9167 58.4167 97.75 57.5 96.25 57.5C95.4167 57.5 94.625 58.0833 93.875 59.25C93.125 60.3333 92.4583 61.75 91.875 63.5C91.2917 65.1667 90.75 67.0417 90.25 69.125C89.8333 71.2083 89.4583 73.2083 89.125 75.125C88.7917 77.0417 88.5417 78.7917 88.375 80.375C88.2083 81.875 88.0833 82.9583 88 83.625C93 83.2083 97.9167 82.5833 102.75 81.75V78.125Z" fill="#E20000"/>
<path fill-rule="evenodd" clip-rule="evenodd" d="M64.5 195.125C74.832 188.15 88.6087 174.2 95.496 160.25C102.383 174.2 116.16 188.15 126.492 195.125C116.16 202.1 102.383 216.05 95.496 230C88.6087 216.05 74.832 202.1 64.5 195.125Z" fill="#E20000"/>
<path d="M503.125 771.5C503.125 769.833 503.292 767.833 503.625 765.5C503.875 763.167 504.417 760.917 505.25 758.75C506.083 756.667 507.208 754.875 508.625 753.375C510.042 751.958 511.917 751.25 514.25 751.25C517.333 751.25 519.667 752.375 521.25 754.625C522.75 756.875 523.833 759.542 524.5 762.625C525.167 765.792 525.583 769 525.75 772.25C525.833 775.5 525.917 778.083 526 780C532 779 537.917 778.125 543.75 777.375C543.917 775.458 544.292 773.083 544.875 770.25C545.375 767.417 546.208 764.667 547.375 762C548.458 759.417 549.917 757.167 551.75 755.25C553.5 753.333 555.667 752.375 558.25 752.375C560.25 752.375 561.833 753.083 563 754.5C564.083 756 564.917 757.75 565.5 759.75C566.083 761.75 566.458 763.792 566.625 765.875C566.708 768.042 566.75 769.833 566.75 771.25C566.75 776 566.375 780.667 565.625 785.25C564.875 789.917 564 794.542 563 799.125C562.5 801.542 561.833 804.375 561 807.625C560.167 810.875 559.167 814.208 558 817.625C556.75 821.125 555.333 824.542 553.75 827.875C552.083 831.292 550.208 834.333 548.125 837C546.042 839.667 543.667 841.833 541 843.5C538.333 845.167 535.375 846 532.125 846C528.958 846 526.208 845.292 523.875 843.875C521.542 842.458 519.5 840.583 517.75 838.25C516 835.917 514.542 833.25 513.375 830.25C512.208 827.333 511.25 824.333 510.5 821.25C509.667 818.25 509 815.292 508.5 812.375C507.917 809.458 507.417 806.875 507 804.625C505.917 799.208 505 793.708 504.25 788.125C503.5 782.625 503.125 777.083 503.125 771.5ZM527.25 801.875C527.25 802.875 527.333 804.5 527.5 806.75C527.583 809.083 527.833 811.375 528.25 813.625C528.667 815.958 529.333 818 530.25 819.75C531.083 821.583 532.25 822.5 533.75 822.5C534.583 822.5 535.375 821.917 536.125 820.75C536.875 819.667 537.542 818.25 538.125 816.5C538.708 814.833 539.25 812.958 539.75 810.875C540.167 808.792 540.542 806.792 540.875 804.875C541.208 802.958 541.458 801.208 541.625 799.625C541.792 798.125 541.917 797.042 542 796.375C537 796.792 532.083 797.417 527.25 798.25V801.875Z" fill="#E20000"/>
<path fill-rule="evenodd" clip-rule="evenodd" d="M565.5 684.875C555.168 691.85 541.391 705.8 534.504 719.75C527.617 705.8 513.84 691.85 503.508 684.875C513.84 677.9 527.617 663.95 534.504 650C541.391 663.95 555.168 677.9 565.5 684.875Z" fill="#E20000"/>
</svg>
