<svg width="630" height="880" viewBox="0 0 630 880" fill="none" xmlns="http://www.w3.org/2000/svg">
<rect x="2.5" y="2.5" width="625" height="875" rx="17.5" fill="white" stroke="black" stroke-width="5"/>
<path d="M126.5 121.5C126.5 123.833 125.917 125.708 124.75 127.125C123.583 128.625 121.792 129.375 119.375 129.375C117.458 129.375 115.667 128.792 114 127.625C112.417 126.458 110.917 125.042 109.5 123.375C108.167 121.625 106.958 119.792 105.875 117.875C104.875 115.958 104.042 114.292 103.375 112.875C101.625 109.375 99.875 105.875 98.125 102.375C96.4583 98.875 94.7917 95.3333 93.125 91.75L85.625 96.375C85.7083 98.7917 85.5833 101.208 85.25 103.625C84.9167 106.042 84.6667 108.458 84.5 110.875C84.3333 112.542 84.0417 114.375 83.625 116.375C83.2917 118.292 82.7083 120.125 81.875 121.875C81.0417 123.542 79.9167 124.958 78.5 126.125C77.0833 127.292 75.3333 127.875 73.25 127.875C71.3333 127.875 69.75 127.5 68.5 126.75C67.25 125.917 66.2083 124.875 65.375 123.625C64.625 122.375 64.0833 120.958 63.75 119.375C63.4167 117.792 63.25 116.167 63.25 114.5V113.5C63.25 108.583 63.5 103.667 64 98.75C64.5833 93.75 64.9583 88.75 65.125 83.75C65.2917 77.1667 65.5 70.5833 65.75 64C66 57.4167 66.3333 50.8333 66.75 44.25C66.8333 42.75 67.0833 41.2917 67.5 39.875C67.9167 38.4583 68.5417 37.2083 69.375 36.125C70.2083 34.9583 71.2083 34.0417 72.375 33.375C73.625 32.7083 75.0833 32.375 76.75 32.375C79.3333 32.375 81.25 33.2917 82.5 35.125C83.8333 36.9583 84.75 39.1667 85.25 41.75C85.75 44.3333 85.9583 47 85.875 49.75C85.875 52.5 85.875 54.7917 85.875 56.625C85.875 61.875 85.75 67.125 85.5 72.375C87.9167 70.375 90.25 68.0833 92.5 65.5C94.8333 62.9167 96.875 60.2917 98.625 57.625C99.7083 56.0417 100.958 53.875 102.375 51.125C103.792 48.2917 105.333 45.5833 107 43C108.667 40.3333 110.5 38.0417 112.5 36.125C114.5 34.125 116.625 33.125 118.875 33.125C121.292 33.125 123.042 33.8333 124.125 35.25C125.292 36.5833 125.875 38.375 125.875 40.625C125.875 43.9583 125.333 47.375 124.25 50.875C123.25 54.375 121.875 57.8333 120.125 61.25C118.375 64.5833 116.375 67.7917 114.125 70.875C111.958 73.875 109.75 76.5 107.5 78.75C109.833 82.6667 112.042 86.625 114.125 90.625C116.208 94.5417 118.292 98.5 120.375 102.5C121.125 103.833 121.833 105.292 122.5 106.875C123.25 108.458 123.917 110.083 124.5 111.75C125.083 113.417 125.542 115.083 125.875 116.75C126.292 118.417 126.5 120 126.5 121.5Z" fill="#E20000"/>
<path fill-rule="evenodd" clip-rule="evenodd" d="M64.5 195.125C74.832 188.15 88.6087 174.2 95.496 160.25C102.383 174.2 116.16 188.15 126.492 195.125C116.16 202.1 102.383 216.05 95.496 230C88.6087 216.05 74.832 202.1 64.5 195.125Z" fill="#E20000"/>
<path d="M503.5 758.5C503.5 756.167 504.083 754.292 505.25 752.875C506.417 751.375 508.208 750.625 510.625 750.625C512.542 750.625 514.333 751.208 516 752.375C517.583 753.542 519.083 754.958 520.5 756.625C521.833 758.375 523.042 760.208 524.125 762.125C525.125 764.042 525.958 765.708 526.625 767.125C528.375 770.625 530.125 774.125 531.875 777.625C533.542 781.125 535.208 784.667 536.875 788.25L544.375 783.625C544.292 781.208 544.417 778.792 544.75 776.375C545.083 773.958 545.333 771.542 545.5 769.125C545.667 767.458 545.958 765.625 546.375 763.625C546.708 761.708 547.292 759.875 548.125 758.125C548.958 756.458 550.083 755.042 551.5 753.875C552.917 752.708 554.667 752.125 556.75 752.125C558.667 752.125 560.25 752.5 561.5 753.25C562.75 754.083 563.792 755.125 564.625 756.375C565.375 757.625 565.917 759.042 566.25 760.625C566.583 762.208 566.75 763.833 566.75 765.5V766.5C566.75 771.417 566.5 776.333 566 781.25C565.417 786.25 565.042 791.25 564.875 796.25C564.708 802.833 564.5 809.417 564.25 816C564 822.583 563.667 829.167 563.25 835.75C563.167 837.25 562.917 838.708 562.5 840.125C562.083 841.542 561.458 842.792 560.625 843.875C559.792 845.042 558.792 845.958 557.625 846.625C556.375 847.292 554.917 847.625 553.25 847.625C550.667 847.625 548.75 846.708 547.5 844.875C546.167 843.042 545.25 840.833 544.75 838.25C544.25 835.667 544.042 833 544.125 830.25C544.125 827.5 544.125 825.208 544.125 823.375C544.125 818.125 544.25 812.875 544.5 807.625C542.083 809.625 539.75 811.917 537.5 814.5C535.167 817.083 533.125 819.708 531.375 822.375C530.292 823.958 529.042 826.125 527.625 828.875C526.208 831.708 524.667 834.417 523 837C521.333 839.667 519.5 841.958 517.5 843.875C515.5 845.875 513.375 846.875 511.125 846.875C508.708 846.875 506.958 846.167 505.875 844.75C504.708 843.417 504.125 841.625 504.125 839.375C504.125 836.042 504.667 832.625 505.75 829.125C506.75 825.625 508.125 822.167 509.875 818.75C511.625 815.417 513.625 812.208 515.875 809.125C518.042 806.125 520.25 803.5 522.5 801.25C520.167 797.333 517.958 793.375 515.875 789.375C513.792 785.458 511.708 781.5 509.625 777.5C508.875 776.167 508.167 774.708 507.5 773.125C506.75 771.542 506.083 769.917 505.5 768.25C504.917 766.583 504.458 764.917 504.125 763.25C503.708 761.583 503.5 760 503.5 758.5Z" fill="#E20000"/>
<path fill-rule="evenodd" clip-rule="evenodd" d="M565.5 684.875C555.168 691.85 541.391 705.8 534.504 719.75C527.617 705.8 513.84 691.85 503.508 684.875C513.84 677.9 527.617 663.95 534.504 650C541.391 663.95 555.168 677.9 565.5 684.875Z" fill="#E20000"/>
<path d="M323.592 193.847C323.592 198.62 319.689 202.525 314.919 202.525C310.149 202.525 306.247 198.62 306.247 193.847C306.247 189.074 310.149 185.169 314.919 185.169C319.689 185.17 323.592 189.075 323.592 193.847ZM258.548 202.525C258.548 207.298 254.646 211.204 249.876 211.204C245.106 211.204 241.203 207.298 241.203 202.525C241.203 197.752 245.106 193.847 249.876 193.847C254.646 193.847 258.548 197.752 258.548 202.525ZM388.635 202.525C388.635 207.298 384.733 211.204 379.963 211.204C375.193 211.204 371.29 207.298 371.29 202.525C371.29 197.752 375.193 193.847 379.963 193.847C384.733 193.847 388.635 197.752 388.635 202.525Z" fill="#FFE079"/>
<path d="M388.636 306.661V315.339C388.636 320.112 384.733 324.017 379.963 324.017L371.29 341.373C362.618 350.051 340.069 354.39 340.069 354.39C337.901 345.278 331.831 332.695 315.353 332.695C298.875 332.695 292.371 345.278 290.636 354.39C290.636 354.39 268.522 350.051 259.415 341.807C259.415 341.807 259.415 341.807 259.415 341.373L250.309 324.017C245.539 324.017 241.637 320.112 241.637 315.339V306.661C241.637 301.454 245.106 297.983 250.309 297.983V271.949H380.396V297.983C385.166 297.983 388.636 301.454 388.636 306.661Z" fill="#FFD0A1"/>
<path d="M379.964 211.204V271.949H249.877V211.204L288.903 237.238L314.92 202.526L340.938 237.238L379.964 211.204Z" fill="#F5A607"/>
<path d="M337 439H293C302.059 424 315 419 315 419C315 419 327.941 424 337 439Z" fill="#E20000"/>
<path d="M366.956 393.441C388.637 393.441 405.982 397.78 414.655 402.119C379.965 432.492 337.036 436.831 337.036 436.831C327.93 423.814 314.921 419.475 314.921 419.475C314.921 419.475 301.912 423.814 292.806 436.831C292.806 436.831 249.878 432.492 215.188 402.119C223.86 397.78 241.205 393.441 262.886 393.441H267.222C275.895 399.949 282.399 410.797 314.921 410.797C347.443 410.797 356.115 399.949 363.921 393.441H366.956Z" fill="#6373FF"/>
<path d="M441 439H337.158C337.158 439 380.172 434.375 414.931 402C421.448 408.012 425.793 413.562 425.793 413.562C425.793 413.562 437.09 426.05 441 439ZM292.841 439H189C192.91 426.05 204.207 413.563 204.207 413.563C204.207 413.563 208.552 408.013 215.069 402.001C249.827 434.375 292.841 439 292.841 439Z" fill="#E20000"/>
<path d="M290.203 354.39C292.371 345.278 298.442 332.695 314.92 332.695C331.831 332.695 337.902 345.278 339.636 354.39C339.636 354.39 362.184 350.051 370.857 341.373C368.255 367.407 359.583 384.329 346.141 393.441C337.468 399.515 326.628 402.119 314.486 402.119C303.212 402.119 292.805 399.082 284.566 393.007C270.69 383.027 261.151 365.671 258.549 341.373C267.655 350.051 289.77 354.39 290.203 354.39Z" fill="#A55D52"/>
<circle r="4" transform="matrix(1 0 0 -1 392 405)" fill="#FFE079" stroke="#51565F" stroke-width="4"/>
<circle r="4" transform="matrix(1 0 0 -1 372 403)" fill="#FFE079" stroke="#51565F" stroke-width="4"/>
<circle r="4" transform="matrix(1 0 0 -1 238 405)" fill="#FFE079" stroke="#51565F" stroke-width="4"/>
<circle r="4" transform="matrix(1 0 0 -1 258 403)" fill="#FFE079" stroke="#51565F" stroke-width="4"/>
<path d="M189.168 439C188.735 439 188.735 439 188.301 439C187.433 438.566 187 437.265 187 436.397C191.336 423.813 202.177 412.098 202.61 411.664C203.478 410.796 204.779 410.796 205.646 411.664C206.513 412.532 206.947 413.4 206.079 414.702L190.903 438.566C190.469 438.566 190.035 439 189.168 439ZM440.67 439C439.802 439 439.369 438.566 438.935 438.132L423.758 414.268C423.325 413.4 423.325 412.098 424.192 411.231C425.059 410.363 426.36 410.797 427.227 411.231C427.66 411.664 438.935 423.38 442.837 435.963C443.271 436.831 442.837 438.133 441.537 438.566C441.103 439 441.103 439 440.67 439ZM337.034 439C336.166 439 335.733 438.566 335.299 438.132C327.927 427.718 317.954 422.945 314.919 421.644C312.317 422.945 301.91 427.284 294.538 438.132C294.105 439 293.237 439 292.37 439C290.636 439 248.14 434.227 213.45 403.854C213.017 403.421 212.583 402.553 212.583 402.119C212.583 401.251 213.016 400.817 213.884 400.383C222.556 396.045 239.901 391.272 262.449 391.272C263.75 391.272 264.618 392.14 264.618 393.441C264.618 394.743 263.75 395.611 262.449 395.611C242.936 395.611 227.326 399.082 218.653 402.553C248.573 427.285 284.13 433.36 291.502 434.227C300.608 421.644 313.183 417.305 314.05 417.305C314.484 417.305 314.918 417.305 315.351 417.305C315.785 417.305 328.36 421.644 337.899 434.227C344.837 433.359 380.395 427.285 410.748 402.553C402.076 399.082 386.465 395.611 366.952 395.611C365.651 395.611 364.784 394.743 364.784 393.441C364.784 392.14 365.651 391.272 366.952 391.272C389.5 391.272 406.846 396.045 415.518 400.383C415.951 400.817 416.819 401.251 416.819 402.119C416.819 402.986 416.819 403.421 415.951 403.854C381.263 434.227 338.768 439 337.034 439ZM314.919 404.288C282.83 404.288 261.15 381.291 256.813 342.675C256.38 342.241 256.38 341.807 256.38 341.373L248.574 326.186C243.371 325.318 239.035 320.98 239.035 315.339V306.661C239.035 301.02 242.504 297.115 247.707 295.814V289.305C247.707 288.003 248.575 287.136 249.876 287.136C251.177 287.136 252.044 288.003 252.044 289.305V297.983C252.044 299.285 251.177 300.153 249.876 300.153C245.973 300.153 243.371 302.756 243.371 306.661V315.34C243.371 318.811 246.407 321.848 249.876 321.848C250.743 321.848 251.61 322.282 251.61 323.15L260.716 340.505C267.654 347.014 283.264 350.485 288.468 351.787C291.07 342.241 298.007 330.526 314.919 330.526C331.83 330.526 338.768 342.241 341.37 351.787C346.573 350.485 362.184 346.58 369.121 340.072L377.794 322.716C378.227 321.848 379.095 321.414 379.528 321.414C382.997 321.414 386.033 318.377 386.033 314.906V306.228C386.033 302.323 383.431 299.719 379.528 299.719C378.227 299.719 377.36 298.851 377.36 297.55V288.871C377.36 287.57 378.227 286.702 379.528 286.702C380.829 286.702 381.697 287.57 381.697 288.871V295.38C386.9 296.248 390.369 300.153 390.369 306.227V314.905C390.369 320.546 386.033 324.885 380.83 325.753L373.024 341.373V341.807C367.821 393.441 338.768 404.288 314.919 404.288ZM261.583 346.58C266.787 379.99 286.3 399.949 314.919 399.949C345.706 399.949 363.484 381.725 368.254 346.58C360.016 351.787 347.007 355.258 342.237 356.125C343.104 360.03 343.104 363.068 343.104 363.068C343.104 364.369 342.237 365.237 340.936 365.237C339.635 365.237 338.768 364.369 338.768 363.068C338.768 362.634 338.768 359.162 337.9 355.257C337.9 355.257 337.9 355.257 337.9 354.824C335.732 346.58 330.529 334.864 314.918 334.864C299.308 334.864 294.104 346.58 291.936 354.824C291.936 354.824 291.936 354.824 291.936 355.257C291.069 359.596 291.069 363.068 291.069 363.068C291.069 364.369 290.201 365.237 288.9 365.237C287.599 365.237 286.732 364.369 286.732 363.068C286.732 363.068 286.732 360.03 287.599 356.125C282.397 354.824 270.256 351.787 261.583 346.58ZM319.255 352.22H310.583C309.282 352.22 308.414 351.352 308.414 350.051C308.414 348.749 309.282 347.881 310.583 347.881H319.255C320.556 347.881 321.424 348.749 321.424 350.051C321.424 351.352 320.556 352.22 319.255 352.22ZM340.936 304.491C339.635 304.491 338.768 303.623 338.768 302.322V300.152H332.264C330.963 300.152 330.095 299.284 330.095 297.982C330.095 296.681 330.963 295.813 332.264 295.813H349.609C350.91 295.813 351.777 296.681 351.777 297.982C351.777 299.284 350.91 300.152 349.609 300.152H343.104V302.322C343.104 303.624 342.237 304.491 340.936 304.491ZM288.901 304.491C287.6 304.491 286.733 303.623 286.733 302.322V300.152H280.229C278.928 300.152 278.06 299.284 278.06 297.982C278.06 296.681 278.928 295.813 280.229 295.813H297.574C298.875 295.813 299.742 296.681 299.742 297.982C299.742 299.284 298.875 300.152 297.574 300.152H291.07V302.322C291.07 303.624 290.202 304.491 288.901 304.491ZM379.962 274.119H249.875C248.574 274.119 247.707 273.251 247.707 271.949V212.939C242.937 212.071 239.035 207.732 239.035 202.525C239.035 196.451 243.805 191.678 249.875 191.678C255.946 191.678 260.716 196.451 260.716 202.525C260.716 206.43 258.547 210.336 255.079 212.071L288.468 234.2L311.016 203.827C307.114 202.092 304.078 198.187 304.078 193.847C304.078 187.773 308.848 183 314.919 183C320.99 183 325.759 187.773 325.759 193.847C325.759 198.62 322.724 202.525 318.821 203.827L341.37 234.2L374.759 212.071C371.29 210.336 369.122 206.43 369.122 202.525C369.122 196.451 373.892 191.678 379.962 191.678C386.033 191.678 390.803 196.451 390.803 202.525C390.803 207.732 386.9 212.071 382.13 212.939V271.949C382.131 273.251 381.263 274.119 379.962 274.119ZM252.044 269.78H377.794V215.109L342.238 238.973C341.37 239.407 340.069 239.407 339.202 238.539L314.919 205.997L290.636 238.539C289.769 239.407 288.468 239.841 287.601 238.973L252.044 215.109V269.78ZM249.875 196.017C246.406 196.017 243.371 199.054 243.371 202.525C243.371 205.997 246.406 209.034 249.875 209.034C253.344 209.034 256.38 205.997 256.38 202.525C256.38 199.054 253.344 196.017 249.875 196.017ZM379.962 209.034C383.431 209.034 386.467 205.997 386.467 202.525C386.467 199.054 383.431 196.017 379.962 196.017C376.493 196.017 373.458 199.054 373.458 202.525C373.458 205.997 376.494 209.034 379.962 209.034ZM314.919 187.339C311.45 187.339 308.414 190.376 308.414 193.847C308.414 197.319 311.45 200.356 314.919 200.356C318.388 200.356 321.423 197.319 321.423 193.847C321.423 190.376 318.388 187.339 314.919 187.339Z" fill="#51565F"/>
<path d="M204 414C207.862 409.007 210.267 406.377 215 402" stroke="#51565F" stroke-width="4"/>
<path d="M203 414.5C203 414.5 204.786 411.679 207.294 409.182C209.861 406.27 212.904 403.308 215 402" stroke="#51565F" stroke-width="4"/>
<path d="M426.5 414C422.459 408.37 418.363 405.123 413 402" stroke="#51565F" stroke-width="5"/>
<path d="M428 415C428.062 415.013 426.771 413.549 425.364 412C419.895 406.071 413.342 400.476 415.196 403M415.196 403C415.358 402.467 414.503 401.975 413 401.5L415.196 403Z" stroke="#51565F" stroke-width="4"/>
<path d="M306.408 686.153C306.408 681.38 310.311 677.475 315.081 677.475C319.851 677.475 323.753 681.38 323.753 686.153C323.753 690.926 319.851 694.831 315.081 694.831C310.311 694.83 306.408 690.925 306.408 686.153ZM371.452 677.475C371.452 672.702 375.354 668.796 380.124 668.796C384.894 668.796 388.797 672.702 388.797 677.475C388.797 682.248 384.894 686.153 380.124 686.153C375.354 686.153 371.452 682.248 371.452 677.475ZM241.365 677.475C241.365 672.702 245.267 668.796 250.037 668.796C254.807 668.796 258.71 672.702 258.71 677.475C258.71 682.248 254.807 686.153 250.037 686.153C245.267 686.153 241.365 682.248 241.365 677.475Z" fill="#FFE079"/>
<path d="M241.364 573.339V564.661C241.364 559.888 245.267 555.983 250.037 555.983L258.71 538.627C267.382 529.949 289.931 525.61 289.931 525.61C292.099 534.722 298.169 547.305 314.647 547.305C331.125 547.305 337.629 534.722 339.364 525.61C339.364 525.61 361.478 529.949 370.585 538.193C370.585 538.193 370.585 538.193 370.585 538.627L379.691 555.983C384.461 555.983 388.363 559.888 388.363 564.661V573.339C388.363 578.546 384.894 582.017 379.691 582.017V608.051H249.604V582.017C244.834 582.017 241.364 578.546 241.364 573.339Z" fill="#FFD0A1"/>
<path d="M250.036 668.796V608.051H380.123V668.796L341.097 642.763L315.08 677.475L289.062 642.763L250.036 668.796Z" fill="#F5A607"/>
<path d="M293 441H337C327.941 456 315 461 315 461C315 461 302.059 456 293 441Z" fill="#E20000"/>
<path d="M263.044 486.559C241.363 486.559 224.018 482.22 215.345 477.881C250.035 447.508 292.964 443.169 292.964 443.169C302.07 456.186 315.079 460.525 315.079 460.525C315.079 460.525 328.088 456.186 337.194 443.169C337.194 443.169 380.122 447.508 414.812 477.881C406.14 482.22 388.795 486.559 367.114 486.559H362.778C354.105 480.051 347.601 469.203 315.079 469.203C282.557 469.203 273.885 480.051 266.079 486.559H263.044Z" fill="#6373FF"/>
<path d="M189 441H292.842C292.842 441 249.828 445.625 215.069 478C208.552 471.988 204.207 466.438 204.207 466.438C204.207 466.438 192.91 453.95 189 441ZM337.159 441H441C437.09 453.95 425.793 466.437 425.793 466.437C425.793 466.437 421.448 471.987 414.931 477.999C380.173 445.625 337.159 441 337.159 441Z" fill="#E20000"/>
<path d="M339.797 525.61C337.629 534.722 331.558 547.305 315.08 547.305C298.169 547.305 292.098 534.722 290.364 525.61C290.364 525.61 267.816 529.949 259.143 538.627C261.745 512.593 270.417 495.671 283.859 486.559C292.532 480.485 303.372 477.881 315.514 477.881C326.788 477.881 337.195 480.918 345.434 486.993C359.31 496.973 368.849 514.329 371.451 538.627C362.345 529.949 340.23 525.61 339.797 525.61Z" fill="#A55D52"/>
<circle r="4" transform="matrix(-1 0 0 1 238 475)" fill="#FFE079" stroke="#51565F" stroke-width="4"/>
<circle r="4" transform="matrix(-1 0 0 1 258 477)" fill="#FFE079" stroke="#51565F" stroke-width="4"/>
<circle r="4" transform="matrix(-1 0 0 1 392 475)" fill="#FFE079" stroke="#51565F" stroke-width="4"/>
<circle r="4" transform="matrix(-1 0 0 1 372 477)" fill="#FFE079" stroke="#51565F" stroke-width="4"/>
<path d="M440.832 441C441.265 441 441.265 441 441.699 441C442.567 441.434 443 442.735 443 443.603C438.664 456.187 427.823 467.902 427.39 468.336C426.522 469.204 425.221 469.204 424.354 468.336C423.487 467.468 423.053 466.6 423.921 465.298L439.097 441.434C439.531 441.434 439.965 441 440.832 441ZM189.33 441C190.198 441 190.631 441.434 191.065 441.868L206.242 465.732C206.675 466.6 206.675 467.902 205.808 468.769C204.941 469.637 203.64 469.203 202.773 468.769C202.34 468.336 191.065 456.62 187.163 444.037C186.729 443.169 187.163 441.867 188.463 441.434C188.897 441 188.897 441 189.33 441ZM292.966 441C293.834 441 294.267 441.434 294.701 441.868C302.073 452.282 312.046 457.055 315.081 458.356C317.683 457.055 328.09 452.716 335.462 441.868C335.895 441 336.763 441 337.63 441C339.364 441 381.86 445.773 416.55 476.146C416.983 476.579 417.417 477.447 417.417 477.881C417.417 478.749 416.984 479.183 416.116 479.617C407.444 483.955 390.099 488.728 367.551 488.728C366.25 488.728 365.382 487.86 365.382 486.559C365.382 485.257 366.25 484.389 367.551 484.389C387.064 484.389 402.674 480.918 411.347 477.447C381.427 452.715 345.87 446.64 338.498 445.773C329.392 458.356 316.817 462.695 315.95 462.695C315.516 462.695 315.082 462.695 314.649 462.695C314.215 462.695 301.64 458.356 292.101 445.773C285.163 446.641 249.605 452.715 219.252 477.447C227.924 480.918 243.535 484.389 263.048 484.389C264.349 484.389 265.216 485.257 265.216 486.559C265.216 487.86 264.349 488.728 263.048 488.728C240.5 488.728 223.154 483.955 214.482 479.617C214.049 479.183 213.181 478.749 213.181 477.881C213.181 477.014 213.181 476.579 214.049 476.146C248.737 445.773 291.232 441 292.966 441ZM315.081 475.712C347.17 475.712 368.85 498.709 373.187 537.325C373.62 537.759 373.62 538.193 373.62 538.627L381.426 553.814C386.629 554.682 390.965 559.02 390.965 564.661V573.339C390.965 578.98 387.496 582.885 382.293 584.186V590.695C382.293 591.997 381.425 592.864 380.124 592.864C378.823 592.864 377.956 591.997 377.956 590.695V582.017C377.956 580.715 378.823 579.847 380.124 579.847C384.027 579.847 386.629 577.244 386.629 573.339V564.66C386.629 561.189 383.593 558.152 380.124 558.152C379.257 558.152 378.39 557.718 378.39 556.85L369.284 539.495C362.346 532.986 346.736 529.515 341.532 528.213C338.93 537.759 331.993 549.474 315.081 549.474C298.17 549.474 291.232 537.759 288.63 528.213C283.427 529.515 267.816 533.42 260.879 539.928L252.206 557.284C251.773 558.152 250.905 558.586 250.472 558.586C247.003 558.586 243.967 561.623 243.967 565.094V573.772C243.967 577.677 246.569 580.281 250.472 580.281C251.773 580.281 252.64 581.149 252.64 582.45V591.129C252.64 592.43 251.773 593.298 250.472 593.298C249.171 593.298 248.303 592.43 248.303 591.129V584.62C243.1 583.752 239.631 579.847 239.631 573.773V565.095C239.631 559.454 243.967 555.115 249.17 554.247L256.976 538.627V538.193C262.179 486.559 291.232 475.712 315.081 475.712ZM368.417 533.42C363.213 500.01 343.7 480.051 315.081 480.051C284.294 480.051 266.516 498.275 261.746 533.42C269.984 528.213 282.993 524.742 287.763 523.875C286.896 519.97 286.896 516.932 286.896 516.932C286.896 515.631 287.763 514.763 289.064 514.763C290.365 514.763 291.232 515.631 291.232 516.932C291.232 517.366 291.232 520.838 292.1 524.743C292.1 524.743 292.1 524.743 292.1 525.176C294.268 533.42 299.471 545.136 315.082 545.136C330.692 545.136 335.896 533.42 338.064 525.176C338.064 525.176 338.064 525.176 338.064 524.743C338.931 520.404 338.931 516.932 338.931 516.932C338.931 515.631 339.799 514.763 341.1 514.763C342.401 514.763 343.268 515.631 343.268 516.932C343.268 516.932 343.268 519.97 342.401 523.875C347.603 525.176 359.744 528.213 368.417 533.42ZM310.745 527.78H319.417C320.718 527.78 321.586 528.648 321.586 529.949C321.586 531.251 320.718 532.119 319.417 532.119H310.745C309.444 532.119 308.576 531.251 308.576 529.949C308.576 528.648 309.444 527.78 310.745 527.78ZM289.064 575.509C290.365 575.509 291.232 576.377 291.232 577.678V579.848H297.736C299.037 579.848 299.905 580.716 299.905 582.018C299.905 583.319 299.037 584.187 297.736 584.187H280.391C279.09 584.187 278.223 583.319 278.223 582.018C278.223 580.716 279.09 579.848 280.391 579.848H286.896V577.678C286.896 576.376 287.763 575.509 289.064 575.509ZM341.099 575.509C342.4 575.509 343.267 576.377 343.267 577.678V579.848H349.771C351.072 579.848 351.94 580.716 351.94 582.018C351.94 583.319 351.072 584.187 349.771 584.187H332.426C331.125 584.187 330.258 583.319 330.258 582.018C330.258 580.716 331.125 579.848 332.426 579.848H338.93V577.678C338.93 576.376 339.798 575.509 341.099 575.509ZM250.038 605.881H380.125C381.426 605.881 382.293 606.749 382.293 608.051V667.061C387.063 667.929 390.965 672.268 390.965 677.475C390.965 683.549 386.195 688.322 380.125 688.322C374.054 688.322 369.284 683.549 369.284 677.475C369.284 673.57 371.453 669.664 374.921 667.929L341.532 645.8L318.984 676.173C322.886 677.908 325.922 681.813 325.922 686.153C325.922 692.227 321.152 697 315.081 697C309.01 697 304.241 692.227 304.241 686.153C304.241 681.38 307.276 677.475 311.179 676.173L288.63 645.8L255.241 667.929C258.71 669.664 260.878 673.57 260.878 677.475C260.878 683.549 256.108 688.322 250.038 688.322C243.967 688.322 239.197 683.549 239.197 677.475C239.197 672.268 243.1 667.929 247.87 667.061V608.051C247.869 606.749 248.737 605.881 250.038 605.881ZM377.956 610.22H252.206V664.891L287.762 641.027C288.63 640.593 289.931 640.593 290.798 641.461L315.081 674.003L339.364 641.461C340.231 640.593 341.532 640.159 342.399 641.027L377.956 664.891V610.22ZM380.125 683.983C383.594 683.983 386.629 680.946 386.629 677.475C386.629 674.003 383.594 670.966 380.125 670.966C376.656 670.966 373.62 674.003 373.62 677.475C373.62 680.946 376.656 683.983 380.125 683.983ZM250.038 670.966C246.569 670.966 243.533 674.003 243.533 677.475C243.533 680.946 246.569 683.983 250.038 683.983C253.507 683.983 256.542 680.946 256.542 677.475C256.542 674.003 253.506 670.966 250.038 670.966ZM315.081 692.661C318.55 692.661 321.586 689.624 321.586 686.153C321.586 682.681 318.55 679.644 315.081 679.644C311.612 679.644 308.577 682.681 308.577 686.153C308.577 689.624 311.612 692.661 315.081 692.661Z" fill="#51565F"/>
<path d="M426 466C422.138 470.993 419.733 473.623 415 478" stroke="#51565F" stroke-width="4"/>
<path d="M427 465.5C427 465.5 425.214 468.321 422.706 470.818C420.139 473.73 417.096 476.692 415 478" stroke="#51565F" stroke-width="4"/>
<path d="M203.5 466C207.541 471.63 211.637 474.877 217 478" stroke="#51565F" stroke-width="5"/>
<path d="M202 465C201.938 464.987 203.229 466.451 204.636 468C210.105 473.929 216.658 479.524 214.804 477M214.804 477C214.642 477.533 215.497 478.025 217 478.5L214.804 477Z" stroke="#51565F" stroke-width="4"/>
<path d="M440 435C441.21 437.577 443.424 439.605 440 445.5" stroke="#51565F" stroke-width="4"/>
<path d="M438.5 433.5C441.659 439.783 442.214 439.119 439.5 446" stroke="#51565F" stroke-width="4"/>
<path d="M189.828 445C188.618 442.423 186.404 440.395 189.828 434.5" stroke="#51565F" stroke-width="4"/>
<path d="M191 447C188.695 440.466 188.29 441.157 190.27 434" stroke="#51565F" stroke-width="4"/>
<line x1="132" y1="440" x2="498" y2="440" stroke="black" stroke-width="2"/>
</svg>
