<svg width="630" height="880" viewBox="0 0 630 880" fill="none" xmlns="http://www.w3.org/2000/svg">
<rect x="2.5" y="2.5" width="625" height="875" rx="17.5" fill="white" stroke="black" stroke-width="5"/>
<path fill-rule="evenodd" clip-rule="evenodd" d="M362 336C380.368 323.6 404.86 298.8 417.104 274C429.348 298.8 453.84 323.6 472.208 336C453.84 348.4 429.348 373.2 417.104 398C404.86 373.2 380.368 348.4 362 336Z" fill="#E20000"/>
<path fill-rule="evenodd" clip-rule="evenodd" d="M156 336C174.368 323.6 198.86 298.8 211.104 274C223.348 298.8 247.84 323.6 266.208 336C247.84 348.4 223.348 373.2 211.104 398C198.86 373.2 174.368 348.4 156 336Z" fill="#E20000"/>
<path fill-rule="evenodd" clip-rule="evenodd" d="M259 248C277.368 235.6 301.86 210.8 314.104 186C326.348 210.8 350.84 235.6 369.208 248C350.84 260.4 326.348 285.2 314.104 310C301.86 285.2 277.368 260.4 259 248Z" fill="#E20000"/>
<path fill-rule="evenodd" clip-rule="evenodd" d="M362 160C380.368 147.6 404.86 122.8 417.104 98C429.348 122.8 453.84 147.6 472.208 160C453.84 172.4 429.348 197.2 417.104 222C404.86 197.2 380.368 172.4 362 160Z" fill="#E20000"/>
<path fill-rule="evenodd" clip-rule="evenodd" d="M156 160C174.368 147.6 198.86 122.8 211.104 98C223.348 122.8 247.84 147.6 266.208 160C247.84 172.4 223.348 197.2 211.104 222C198.86 197.2 174.368 172.4 156 160Z" fill="#E20000"/>
<path fill-rule="evenodd" clip-rule="evenodd" d="M268 720C249.632 732.4 225.14 757.2 212.896 782C200.652 757.2 176.16 732.4 157.792 720C176.16 707.6 200.652 682.8 212.896 658C225.14 682.8 249.632 707.6 268 720Z" fill="#E20000"/>
<path fill-rule="evenodd" clip-rule="evenodd" d="M474 720C455.632 732.4 431.14 757.2 418.896 782C406.652 757.2 382.16 732.4 363.792 720C382.16 707.6 406.652 682.8 418.896 658C431.14 682.8 455.632 707.6 474 720Z" fill="#E20000"/>
<path fill-rule="evenodd" clip-rule="evenodd" d="M371 632C352.632 644.4 328.14 669.2 315.896 694C303.652 669.2 279.16 644.4 260.792 632C279.16 619.6 303.652 594.8 315.896 570C328.14 594.8 352.632 619.6 371 632Z" fill="#E20000"/>
<path fill-rule="evenodd" clip-rule="evenodd" d="M268 544C249.632 556.4 225.14 581.2 212.896 606C200.652 581.2 176.16 556.4 157.792 544C176.16 531.6 200.652 506.8 212.896 482C225.14 506.8 249.632 531.6 268 544Z" fill="#E20000"/>
<path fill-rule="evenodd" clip-rule="evenodd" d="M474 544C455.632 556.4 431.14 581.2 418.896 606C406.652 581.2 382.16 556.4 363.792 544C382.16 531.6 406.652 506.8 418.896 482C431.14 506.8 455.632 531.6 474 544Z" fill="#E20000"/>
<path d="M45.5 65.375C45.5 67.9583 45.4583 70.5417 45.375 73.125C45.2917 75.7083 45.2083 78.2917 45.125 80.875C44.9583 85.125 44.875 89.375 44.875 93.625C44.875 97.7917 44.75 102 44.5 106.25C44.4167 107.667 44.3333 109.583 44.25 112C44.1667 114.333 43.8333 116.667 43.25 119C42.75 121.25 41.9167 123.25 40.75 125C39.5833 126.667 37.9583 127.5 35.875 127.5C33.875 127.5 32.25 126.833 31 125.5C29.75 124.083 28.75 122.333 28 120.25C27.3333 118.083 26.875 115.708 26.625 113.125C26.375 110.458 26.2083 107.875 26.125 105.375C26.125 102.792 26.1667 100.417 26.25 98.25C26.3333 96.0833 26.375 94.4167 26.375 93.25C26.375 87.5833 26.375 81.9167 26.375 76.25C26.4583 70.5833 26.5417 64.9167 26.625 59.25C24.9583 57.8333 23.625 56.125 22.625 54.125C21.7083 52.0417 21.25 49.9167 21.25 47.75C21.25 44.3333 22.25 41.4167 24.25 39C26.3333 36.5833 29.1667 35.375 32.75 35.375C35.8333 35.375 38.25 36.5417 40 38.875C41.75 41.2083 43 44 43.75 47.25C44.5833 50.5 45.0833 53.8333 45.25 57.25C45.4167 60.5833 45.5 63.2917 45.5 65.375ZM128.875 83.625C128.875 89.2917 128 95 126.25 100.75C124.583 106.417 122.083 111.583 118.75 116.25C115.5 120.833 111.417 124.542 106.5 127.375C101.583 130.292 95.9167 131.75 89.5 131.75C84.0833 131.75 79.2083 130.333 74.875 127.5C70.5417 124.667 66.8333 121.083 63.75 116.75C60.75 112.333 58.4167 107.542 56.75 102.375C55.1667 97.125 54.375 92.0833 54.375 87.25C54.375 83.8333 54.8333 80.25 55.75 76.5C56.6667 72.75 57.9583 69.0417 59.625 65.375C61.375 61.7083 63.4167 58.2083 65.75 54.875C68.1667 51.4583 70.8333 48.5 73.75 46C76.75 43.4167 79.9583 41.375 83.375 39.875C86.875 38.375 90.5 37.625 94.25 37.625C100.667 37.625 106.083 39 110.5 41.75C114.917 44.5 118.458 48.0833 121.125 52.5C123.875 56.8333 125.833 61.75 127 67.25C128.25 72.6667 128.875 78.125 128.875 83.625ZM110.75 83C110.75 80.9167 110.458 78.4583 109.875 75.625C109.292 72.7917 108.375 70.125 107.125 67.625C105.958 65.125 104.417 63 102.5 61.25C100.583 59.5 98.2917 58.625 95.625 58.625C92.375 58.625 89.4583 59.6667 86.875 61.75C84.375 63.75 82.25 66.25 80.5 69.25C78.75 72.25 77.375 75.4583 76.375 78.875C75.4583 82.2917 75 85.375 75 88.125C75 90.2917 75.2917 92.75 75.875 95.5C76.4583 98.25 77.375 100.875 78.625 103.375C79.875 105.792 81.4583 107.875 83.375 109.625C85.375 111.292 87.7083 112.125 90.375 112.125C93.625 112.125 96.5 111.125 99 109.125C101.583 107.042 103.708 104.542 105.375 101.625C107.125 98.625 108.458 95.4583 109.375 92.125C110.292 88.7083 110.75 85.6667 110.75 83Z" fill="#E20000"/>
<path fill-rule="evenodd" clip-rule="evenodd" d="M64.5 195.125C74.832 188.15 88.6087 174.2 95.496 160.25C102.383 174.2 116.16 188.15 126.492 195.125C116.16 202.1 102.383 216.05 95.496 230C88.6087 216.05 74.832 202.1 64.5 195.125Z" fill="#E20000"/>
<path d="M584.5 814.625C584.5 812.042 584.542 809.458 584.625 806.875C584.708 804.292 584.792 801.708 584.875 799.125C585.042 794.875 585.125 790.625 585.125 786.375C585.125 782.208 585.25 778 585.5 773.75C585.583 772.333 585.667 770.417 585.75 768C585.833 765.667 586.167 763.333 586.75 761C587.25 758.75 588.083 756.75 589.25 755C590.417 753.333 592.042 752.5 594.125 752.5C596.125 752.5 597.75 753.167 599 754.5C600.25 755.917 601.25 757.667 602 759.75C602.667 761.917 603.125 764.292 603.375 766.875C603.625 769.542 603.792 772.125 603.875 774.625C603.875 777.208 603.833 779.583 603.75 781.75C603.667 783.917 603.625 785.583 603.625 786.75C603.625 792.417 603.625 798.083 603.625 803.75C603.542 809.417 603.458 815.083 603.375 820.75C605.042 822.167 606.375 823.875 607.375 825.875C608.292 827.958 608.75 830.083 608.75 832.25C608.75 835.667 607.75 838.583 605.75 841C603.667 843.417 600.833 844.625 597.25 844.625C594.167 844.625 591.75 843.458 590 841.125C588.25 838.792 587 836 586.25 832.75C585.417 829.5 584.917 826.167 584.75 822.75C584.583 819.417 584.5 816.708 584.5 814.625ZM501.125 796.375C501.125 790.708 502 785 503.75 779.25C505.417 773.583 507.917 768.417 511.25 763.75C514.5 759.167 518.583 755.458 523.5 752.625C528.417 749.708 534.083 748.25 540.5 748.25C545.917 748.25 550.792 749.667 555.125 752.5C559.458 755.333 563.167 758.917 566.25 763.25C569.25 767.667 571.583 772.458 573.25 777.625C574.833 782.875 575.625 787.917 575.625 792.75C575.625 796.167 575.167 799.75 574.25 803.5C573.333 807.25 572.042 810.958 570.375 814.625C568.625 818.292 566.583 821.792 564.25 825.125C561.833 828.542 559.167 831.5 556.25 834C553.25 836.583 550.042 838.625 546.625 840.125C543.125 841.625 539.5 842.375 535.75 842.375C529.333 842.375 523.917 841 519.5 838.25C515.083 835.5 511.542 831.917 508.875 827.5C506.125 823.167 504.167 818.25 503 812.75C501.75 807.333 501.125 801.875 501.125 796.375ZM519.25 797C519.25 799.083 519.542 801.542 520.125 804.375C520.708 807.208 521.625 809.875 522.875 812.375C524.042 814.875 525.583 817 527.5 818.75C529.417 820.5 531.708 821.375 534.375 821.375C537.625 821.375 540.542 820.333 543.125 818.25C545.625 816.25 547.75 813.75 549.5 810.75C551.25 807.75 552.625 804.542 553.625 801.125C554.542 797.708 555 794.625 555 791.875C555 789.708 554.708 787.25 554.125 784.5C553.542 781.75 552.625 779.125 551.375 776.625C550.125 774.208 548.542 772.125 546.625 770.375C544.625 768.708 542.292 767.875 539.625 767.875C536.375 767.875 533.5 768.875 531 770.875C528.417 772.958 526.292 775.458 524.625 778.375C522.875 781.375 521.542 784.542 520.625 787.875C519.708 791.292 519.25 794.333 519.25 797Z" fill="#E20000"/>
<path fill-rule="evenodd" clip-rule="evenodd" d="M565.5 684.875C555.168 691.85 541.391 705.8 534.504 719.75C527.617 705.8 513.84 691.85 503.508 684.875C513.84 677.9 527.617 663.95 534.504 650C541.391 663.95 555.168 677.9 565.5 684.875Z" fill="#E20000"/>
</svg>
