<svg width="630" height="880" viewBox="0 0 630 880" fill="none" xmlns="http://www.w3.org/2000/svg">
<rect x="2.5" y="2.5" width="625" height="875" rx="17.5" fill="white" stroke="black" stroke-width="5"/>
<path fill-rule="evenodd" clip-rule="evenodd" d="M259 160C277.368 147.6 301.86 122.8 314.104 98C326.348 122.8 350.84 147.6 369.208 160C350.84 172.4 326.348 197.2 314.104 222C301.86 197.2 277.368 172.4 259 160Z" fill="#E20000"/>
<path fill-rule="evenodd" clip-rule="evenodd" d="M371 720C352.632 732.4 328.14 757.2 315.896 782C303.652 757.2 279.16 732.4 260.792 720C279.16 707.6 303.652 682.8 315.896 658C328.14 682.8 352.632 707.6 371 720Z" fill="#E20000"/>
<path d="M122.375 115.5C122.375 117.917 121.583 119.875 120 121.375C118.417 122.875 116.5 123.833 114.25 124.25C111.75 124.833 108.917 125.375 105.75 125.875C102.583 126.292 99.3333 126.667 96 127C92.75 127.333 89.5417 127.583 86.375 127.75C83.2083 127.917 80.3333 128 77.75 128C77.0833 128 76.125 127.958 74.875 127.875C73.7083 127.875 72.4583 127.792 71.125 127.625C69.875 127.542 68.6667 127.375 67.5 127.125C66.4167 126.875 65.5833 126.542 65 126.125C64.4167 125.625 63.875 124.958 63.375 124.125C62.9583 123.208 62.5833 122.25 62.25 121.25C61.9167 120.167 61.6667 119.125 61.5 118.125C61.3333 117.125 61.25 116.25 61.25 115.5C61.25 114.333 61.375 113.292 61.625 112.375C61.9583 111.375 62.5417 110.458 63.375 109.625C64.375 108.542 65.4167 107.5 66.5 106.5C67.5833 105.417 68.625 104.375 69.625 103.375C70.7917 102.125 72.3333 100.5 74.25 98.5C76.1667 96.4167 78.2083 94.125 80.375 91.625C82.625 89.0417 84.8333 86.375 87 83.625C89.25 80.7917 91.2917 78.0417 93.125 75.375C94.9583 72.7083 96.4167 70.2083 97.5 67.875C98.6667 65.5417 99.25 63.5417 99.25 61.875C99.25 60.2917 98.7917 59 97.875 58C96.9583 56.9167 95.7083 56.375 94.125 56.375C92.375 56.375 90.75 57 89.25 58.25C87.75 59.5 86.25 60.875 84.75 62.375C83.25 63.7917 81.625 65.125 79.875 66.375C78.2083 67.625 76.2917 68.25 74.125 68.25C71.5417 68.25 69.5 67.5 68 66C66.5833 64.5 65.875 62.5 65.875 60C65.875 56.3333 66.6667 52.9583 68.25 49.875C69.9167 46.7083 72.0833 44 74.75 41.75C77.4167 39.5 80.4167 37.75 83.75 36.5C87.0833 35.1667 90.5 34.5 94 34.5C97.5833 34.5 100.917 34.9167 104 35.75C107.083 36.5833 109.75 37.875 112 39.625C114.25 41.375 116 43.625 117.25 46.375C118.583 49.0417 119.25 52.2917 119.25 56.125C119.25 59.125 118.708 62.2917 117.625 65.625C116.625 68.875 115.25 72.1667 113.5 75.5C111.833 78.8333 109.875 82.1667 107.625 85.5C105.458 88.75 103.208 91.875 100.875 94.875C98.5417 97.875 96.2083 100.667 93.875 103.25C91.5417 105.833 89.4167 108.083 87.5 110C91.5833 109.5 95.875 109 100.375 108.5C104.875 108 109.208 107.75 113.375 107.75C115.792 107.75 117.875 108.417 119.625 109.75C121.458 111 122.375 112.917 122.375 115.5Z" fill="#E20000"/>
<path fill-rule="evenodd" clip-rule="evenodd" d="M64.5 195.125C74.832 188.15 88.6087 174.2 95.496 160.25C102.383 174.2 116.16 188.15 126.492 195.125C116.16 202.1 102.383 216.05 95.496 230C88.6087 216.05 74.832 202.1 64.5 195.125Z" fill="#E20000"/>
<path d="M507.625 764.5C507.625 762.083 508.417 760.125 510 758.625C511.583 757.125 513.5 756.167 515.75 755.75C518.25 755.167 521.083 754.625 524.25 754.125C527.417 753.708 530.667 753.333 534 753C537.25 752.667 540.458 752.417 543.625 752.25C546.792 752.083 549.667 752 552.25 752C552.917 752 553.875 752.042 555.125 752.125C556.292 752.125 557.542 752.208 558.875 752.375C560.125 752.458 561.333 752.625 562.5 752.875C563.583 753.125 564.417 753.458 565 753.875C565.583 754.375 566.125 755.042 566.625 755.875C567.042 756.792 567.417 757.75 567.75 758.75C568.083 759.833 568.333 760.875 568.5 761.875C568.667 762.875 568.75 763.75 568.75 764.5C568.75 765.667 568.625 766.708 568.375 767.625C568.042 768.625 567.458 769.542 566.625 770.375C565.625 771.458 564.583 772.5 563.5 773.5C562.417 774.583 561.375 775.625 560.375 776.625C559.208 777.875 557.667 779.5 555.75 781.5C553.833 783.583 551.792 785.875 549.625 788.375C547.375 790.958 545.167 793.625 543 796.375C540.75 799.208 538.708 801.958 536.875 804.625C535.042 807.292 533.583 809.792 532.5 812.125C531.333 814.458 530.75 816.458 530.75 818.125C530.75 819.708 531.208 821 532.125 822C533.042 823.083 534.292 823.625 535.875 823.625C537.625 823.625 539.25 823 540.75 821.75C542.25 820.5 543.75 819.125 545.25 817.625C546.75 816.208 548.375 814.875 550.125 813.625C551.792 812.375 553.708 811.75 555.875 811.75C558.458 811.75 560.5 812.5 562 814C563.417 815.5 564.125 817.5 564.125 820C564.125 823.667 563.333 827.042 561.75 830.125C560.083 833.292 557.917 836 555.25 838.25C552.583 840.5 549.583 842.25 546.25 843.5C542.917 844.833 539.5 845.5 536 845.5C532.417 845.5 529.083 845.083 526 844.25C522.917 843.417 520.25 842.125 518 840.375C515.75 838.625 514 836.375 512.75 833.625C511.417 830.958 510.75 827.708 510.75 823.875C510.75 820.875 511.292 817.708 512.375 814.375C513.375 811.125 514.75 807.833 516.5 804.5C518.167 801.167 520.125 797.833 522.375 794.5C524.542 791.25 526.792 788.125 529.125 785.125C531.458 782.125 533.792 779.333 536.125 776.75C538.458 774.167 540.583 771.917 542.5 770C538.417 770.5 534.125 771 529.625 771.5C525.125 772 520.792 772.25 516.625 772.25C514.208 772.25 512.125 771.583 510.375 770.25C508.542 769 507.625 767.083 507.625 764.5Z" fill="#E20000"/>
<path fill-rule="evenodd" clip-rule="evenodd" d="M565.5 684.875C555.168 691.85 541.391 705.8 534.504 719.75C527.617 705.8 513.84 691.85 503.508 684.875C513.84 677.9 527.617 663.95 534.504 650C541.391 663.95 555.168 677.9 565.5 684.875Z" fill="#E20000"/>
</svg>
