<svg width="630" height="880" viewBox="0 0 630 880" fill="none" xmlns="http://www.w3.org/2000/svg">
<rect x="2.5" y="2.5" width="625" height="875" rx="17.5" fill="white" stroke="black" stroke-width="5"/>
<path d="M313.66 96C299.484 96 287.992 107.104 287.992 120.8C288.009 125.284 289.274 129.674 291.644 133.48C290.434 133.306 289.214 133.214 287.992 133.208C273.82 133.208 262.332 144.308 262.332 158C262.332 171.696 273.816 182.8 287.992 182.804C291.419 182.812 294.814 182.152 297.988 180.86C302.531 179 306.449 175.882 309.28 171.872C309.536 171.504 309.76 171.112 309.996 170.732C307.504 190.344 305.584 212.928 298.264 220H329.06C321.74 212.928 319.82 190.344 317.328 170.732C317.568 171.112 317.788 171.504 318.044 171.872C320.875 175.882 324.793 179 329.336 180.86C332.51 182.152 335.905 182.812 339.332 182.804C353.508 182.804 365 171.7 365 158.004C365 144.304 353.504 133.204 339.332 133.204C338.112 133.204 336.892 133.308 335.688 133.484C338.054 129.677 339.314 125.286 339.328 120.804C339.332 107.104 327.84 95.9999 313.66 96.0039V96Z" fill="black"/>
<path d="M313.66 378C299.484 378 287.992 389.104 287.992 402.8C288.009 407.284 289.274 411.674 291.644 415.48C290.434 415.306 289.214 415.214 287.992 415.208C273.82 415.208 262.332 426.308 262.332 440C262.332 453.696 273.816 464.8 287.992 464.804C291.419 464.812 294.814 464.152 297.988 462.86C302.531 461 306.449 457.882 309.28 453.872C309.536 453.504 309.76 453.112 309.996 452.732C307.504 472.344 305.584 494.928 298.264 502H329.06C321.74 494.928 319.82 472.344 317.328 452.732C317.568 453.112 317.788 453.504 318.044 453.872C320.875 457.882 324.793 461 329.336 462.86C332.51 464.152 335.905 464.812 339.332 464.804C353.508 464.804 365 453.7 365 440.004C365 426.304 353.504 415.204 339.332 415.204C338.112 415.204 336.892 415.308 335.688 415.484C338.054 411.677 339.314 407.286 339.328 402.804C339.332 389.104 327.84 378 313.66 378.004V378Z" fill="black"/>
<path d="M316.34 784C330.516 784 342.008 772.896 342.008 759.2C341.991 754.716 340.726 750.326 338.356 746.52C339.566 746.694 340.786 746.786 342.008 746.792C356.18 746.792 367.668 735.692 367.668 722C367.668 708.304 356.184 697.2 342.008 697.196C338.581 697.188 335.186 697.848 332.012 699.14C327.469 701 323.551 704.118 320.72 708.128C320.464 708.496 320.24 708.888 320.004 709.268C322.496 689.656 324.416 667.072 331.736 660H300.94C308.26 667.072 310.18 689.656 312.672 709.268C312.432 708.888 312.212 708.496 311.956 708.128C309.125 704.118 305.207 701 300.664 699.14C297.49 697.848 294.095 697.188 290.668 697.196C276.492 697.196 265 708.3 265 721.996C265 735.696 276.496 746.796 290.668 746.796C291.888 746.796 293.108 746.692 294.312 746.516C291.946 750.323 290.686 754.714 290.672 759.196C290.668 772.896 302.16 784 316.34 783.996V784Z" fill="black"/>
<path d="M118.5 98C118.5 102.667 117.583 106.958 115.75 110.875C113.917 114.792 111.458 118.208 108.375 121.125C105.292 123.958 101.708 126.167 97.625 127.75C93.5417 129.417 89.2917 130.25 84.875 130.25C83.2083 130.25 81.125 130.083 78.625 129.75C76.2083 129.5 73.875 128.958 71.625 128.125C69.375 127.292 67.4583 126.167 65.875 124.75C64.2917 123.333 63.5 121.5 63.5 119.25C63.5 116.833 64.125 114.958 65.375 113.625C66.7083 112.292 68.5833 111.625 71 111.625C73.4167 111.625 75.75 111.875 78 112.375C80.3333 112.792 82.7083 113 85.125 113C86.9583 113 88.7917 112.708 90.625 112.125C92.4583 111.542 94.0833 110.708 95.5 109.625C97 108.458 98.2083 107.125 99.125 105.625C100.042 104.042 100.5 102.25 100.5 100.25C100.5 99.1667 100.292 97.8333 99.875 96.25C99.4583 94.6667 98.875 93.2083 98.125 91.875C97.375 90.4583 96.4583 89.25 95.375 88.25C94.2917 87.25 93.0833 86.75 91.75 86.75C90.5 86.75 89.25 86.9583 88 87.375C86.8333 87.7917 85.5833 88.25 84.25 88.75C83 89.1667 81.7083 89.5833 80.375 90C79.0417 90.4167 77.6667 90.625 76.25 90.625C74.4167 90.625 73.0417 89.875 72.125 88.375C71.2917 86.7917 70.875 85.25 70.875 83.75C70.875 80.25 72.4583 77.875 75.625 76.625C77.2917 75.9583 79.375 75.0833 81.875 74C84.4583 72.8333 86.9583 71.5 89.375 70C91.7917 68.5 93.875 66.8333 95.625 65C97.375 63.0833 98.25 61.0417 98.25 58.875C98.25 57.2083 97.5833 55.5833 96.25 54C94.9167 52.4167 93.3333 51.625 91.5 51.625C89.6667 51.625 87.9583 52.125 86.375 53.125C84.7917 54.125 83.2083 55.25 81.625 56.5C80.125 57.6667 78.5417 58.75 76.875 59.75C75.2917 60.75 73.5833 61.25 71.75 61.25C70.8333 61.25 69.875 61.0833 68.875 60.75C67.875 60.3333 66.9583 59.8333 66.125 59.25C65.2917 58.5833 64.5833 57.7917 64 56.875C63.5 55.9583 63.25 55 63.25 54C63.25 52.8333 63.5 51.625 64 50.375C64.5 49.125 65.0833 48.0417 65.75 47.125C68.5833 42.7917 72.3333 39.5417 77 37.375C81.75 35.2083 86.625 34.125 91.625 34.125C99.2917 34.125 105.375 36.2083 109.875 40.375C114.458 44.5417 116.75 50.4167 116.75 58C116.75 62.5 115.792 66.4583 113.875 69.875C112.042 73.2917 108.875 75.75 104.375 77.25C106.792 77.75 108.875 78.7083 110.625 80.125C112.458 81.4583 113.958 83.0833 115.125 85C116.292 86.9167 117.125 89 117.625 91.25C118.208 93.5 118.5 95.75 118.5 98Z" fill="black"/>
<path d="M95.247 159.125C87.273 159.125 80.8087 165.371 80.8087 173.075C80.8184 175.597 81.5297 178.067 82.863 180.208C82.1826 180.109 81.4962 180.058 80.8087 180.054C72.837 180.054 66.375 186.298 66.375 194C66.375 201.704 72.8348 207.95 80.8087 207.952C82.7363 207.957 84.6461 207.585 86.4315 206.859C88.987 205.813 91.1906 204.059 92.7832 201.803C92.9272 201.596 93.0532 201.376 93.186 201.162C91.7842 212.194 90.7042 224.897 86.5867 228.875H103.909C99.792 224.897 98.712 212.194 97.3103 201.162C97.4453 201.376 97.569 201.596 97.713 201.803C99.3056 204.059 101.509 205.813 104.065 206.859C105.85 207.585 107.76 207.957 109.688 207.952C117.661 207.952 124.126 201.706 124.126 194.002C124.126 186.296 117.659 180.052 109.688 180.052C109.001 180.052 108.315 180.111 107.638 180.21C108.968 178.068 109.677 175.599 109.685 173.077C109.688 165.371 103.223 159.125 95.247 159.127V159.125Z" fill="black"/>
<path d="M511.5 782C511.5 777.333 512.417 773.042 514.25 769.125C516.083 765.208 518.542 761.792 521.625 758.875C524.708 756.042 528.292 753.833 532.375 752.25C536.458 750.583 540.708 749.75 545.125 749.75C546.792 749.75 548.875 749.917 551.375 750.25C553.792 750.5 556.125 751.042 558.375 751.875C560.625 752.708 562.542 753.833 564.125 755.25C565.708 756.667 566.5 758.5 566.5 760.75C566.5 763.167 565.875 765.042 564.625 766.375C563.292 767.708 561.417 768.375 559 768.375C556.583 768.375 554.25 768.125 552 767.625C549.667 767.208 547.292 767 544.875 767C543.042 767 541.208 767.292 539.375 767.875C537.542 768.458 535.917 769.292 534.5 770.375C533 771.542 531.792 772.875 530.875 774.375C529.958 775.958 529.5 777.75 529.5 779.75C529.5 780.833 529.708 782.167 530.125 783.75C530.542 785.333 531.125 786.792 531.875 788.125C532.625 789.542 533.542 790.75 534.625 791.75C535.708 792.75 536.917 793.25 538.25 793.25C539.5 793.25 540.75 793.042 542 792.625C543.167 792.208 544.417 791.75 545.75 791.25C547 790.833 548.292 790.417 549.625 790C550.958 789.583 552.333 789.375 553.75 789.375C555.583 789.375 556.958 790.125 557.875 791.625C558.708 793.208 559.125 794.75 559.125 796.25C559.125 799.75 557.542 802.125 554.375 803.375C552.708 804.042 550.625 804.917 548.125 806C545.542 807.167 543.042 808.5 540.625 810C538.208 811.5 536.125 813.167 534.375 815C532.625 816.917 531.75 818.958 531.75 821.125C531.75 822.792 532.417 824.417 533.75 826C535.083 827.583 536.667 828.375 538.5 828.375C540.333 828.375 542.042 827.875 543.625 826.875C545.208 825.875 546.792 824.75 548.375 823.5C549.875 822.333 551.458 821.25 553.125 820.25C554.708 819.25 556.417 818.75 558.25 818.75C559.167 818.75 560.125 818.917 561.125 819.25C562.125 819.667 563.042 820.167 563.875 820.75C564.708 821.417 565.417 822.208 566 823.125C566.5 824.042 566.75 825 566.75 826C566.75 827.167 566.5 828.375 566 829.625C565.5 830.875 564.917 831.958 564.25 832.875C561.417 837.208 557.667 840.458 553 842.625C548.25 844.792 543.375 845.875 538.375 845.875C530.708 845.875 524.625 843.792 520.125 839.625C515.542 835.458 513.25 829.583 513.25 822C513.25 817.5 514.208 813.542 516.125 810.125C517.958 806.708 521.125 804.25 525.625 802.75C523.208 802.25 521.125 801.292 519.375 799.875C517.542 798.542 516.042 796.917 514.875 795C513.708 793.083 512.875 791 512.375 788.75C511.792 786.5 511.5 784.25 511.5 782Z" fill="black"/>
<path d="M534.753 720.875C542.727 720.875 549.191 714.629 549.191 706.925C549.182 704.403 548.47 701.933 547.137 699.792C547.817 699.891 548.504 699.942 549.191 699.946C557.163 699.946 563.625 693.702 563.625 686C563.625 678.296 557.165 672.05 549.191 672.048C547.264 672.043 545.354 672.415 543.569 673.141C541.013 674.187 538.809 675.941 537.217 678.197C537.073 678.404 536.947 678.624 536.814 678.838C538.216 667.806 539.296 655.103 543.413 651.125H526.091C530.208 655.103 531.288 667.806 532.69 678.838C532.555 678.624 532.431 678.404 532.287 678.197C530.694 675.941 528.491 674.187 525.935 673.141C524.15 672.415 522.24 672.043 520.312 672.048C512.339 672.048 505.874 678.294 505.874 685.998C505.874 693.704 512.341 699.948 520.312 699.948C520.999 699.948 521.685 699.889 522.362 699.79C521.032 701.932 520.323 704.401 520.315 706.923C520.312 714.629 526.777 720.875 534.753 720.873V720.875Z" fill="black"/>
</svg>
