<svg width="630" height="880" viewBox="0 0 630 880" fill="none" xmlns="http://www.w3.org/2000/svg">
<rect x="2.5" y="2.5" width="625" height="875" rx="17.5" fill="white" stroke="black" stroke-width="5"/>
<path d="M210.66 96C196.484 96 184.992 107.104 184.992 120.8C185.009 125.284 186.274 129.674 188.644 133.48C187.434 133.306 186.214 133.214 184.992 133.208C170.82 133.208 159.332 144.308 159.332 158C159.332 171.696 170.816 182.8 184.992 182.804C188.419 182.812 191.814 182.152 194.988 180.86C199.531 179 203.449 175.882 206.28 171.872C206.536 171.504 206.76 171.112 206.996 170.732C204.504 190.344 202.584 212.928 195.264 220H226.06C218.74 212.928 216.82 190.344 214.328 170.732C214.568 171.112 214.788 171.504 215.044 171.872C217.875 175.882 221.793 179 226.336 180.86C229.51 182.152 232.905 182.812 236.332 182.804C250.508 182.804 262 171.7 262 158.004C262 144.304 250.504 133.204 236.332 133.204C235.112 133.204 233.892 133.308 232.688 133.484C235.054 129.677 236.314 125.286 236.328 120.804C236.332 107.104 224.84 95.9999 210.66 96.0039V96Z" fill="black"/>
<path d="M416.66 96C402.484 96 390.992 107.104 390.992 120.8C391.009 125.284 392.274 129.674 394.644 133.48C393.434 133.306 392.214 133.214 390.992 133.208C376.82 133.208 365.332 144.308 365.332 158C365.332 171.696 376.816 182.8 390.992 182.804C394.419 182.812 397.814 182.152 400.988 180.86C405.531 179 409.449 175.882 412.28 171.872C412.536 171.504 412.76 171.112 412.996 170.732C410.504 190.344 408.584 212.928 401.264 220H432.06C424.74 212.928 422.82 190.344 420.328 170.732C420.568 171.112 420.788 171.504 421.044 171.872C423.875 175.882 427.793 179 432.336 180.86C435.51 182.152 438.905 182.812 442.332 182.804C456.508 182.804 468 171.7 468 158.004C468 144.304 456.504 133.204 442.332 133.204C441.112 133.204 439.892 133.308 438.688 133.484C441.054 129.677 442.314 125.286 442.328 120.804C442.332 107.104 430.84 95.9999 416.66 96.0039V96Z" fill="black"/>
<path d="M313.66 378C299.484 378 287.992 389.104 287.992 402.8C288.009 407.284 289.274 411.674 291.644 415.48C290.434 415.306 289.214 415.214 287.992 415.208C273.82 415.208 262.332 426.308 262.332 440C262.332 453.696 273.816 464.8 287.992 464.804C291.419 464.812 294.814 464.152 297.988 462.86C302.531 461 306.449 457.882 309.28 453.872C309.536 453.504 309.76 453.112 309.996 452.732C307.504 472.344 305.584 494.928 298.264 502H329.06C321.74 494.928 319.82 472.344 317.328 452.732C317.568 453.112 317.788 453.504 318.044 453.872C320.875 457.882 324.793 461 329.336 462.86C332.51 464.152 335.905 464.812 339.332 464.804C353.508 464.804 365 453.7 365 440.004C365 426.304 353.504 415.204 339.332 415.204C338.112 415.204 336.892 415.308 335.688 415.484C338.054 411.677 339.314 407.286 339.328 402.804C339.332 389.104 327.84 378 313.66 378.004V378Z" fill="black"/>
<path d="M213.34 784C227.516 784 239.008 772.896 239.008 759.2C238.991 754.716 237.726 750.326 235.356 746.52C236.566 746.694 237.786 746.786 239.008 746.792C253.18 746.792 264.668 735.692 264.668 722C264.668 708.304 253.184 697.2 239.008 697.196C235.581 697.188 232.186 697.848 229.012 699.14C224.469 701 220.551 704.118 217.72 708.128C217.464 708.496 217.24 708.888 217.004 709.268C219.496 689.656 221.416 667.072 228.736 660H197.94C205.26 667.072 207.18 689.656 209.672 709.268C209.432 708.888 209.212 708.496 208.956 708.128C206.125 704.118 202.207 701 197.664 699.14C194.49 697.848 191.095 697.188 187.668 697.196C173.492 697.196 162 708.3 162 721.996C162 735.696 173.496 746.796 187.668 746.796C188.888 746.796 190.108 746.692 191.312 746.516C188.946 750.323 187.686 754.714 187.672 759.196C187.668 772.896 199.16 784 213.34 783.996V784Z" fill="black"/>
<path d="M419.34 784C433.516 784 445.008 772.896 445.008 759.2C444.991 754.716 443.726 750.326 441.356 746.52C442.566 746.694 443.786 746.786 445.008 746.792C459.18 746.792 470.668 735.692 470.668 722C470.668 708.304 459.184 697.2 445.008 697.196C441.581 697.188 438.186 697.848 435.012 699.14C430.469 701 426.551 704.118 423.72 708.128C423.464 708.496 423.24 708.888 423.004 709.268C425.496 689.656 427.416 667.072 434.736 660H403.94C411.26 667.072 413.18 689.656 415.672 709.268C415.432 708.888 415.212 708.496 414.956 708.128C412.125 704.118 408.207 701 403.664 699.14C400.49 697.848 397.095 697.188 393.668 697.196C379.492 697.196 368 708.3 368 721.996C368 735.696 379.496 746.796 393.668 746.796C394.888 746.796 396.108 746.692 397.312 746.516C394.946 750.323 393.686 754.714 393.672 759.196C393.668 772.896 405.16 784 419.34 783.996V784Z" fill="black"/>
<path d="M123.25 97.75C123.25 102.667 122.458 107.042 120.875 110.875C119.375 114.708 117.208 117.958 114.375 120.625C111.625 123.292 108.292 125.333 104.375 126.75C100.542 128.167 96.25 128.875 91.5 128.875C88.9167 128.875 86.0417 128.417 82.875 127.5C79.7917 126.583 76.875 125.25 74.125 123.5C71.375 121.75 69.0833 119.667 67.25 117.25C65.4167 114.75 64.5 112 64.5 109C64.5 106.833 65.1667 105.083 66.5 103.75C67.8333 102.417 69.5833 101.75 71.75 101.75C73.8333 101.75 75.5833 102.167 77 103C78.4167 103.833 79.7917 104.792 81.125 105.875C82.5417 106.875 84.125 107.792 85.875 108.625C87.625 109.458 89.875 109.875 92.625 109.875C95.9583 109.875 98.6667 108.708 100.75 106.375C102.833 104.042 103.875 101.25 103.875 98C103.875 94.9167 103.167 92.25 101.75 90C100.333 87.75 98 86.625 94.75 86.625C93.25 86.625 91.875 86.7917 90.625 87.125C89.4583 87.4583 88.2917 87.8333 87.125 88.25C86.0417 88.6667 84.9167 89.0833 83.75 89.5C82.6667 89.8333 81.5417 90.0833 80.375 90.25C79.4583 90.4167 78.2917 90.375 76.875 90.125C75.4583 89.7917 74 89.3333 72.5 88.75C71.0833 88.1667 69.7917 87.5 68.625 86.75C67.4583 85.9167 66.7083 85.0417 66.375 84.125C66.125 83.375 65.875 81.75 65.625 79.25C65.4583 76.75 65.2917 74.0417 65.125 71.125C65.0417 68.2083 64.9583 65.4583 64.875 62.875C64.875 60.2083 64.875 58.375 64.875 57.375C64.875 56.7083 64.875 55.625 64.875 54.125C64.875 52.625 64.9167 51.0833 65 49.5C65.1667 47.8333 65.3333 46.2917 65.5 44.875C65.6667 43.4583 65.9583 42.5 66.375 42C66.875 41.25 68.0833 40.5417 70 39.875C72 39.2083 74.2917 38.5833 76.875 38C79.5417 37.4167 82.4167 36.9167 85.5 36.5C88.5833 36 91.5 35.5833 94.25 35.25C97.0833 34.9167 99.625 34.6667 101.875 34.5C104.208 34.3333 105.875 34.25 106.875 34.25C108.042 34.25 109.25 34.4167 110.5 34.75C111.833 35 113 35.4583 114 36.125C115.083 36.7083 115.958 37.5 116.625 38.5C117.292 39.5 117.625 40.7083 117.625 42.125C117.625 44.375 116.833 46.1667 115.25 47.5C113.667 48.8333 111.917 49.8333 110 50.5C108.5 51 106.667 51.4167 104.5 51.75C102.333 52.0833 100.125 52.4167 97.875 52.75C95.625 53 93.4167 53.2083 91.25 53.375C89.1667 53.5417 87.3333 53.6667 85.75 53.75L86 71.875C87.6667 71.5417 89.3333 71.2917 91 71.125C92.6667 70.875 94.375 70.75 96.125 70.75C104.958 70.75 111.667 73.0417 116.25 77.625C120.917 82.2083 123.25 88.9167 123.25 97.75Z" fill="black"/>
<path d="M95.247 159.125C87.273 159.125 80.8087 165.371 80.8087 173.075C80.8184 175.597 81.5297 178.067 82.863 180.208C82.1826 180.109 81.4962 180.058 80.8087 180.054C72.837 180.054 66.375 186.298 66.375 194C66.375 201.704 72.8348 207.95 80.8087 207.952C82.7363 207.957 84.6461 207.585 86.4315 206.859C88.987 205.813 91.1906 204.059 92.7832 201.803C92.9272 201.596 93.0532 201.376 93.186 201.162C91.7842 212.194 90.7042 224.897 86.5867 228.875H103.909C99.792 224.897 98.712 212.194 97.3103 201.162C97.4453 201.376 97.569 201.596 97.713 201.803C99.3056 204.059 101.509 205.813 104.065 206.859C105.85 207.585 107.76 207.957 109.688 207.952C117.661 207.952 124.126 201.706 124.126 194.002C124.126 186.296 117.659 180.052 109.688 180.052C109.001 180.052 108.315 180.111 107.638 180.21C108.968 178.068 109.677 175.599 109.685 173.077C109.688 165.371 103.223 159.125 95.247 159.127V159.125Z" fill="black"/>
<path d="M506.75 782.25C506.75 777.333 507.542 772.958 509.125 769.125C510.625 765.292 512.792 762.042 515.625 759.375C518.375 756.708 521.708 754.667 525.625 753.25C529.458 751.833 533.75 751.125 538.5 751.125C541.083 751.125 543.958 751.583 547.125 752.5C550.208 753.417 553.125 754.75 555.875 756.5C558.625 758.25 560.917 760.333 562.75 762.75C564.583 765.25 565.5 768 565.5 771C565.5 773.167 564.833 774.917 563.5 776.25C562.167 777.583 560.417 778.25 558.25 778.25C556.167 778.25 554.417 777.833 553 777C551.583 776.167 550.208 775.208 548.875 774.125C547.458 773.125 545.875 772.208 544.125 771.375C542.375 770.542 540.125 770.125 537.375 770.125C534.042 770.125 531.333 771.292 529.25 773.625C527.167 775.958 526.125 778.75 526.125 782C526.125 785.083 526.833 787.75 528.25 790C529.667 792.25 532 793.375 535.25 793.375C536.75 793.375 538.125 793.208 539.375 792.875C540.542 792.542 541.708 792.167 542.875 791.75C543.958 791.333 545.083 790.917 546.25 790.5C547.333 790.167 548.458 789.917 549.625 789.75C550.542 789.583 551.708 789.625 553.125 789.875C554.542 790.208 556 790.667 557.5 791.25C558.917 791.833 560.208 792.5 561.375 793.25C562.542 794.083 563.292 794.958 563.625 795.875C563.875 796.625 564.125 798.25 564.375 800.75C564.542 803.25 564.708 805.958 564.875 808.875C564.958 811.792 565.042 814.542 565.125 817.125C565.125 819.792 565.125 821.625 565.125 822.625C565.125 823.292 565.125 824.375 565.125 825.875C565.125 827.375 565.083 828.917 565 830.5C564.833 832.167 564.667 833.708 564.5 835.125C564.333 836.542 564.042 837.5 563.625 838C563.125 838.75 561.917 839.458 560 840.125C558 840.792 555.708 841.417 553.125 842C550.458 842.583 547.583 843.083 544.5 843.5C541.417 844 538.5 844.417 535.75 844.75C532.917 845.083 530.375 845.333 528.125 845.5C525.792 845.667 524.125 845.75 523.125 845.75C521.958 845.75 520.75 845.583 519.5 845.25C518.167 845 517 844.542 516 843.875C514.917 843.292 514.042 842.5 513.375 841.5C512.708 840.5 512.375 839.292 512.375 837.875C512.375 835.625 513.167 833.833 514.75 832.5C516.333 831.167 518.083 830.167 520 829.5C521.5 829 523.333 828.583 525.5 828.25C527.667 827.917 529.875 827.583 532.125 827.25C534.375 827 536.583 826.792 538.75 826.625C540.833 826.458 542.667 826.333 544.25 826.25L544 808.125C542.333 808.458 540.667 808.708 539 808.875C537.333 809.125 535.625 809.25 533.875 809.25C525.042 809.25 518.333 806.958 513.75 802.375C509.083 797.792 506.75 791.083 506.75 782.25Z" fill="black"/>
<path d="M534.753 720.875C542.727 720.875 549.191 714.629 549.191 706.925C549.182 704.403 548.47 701.933 547.137 699.792C547.817 699.891 548.504 699.942 549.191 699.946C557.163 699.946 563.625 693.702 563.625 686C563.625 678.296 557.165 672.05 549.191 672.048C547.264 672.043 545.354 672.415 543.569 673.141C541.013 674.187 538.809 675.941 537.217 678.197C537.073 678.404 536.947 678.624 536.814 678.838C538.216 667.806 539.296 655.103 543.413 651.125H526.091C530.208 655.103 531.288 667.806 532.69 678.838C532.555 678.624 532.431 678.404 532.287 678.197C530.694 675.941 528.491 674.187 525.935 673.141C524.15 672.415 522.24 672.043 520.312 672.048C512.339 672.048 505.874 678.294 505.874 685.998C505.874 693.704 512.341 699.948 520.312 699.948C520.999 699.948 521.685 699.889 522.362 699.79C521.032 701.932 520.323 704.401 520.315 706.923C520.312 714.629 526.777 720.875 534.753 720.873V720.875Z" fill="black"/>
</svg>
