<svg width="630" height="880" viewBox="0 0 630 880" fill="none" xmlns="http://www.w3.org/2000/svg">
<rect x="2.5" y="2.5" width="625" height="875" rx="17.5" fill="white" stroke="black" stroke-width="5"/>
<path d="M210.66 96C196.484 96 184.992 107.104 184.992 120.8C185.009 125.284 186.274 129.674 188.644 133.48C187.434 133.306 186.214 133.214 184.992 133.208C170.82 133.208 159.332 144.308 159.332 158C159.332 171.696 170.816 182.8 184.992 182.804C188.419 182.812 191.814 182.152 194.988 180.86C199.531 179 203.449 175.882 206.28 171.872C206.536 171.504 206.76 171.112 206.996 170.732C204.504 190.344 202.584 212.928 195.264 220H226.06C218.74 212.928 216.82 190.344 214.328 170.732C214.568 171.112 214.788 171.504 215.044 171.872C217.875 175.882 221.793 179 226.336 180.86C229.51 182.152 232.905 182.812 236.332 182.804C250.508 182.804 262 171.7 262 158.004C262 144.304 250.504 133.204 236.332 133.204C235.112 133.204 233.892 133.308 232.688 133.484C235.054 129.677 236.314 125.286 236.328 120.804C236.332 107.104 224.84 95.9999 210.66 96.0039V96Z" fill="black"/>
<path d="M416.66 96C402.484 96 390.992 107.104 390.992 120.8C391.009 125.284 392.274 129.674 394.644 133.48C393.434 133.306 392.214 133.214 390.992 133.208C376.82 133.208 365.332 144.308 365.332 158C365.332 171.696 376.816 182.8 390.992 182.804C394.419 182.812 397.814 182.152 400.988 180.86C405.531 179 409.449 175.882 412.28 171.872C412.536 171.504 412.76 171.112 412.996 170.732C410.504 190.344 408.584 212.928 401.264 220H432.06C424.74 212.928 422.82 190.344 420.328 170.732C420.568 171.112 420.788 171.504 421.044 171.872C423.875 175.882 427.793 179 432.336 180.86C435.51 182.152 438.905 182.812 442.332 182.804C456.508 182.804 468 171.7 468 158.004C468 144.304 456.504 133.204 442.332 133.204C441.112 133.204 439.892 133.308 438.688 133.484C441.054 129.677 442.314 125.286 442.328 120.804C442.332 107.104 430.84 95.9999 416.66 96.0039V96Z" fill="black"/>
<path d="M313.66 237C299.484 237 287.992 248.104 287.992 261.8C288.009 266.284 289.274 270.674 291.644 274.48C290.434 274.306 289.214 274.214 287.992 274.208C273.82 274.208 262.332 285.308 262.332 299C262.332 312.696 273.816 323.8 287.992 323.804C291.419 323.812 294.814 323.152 297.988 321.86C302.531 320 306.449 316.882 309.28 312.872C309.536 312.504 309.76 312.112 309.996 311.732C307.504 331.344 305.584 353.928 298.264 361H329.06C321.74 353.928 319.82 331.344 317.328 311.732C317.568 312.112 317.788 312.504 318.044 312.872C320.875 316.882 324.793 320 329.336 321.86C332.51 323.152 335.905 323.812 339.332 323.804C353.508 323.804 365 312.7 365 299.004C365 285.304 353.504 274.204 339.332 274.204C338.112 274.204 336.892 274.308 335.688 274.484C338.054 270.677 339.314 266.286 339.328 261.804C339.332 248.104 327.84 237 313.66 237.004V237Z" fill="black"/>
<path d="M210.66 378C196.484 378 184.992 389.104 184.992 402.8C185.009 407.284 186.274 411.674 188.644 415.48C187.434 415.306 186.214 415.214 184.992 415.208C170.82 415.208 159.332 426.308 159.332 440C159.332 453.696 170.816 464.8 184.992 464.804C188.419 464.812 191.814 464.152 194.988 462.86C199.531 461 203.449 457.882 206.28 453.872C206.536 453.504 206.76 453.112 206.996 452.732C204.504 472.344 202.584 494.928 195.264 502H226.06C218.74 494.928 216.82 472.344 214.328 452.732C214.568 453.112 214.788 453.504 215.044 453.872C217.875 457.882 221.793 461 226.336 462.86C229.51 464.152 232.905 464.812 236.332 464.804C250.508 464.804 262 453.7 262 440.004C262 426.304 250.504 415.204 236.332 415.204C235.112 415.204 233.892 415.308 232.688 415.484C235.054 411.677 236.314 407.286 236.328 402.804C236.332 389.104 224.84 378 210.66 378.004V378Z" fill="black"/>
<path d="M416.66 378C402.484 378 390.992 389.104 390.992 402.8C391.009 407.284 392.274 411.674 394.644 415.48C393.434 415.306 392.214 415.214 390.992 415.208C376.82 415.208 365.332 426.308 365.332 440C365.332 453.696 376.816 464.8 390.992 464.804C394.419 464.812 397.814 464.152 400.988 462.86C405.531 461 409.449 457.882 412.28 453.872C412.536 453.504 412.76 453.112 412.996 452.732C410.504 472.344 408.584 494.928 401.264 502H432.06C424.74 494.928 422.82 472.344 420.328 452.732C420.568 453.112 420.788 453.504 421.044 453.872C423.875 457.882 427.793 461 432.336 462.86C435.51 464.152 438.905 464.812 442.332 464.804C456.508 464.804 468 453.7 468 440.004C468 426.304 456.504 415.204 442.332 415.204C441.112 415.204 439.892 415.308 438.688 415.484C441.054 411.677 442.314 407.286 442.328 402.804C442.332 389.104 430.84 378 416.66 378.004V378Z" fill="black"/>
<path d="M316.34 643C330.516 643 342.008 631.896 342.008 618.2C341.991 613.716 340.726 609.326 338.356 605.52C339.566 605.694 340.786 605.786 342.008 605.792C356.18 605.792 367.668 594.692 367.668 581C367.668 567.304 356.184 556.2 342.008 556.196C338.581 556.188 335.186 556.848 332.012 558.14C327.469 560 323.551 563.118 320.72 567.128C320.464 567.496 320.24 567.888 320.004 568.268C322.496 548.656 324.416 526.072 331.736 519H300.94C308.26 526.072 310.18 548.656 312.672 568.268C312.432 567.888 312.212 567.496 311.956 567.128C309.125 563.118 305.207 560 300.664 558.14C297.49 556.848 294.095 556.188 290.668 556.196C276.492 556.196 265 567.3 265 580.996C265 594.696 276.496 605.796 290.668 605.796C291.888 605.796 293.108 605.692 294.312 605.516C291.946 609.323 290.686 613.714 290.672 618.196C290.668 631.896 302.16 643 316.34 642.996V643Z" fill="black"/>
<path d="M213.34 784C227.516 784 239.008 772.896 239.008 759.2C238.991 754.716 237.726 750.326 235.356 746.52C236.566 746.694 237.786 746.786 239.008 746.792C253.18 746.792 264.668 735.692 264.668 722C264.668 708.304 253.184 697.2 239.008 697.196C235.581 697.188 232.186 697.848 229.012 699.14C224.469 701 220.551 704.118 217.72 708.128C217.464 708.496 217.24 708.888 217.004 709.268C219.496 689.656 221.416 667.072 228.736 660H197.94C205.26 667.072 207.18 689.656 209.672 709.268C209.432 708.888 209.212 708.496 208.956 708.128C206.125 704.118 202.207 701 197.664 699.14C194.49 697.848 191.095 697.188 187.668 697.196C173.492 697.196 162 708.3 162 721.996C162 735.696 173.496 746.796 187.668 746.796C188.888 746.796 190.108 746.692 191.312 746.516C188.946 750.323 187.686 754.714 187.672 759.196C187.668 772.896 199.16 784 213.34 783.996V784Z" fill="black"/>
<path d="M419.34 784C433.516 784 445.008 772.896 445.008 759.2C444.991 754.716 443.726 750.326 441.356 746.52C442.566 746.694 443.786 746.786 445.008 746.792C459.18 746.792 470.668 735.692 470.668 722C470.668 708.304 459.184 697.2 445.008 697.196C441.581 697.188 438.186 697.848 435.012 699.14C430.469 701 426.551 704.118 423.72 708.128C423.464 708.496 423.24 708.888 423.004 709.268C425.496 689.656 427.416 667.072 434.736 660H403.94C411.26 667.072 413.18 689.656 415.672 709.268C415.432 708.888 415.212 708.496 414.956 708.128C412.125 704.118 408.207 701 403.664 699.14C400.49 697.848 397.095 697.188 393.668 697.196C379.492 697.196 368 708.3 368 721.996C368 735.696 379.496 746.796 393.668 746.796C394.888 746.796 396.108 746.692 397.312 746.516C394.946 750.323 393.686 754.714 393.672 759.196C393.668 772.896 405.16 784 419.34 783.996V784Z" fill="black"/>
<path d="M133.25 103.875C133.25 109.042 132 113.5 129.5 117.25C127 121 123.792 124.083 119.875 126.5C116.042 128.917 111.75 130.708 107 131.875C102.333 133.042 97.75 133.625 93.25 133.625C89.9167 133.625 86.375 133.125 82.625 132.125C78.875 131.208 75.4167 129.75 72.25 127.75C69.0833 125.833 66.4583 123.375 64.375 120.375C62.2917 117.375 61.25 113.875 61.25 109.875C61.25 106.625 61.7917 103.583 62.875 100.75C63.9583 97.8333 65.4167 95.1667 67.25 92.75C69.1667 90.25 71.3333 88.0417 73.75 86.125C76.25 84.2083 78.875 82.5417 81.625 81.125C79.5417 80.4583 77.5 79.5 75.5 78.25C73.5833 77 71.875 75.5417 70.375 73.875C68.875 72.2083 67.6667 70.3333 66.75 68.25C65.8333 66.1667 65.375 63.9583 65.375 61.625C65.375 57.0417 66.5833 53.0833 69 49.75C71.5 46.3333 74.625 43.5417 78.375 41.375C82.125 39.2083 86.1667 37.625 90.5 36.625C94.9167 35.5417 99.0417 35 102.875 35C105.792 35 108.75 35.3333 111.75 36C114.75 36.6667 117.458 37.75 119.875 39.25C122.375 40.75 124.417 42.7083 126 45.125C127.583 47.5417 128.375 50.4583 128.375 53.875C128.375 59.2083 126.833 63.9167 123.75 68C120.75 72 117 75.25 112.5 77.75C115.417 78.5 118.125 79.7083 120.625 81.375C123.208 83.0417 125.417 85.0417 127.25 87.375C129.167 89.625 130.625 92.1667 131.625 95C132.708 97.8333 133.25 100.792 133.25 103.875ZM109.375 56.75C109.375 55.75 109.042 54.9583 108.375 54.375C107.792 53.7917 107.042 53.3333 106.125 53C105.292 52.5833 104.375 52.3333 103.375 52.25C102.458 52.0833 101.667 52 101 52C100 52 98.7083 52.125 97.125 52.375C95.5417 52.625 94 53.0417 92.5 53.625C91 54.2083 89.7083 55 88.625 56C87.5417 56.9167 87 58.0417 87 59.375C87 60.7917 87.375 62.0417 88.125 63.125C88.875 64.125 89.7917 65 90.875 65.75C92.0417 66.5 93.25 67.0833 94.5 67.5C95.8333 67.8333 97.0833 68.0417 98.25 68.125C99.0833 67.625 100.125 67 101.375 66.25C102.625 65.4167 103.833 64.5 105 63.5C106.25 62.4167 107.292 61.3333 108.125 60.25C108.958 59.0833 109.375 57.9167 109.375 56.75ZM112.75 104.625C112.75 102.625 112.292 100.833 111.375 99.25C110.458 97.5833 109.25 96.1667 107.75 95C106.333 93.8333 104.708 92.875 102.875 92.125C101.125 91.2917 99.375 90.7083 97.625 90.375C95.9583 91.125 94.2083 92.0833 92.375 93.25C90.5417 94.3333 88.8333 95.625 87.25 97.125C85.75 98.625 84.5 100.292 83.5 102.125C82.5 103.875 82 105.792 82 107.875C82 109.375 82.5417 110.625 83.625 111.625C84.7083 112.625 86 113.417 87.5 114C89 114.583 90.5417 115 92.125 115.25C93.7917 115.5 95.1667 115.625 96.25 115.625C97.9167 115.625 99.7083 115.458 101.625 115.125C103.625 114.708 105.417 114.083 107 113.25C108.667 112.333 110.042 111.167 111.125 109.75C112.208 108.333 112.75 106.625 112.75 104.625Z" fill="black"/>
<path d="M95.247 159.125C87.273 159.125 80.8087 165.371 80.8087 173.075C80.8184 175.597 81.5297 178.067 82.863 180.208C82.1826 180.109 81.4962 180.058 80.8087 180.054C72.837 180.054 66.375 186.298 66.375 194C66.375 201.704 72.8348 207.95 80.8087 207.952C82.7363 207.957 84.6461 207.585 86.4315 206.859C88.987 205.813 91.1906 204.059 92.7832 201.803C92.9272 201.596 93.0532 201.376 93.186 201.162C91.7842 212.194 90.7042 224.897 86.5867 228.875H103.909C99.792 224.897 98.712 212.194 97.3103 201.162C97.4453 201.376 97.569 201.596 97.713 201.803C99.3056 204.059 101.509 205.813 104.065 206.859C105.85 207.585 107.76 207.957 109.688 207.952C117.661 207.952 124.126 201.706 124.126 194.002C124.126 186.296 117.659 180.052 109.688 180.052C109.001 180.052 108.315 180.111 107.638 180.21C108.968 178.068 109.677 175.599 109.685 173.077C109.688 165.371 103.223 159.125 95.247 159.127V159.125Z" fill="black"/>
<path d="M496.75 776.125C496.75 770.958 498 766.5 500.5 762.75C503 759 506.208 755.917 510.125 753.5C513.958 751.083 518.25 749.292 523 748.125C527.667 746.958 532.25 746.375 536.75 746.375C540.083 746.375 543.625 746.875 547.375 747.875C551.125 748.792 554.583 750.25 557.75 752.25C560.917 754.167 563.542 756.625 565.625 759.625C567.708 762.625 568.75 766.125 568.75 770.125C568.75 773.375 568.208 776.417 567.125 779.25C566.042 782.167 564.583 784.833 562.75 787.25C560.833 789.75 558.667 791.958 556.25 793.875C553.75 795.792 551.125 797.458 548.375 798.875C550.458 799.542 552.5 800.5 554.5 801.75C556.417 803 558.125 804.458 559.625 806.125C561.125 807.792 562.333 809.667 563.25 811.75C564.167 813.833 564.625 816.042 564.625 818.375C564.625 822.958 563.417 826.917 561 830.25C558.5 833.667 555.375 836.458 551.625 838.625C547.875 840.792 543.833 842.375 539.5 843.375C535.083 844.458 530.958 845 527.125 845C524.208 845 521.25 844.667 518.25 844C515.25 843.333 512.542 842.25 510.125 840.75C507.625 839.25 505.583 837.292 504 834.875C502.417 832.458 501.625 829.542 501.625 826.125C501.625 820.792 503.167 816.083 506.25 812C509.25 808 513 804.75 517.5 802.25C514.583 801.5 511.875 800.292 509.375 798.625C506.792 796.958 504.583 794.958 502.75 792.625C500.833 790.375 499.375 787.833 498.375 785C497.292 782.167 496.75 779.208 496.75 776.125ZM520.625 823.25C520.625 824.25 520.958 825.042 521.625 825.625C522.208 826.208 522.958 826.667 523.875 827C524.708 827.417 525.625 827.667 526.625 827.75C527.542 827.917 528.333 828 529 828C530 828 531.292 827.875 532.875 827.625C534.458 827.375 536 826.958 537.5 826.375C539 825.792 540.292 825 541.375 824C542.458 823.083 543 821.958 543 820.625C543 819.208 542.625 817.958 541.875 816.875C541.125 815.875 540.208 815 539.125 814.25C537.958 813.5 536.75 812.917 535.5 812.5C534.167 812.167 532.917 811.958 531.75 811.875C530.917 812.375 529.875 813 528.625 813.75C527.375 814.583 526.167 815.5 525 816.5C523.75 817.583 522.708 818.667 521.875 819.75C521.042 820.917 520.625 822.083 520.625 823.25ZM517.25 775.375C517.25 777.375 517.708 779.167 518.625 780.75C519.542 782.417 520.75 783.833 522.25 785C523.667 786.167 525.292 787.125 527.125 787.875C528.875 788.708 530.625 789.292 532.375 789.625C534.042 788.875 535.792 787.917 537.625 786.75C539.458 785.667 541.167 784.375 542.75 782.875C544.25 781.375 545.5 779.708 546.5 777.875C547.5 776.125 548 774.208 548 772.125C548 770.625 547.458 769.375 546.375 768.375C545.292 767.375 544 766.583 542.5 766C541 765.417 539.458 765 537.875 764.75C536.208 764.5 534.833 764.375 533.75 764.375C532.083 764.375 530.292 764.542 528.375 764.875C526.375 765.292 524.583 765.917 523 766.75C521.333 767.667 519.958 768.833 518.875 770.25C517.792 771.667 517.25 773.375 517.25 775.375Z" fill="black"/>
<path d="M534.753 720.875C542.727 720.875 549.191 714.629 549.191 706.925C549.182 704.403 548.47 701.933 547.137 699.792C547.817 699.891 548.504 699.942 549.191 699.946C557.163 699.946 563.625 693.702 563.625 686C563.625 678.296 557.165 672.05 549.191 672.048C547.264 672.043 545.354 672.415 543.569 673.141C541.013 674.187 538.809 675.941 537.217 678.197C537.073 678.404 536.947 678.624 536.814 678.838C538.216 667.806 539.296 655.103 543.413 651.125H526.091C530.208 655.103 531.288 667.806 532.69 678.838C532.555 678.624 532.431 678.404 532.287 678.197C530.694 675.941 528.491 674.187 525.935 673.141C524.15 672.415 522.24 672.043 520.312 672.048C512.339 672.048 505.874 678.294 505.874 685.998C505.874 693.704 512.341 699.948 520.312 699.948C520.999 699.948 521.685 699.889 522.362 699.79C521.032 701.932 520.323 704.401 520.315 706.923C520.312 714.629 526.777 720.875 534.753 720.873V720.875Z" fill="black"/>
</svg>
