<svg width="630" height="880" viewBox="0 0 630 880" fill="none" xmlns="http://www.w3.org/2000/svg">
<rect x="2.5" y="2.5" width="625" height="875" rx="17.5" fill="white" stroke="black" stroke-width="5"/>
<path d="M210.66 96C196.484 96 184.992 107.104 184.992 120.8C185.009 125.284 186.274 129.674 188.644 133.48C187.434 133.306 186.214 133.214 184.992 133.208C170.82 133.208 159.332 144.308 159.332 158C159.332 171.696 170.816 182.8 184.992 182.804C188.419 182.812 191.814 182.152 194.988 180.86C199.531 179 203.449 175.882 206.28 171.872C206.536 171.504 206.76 171.112 206.996 170.732C204.504 190.344 202.584 212.928 195.264 220H226.06C218.74 212.928 216.82 190.344 214.328 170.732C214.568 171.112 214.788 171.504 215.044 171.872C217.875 175.882 221.793 179 226.336 180.86C229.51 182.152 232.905 182.812 236.332 182.804C250.508 182.804 262 171.7 262 158.004C262 144.304 250.504 133.204 236.332 133.204C235.112 133.204 233.892 133.308 232.688 133.484C235.054 129.677 236.314 125.286 236.328 120.804C236.332 107.104 224.84 95.9999 210.66 96.0039V96Z" fill="black"/>
<path d="M416.66 96C402.484 96 390.992 107.104 390.992 120.8C391.009 125.284 392.274 129.674 394.644 133.48C393.434 133.306 392.214 133.214 390.992 133.208C376.82 133.208 365.332 144.308 365.332 158C365.332 171.696 376.816 182.8 390.992 182.804C394.419 182.812 397.814 182.152 400.988 180.86C405.531 179 409.449 175.882 412.28 171.872C412.536 171.504 412.76 171.112 412.996 170.732C410.504 190.344 408.584 212.928 401.264 220H432.06C424.74 212.928 422.82 190.344 420.328 170.732C420.568 171.112 420.788 171.504 421.044 171.872C423.875 175.882 427.793 179 432.336 180.86C435.51 182.152 438.905 182.812 442.332 182.804C456.508 182.804 468 171.7 468 158.004C468 144.304 456.504 133.204 442.332 133.204C441.112 133.204 439.892 133.308 438.688 133.484C441.054 129.677 442.314 125.286 442.328 120.804C442.332 107.104 430.84 95.9999 416.66 96.0039V96Z" fill="black"/>
<path d="M213.34 784C227.516 784 239.008 772.896 239.008 759.2C238.991 754.716 237.726 750.326 235.356 746.52C236.566 746.694 237.786 746.786 239.008 746.792C253.18 746.792 264.668 735.692 264.668 722C264.668 708.304 253.184 697.2 239.008 697.196C235.581 697.188 232.186 697.848 229.012 699.14C224.469 701 220.551 704.118 217.72 708.128C217.464 708.496 217.24 708.888 217.004 709.268C219.496 689.656 221.416 667.072 228.736 660H197.94C205.26 667.072 207.18 689.656 209.672 709.268C209.432 708.888 209.212 708.496 208.956 708.128C206.125 704.118 202.207 701 197.664 699.14C194.49 697.848 191.095 697.188 187.668 697.196C173.492 697.196 162 708.3 162 721.996C162 735.696 173.496 746.796 187.668 746.796C188.888 746.796 190.108 746.692 191.312 746.516C188.946 750.323 187.686 754.714 187.672 759.196C187.668 772.896 199.16 784 213.34 783.996V784Z" fill="black"/>
<path d="M419.34 784C433.516 784 445.008 772.896 445.008 759.2C444.991 754.716 443.726 750.326 441.356 746.52C442.566 746.694 443.786 746.786 445.008 746.792C459.18 746.792 470.668 735.692 470.668 722C470.668 708.304 459.184 697.2 445.008 697.196C441.581 697.188 438.186 697.848 435.012 699.14C430.469 701 426.551 704.118 423.72 708.128C423.464 708.496 423.24 708.888 423.004 709.268C425.496 689.656 427.416 667.072 434.736 660H403.94C411.26 667.072 413.18 689.656 415.672 709.268C415.432 708.888 415.212 708.496 414.956 708.128C412.125 704.118 408.207 701 403.664 699.14C400.49 697.848 397.095 697.188 393.668 697.196C379.492 697.196 368 708.3 368 721.996C368 735.696 379.496 746.796 393.668 746.796C394.888 746.796 396.108 746.692 397.312 746.516C394.946 750.323 393.686 754.714 393.672 759.196C393.668 772.896 405.16 784 419.34 783.996V784Z" fill="black"/>
<path d="M124.625 69.25C124.625 72.5833 124.042 76.4167 122.875 80.75C121.792 85.0833 120.25 89.5 118.25 94C116.333 98.5 114.042 102.917 111.375 107.25C108.792 111.583 105.917 115.458 102.75 118.875C99.6667 122.292 96.4167 125.042 93 127.125C89.6667 129.208 86.2917 130.25 82.875 130.25C81.0417 130.25 79.375 129.667 77.875 128.5C76.4583 127.417 75.75 125.875 75.75 123.875C75.75 122.958 75.875 122.208 76.125 121.625C76.4583 120.958 76.875 120.292 77.375 119.625C79.2083 117.292 81.0833 115.167 83 113.25C84.9167 111.25 86.7917 109.292 88.625 107.375C90.5417 105.375 92.375 103.292 94.125 101.125C95.875 98.9583 97.4583 96.4583 98.875 93.625C96.125 94.375 93.2917 94.75 90.375 94.75C86.2083 94.75 82.4167 94.125 79 92.875C75.6667 91.5417 72.8333 89.6667 70.5 87.25C68.1667 84.8333 66.375 81.9583 65.125 78.625C63.875 75.2083 63.25 71.4167 63.25 67.25C63.25 62.5833 63.9583 58.2917 65.375 54.375C66.875 50.4583 68.9583 47.0833 71.625 44.25C74.375 41.3333 77.625 39.0833 81.375 37.5C85.2083 35.8333 89.5 35 94.25 35C99.25 35 103.625 35.9167 107.375 37.75C111.208 39.5 114.375 41.9583 116.875 45.125C119.458 48.2083 121.375 51.8333 122.625 56C123.958 60.1667 124.625 64.5833 124.625 69.25ZM108 67C108 65 107.708 63.0417 107.125 61.125C106.625 59.2083 105.833 57.5 104.75 56C103.667 54.5 102.292 53.2917 100.625 52.375C99.0417 51.4583 97.125 51 94.875 51C90.375 51 86.7917 52.4167 84.125 55.25C81.5417 58 80.25 61.625 80.25 66.125C80.25 70.4583 81.4167 73.7917 83.75 76.125C86.1667 78.375 89.5 79.5 93.75 79.5C98.1667 79.5 101.625 78.5417 104.125 76.625C106.708 74.7083 108 71.5 108 67Z" fill="black"/>
<path d="M95.247 159.125C87.273 159.125 80.8087 165.371 80.8087 173.075C80.8184 175.597 81.5297 178.067 82.863 180.208C82.1826 180.109 81.4962 180.058 80.8087 180.054C72.837 180.054 66.375 186.298 66.375 194C66.375 201.704 72.8348 207.95 80.8087 207.952C82.7363 207.957 84.6461 207.585 86.4315 206.859C88.987 205.813 91.1906 204.059 92.7832 201.803C92.9272 201.596 93.0532 201.376 93.186 201.162C91.7842 212.194 90.7042 224.897 86.5867 228.875H103.909C99.792 224.897 98.712 212.194 97.3103 201.162C97.4453 201.376 97.569 201.596 97.713 201.803C99.3056 204.059 101.509 205.813 104.065 206.859C105.85 207.585 107.76 207.957 109.688 207.952C117.661 207.952 124.126 201.706 124.126 194.002C124.126 186.296 117.659 180.052 109.688 180.052C109.001 180.052 108.315 180.111 107.638 180.21C108.968 178.068 109.677 175.599 109.685 173.077C109.688 165.371 103.223 159.125 95.247 159.127V159.125Z" fill="black"/>
<path d="M505.375 810.75C505.375 807.417 505.958 803.583 507.125 799.25C508.208 794.917 509.75 790.5 511.75 786C513.667 781.5 515.958 777.083 518.625 772.75C521.208 768.417 524.083 764.542 527.25 761.125C530.333 757.708 533.583 754.958 537 752.875C540.333 750.792 543.708 749.75 547.125 749.75C548.958 749.75 550.625 750.333 552.125 751.5C553.542 752.583 554.25 754.125 554.25 756.125C554.25 757.042 554.125 757.792 553.875 758.375C553.542 759.042 553.125 759.708 552.625 760.375C550.792 762.708 548.917 764.833 547 766.75C545.083 768.75 543.208 770.708 541.375 772.625C539.458 774.625 537.625 776.708 535.875 778.875C534.125 781.042 532.542 783.542 531.125 786.375C533.875 785.625 536.708 785.25 539.625 785.25C543.792 785.25 547.583 785.875 551 787.125C554.333 788.458 557.167 790.333 559.5 792.75C561.833 795.167 563.625 798.042 564.875 801.375C566.125 804.792 566.75 808.583 566.75 812.75C566.75 817.417 566.042 821.708 564.625 825.625C563.125 829.542 561.042 832.917 558.375 835.75C555.625 838.667 552.375 840.917 548.625 842.5C544.792 844.167 540.5 845 535.75 845C530.75 845 526.375 844.083 522.625 842.25C518.792 840.5 515.625 838.042 513.125 834.875C510.542 831.792 508.625 828.167 507.375 824C506.042 819.833 505.375 815.417 505.375 810.75ZM522 813C522 815 522.292 816.958 522.875 818.875C523.375 820.792 524.167 822.5 525.25 824C526.333 825.5 527.708 826.708 529.375 827.625C530.958 828.542 532.875 829 535.125 829C539.625 829 543.208 827.583 545.875 824.75C548.458 822 549.75 818.375 549.75 813.875C549.75 809.542 548.583 806.208 546.25 803.875C543.833 801.625 540.5 800.5 536.25 800.5C531.833 800.5 528.375 801.458 525.875 803.375C523.292 805.292 522 808.5 522 813Z" fill="black"/>
<path d="M534.753 720.875C542.727 720.875 549.191 714.629 549.191 706.925C549.182 704.403 548.47 701.933 547.137 699.792C547.817 699.891 548.504 699.942 549.191 699.946C557.163 699.946 563.625 693.702 563.625 686C563.625 678.296 557.165 672.05 549.191 672.048C547.264 672.043 545.354 672.415 543.569 673.141C541.013 674.187 538.809 675.941 537.217 678.197C537.073 678.404 536.947 678.624 536.814 678.838C538.216 667.806 539.296 655.103 543.413 651.125H526.091C530.208 655.103 531.288 667.806 532.69 678.838C532.555 678.624 532.431 678.404 532.287 678.197C530.694 675.941 528.491 674.187 525.935 673.141C524.15 672.415 522.24 672.043 520.312 672.048C512.339 672.048 505.874 678.294 505.874 685.998C505.874 693.704 512.341 699.948 520.312 699.948C520.999 699.948 521.685 699.889 522.362 699.79C521.032 701.932 520.323 704.401 520.315 706.923C520.312 714.629 526.777 720.875 534.753 720.873V720.875Z" fill="black"/>
<path d="M419.34 590C433.516 590 445.008 578.896 445.008 565.2C444.991 560.716 443.726 556.326 441.356 552.52C442.566 552.694 443.786 552.786 445.008 552.792C459.18 552.792 470.668 541.692 470.668 528C470.668 514.304 459.184 503.2 445.008 503.196C441.581 503.188 438.186 503.848 435.012 505.14C430.469 507 426.551 510.118 423.72 514.128C423.464 514.496 423.24 514.888 423.004 515.268C425.496 495.656 427.416 473.072 434.736 466H403.94C411.26 473.072 413.18 495.656 415.672 515.268C415.432 514.888 415.212 514.496 414.956 514.128C412.125 510.118 408.207 507 403.664 505.14C400.49 503.848 397.095 503.188 393.668 503.196C379.492 503.196 368 514.3 368 527.996C368 541.696 379.496 552.796 393.668 552.796C394.888 552.796 396.108 552.692 397.312 552.516C394.946 556.323 393.686 560.714 393.672 565.196C393.668 578.896 405.16 590 419.34 589.996V590Z" fill="black"/>
<path d="M213.34 590C227.516 590 239.008 578.896 239.008 565.2C238.991 560.716 237.726 556.326 235.356 552.52C236.566 552.694 237.786 552.786 239.008 552.792C253.18 552.792 264.668 541.692 264.668 528C264.668 514.304 253.184 503.2 239.008 503.196C235.581 503.188 232.186 503.848 229.012 505.14C224.469 507 220.551 510.118 217.72 514.128C217.464 514.496 217.24 514.888 217.004 515.268C219.496 495.656 221.416 473.072 228.736 466H197.94C205.26 473.072 207.18 495.656 209.672 515.268C209.432 514.888 209.212 514.496 208.956 514.128C206.125 510.118 202.207 507 197.664 505.14C194.49 503.848 191.095 503.188 187.668 503.196C173.492 503.196 162 514.3 162 527.996C162 541.696 173.496 552.796 187.668 552.796C188.888 552.796 190.108 552.692 191.312 552.516C188.946 556.323 187.686 560.714 187.672 565.196C187.668 578.896 199.16 590 213.34 589.996V590Z" fill="black"/>
<path d="M313.66 378C299.484 378 287.992 389.104 287.992 402.8C288.009 407.284 289.274 411.674 291.644 415.48C290.434 415.306 289.214 415.214 287.992 415.208C273.82 415.208 262.332 426.308 262.332 440C262.332 453.696 273.816 464.8 287.992 464.804C291.419 464.812 294.814 464.152 297.988 462.86C302.531 461 306.449 457.882 309.28 453.872C309.536 453.504 309.76 453.112 309.996 452.732C307.504 472.344 305.584 494.928 298.264 502H329.06C321.74 494.928 319.82 472.344 317.328 452.732C317.568 453.112 317.788 453.504 318.044 453.872C320.875 457.882 324.793 461 329.336 462.86C332.51 464.152 335.905 464.812 339.332 464.804C353.508 464.804 365 453.7 365 440.004C365 426.304 353.504 415.204 339.332 415.204C338.112 415.204 336.892 415.308 335.688 415.484C338.054 411.677 339.314 407.286 339.328 402.804C339.332 389.104 327.84 378 313.66 378.004V378Z" fill="black"/>
<path d="M416.66 290C402.484 290 390.992 301.104 390.992 314.8C391.009 319.284 392.274 323.674 394.644 327.48C393.434 327.306 392.214 327.214 390.992 327.208C376.82 327.208 365.332 338.308 365.332 352C365.332 365.696 376.816 376.8 390.992 376.804C394.419 376.812 397.814 376.152 400.988 374.86C405.531 373 409.449 369.882 412.28 365.872C412.536 365.504 412.76 365.112 412.996 364.732C410.504 384.344 408.584 406.928 401.264 414H432.06C424.74 406.928 422.82 384.344 420.328 364.732C420.568 365.112 420.788 365.504 421.044 365.872C423.875 369.882 427.793 373 432.336 374.86C435.51 376.152 438.905 376.812 442.332 376.804C456.508 376.804 468 365.7 468 352.004C468 338.304 456.504 327.204 442.332 327.204C441.112 327.204 439.892 327.308 438.688 327.484C441.054 323.677 442.314 319.286 442.328 314.804C442.332 301.104 430.84 290 416.66 290.004V290Z" fill="black"/>
<path d="M210.66 290C196.484 290 184.992 301.104 184.992 314.8C185.009 319.284 186.274 323.674 188.644 327.48C187.434 327.306 186.214 327.214 184.992 327.208C170.82 327.208 159.332 338.308 159.332 352C159.332 365.696 170.816 376.8 184.992 376.804C188.419 376.812 191.814 376.152 194.988 374.86C199.531 373 203.449 369.882 206.28 365.872C206.536 365.504 206.76 365.112 206.996 364.732C204.504 384.344 202.584 406.928 195.264 414H226.06C218.74 406.928 216.82 384.344 214.328 364.732C214.568 365.112 214.788 365.504 215.044 365.872C217.875 369.882 221.793 373 226.336 374.86C229.51 376.152 232.905 376.812 236.332 376.804C250.508 376.804 262 365.7 262 352.004C262 338.304 250.504 327.204 236.332 327.204C235.112 327.204 233.892 327.308 232.688 327.484C235.054 323.677 236.314 319.286 236.328 314.804C236.332 301.104 224.84 290 210.66 290.004V290Z" fill="black"/>
</svg>
