<svg width="630" height="880" viewBox="0 0 630 880" fill="none" xmlns="http://www.w3.org/2000/svg">
<rect x="2.5" y="2.5" width="625" height="875" rx="17.5" fill="white" stroke="black" stroke-width="5"/>
<path d="M110.75 80.5V83.625C110.667 86.7083 110.5 90 110.25 93.5C110 97 109.583 100.458 109 103.875C108.417 107.292 107.542 110.583 106.375 113.75C105.208 116.833 103.625 119.583 101.625 122C99.625 124.417 97.1667 126.333 94.25 127.75C91.3333 129.167 87.7917 129.875 83.625 129.875C79.125 129.875 75.1667 128.917 71.75 127C68.4167 125.083 65.625 122.583 63.375 119.5C61.125 116.333 59.4583 112.833 58.375 109C57.2917 105.083 56.75 101.125 56.75 97.125C56.75 95.375 56.9583 93.4167 57.375 91.25C57.7083 89.0833 58.3333 87.0833 59.25 85.25C60.1667 83.3333 61.3333 81.75 62.75 80.5C64.25 79.1667 66.125 78.5 68.375 78.5C70.7917 78.5 72.5833 79.1667 73.75 80.5C75 81.8333 75.875 83.5 76.375 85.5C76.9583 87.4167 77.3333 89.5417 77.5 91.875C77.6667 94.125 77.875 96.25 78.125 98.25C78.375 100.167 78.7917 101.792 79.375 103.125C80.0417 104.458 81.125 105.125 82.625 105.125C84.375 105.125 85.75 104.375 86.75 102.875C87.75 101.375 88.4583 99.625 88.875 97.625C89.375 95.5417 89.6667 93.4583 89.75 91.375C89.9167 89.2917 90 87.6667 90 86.5C90 81.8333 89.5833 77.2917 88.75 72.875C88 68.375 87.0417 63.8333 85.875 59.25C85.2917 56.9167 84.6667 54.5417 84 52.125C83.3333 49.7083 83 47.2917 83 44.875C83 42.0417 83.75 39.75 85.25 38C86.75 36.1667 88.9583 35.25 91.875 35.25C94.0417 35.25 95.75 35.7083 97 36.625C98.25 37.4583 99.5 38.7083 100.75 40.375C102.667 42.9583 104.25 45.9167 105.5 49.25C106.833 52.5833 107.875 56.0417 108.625 59.625C109.375 63.2083 109.917 66.8333 110.25 70.5C110.583 74.0833 110.75 77.4167 110.75 80.5Z" fill="black"/>
<path d="M95.247 159.125C87.273 159.125 80.8087 165.371 80.8087 173.075C80.8184 175.597 81.5297 178.067 82.863 180.208C82.1826 180.109 81.4962 180.058 80.8087 180.054C72.837 180.054 66.375 186.298 66.375 194C66.375 201.704 72.8348 207.95 80.8087 207.952C82.7363 207.957 84.6461 207.585 86.4315 206.859C88.987 205.813 91.1906 204.059 92.7832 201.803C92.9272 201.596 93.0532 201.376 93.186 201.162C91.7842 212.194 90.7042 224.897 86.5867 228.875H103.909C99.792 224.897 98.712 212.194 97.3103 201.162C97.4453 201.376 97.569 201.596 97.713 201.803C99.3056 204.059 101.509 205.813 104.065 206.859C105.85 207.585 107.76 207.957 109.688 207.952C117.661 207.952 124.126 201.706 124.126 194.002C124.126 186.296 117.659 180.052 109.688 180.052C109.001 180.052 108.315 180.111 107.638 180.21C108.968 178.068 109.677 175.599 109.685 173.077C109.688 165.371 103.223 159.125 95.247 159.127V159.125Z" fill="black"/>
<path d="M519.25 799.5V796.375C519.333 793.292 519.5 790 519.75 786.5C520 783 520.417 779.542 521 776.125C521.583 772.708 522.458 769.417 523.625 766.25C524.792 763.167 526.375 760.417 528.375 758C530.375 755.583 532.833 753.667 535.75 752.25C538.667 750.833 542.208 750.125 546.375 750.125C550.875 750.125 554.833 751.083 558.25 753C561.583 754.917 564.375 757.417 566.625 760.5C568.875 763.667 570.542 767.167 571.625 771C572.708 774.917 573.25 778.875 573.25 782.875C573.25 784.625 573.042 786.583 572.625 788.75C572.292 790.917 571.667 792.917 570.75 794.75C569.833 796.667 568.667 798.25 567.25 799.5C565.75 800.833 563.875 801.5 561.625 801.5C559.208 801.5 557.417 800.833 556.25 799.5C555 798.167 554.125 796.5 553.625 794.5C553.042 792.583 552.667 790.458 552.5 788.125C552.333 785.875 552.125 783.75 551.875 781.75C551.625 779.833 551.208 778.208 550.625 776.875C549.958 775.542 548.875 774.875 547.375 774.875C545.625 774.875 544.25 775.625 543.25 777.125C542.25 778.625 541.542 780.375 541.125 782.375C540.625 784.458 540.333 786.542 540.25 788.625C540.083 790.708 540 792.333 540 793.5C540 798.167 540.417 802.708 541.25 807.125C542 811.625 542.958 816.167 544.125 820.75C544.708 823.083 545.333 825.458 546 827.875C546.667 830.292 547 832.708 547 835.125C547 837.958 546.25 840.25 544.75 842C543.25 843.833 541.042 844.75 538.125 844.75C535.958 844.75 534.25 844.292 533 843.375C531.75 842.542 530.5 841.292 529.25 839.625C527.333 837.042 525.75 834.083 524.5 830.75C523.167 827.417 522.125 823.958 521.375 820.375C520.625 816.792 520.083 813.167 519.75 809.5C519.417 805.917 519.25 802.583 519.25 799.5Z" fill="black"/>
<path d="M534.753 720.875C542.727 720.875 549.191 714.629 549.191 706.925C549.182 704.403 548.47 701.933 547.137 699.792C547.817 699.891 548.504 699.942 549.191 699.946C557.163 699.946 563.625 693.702 563.625 686C563.625 678.296 557.165 672.05 549.191 672.048C547.264 672.043 545.354 672.415 543.569 673.141C541.013 674.187 538.809 675.941 537.217 678.197C537.073 678.404 536.947 678.624 536.814 678.838C538.216 667.806 539.296 655.103 543.413 651.125H526.091C530.208 655.103 531.288 667.806 532.69 678.838C532.555 678.624 532.431 678.404 532.287 678.197C530.694 675.941 528.491 674.187 525.935 673.141C524.15 672.415 522.24 672.043 520.312 672.048C512.339 672.048 505.874 678.294 505.874 685.998C505.874 693.704 512.341 699.948 520.312 699.948C520.999 699.948 521.685 699.889 522.362 699.79C521.032 701.932 520.323 704.401 520.315 706.923C520.312 714.629 526.777 720.875 534.753 720.873V720.875Z" fill="black"/>
<path d="M366.988 207.69C344.436 210.722 342.267 224.584 314.943 224.584C287.62 224.584 285.017 210.722 262.898 207.69V207.257C268.536 199.028 278.078 194.263 278.078 194.263C286.319 189.498 298.029 185.599 314.943 185.599C353.977 185.599 366.988 207.69 366.988 207.69Z" fill="black"/>
<path d="M367.421 207.69C374.36 206.824 384.335 207.257 384.335 207.257C404.72 208.99 414.694 217.22 414.694 228.482C414.694 241.477 379.998 265.301 379.998 265.301C379.998 265.301 371.323 250.14 353.975 250.14C336.627 250.14 336.627 254.472 314.942 254.472C293.256 254.472 293.256 250.14 280.245 250.14C262.897 250.14 249.886 265.301 249.886 265.301C249.886 265.301 215.189 241.477 215.189 228.482C215.189 215.487 228.201 206.824 254.223 206.824C257.259 206.824 260.295 206.824 262.897 207.257C285.016 210.289 288.052 224.15 314.942 224.15C342.266 224.584 344.434 210.722 367.421 207.69Z" fill="black"/>
<path d="M291.362 435.769C296.567 437.153 300.904 435.769 303.506 433C305.675 436.692 309.145 438.999 314.783 438.999H189L193.337 420.538C197.674 402.077 215.024 397.461 232.373 397.461H242.783V397C244.084 397.461 244.952 397.461 246.253 397.923C245.82 402.077 246.253 406.231 250.157 410.846C254.06 415 258.398 415.923 262.301 415C262.735 419.154 264.47 423.307 269.241 426.077C274.011 428.846 278.349 428.385 281.819 427C283.121 430.692 285.723 433.923 291.362 435.769ZM360.326 426.077C365.097 423.307 366.832 418.692 367.265 415C371.169 415.461 375.506 415 379.41 410.846C383.313 406.692 383.747 402.077 383.313 397.923C384.181 397.923 385.048 397.923 385.916 397.462H397.627C414.976 397.462 432.326 402.077 436.663 420.539L441 439H315.217C320.855 439 324.325 436.231 326.494 433C329.53 435.769 333.434 437.154 339.073 435.769C344.278 434.385 346.88 430.692 348.615 427C351.217 428.385 355.554 428.846 360.326 426.077Z" fill="black"/>
<path d="M342.7 372.726C335.326 379.223 325.785 384.854 314.943 384.854C304.1 384.854 294.558 379.223 287.186 372.726L288.92 371.859C288.92 371.859 306.268 367.528 314.943 358.865C323.617 367.528 340.965 371.859 340.965 371.859L342.7 372.726Z" fill="#AE938D"/>
<path d="M383.035 398.283C383.469 402.181 383.035 406.513 379.132 410.411C375.228 414.31 370.891 414.743 366.988 414.31C366.554 418.208 364.819 422.107 360.049 424.706C355.278 427.305 350.941 426.872 347.471 425.139C346.17 428.604 343.568 432.069 337.93 433.369C332.725 434.668 328.822 433.369 325.352 430.77C323.183 433.802 319.714 436.401 314.076 436.401C308.437 436.401 304.968 433.802 302.799 430.77C299.763 433.369 295.86 434.668 290.221 433.369C285.017 432.069 282.415 428.604 281.114 425.139C277.644 426.871 273.307 427.305 268.536 424.706C263.765 422.107 262.03 418.208 261.597 414.31C257.693 414.743 253.356 414.31 249.453 410.411C245.55 406.513 245.116 402.181 245.55 398.283C244.249 398.283 243.381 397.85 242.08 397.416C239.478 396.55 236.875 394.817 234.707 391.352C231.237 385.287 232.972 380.089 235.574 375.758L269.837 355.833L270.705 355.4C273.307 359.731 278.945 366.662 285.884 372.726C293.258 379.223 302.799 384.854 313.642 384.854C324.484 384.854 334.026 379.223 341.399 372.726C348.338 366.661 353.542 359.298 356.578 354.966L357.88 355.833L391.709 375.758C394.311 379.656 396.48 385.287 392.576 391.352C390.408 395.25 387.372 396.983 384.336 397.849C384.77 397.849 383.903 398.283 383.035 398.283Z" fill="#ECF4F7"/>
<path d="M314.943 358.864C306.269 367.528 288.921 371.859 288.921 371.859L287.186 372.726C280.247 366.661 275.043 359.298 272.006 355.4C271.573 354.967 271.573 354.967 271.573 354.533C262.898 341.538 249.887 315.548 249.887 315.548C245.116 315.548 241.213 311.65 241.213 306.885V289.558C241.213 284.793 245.116 280.895 249.887 280.895V266.601V265.301C249.887 265.301 262.898 250.14 280.247 250.14C293.258 250.14 293.258 254.472 314.943 254.472C336.629 254.472 336.629 250.14 353.977 250.14C371.325 250.14 379.999 265.301 379.999 265.301V266.601V280.462C384.77 280.462 388.674 284.36 388.674 289.125V306.452C388.674 311.217 384.77 315.115 379.999 315.115C379.999 315.115 366.988 341.105 358.314 354.1L357.88 354.533C355.278 358.865 349.64 365.795 342.7 372.293L340.966 371.426C340.966 371.859 323.618 367.528 314.943 358.864Z" fill="#FFD0A1"/>
<path d="M440.719 439C439.851 439 438.984 438.134 438.55 437.268L434.213 419.941C430.743 406.513 418.599 400.016 397.348 400.016C396.047 400.016 395.179 399.149 395.179 397.85C395.179 396.55 396.047 395.684 397.348 395.684C420.768 395.684 434.647 403.481 438.55 419.075L442.887 436.401C443.321 437.701 442.454 438.567 441.153 439H440.719ZM189.168 439H188.735C187.434 438.567 187 437.701 187 436.401L191.337 419.075C195.24 403.481 209.119 395.684 232.539 395.684C233.84 395.684 234.708 396.55 234.708 397.85C234.708 399.149 233.84 400.016 232.539 400.016C210.854 400.016 199.144 406.513 195.674 419.941L191.337 437.268C190.903 438.134 190.036 439 189.168 439ZM314.943 439C310.172 439 306.269 437.268 303.233 434.235C299.33 436.401 295.427 437.267 290.656 435.968C285.885 434.668 282.849 432.069 280.68 428.171C276.343 429.47 272.44 429.037 268.103 426.438C263.766 423.839 261.597 420.807 260.296 416.475C255.959 416.475 252.056 415.176 248.586 411.71C245.116 408.245 243.815 404.346 243.815 400.015C239.478 399.148 236.008 396.549 233.839 392.218C229.502 384.421 232.105 378.356 234.707 374.458C234.707 374.025 235.14 374.025 235.574 373.591L257.26 361.029C258.128 360.596 259.429 360.596 260.296 361.896C260.729 362.762 260.729 364.062 259.428 364.928L238.177 377.056C235.141 381.821 235.141 385.72 237.309 390.051C239.044 393.517 241.646 395.249 245.549 395.682L261.596 383.554C262.464 382.687 263.765 383.121 264.632 383.987C265.5 384.853 265.066 386.153 264.199 387.019L248.152 399.147C247.718 402.613 249.019 405.645 251.621 408.244C254.224 410.843 257.259 412.142 260.729 411.709L272.873 395.682C273.741 394.816 275.042 394.383 275.909 395.249C276.776 396.116 277.21 397.415 276.342 398.281L264.199 414.308C264.632 417.774 266.367 420.373 269.837 422.538C273.306 424.271 276.342 424.704 279.812 423.405L287.619 404.779C288.052 403.479 289.353 403.046 290.655 403.479C291.956 403.912 292.389 405.212 291.956 406.511L284.149 425.137C285.45 428.603 288.052 430.335 291.522 431.635C294.992 432.501 298.461 432.068 301.064 429.902L303.666 409.977C303.666 408.677 304.967 407.811 306.268 408.244C307.569 408.244 308.437 409.544 308.003 410.843L305.4 430.769C307.569 433.801 310.605 435.1 314.508 435.1C318.412 435.1 321.014 433.801 323.616 430.769L321.014 410.843C321.014 409.544 321.881 408.677 322.749 408.244C324.05 408.244 324.917 409.111 325.351 409.977L327.953 429.902C330.989 432.068 334.025 432.501 337.494 431.635C340.964 430.768 343.566 428.603 345.301 425.137L337.494 406.511C337.061 405.212 337.494 404.345 338.796 403.479C340.097 403.046 340.964 403.479 341.831 404.779L349.638 423.405C353.108 424.704 356.144 424.271 359.613 422.538C363.083 420.806 364.818 418.207 365.251 414.308L353.108 398.281C352.24 397.415 352.674 396.115 353.541 395.249C354.409 394.383 355.71 394.816 356.577 395.682L368.721 411.709C372.191 412.142 375.226 410.843 377.829 408.244C380.431 405.645 381.732 402.613 381.298 399.147L365.251 387.019C364.384 386.152 363.95 384.853 364.818 383.987C365.686 383.12 366.987 382.687 367.854 383.554L383.901 395.682C387.371 395.249 389.973 393.516 392.141 390.051C394.743 385.72 394.31 381.821 391.273 377.056L370.024 364.929C369.157 364.496 368.723 363.196 369.157 361.897C369.59 361.03 370.892 360.597 372.193 361.03L393.878 373.592C394.312 373.592 394.312 374.025 394.746 374.459C398.649 380.523 399.083 386.587 396.047 392.219C393.445 396.55 390.409 398.716 386.071 400.016C386.071 404.347 384.77 408.246 381.301 411.711C377.831 415.177 373.927 416.476 369.59 416.476C368.723 420.808 366.121 424.273 361.784 426.439C357.447 429.038 353.543 429.471 349.206 428.172C347.037 432.07 344.002 434.669 339.231 435.969C334.46 437.268 330.556 436.835 326.653 434.236C323.618 437.268 319.714 439 314.943 439ZM314.943 387.02C293.692 387.02 277.644 367.528 269.838 355.832C262.031 344.137 251.188 322.912 248.586 317.714C243.382 316.848 239.045 312.516 239.045 306.885V289.558C239.045 283.494 243.816 278.729 249.887 278.729C251.188 278.729 252.056 279.596 252.056 280.895C252.056 282.195 251.188 283.061 249.887 283.061C246.418 283.061 243.382 286.093 243.382 289.559V306.885C243.382 310.351 246.418 313.383 249.887 313.383C250.755 313.383 251.622 313.816 251.622 314.682C251.622 315.115 264.633 340.672 273.307 353.234C276.777 357.999 281.548 364.496 287.62 370.127C288.053 370.127 288.053 369.694 288.487 369.694C288.487 369.694 305.402 365.363 313.642 357.132C314.51 356.266 315.811 356.266 316.678 357.132C324.918 365.362 341.399 369.694 341.833 369.694C342.266 369.694 342.266 370.127 342.7 370.127C348.772 364.496 353.543 357.999 357.013 353.234C365.687 340.672 378.264 314.682 378.698 314.682C379.132 313.816 379.999 313.383 380.433 313.383C383.903 313.383 386.939 310.351 386.939 306.885V289.558C386.939 286.093 383.903 283.061 380.433 283.061C379.132 283.061 378.264 282.194 378.264 280.895C378.264 279.595 379.132 278.729 380.433 278.729C386.505 278.729 391.275 283.494 391.275 289.558V306.884C391.275 312.515 386.939 316.847 381.734 317.713C379.132 322.911 368.289 344.136 360.483 355.831C352.242 367.528 336.195 387.02 314.943 387.02ZM291.523 373.592C298.462 378.79 306.269 382.689 314.943 382.689C323.618 382.689 331.858 378.79 338.364 373.592C334.027 372.293 322.317 368.394 314.943 361.897C307.57 368.394 295.86 372.293 291.523 373.592ZM319.28 348.036H310.606C309.305 348.036 308.437 347.169 308.437 345.87C308.437 344.57 309.305 343.704 310.606 343.704H319.28C320.581 343.704 321.449 344.57 321.449 345.87C321.449 347.169 320.581 348.036 319.28 348.036ZM345.303 339.372C344.435 339.372 324.918 339.372 314.943 327.677C304.968 338.939 285.451 339.372 284.584 339.372C283.283 339.372 282.415 338.506 282.415 337.206C282.415 335.907 283.283 335.04 284.584 335.04C284.584 335.04 304.534 335.04 312.775 323.345V311.216C312.775 309.917 313.643 309.05 314.944 309.05C316.245 309.05 317.113 309.917 317.113 311.216V323.345C325.353 334.607 345.304 335.04 345.304 335.04C346.605 335.04 347.472 335.907 347.472 337.206C347.471 338.506 346.604 339.372 345.303 339.372ZM340.966 296.056C339.665 296.056 338.797 295.189 338.797 293.89V291.724H332.291C330.99 291.724 330.123 290.857 330.123 289.558C330.123 288.258 330.99 287.392 332.291 287.392H349.64C350.941 287.392 351.808 288.258 351.808 289.558C351.808 290.857 350.941 291.724 349.64 291.724H343.134V293.89C343.134 295.189 342.267 296.056 340.966 296.056ZM288.921 296.056C287.62 296.056 286.752 295.189 286.752 293.89V291.724H280.247C278.946 291.724 278.078 290.857 278.078 289.558C278.078 288.258 278.946 287.392 280.247 287.392H297.595C298.896 287.392 299.763 288.258 299.763 289.558C299.763 290.857 298.896 291.724 297.595 291.724H291.089V293.89C291.09 295.189 290.222 296.056 288.921 296.056ZM249.887 267.9C249.454 267.9 249.02 267.9 248.586 267.467C245.116 264.868 213.022 242.777 213.022 228.915C213.022 213.754 228.202 205.091 254.225 205.091C269.838 205.091 278.078 209.856 285.452 214.188C292.825 218.519 300.197 222.418 314.944 222.418C329.69 222.418 336.629 218.519 344.002 214.188C349.207 211.156 354.845 208.123 363.085 206.391C358.314 200.76 344.002 187.765 314.944 187.765C301.065 187.765 288.921 190.797 279.38 195.995C278.512 196.428 277.211 196.428 276.344 195.128C275.911 194.262 275.911 192.962 277.212 192.096C287.62 186.032 300.631 183 314.943 183C354.845 183 368.289 205.524 368.723 206.391C369.156 206.824 369.156 207.69 368.723 208.557C368.289 209.423 367.855 209.856 366.988 209.856C357.447 211.156 351.808 214.188 345.737 217.653C338.364 221.985 330.123 226.75 314.51 226.75C298.896 226.75 290.656 221.985 283.283 217.653C275.91 213.322 268.537 209.423 253.791 209.423C230.371 209.423 216.926 216.354 216.926 228.916C216.926 238.012 239.045 255.772 249.02 262.703C252.924 258.804 264.634 248.408 279.814 248.408C285.886 248.408 289.355 249.275 292.825 250.141C297.596 251.44 302.366 252.74 314.51 252.74C325.787 252.74 330.991 251.44 336.196 250.574C340.967 249.707 345.304 248.408 353.544 248.408C368.29 248.408 376.964 258.371 380 262.702C390.409 255.338 412.094 238.012 412.094 228.915C412.094 218.086 402.119 211.155 383.47 209.856C382.169 209.856 381.301 208.556 381.301 207.69C381.301 206.39 382.602 205.524 383.47 205.524C404.288 207.256 415.998 215.92 415.998 228.915C415.998 242.776 383.903 264.868 380.434 267.466C380 267.899 379.133 267.899 378.699 267.899C378.266 267.899 377.398 267.466 377.398 267.033C377.398 267.033 369.158 253.172 353.11 253.172C345.304 253.172 340.967 254.038 336.629 254.904C331.425 256.204 325.787 257.503 314.077 257.503C301.499 257.503 296.295 256.204 291.524 254.904C288.054 254.038 285.019 253.172 279.381 253.172C263.334 253.172 250.756 267.466 250.756 267.466C251.188 267.467 250.321 267.9 249.887 267.9Z" fill="#51565F"/>
<path d="M263.012 672.31C285.564 669.278 287.733 655.416 315.057 655.416C342.38 655.416 344.983 669.278 367.102 672.31V672.743C361.464 680.972 351.922 685.737 351.922 685.737C343.681 690.502 331.971 694.401 315.057 694.401C276.023 694.401 263.012 672.31 263.012 672.31Z" fill="black"/>
<path d="M262.579 672.309C255.64 673.176 245.665 672.742 245.665 672.742C225.28 671.01 215.306 662.779 215.306 651.517C215.306 638.522 250.002 614.699 250.002 614.699C250.002 614.699 258.677 629.86 276.025 629.86C293.373 629.86 293.373 625.528 315.058 625.528C336.744 625.528 336.744 629.86 349.755 629.86C367.103 629.86 380.114 614.699 380.114 614.699C380.114 614.699 414.811 638.522 414.811 651.517C414.811 664.512 401.799 673.176 375.777 673.176C372.741 673.176 369.705 673.176 367.103 672.743C344.984 669.711 341.948 655.849 315.058 655.849C287.734 655.416 285.566 669.277 262.579 672.309Z" fill="black"/>
<path d="M338.638 444.231C333.433 442.847 329.096 444.231 326.494 447C324.325 443.308 320.855 441.001 315.217 441.001H441L436.663 459.462C432.326 477.923 414.976 482.539 397.627 482.539H387.217V483C385.916 482.539 385.048 482.539 383.747 482.077C384.18 477.923 383.747 473.769 379.843 469.154C375.94 465 371.602 464.077 367.699 465C367.265 460.846 365.53 456.693 360.759 453.923C355.989 451.154 351.651 451.615 348.181 453C346.879 449.308 344.277 446.077 338.638 444.231ZM269.674 453.923C264.903 456.693 263.168 461.308 262.735 465C258.831 464.539 254.494 465 250.59 469.154C246.687 473.308 246.253 477.923 246.687 482.077C245.819 482.077 244.952 482.077 244.084 482.538H232.373C215.024 482.538 197.674 477.923 193.337 459.461L189 441H314.783C309.145 441 305.675 443.769 303.506 447C300.47 444.231 296.566 442.846 290.927 444.231C285.722 445.615 283.12 449.308 281.385 453C278.783 451.615 274.446 451.154 269.674 453.923Z" fill="black"/>
<path d="M287.3 507.274C294.674 500.777 304.215 495.146 315.057 495.146C325.9 495.146 335.442 500.777 342.814 507.274L341.08 508.141C341.08 508.141 323.732 512.472 315.057 521.135C306.383 512.472 289.035 508.141 289.035 508.141L287.3 507.274Z" fill="#AE938D"/>
<path d="M246.965 481.717C246.531 477.819 246.965 473.487 250.868 469.589C254.772 465.69 259.109 465.257 263.012 465.69C263.446 461.792 265.181 457.893 269.951 455.294C274.722 452.695 279.059 453.128 282.529 454.861C283.83 451.396 286.432 447.931 292.07 446.631C297.275 445.332 301.178 446.631 304.648 449.23C306.817 446.198 310.286 443.599 315.924 443.599C321.563 443.599 325.032 446.198 327.201 449.23C330.237 446.631 334.14 445.332 339.779 446.631C344.983 447.931 347.585 451.396 348.886 454.861C352.356 453.129 356.693 452.695 361.464 455.294C366.235 457.893 367.97 461.792 368.403 465.69C372.307 465.257 376.644 465.69 380.547 469.589C384.45 473.487 384.884 477.819 384.45 481.717C385.751 481.717 386.619 482.15 387.92 482.584C390.522 483.45 393.125 485.183 395.293 488.648C398.763 494.713 397.028 499.911 394.426 504.242L360.163 524.167L359.295 524.6C356.693 520.269 351.055 513.338 344.116 507.274C336.742 500.777 327.201 495.146 316.358 495.146C305.516 495.146 295.974 500.777 288.601 507.274C281.662 513.339 276.458 520.702 273.422 525.034L272.12 524.167L238.291 504.242C235.689 500.344 233.52 494.713 237.424 488.648C239.592 484.75 242.628 483.017 245.664 482.151C245.23 482.151 246.097 481.717 246.965 481.717Z" fill="#ECF4F7"/>
<path d="M315.057 521.136C323.731 512.472 341.079 508.141 341.079 508.141L342.814 507.274C349.753 513.339 354.957 520.702 357.994 524.6C358.427 525.033 358.427 525.033 358.427 525.467C367.102 538.462 380.113 564.452 380.113 564.452C384.884 564.452 388.787 568.35 388.787 573.115V590.442C388.787 595.207 384.884 599.105 380.113 599.105V613.399V614.699C380.113 614.699 367.102 629.86 349.753 629.86C336.742 629.86 336.742 625.528 315.057 625.528C293.371 625.528 293.371 629.86 276.023 629.86C258.675 629.86 250.001 614.699 250.001 614.699V613.399V599.538C245.23 599.538 241.326 595.64 241.326 590.875V573.548C241.326 568.783 245.23 564.885 250.001 564.885C250.001 564.885 263.012 538.895 271.686 525.9L272.12 525.467C274.722 521.135 280.36 514.205 287.3 507.707L289.034 508.574C289.034 508.141 306.382 512.472 315.057 521.136Z" fill="#FFD0A1"/>
<path d="M189.281 441C190.149 441 191.016 441.866 191.45 442.732L195.787 460.059C199.257 473.487 211.401 479.984 232.652 479.984C233.953 479.984 234.821 480.851 234.821 482.15C234.821 483.45 233.953 484.316 232.652 484.316C209.232 484.316 195.353 476.519 191.45 460.925L187.113 443.599C186.679 442.299 187.546 441.433 188.847 441H189.281ZM440.832 441H441.265C442.566 441.433 443 442.299 443 443.599L438.663 460.925C434.76 476.519 420.881 484.316 397.461 484.316C396.16 484.316 395.292 483.45 395.292 482.15C395.292 480.851 396.16 479.984 397.461 479.984C419.146 479.984 430.856 473.487 434.326 460.059L438.663 442.732C439.097 441.866 439.964 441 440.832 441ZM315.057 441C319.828 441 323.731 442.732 326.767 445.765C330.67 443.599 334.573 442.733 339.344 444.032C344.115 445.332 347.151 447.931 349.32 451.829C353.657 450.53 357.56 450.963 361.897 453.562C366.234 456.161 368.403 459.193 369.704 463.525C374.041 463.525 377.944 464.824 381.414 468.29C384.884 471.755 386.185 475.654 386.185 479.985C390.522 480.852 393.992 483.451 396.161 487.782C400.498 495.579 397.895 501.644 395.293 505.542C395.293 505.975 394.86 505.975 394.426 506.409L372.74 518.971C371.872 519.404 370.571 519.404 369.704 518.104C369.271 517.238 369.271 515.938 370.572 515.072L391.823 502.944C394.859 498.179 394.859 494.28 392.691 489.949C390.956 486.483 388.354 484.751 384.451 484.318L368.404 496.446C367.536 497.313 366.235 496.879 365.368 496.013C364.5 495.147 364.934 493.847 365.801 492.981L381.848 480.853C382.282 477.387 380.981 474.355 378.379 471.756C375.776 469.157 372.741 467.858 369.271 468.291L357.127 484.318C356.259 485.184 354.958 485.617 354.091 484.751C353.224 483.884 352.79 482.585 353.658 481.719L365.801 465.692C365.368 462.226 363.633 459.627 360.163 457.462C356.694 455.729 353.658 455.296 350.188 456.595L342.381 475.221C341.948 476.521 340.647 476.954 339.345 476.521C338.044 476.088 337.611 474.788 338.044 473.489L345.851 454.863C344.55 451.397 341.948 449.665 338.478 448.365C335.008 447.499 331.539 447.932 328.936 450.098L326.334 470.023C326.334 471.323 325.033 472.189 323.732 471.756C322.431 471.756 321.563 470.456 321.997 469.157L324.6 449.231C322.431 446.199 319.395 444.9 315.492 444.9C311.588 444.9 308.986 446.199 306.384 449.231L308.986 469.157C308.986 470.456 308.119 471.323 307.251 471.756C305.95 471.756 305.083 470.889 304.649 470.023L302.047 450.098C299.011 447.932 295.975 447.499 292.506 448.365C289.036 449.232 286.434 451.397 284.699 454.863L292.506 473.489C292.939 474.788 292.506 475.655 291.204 476.521C289.903 476.954 289.036 476.521 288.169 475.221L280.362 456.595C276.892 455.296 273.856 455.729 270.387 457.462C266.917 459.194 265.182 461.793 264.749 465.692L276.892 481.719C277.76 482.585 277.326 483.885 276.459 484.751C275.591 485.617 274.29 485.184 273.423 484.318L261.279 468.291C257.809 467.858 254.774 469.157 252.171 471.756C249.569 474.355 248.268 477.387 248.702 480.853L264.749 492.981C265.616 493.848 266.05 495.147 265.182 496.013C264.314 496.88 263.013 497.313 262.146 496.446L246.099 484.318C242.629 484.751 240.027 486.484 237.859 489.949C235.257 494.28 235.69 498.179 238.727 502.944L259.976 515.071C260.843 515.504 261.277 516.804 260.843 518.103C260.41 518.97 259.108 519.403 257.807 518.97L236.122 506.408C235.688 506.408 235.688 505.975 235.254 505.541C231.351 499.477 230.917 493.413 233.953 487.781C236.555 483.45 239.591 481.284 243.929 479.984C243.929 475.653 245.23 471.754 248.699 468.289C252.169 464.823 256.073 463.524 260.41 463.524C261.277 459.192 263.879 455.727 268.216 453.561C272.553 450.962 276.457 450.529 280.794 451.828C282.963 447.93 285.998 445.331 290.769 444.031C295.54 442.732 299.444 443.165 303.347 445.764C306.382 442.732 310.286 441 315.057 441ZM315.057 492.98C336.308 492.98 352.356 512.472 360.162 524.168C367.969 535.863 378.812 557.088 381.414 562.286C386.618 563.152 390.955 567.484 390.955 573.115V590.442C390.955 596.506 386.184 601.271 380.113 601.271C378.812 601.271 377.944 600.404 377.944 599.105C377.944 597.805 378.812 596.939 380.113 596.939C383.582 596.939 386.618 593.907 386.618 590.441V573.115C386.618 569.649 383.582 566.617 380.113 566.617C379.245 566.617 378.378 566.184 378.378 565.318C378.378 564.885 365.367 539.328 356.693 526.766C353.223 522.001 348.452 515.504 342.38 509.873C341.947 509.873 341.947 510.306 341.513 510.306C341.513 510.306 324.598 514.637 316.358 522.868C315.49 523.734 314.189 523.734 313.322 522.868C305.082 514.638 288.601 510.306 288.167 510.306C287.734 510.306 287.734 509.873 287.3 509.873C281.228 515.504 276.457 522.001 272.987 526.766C264.313 539.328 251.736 565.318 251.302 565.318C250.868 566.184 250.001 566.617 249.567 566.617C246.097 566.617 243.061 569.649 243.061 573.115V590.442C243.061 593.907 246.097 596.939 249.567 596.939C250.868 596.939 251.736 597.806 251.736 599.105C251.736 600.405 250.868 601.271 249.567 601.271C243.495 601.271 238.725 596.506 238.725 590.442V573.116C238.725 567.485 243.061 563.153 248.266 562.287C250.868 557.089 261.711 535.864 269.517 524.169C277.758 512.472 293.805 492.98 315.057 492.98ZM338.477 506.408C331.538 501.21 323.731 497.311 315.057 497.311C306.382 497.311 298.142 501.21 291.636 506.408C295.973 507.707 307.683 511.606 315.057 518.103C322.43 511.606 334.14 507.707 338.477 506.408ZM310.72 531.964H319.394C320.695 531.964 321.563 532.831 321.563 534.13C321.563 535.43 320.695 536.296 319.394 536.296H310.72C309.419 536.296 308.551 535.43 308.551 534.13C308.551 532.831 309.419 531.964 310.72 531.964ZM284.697 540.628C285.565 540.628 305.082 540.628 315.057 552.323C325.032 541.061 344.549 540.628 345.416 540.628C346.717 540.628 347.585 541.494 347.585 542.794C347.585 544.093 346.717 544.96 345.416 544.96C345.416 544.96 325.466 544.96 317.225 556.655V568.784C317.225 570.083 316.357 570.95 315.056 570.95C313.755 570.95 312.887 570.083 312.887 568.784V556.655C304.647 545.393 284.696 544.96 284.696 544.96C283.395 544.96 282.528 544.093 282.528 542.794C282.529 541.494 283.396 540.628 284.697 540.628ZM289.034 583.944C290.335 583.944 291.203 584.811 291.203 586.11V588.276H297.709C299.01 588.276 299.877 589.143 299.877 590.442C299.877 591.742 299.01 592.608 297.709 592.608H280.36C279.059 592.608 278.192 591.742 278.192 590.442C278.192 589.143 279.059 588.276 280.36 588.276H286.866V586.11C286.866 584.811 287.733 583.944 289.034 583.944ZM341.079 583.944C342.38 583.944 343.248 584.811 343.248 586.11V588.276H349.753C351.054 588.276 351.922 589.143 351.922 590.442C351.922 591.742 351.054 592.608 349.753 592.608H332.405C331.104 592.608 330.237 591.742 330.237 590.442C330.237 589.143 331.104 588.276 332.405 588.276H338.911V586.11C338.91 584.811 339.778 583.944 341.079 583.944ZM380.113 612.1C380.546 612.1 380.98 612.1 381.414 612.533C384.884 615.132 416.978 637.223 416.978 651.085C416.978 666.246 401.798 674.909 375.775 674.909C360.162 674.909 351.922 670.144 344.548 665.812C337.175 661.481 329.803 657.582 315.056 657.582C300.31 657.582 293.371 661.481 285.998 665.812C280.793 668.844 275.155 671.877 266.915 673.609C271.686 679.24 285.998 692.235 315.056 692.235C328.935 692.235 341.079 689.203 350.62 684.005C351.488 683.572 352.789 683.572 353.656 684.872C354.089 685.738 354.089 687.038 352.788 687.904C342.38 693.968 329.369 697 315.057 697C275.155 697 261.711 674.476 261.277 673.609C260.844 673.176 260.844 672.31 261.277 671.443C261.711 670.577 262.145 670.144 263.012 670.144C272.553 668.844 278.192 665.812 284.263 662.347C291.636 658.015 299.877 653.25 315.49 653.25C331.104 653.25 339.344 658.015 346.717 662.347C354.09 666.678 361.463 670.577 376.209 670.577C399.629 670.577 413.074 663.646 413.074 651.084C413.074 641.988 390.955 624.228 380.98 617.297C377.076 621.196 365.366 631.592 350.186 631.592C344.114 631.592 340.645 630.725 337.175 629.859C332.404 628.56 327.634 627.26 315.49 627.26C304.213 627.26 299.009 628.56 293.804 629.426C289.033 630.293 284.696 631.592 276.456 631.592C261.71 631.592 253.036 621.629 250 617.298C239.591 624.662 217.906 641.988 217.906 651.085C217.906 661.914 227.881 668.845 246.53 670.144C247.831 670.144 248.699 671.444 248.699 672.31C248.699 673.61 247.398 674.476 246.53 674.476C225.712 672.744 214.002 664.08 214.002 651.085C214.002 637.224 246.097 615.132 249.566 612.534C250 612.101 250.867 612.101 251.301 612.101C251.734 612.101 252.602 612.534 252.602 612.967C252.602 612.967 260.842 626.828 276.89 626.828C284.696 626.828 289.033 625.962 293.371 625.096C298.575 623.796 304.213 622.497 315.923 622.497C328.501 622.497 333.705 623.796 338.476 625.096C341.946 625.962 344.981 626.828 350.619 626.828C366.666 626.828 379.244 612.534 379.244 612.534C378.812 612.533 379.679 612.1 380.113 612.1Z" fill="#51565F"/>
<line x1="132" y1="440" x2="498" y2="440" stroke="black" stroke-width="2"/>
</svg>
