<svg width="630" height="880" viewBox="0 0 630 880" fill="none" xmlns="http://www.w3.org/2000/svg">
<rect x="2.5" y="2.5" width="625" height="875" rx="17.5" fill="white" stroke="black" stroke-width="5"/>
<path d="M95.75 106.75C94.9167 105.333 94.2083 103.875 93.625 102.375C93.0417 100.875 92.6667 99.4583 92.5 98.125C92.3333 96.7083 92.4167 95.4167 92.75 94.25C93.1667 93 93.9583 91.9583 95.125 91.125C96.0417 90.4583 97.0833 90.2083 98.25 90.375C99.4167 90.5417 100.667 91.0417 102 91.875C102.167 90.2083 102.292 88.5833 102.375 87C102.458 85.4167 102.5 84.0417 102.5 82.875C102.5 80.625 102.333 78.25 102 75.75C101.75 73.25 101.292 70.9583 100.625 68.875C99.9583 66.7083 99.0833 64.9167 98 63.5C96.9167 62.0833 95.5417 61.375 93.875 61.375C92.2917 61.375 90.9167 62 89.75 63.25C88.6667 64.5 87.75 66.1667 87 68.25C86.25 70.25 85.7083 72.5417 85.375 75.125C85.0417 77.625 84.875 80.1667 84.875 82.75C84.875 85.6667 85.0417 88.5833 85.375 91.5C85.7917 94.4167 86.375 97.0417 87.125 99.375C87.875 101.708 88.7917 103.583 89.875 105C91.0417 106.417 92.4167 107.125 94 107.125C94.6667 107.125 95.25 107 95.75 106.75ZM119.75 111.875C120.583 113.042 121.5 114.542 122.5 116.375C123.5 118.125 124.25 119.958 124.75 121.875C125.333 123.708 125.583 125.458 125.5 127.125C125.417 128.792 124.708 130.125 123.375 131.125C122.375 131.875 121.292 132.167 120.125 132C118.958 131.917 117.75 131.542 116.5 130.875C115.333 130.292 114.125 129.458 112.875 128.375C111.625 127.375 110.417 126.25 109.25 125C107 126.917 104.458 128.417 101.625 129.5C98.875 130.583 95.7917 131.125 92.375 131.125C87.2917 131.125 82.875 129.833 79.125 127.25C75.375 124.75 72.25 121.375 69.75 117.125C67.3333 112.792 65.5 107.792 64.25 102.125C63.0833 96.4583 62.5 90.5 62.5 84.25C62.5 78.4167 63.125 72.5 64.375 66.5C65.7083 60.5 67.7083 55.0833 70.375 50.25C73.0417 45.4167 76.4167 41.4583 80.5 38.375C84.5833 35.2917 89.4583 33.75 95.125 33.75C100.625 33.75 105.208 35.25 108.875 38.25C112.625 41.1667 115.583 45 117.75 49.75C120 54.4167 121.583 59.6667 122.5 65.5C123.5 71.3333 124 77.1667 124 83C124 88.1667 123.583 93.125 122.75 97.875C121.917 102.542 120.667 106.875 119 110.875L119.75 111.875Z" fill="black"/>
<path d="M95.247 159.125C87.273 159.125 80.8087 165.371 80.8087 173.075C80.8184 175.597 81.5297 178.067 82.863 180.208C82.1826 180.109 81.4962 180.058 80.8087 180.054C72.837 180.054 66.375 186.298 66.375 194C66.375 201.704 72.8348 207.95 80.8087 207.952C82.7363 207.957 84.6461 207.585 86.4315 206.859C88.987 205.813 91.1906 204.059 92.7832 201.803C92.9272 201.596 93.0532 201.376 93.186 201.162C91.7842 212.194 90.7042 224.897 86.5867 228.875H103.909C99.792 224.897 98.712 212.194 97.3103 201.162C97.4453 201.376 97.569 201.596 97.713 201.803C99.3056 204.059 101.509 205.813 104.065 206.859C105.85 207.585 107.76 207.957 109.688 207.952C117.661 207.952 124.126 201.706 124.126 194.002C124.126 186.296 117.659 180.052 109.688 180.052C109.001 180.052 108.315 180.111 107.638 180.21C108.968 178.068 109.677 175.599 109.685 173.077C109.688 165.371 103.223 159.125 95.247 159.127V159.125Z" fill="black"/>
<path d="M534.25 773.25C535.083 774.667 535.792 776.125 536.375 777.625C536.958 779.125 537.333 780.542 537.5 781.875C537.667 783.292 537.583 784.583 537.25 785.75C536.833 787 536.042 788.042 534.875 788.875C533.958 789.542 532.917 789.792 531.75 789.625C530.583 789.458 529.333 788.958 528 788.125C527.833 789.792 527.708 791.417 527.625 793C527.542 794.583 527.5 795.958 527.5 797.125C527.5 799.375 527.667 801.75 528 804.25C528.25 806.75 528.708 809.042 529.375 811.125C530.042 813.292 530.917 815.083 532 816.5C533.083 817.917 534.458 818.625 536.125 818.625C537.708 818.625 539.083 818 540.25 816.75C541.333 815.5 542.25 813.833 543 811.75C543.75 809.75 544.292 807.458 544.625 804.875C544.958 802.375 545.125 799.833 545.125 797.25C545.125 794.333 544.958 791.417 544.625 788.5C544.208 785.583 543.625 782.958 542.875 780.625C542.125 778.292 541.208 776.417 540.125 775C538.958 773.583 537.583 772.875 536 772.875C535.333 772.875 534.75 773 534.25 773.25ZM510.25 768.125C509.417 766.958 508.5 765.458 507.5 763.625C506.5 761.875 505.75 760.042 505.25 758.125C504.667 756.292 504.417 754.542 504.5 752.875C504.583 751.208 505.292 749.875 506.625 748.875C507.625 748.125 508.708 747.833 509.875 748C511.042 748.083 512.25 748.458 513.5 749.125C514.667 749.708 515.875 750.542 517.125 751.625C518.375 752.625 519.583 753.75 520.75 755C523 753.083 525.542 751.583 528.375 750.5C531.125 749.417 534.208 748.875 537.625 748.875C542.708 748.875 547.125 750.167 550.875 752.75C554.625 755.25 557.75 758.625 560.25 762.875C562.667 767.208 564.5 772.208 565.75 777.875C566.917 783.542 567.5 789.5 567.5 795.75C567.5 801.583 566.875 807.5 565.625 813.5C564.292 819.5 562.292 824.917 559.625 829.75C556.958 834.583 553.583 838.542 549.5 841.625C545.417 844.708 540.542 846.25 534.875 846.25C529.375 846.25 524.792 844.75 521.125 841.75C517.375 838.833 514.417 835 512.25 830.25C510 825.583 508.417 820.333 507.5 814.5C506.5 808.667 506 802.833 506 797C506 791.833 506.417 786.875 507.25 782.125C508.083 777.458 509.333 773.125 511 769.125L510.25 768.125Z" fill="black"/>
<path d="M534.753 720.875C542.727 720.875 549.191 714.629 549.191 706.925C549.182 704.403 548.47 701.933 547.137 699.792C547.817 699.891 548.504 699.942 549.191 699.946C557.163 699.946 563.625 693.702 563.625 686C563.625 678.296 557.165 672.05 549.191 672.048C547.264 672.043 545.354 672.415 543.569 673.141C541.013 674.187 538.809 675.941 537.217 678.197C537.073 678.404 536.947 678.624 536.814 678.838C538.216 667.806 539.296 655.103 543.413 651.125H526.091C530.208 655.103 531.288 667.806 532.69 678.838C532.555 678.624 532.431 678.404 532.287 678.197C530.694 675.941 528.491 674.187 525.935 673.141C524.15 672.415 522.24 672.043 520.312 672.048C512.339 672.048 505.874 678.294 505.874 685.998C505.874 693.704 512.341 699.948 520.312 699.948C520.999 699.948 521.685 699.889 522.362 699.79C521.032 701.932 520.323 704.401 520.315 706.923C520.312 714.629 526.777 720.875 534.753 720.873V720.875Z" fill="black"/>
<path fill-rule="evenodd" clip-rule="evenodd" d="M287.484 384.411C269.905 389.095 258 398.127 258 408.5C258 423.688 283.52 436 315 436C346.48 436 372 423.688 372 408.5C372 398.127 360.095 389.095 342.516 384.411C335.913 390.275 326.036 394 315 394C303.964 394 294.087 390.275 287.484 384.411Z" fill="#ECF4F7"/>
<path d="M379.603 193.407C384.371 193.407 388.272 197.309 388.272 202.079C388.272 206.849 384.371 210.752 379.603 210.752C379.17 210.752 378.736 210.752 378.303 210.752C374.402 209.884 370.935 206.416 370.935 202.079C370.935 197.309 374.836 193.407 379.603 193.407ZM249.575 193.407C254.343 193.407 258.244 197.309 258.244 202.079C258.244 206.415 255.21 209.884 250.875 210.752C250.442 210.752 250.008 210.752 249.575 210.752C244.807 210.752 240.906 206.849 240.906 202.079C240.906 197.309 244.807 193.407 249.575 193.407ZM314.589 184.734C319.357 184.734 323.258 188.637 323.258 193.407C323.258 198.177 319.357 202.079 314.589 202.079C309.821 202.079 305.92 198.177 305.92 193.407C305.92 188.636 309.821 184.734 314.589 184.734Z" fill="#FFE079"/>
<path d="M371.368 286.202L370.934 288.804C370.934 306.149 362.266 340.839 357.932 349.511C354.898 355.582 347.963 369.024 335.827 377.697C329.759 381.6 322.824 384.201 314.589 384.201C305.92 384.201 298.986 381.6 292.917 377.264C280.782 369.025 273.846 355.149 271.246 349.512C266.912 340.839 258.243 306.15 258.243 288.805L249.574 284.468C249.574 284.468 301.586 284.468 336.26 262.787C342.328 274.928 360.532 282.733 371.368 286.202Z" fill="#FFD0A1"/>
<path d="M256.076 232.867L314.589 215.088L373.535 232.433L370.934 245.441H258.243L255.643 232.867H256.076Z" fill="#F5A607"/>
<path d="M357.932 349.511C362.266 340.838 370.935 306.149 370.935 288.803L371.368 286.202C360.532 282.299 342.328 274.494 336.26 262.786C301.586 284.467 249.575 284.467 249.575 284.467L258.244 288.803C258.244 306.148 266.912 340.838 271.246 349.511C274.28 355.148 281.215 369.024 292.918 377.263V377.696C281.649 383.767 266.912 384.2 266.912 384.2C247.841 384.2 232.238 372.926 232.238 353.847C232.238 350.378 233.538 344.307 236.572 340.838C223.569 336.502 219.235 314.821 232.238 306.148C227.904 297.475 227.904 297.475 227.904 284.467C227.904 271.458 240.907 249.777 258.244 245.441H370.935C388.272 249.777 401.275 271.458 401.275 284.467C401.275 297.475 401.275 297.475 396.941 306.148C409.944 314.821 405.609 336.502 392.607 340.838C396.941 345.174 396.941 350.378 396.941 353.847C396.941 372.926 381.337 384.2 362.266 384.2C362.266 384.2 347.096 384.2 336.261 378.129L335.827 377.696C347.963 369.024 354.898 355.582 357.932 349.511Z" fill="#7B4B43"/>
<path d="M440 439H311C349.948 439 370.758 402 370.758 402C405.379 402 436.105 426.05 440 439ZM321 439H189C193.327 425.125 214.965 402 258.241 402C258.241 402 282.052 439 321 439Z" fill="black"/>
<path d="M353.597 401.546C356.198 401.546 357.931 399.811 357.931 397.21C357.931 394.608 356.198 392.874 353.597 392.874C350.997 392.874 349.263 394.608 349.263 397.21C349.263 399.811 350.997 401.546 353.597 401.546ZM336.26 414.554C338.861 414.554 340.594 412.82 340.594 410.218C340.594 407.617 338.861 405.882 336.26 405.882C333.66 405.882 331.926 407.617 331.926 410.218C331.926 412.82 333.66 414.554 336.26 414.554ZM314.589 423.227C317.189 423.227 318.923 421.493 318.923 418.891C318.923 416.289 317.189 414.555 314.589 414.555C311.988 414.555 310.255 416.289 310.255 418.891C310.255 421.493 311.988 423.227 314.589 423.227ZM292.917 414.554C295.518 414.554 297.251 412.82 297.251 410.218C297.251 407.617 295.518 405.882 292.917 405.882C290.317 405.882 288.583 407.617 288.583 410.218C288.583 412.82 290.317 414.554 292.917 414.554ZM275.58 401.546C278.181 401.546 279.914 399.811 279.914 397.21C279.914 394.608 278.181 392.874 275.58 392.874C272.98 392.874 271.246 394.608 271.246 397.21C271.246 399.811 272.98 401.546 275.58 401.546Z" fill="#FFE079"/>
<path d="M440.285 438.404C439.418 438.404 438.551 437.971 438.117 437.103C434.217 425.829 404.743 404.581 372.236 404.148C368.769 410.219 350.131 438.838 314.59 438.838C279.049 438.838 260.412 410.219 256.945 404.148C216.636 404.581 195.397 424.094 191.063 437.537C190.63 438.837 189.33 439.271 188.463 438.837C187.162 438.404 186.729 437.103 187.162 436.236C191.93 421.493 214.902 400.245 258.678 400.245C259.545 400.245 260.412 400.678 260.412 401.546C260.412 401.979 277.749 434.935 315.024 434.935C352.299 434.935 369.202 401.98 369.636 401.546C370.069 400.678 370.936 400.245 371.369 400.245C405.176 400.245 438.117 421.926 442.885 436.236C443.318 437.537 442.451 438.404 441.584 438.837C440.718 438.404 440.718 438.404 440.285 438.404ZM314.59 425.395C311.123 425.395 308.089 422.36 308.089 418.891C308.089 415.422 311.123 412.387 314.59 412.387C318.058 412.387 321.092 415.422 321.092 418.891C321.092 422.36 318.058 425.395 314.59 425.395ZM314.59 416.723C313.29 416.723 312.423 417.59 312.423 418.891C312.423 420.192 313.29 421.059 314.59 421.059C315.891 421.059 316.758 420.192 316.758 418.891C316.758 417.59 315.891 416.723 314.59 416.723ZM336.262 416.723C332.794 416.723 329.76 413.687 329.76 410.218C329.76 406.749 332.794 403.714 336.262 403.714C339.73 403.714 342.763 406.749 342.763 410.218C342.763 413.687 339.729 416.723 336.262 416.723ZM336.262 408.05C334.962 408.05 334.095 408.917 334.095 410.218C334.095 411.519 334.962 412.387 336.262 412.387C337.562 412.387 338.429 411.519 338.429 410.218C338.429 408.917 337.562 408.05 336.262 408.05ZM292.919 416.723C289.451 416.723 286.417 413.687 286.417 410.218C286.417 406.749 289.451 403.714 292.919 403.714C296.386 403.714 299.42 406.749 299.42 410.218C299.42 413.687 296.386 416.723 292.919 416.723ZM292.919 408.05C291.618 408.05 290.751 408.917 290.751 410.218C290.751 411.519 291.618 412.387 292.919 412.387C294.219 412.387 295.086 411.519 295.086 410.218C295.086 408.917 294.219 408.05 292.919 408.05ZM353.599 403.714C350.131 403.714 347.097 400.679 347.097 397.21C347.097 393.74 350.131 390.705 353.599 390.705C357.066 390.705 360.1 393.74 360.1 397.21C360.1 400.679 357.066 403.714 353.599 403.714ZM353.599 395.041C352.299 395.041 351.432 395.909 351.432 397.21C351.432 398.51 352.299 399.378 353.599 399.378C354.899 399.378 355.766 398.51 355.766 397.21C355.766 395.909 354.899 395.041 353.599 395.041ZM275.582 403.714C272.114 403.714 269.08 400.679 269.08 397.21C269.08 393.74 272.114 390.705 275.582 390.705C279.049 390.705 282.083 393.74 282.083 397.21C282.083 400.679 279.049 403.714 275.582 403.714ZM275.582 395.041C274.282 395.041 273.415 395.909 273.415 397.21C273.415 398.51 274.282 399.378 275.582 399.378C276.882 399.378 277.749 398.51 277.749 397.21C277.749 395.909 276.882 395.041 275.582 395.041ZM362.268 386.369C360.967 386.369 360.1 385.502 360.1 384.201C360.1 382.9 360.967 382.033 362.268 382.033C381.339 382.033 394.775 370.325 394.775 353.847C394.775 350.378 394.775 346.042 390.874 342.573C390.441 342.139 390.007 341.272 390.441 340.404C390.441 339.537 391.308 339.103 391.741 338.67C397.375 336.936 401.276 331.298 402.143 324.36C403.01 317.423 400.41 311.352 395.642 307.883C394.775 307.449 394.341 306.148 394.775 305.281C398.676 297.042 398.676 297.042 398.676 284.467C398.676 272.759 386.54 251.945 370.069 247.609H257.811C241.774 251.945 229.205 272.759 229.205 284.467C229.205 297.042 229.205 297.042 233.106 305.281C233.539 306.148 233.106 307.449 232.239 307.883C227.038 311.352 224.437 317.422 225.737 324.36C226.604 331.298 230.938 336.936 236.14 338.67C237.007 339.103 237.44 339.537 237.44 339.971C237.44 340.404 237.44 341.272 237.007 342.139C233.973 345.608 233.106 350.812 233.106 353.847C233.106 373.36 249.576 382.033 265.613 382.033C266.913 382.033 267.78 382.9 267.78 384.201C267.78 385.502 266.913 386.369 265.613 386.369C243.941 386.369 228.772 372.927 228.772 353.847C228.772 350.378 229.639 345.609 231.805 341.706C226.171 338.671 221.836 332.167 220.97 324.795C220.103 316.99 222.703 309.618 227.905 305.282C224.437 297.91 224.004 296.609 224.004 284.468C224.004 271.893 235.706 249.778 253.91 243.707L247.409 212.92C241.774 212.92 237.007 208.15 237.007 202.08C237.007 196.009 241.774 191.239 247.842 191.239C253.91 191.239 258.678 196.009 258.678 202.08C258.678 206.85 255.644 210.752 251.743 212.053L258.244 243.274H367.468L373.97 212.053C370.069 210.319 367.035 206.416 367.035 202.08C367.035 196.009 371.803 191.239 377.871 191.239C383.938 191.239 388.706 196.009 388.706 202.08C388.706 208.15 383.938 212.92 378.304 212.92L371.802 244.141C390.006 250.212 401.709 271.893 401.709 284.468C401.709 297.043 401.709 297.91 397.808 305.282C403.442 309.618 406.043 316.99 404.743 324.795C403.876 332.167 399.542 338.237 394.34 341.273C397.374 345.609 397.374 350.379 397.374 353.414C399.109 372.927 383.939 386.369 362.268 386.369ZM378.738 208.583C382.638 209.017 386.106 205.982 386.106 202.079C386.106 198.61 383.072 195.575 379.605 195.575C376.137 195.575 373.103 198.61 373.103 202.079C373.103 205.115 375.27 207.716 378.738 208.583ZM249.576 195.575C246.109 195.575 243.075 198.61 243.075 202.079C243.075 205.982 246.542 209.017 250.443 208.583C250.443 208.583 250.443 208.583 250.876 208.583C253.91 208.15 256.078 205.548 256.078 202.079C256.078 198.61 253.044 195.575 249.576 195.575ZM314.59 386.369C287.284 386.369 273.848 359.484 269.514 350.378C264.746 341.272 256.078 305.715 256.078 288.804C256.078 287.503 256.945 286.636 258.245 286.636C259.545 286.636 260.412 287.503 260.412 288.804C260.412 306.583 269.081 340.405 272.982 348.644C277.316 356.883 289.885 382.033 314.591 382.033C339.296 382.033 351.866 356.883 356.2 348.644C360.101 340.839 368.77 306.583 368.77 288.804C368.77 288.37 368.77 287.937 369.203 287.937C358.801 284.034 342.33 277.096 335.829 265.822C301.154 286.202 252.177 286.636 250.01 286.636C248.71 286.636 247.843 285.768 247.843 284.467C247.843 283.166 248.71 282.299 250.01 282.299C250.443 282.299 302.021 281.866 335.395 261.052C335.829 260.618 336.696 260.618 337.129 260.618C337.562 260.618 337.996 261.052 338.429 261.919C346.664 278.397 380.038 286.636 380.472 286.636C381.772 287.069 382.205 287.937 382.205 289.237C382.205 290.538 380.905 290.972 379.605 290.972C379.171 290.972 377.004 290.104 373.536 289.237C373.536 306.582 364.868 341.272 360.1 350.378C355.332 359.484 341.896 386.369 314.59 386.369ZM314.59 356.015C305.055 356.015 300.287 351.245 299.854 351.245C298.987 350.378 298.987 349.077 299.854 348.21C300.721 347.343 302.021 347.343 302.888 348.21C302.888 348.21 306.789 352.113 314.157 352.113C321.526 352.113 325.426 348.643 325.426 348.21C326.293 347.343 327.594 347.343 328.46 348.21C329.327 349.077 329.327 350.378 328.46 351.245C328.893 351.246 324.126 356.015 314.59 356.015ZM375.27 338.67C373.97 338.67 373.103 337.803 373.103 336.502V332.166C373.103 330.865 373.97 329.998 375.27 329.998C376.571 329.998 377.438 330.865 377.438 332.166V336.502C377.437 337.803 376.571 338.67 375.27 338.67ZM253.91 338.67C252.61 338.67 251.743 337.803 251.743 336.502V332.166C251.743 330.865 252.61 329.998 253.91 329.998C255.211 329.998 256.078 330.865 256.078 332.166V336.502C256.078 337.803 255.211 338.67 253.91 338.67ZM336.262 312.653C334.962 312.653 334.095 311.786 334.095 310.485V304.414C330.627 305.281 329.761 307.449 329.327 307.449C328.893 308.316 327.593 308.75 326.293 308.316C325.426 307.883 324.993 306.582 325.426 305.281C325.426 304.848 328.46 299.644 335.828 299.644C343.197 299.644 346.23 304.848 346.23 305.281C346.664 306.149 346.23 307.45 345.363 308.316C344.496 308.75 343.196 308.316 342.33 307.449C342.33 307.449 341.029 305.281 337.562 304.414V310.485C338.429 311.786 337.562 312.653 336.262 312.653ZM292.919 312.653C291.618 312.653 290.751 311.786 290.751 310.485V304.414C287.284 305.281 286.417 307.449 285.984 307.449C285.55 308.316 284.25 308.75 282.95 308.316C282.083 307.883 281.649 306.582 282.083 305.281C282.083 304.848 285.117 299.644 292.485 299.644C299.853 299.644 302.887 304.848 302.887 305.281C303.321 306.149 302.887 307.45 302.02 308.316C301.153 308.75 299.853 308.316 298.986 307.449C298.986 307.449 297.686 305.281 294.219 304.414V310.485C295.086 311.786 294.219 312.653 292.919 312.653ZM357.933 230.265H357.5L314.59 217.256L271.681 230.265C270.381 230.698 269.514 229.831 269.08 228.964C268.647 227.663 269.514 226.796 270.381 226.362L311.99 213.787V204.247C307.222 203.38 303.321 199.044 303.321 193.84C303.321 187.77 308.089 183 314.157 183C320.224 183 324.993 187.77 324.993 193.84C324.993 199.044 321.092 203.38 316.324 204.247V213.787L357.933 226.362C359.233 226.796 359.667 228.096 359.233 228.964C359.667 229.831 358.8 230.265 357.933 230.265ZM314.59 186.902C311.123 186.902 308.089 189.937 308.089 193.406C308.089 196.876 311.123 199.911 314.59 199.911C318.058 199.911 321.092 196.876 321.092 193.406C321.092 189.937 318.058 186.902 314.59 186.902Z" fill="#51565F"/>
<path d="M343.451 384.423C356.212 387.511 362.356 392.022 371.5 401.5" stroke="#51565F" stroke-width="3"/>
<ellipse rx="1.45082" ry="1.42308" transform="matrix(1 0 0 -1 343.451 384.423)" fill="#51565F"/>
<path d="M286.049 384.423C273.288 387.511 267.144 392.022 258 401.5" stroke="#51565F" stroke-width="3"/>
<ellipse cx="286.049" cy="384.423" rx="1.45082" ry="1.42308" transform="rotate(180 286.049 384.423)" fill="#51565F"/>
<path fill-rule="evenodd" clip-rule="evenodd" d="M342.516 495.589C360.095 490.905 372 481.873 372 471.5C372 456.312 346.48 444 315 444C283.52 444 258 456.312 258 471.5C258 481.873 269.905 490.905 287.484 495.589C294.087 489.725 303.964 486 315 486C326.036 486 335.913 489.725 342.516 495.589Z" fill="#ECF4F7"/>
<path d="M250.397 686.593C245.629 686.593 241.728 682.691 241.728 677.921C241.728 673.151 245.629 669.248 250.397 669.248C250.83 669.248 251.264 669.248 251.697 669.248C255.598 670.116 259.065 673.584 259.065 677.921C259.065 682.691 255.164 686.593 250.397 686.593ZM380.425 686.593C375.657 686.593 371.756 682.691 371.756 677.921C371.756 673.585 374.79 670.116 379.125 669.248C379.558 669.248 379.992 669.248 380.425 669.248C385.193 669.248 389.094 673.151 389.094 677.921C389.094 682.691 385.193 686.593 380.425 686.593ZM315.411 695.266C310.643 695.266 306.742 691.363 306.742 686.593C306.742 681.823 310.643 677.921 315.411 677.921C320.179 677.921 324.08 681.823 324.08 686.593C324.08 691.364 320.179 695.266 315.411 695.266Z" fill="#FFE079"/>
<path d="M258.632 593.798L259.066 591.196C259.066 573.851 267.734 539.161 272.068 530.489C275.102 524.418 282.037 510.976 294.173 502.303C300.241 498.4 307.176 495.799 315.411 495.799C324.08 495.799 331.014 498.4 337.083 502.736C349.218 510.975 356.154 524.851 358.754 530.488C363.088 539.161 371.757 573.85 371.757 591.195L380.426 595.532C380.426 595.532 328.414 595.532 293.74 617.213C287.672 605.072 269.468 597.267 258.632 593.798Z" fill="#FFD0A1"/>
<path d="M373.924 647.133L315.411 664.912L256.465 647.567L259.066 634.559H371.757L374.357 647.133H373.924Z" fill="#F5A607"/>
<path d="M272.068 530.489C267.734 539.162 259.065 573.851 259.065 591.197L258.632 593.798C269.468 597.701 287.672 605.506 293.74 617.214C328.414 595.533 380.425 595.533 380.425 595.533L371.756 591.197C371.756 573.852 363.088 539.162 358.754 530.489C355.72 524.852 348.785 510.976 337.082 502.737V502.304C348.351 496.233 363.088 495.8 363.088 495.8C382.159 495.8 397.762 507.074 397.762 526.153C397.762 529.622 396.462 535.693 393.428 539.162C406.431 543.498 410.765 565.179 397.762 573.852C402.096 582.525 402.096 582.525 402.096 595.533C402.096 608.542 389.093 630.223 371.756 634.559H259.065C241.728 630.223 228.725 608.542 228.725 595.533C228.725 582.525 228.725 582.525 233.059 573.852C220.056 565.179 224.391 543.498 237.393 539.162C233.059 534.826 233.059 529.622 233.059 526.153C233.059 507.074 248.663 495.8 267.734 495.8C267.734 495.8 282.904 495.8 293.739 501.871L294.173 502.304C282.037 510.976 275.102 524.418 272.068 530.489Z" fill="#7B4B43"/>
<path d="M190 441H319C280.052 441 259.242 478 259.242 478C224.621 478 193.895 453.95 190 441ZM309 441H441C436.673 454.875 415.035 478 371.759 478C371.759 478 347.948 441 309 441Z" fill="black"/>
<path d="M276.403 478.454C273.802 478.454 272.069 480.189 272.069 482.79C272.069 485.392 273.802 487.126 276.403 487.126C279.003 487.126 280.737 485.392 280.737 482.79C280.737 480.189 279.003 478.454 276.403 478.454ZM293.74 465.446C291.139 465.446 289.406 467.18 289.406 469.782C289.406 472.383 291.139 474.118 293.74 474.118C296.34 474.118 298.074 472.383 298.074 469.782C298.074 467.18 296.34 465.446 293.74 465.446ZM315.411 456.773C312.811 456.773 311.077 458.507 311.077 461.109C311.077 463.711 312.811 465.445 315.411 465.445C318.012 465.445 319.745 463.711 319.745 461.109C319.745 458.507 318.012 456.773 315.411 456.773ZM337.083 465.446C334.482 465.446 332.749 467.18 332.749 469.782C332.749 472.383 334.482 474.118 337.083 474.118C339.683 474.118 341.417 472.383 341.417 469.782C341.417 467.18 339.683 465.446 337.083 465.446ZM354.42 478.454C351.819 478.454 350.086 480.189 350.086 482.79C350.086 485.392 351.819 487.126 354.42 487.126C357.02 487.126 358.754 485.392 358.754 482.79C358.754 480.189 357.02 478.454 354.42 478.454Z" fill="#FFE079"/>
<path d="M189.715 441.596C190.582 441.596 191.449 442.029 191.883 442.897C195.783 454.171 225.257 475.419 257.764 475.852C261.231 469.781 279.869 441.162 315.41 441.162C350.951 441.162 369.588 469.781 373.055 475.852C413.364 475.419 434.603 455.906 438.937 442.463C439.37 441.163 440.67 440.729 441.537 441.163C442.838 441.596 443.271 442.897 442.838 443.764C438.07 458.507 415.098 479.755 371.322 479.755C370.455 479.755 369.588 479.322 369.588 478.454C369.588 478.021 352.251 445.065 314.976 445.065C277.701 445.065 260.798 478.02 260.364 478.454C259.931 479.322 259.064 479.755 258.631 479.755C224.824 479.755 191.883 458.074 187.115 443.764C186.682 442.463 187.548 441.596 188.416 441.163C189.282 441.596 189.282 441.596 189.715 441.596ZM315.41 454.605C318.877 454.605 321.911 457.64 321.911 461.109C321.911 464.578 318.877 467.613 315.41 467.613C311.942 467.613 308.908 464.578 308.908 461.109C308.908 457.64 311.942 454.605 315.41 454.605ZM315.41 463.277C316.71 463.277 317.577 462.41 317.577 461.109C317.577 459.808 316.71 458.941 315.41 458.941C314.109 458.941 313.242 459.808 313.242 461.109C313.242 462.41 314.109 463.277 315.41 463.277ZM293.738 463.277C297.206 463.277 300.24 466.313 300.24 469.782C300.24 473.251 297.206 476.286 293.738 476.286C290.27 476.286 287.237 473.251 287.237 469.782C287.237 466.313 290.271 463.277 293.738 463.277ZM293.738 471.95C295.038 471.95 295.905 471.083 295.905 469.782C295.905 468.481 295.038 467.613 293.738 467.613C292.438 467.613 291.571 468.481 291.571 469.782C291.571 471.083 292.438 471.95 293.738 471.95ZM337.081 463.277C340.549 463.277 343.583 466.313 343.583 469.782C343.583 473.251 340.549 476.286 337.081 476.286C333.614 476.286 330.58 473.251 330.58 469.782C330.58 466.313 333.614 463.277 337.081 463.277ZM337.081 471.95C338.382 471.95 339.249 471.083 339.249 469.782C339.249 468.481 338.382 467.613 337.081 467.613C335.781 467.613 334.914 468.481 334.914 469.782C334.914 471.083 335.781 471.95 337.081 471.95ZM276.401 476.286C279.869 476.286 282.903 479.321 282.903 482.79C282.903 486.26 279.869 489.295 276.401 489.295C272.934 489.295 269.9 486.26 269.9 482.79C269.9 479.321 272.934 476.286 276.401 476.286ZM276.401 484.959C277.701 484.959 278.568 484.091 278.568 482.79C278.568 481.49 277.701 480.622 276.401 480.622C275.101 480.622 274.234 481.49 274.234 482.79C274.234 484.091 275.101 484.959 276.401 484.959ZM354.418 476.286C357.886 476.286 360.92 479.321 360.92 482.79C360.92 486.26 357.886 489.295 354.418 489.295C350.951 489.295 347.917 486.26 347.917 482.79C347.917 479.321 350.951 476.286 354.418 476.286ZM354.418 484.959C355.718 484.959 356.585 484.091 356.585 482.79C356.585 481.49 355.718 480.622 354.418 480.622C353.118 480.622 352.251 481.49 352.251 482.79C352.251 484.091 353.118 484.959 354.418 484.959ZM267.732 493.631C269.033 493.631 269.9 494.498 269.9 495.799C269.9 497.1 269.033 497.967 267.732 497.967C248.661 497.967 235.225 509.675 235.225 526.153C235.225 529.622 235.225 533.958 239.126 537.427C239.559 537.861 239.993 538.728 239.559 539.596C239.559 540.463 238.692 540.897 238.259 541.33C232.625 543.064 228.724 548.702 227.857 555.64C226.99 562.577 229.59 568.648 234.358 572.117C235.225 572.551 235.659 573.852 235.225 574.719C231.324 582.958 231.324 582.958 231.324 595.533C231.324 607.241 243.46 628.055 259.931 632.391H372.189C388.226 628.055 400.795 607.241 400.795 595.533C400.795 582.958 400.795 582.958 396.894 574.719C396.461 573.852 396.894 572.551 397.761 572.117C402.962 568.648 405.563 562.578 404.263 555.64C403.396 548.702 399.062 543.064 393.86 541.33C392.993 540.897 392.56 540.463 392.56 540.029C392.56 539.596 392.56 538.728 392.993 537.861C396.027 534.392 396.894 529.188 396.894 526.153C396.894 506.64 380.424 497.967 364.387 497.967C363.087 497.967 362.22 497.1 362.22 495.799C362.22 494.498 363.087 493.631 364.387 493.631C386.059 493.631 401.228 507.073 401.228 526.153C401.228 529.622 400.361 534.391 398.195 538.294C403.829 541.329 408.164 547.833 409.03 555.205C409.897 563.01 407.297 570.382 402.095 574.718C405.563 582.09 405.996 583.391 405.996 595.532C405.996 608.107 394.294 630.222 376.09 636.293L382.591 667.08C388.226 667.08 392.993 671.85 392.993 677.92C392.993 683.991 388.226 688.761 382.158 688.761C376.09 688.761 371.322 683.991 371.322 677.92C371.322 673.15 374.356 669.248 378.257 667.947L371.756 636.726H262.532L256.03 667.947C259.931 669.681 262.965 673.584 262.965 677.92C262.965 683.991 258.197 688.761 252.129 688.761C246.062 688.761 241.294 683.991 241.294 677.92C241.294 671.85 246.062 667.08 251.696 667.08L258.198 635.859C239.994 629.788 228.291 608.107 228.291 595.532C228.291 582.957 228.291 582.09 232.192 574.718C226.558 570.382 223.957 563.01 225.257 555.205C226.124 547.833 230.458 541.763 235.66 538.727C232.626 534.391 232.626 529.621 232.626 526.586C230.891 507.073 246.061 493.631 267.732 493.631ZM251.262 671.417C247.362 670.983 243.894 674.018 243.894 677.921C243.894 681.39 246.928 684.425 250.395 684.425C253.863 684.425 256.897 681.39 256.897 677.921C256.897 674.885 254.73 672.284 251.262 671.417C251.262 671.417 251.696 671.417 251.262 671.417ZM380.424 684.425C383.891 684.425 386.925 681.39 386.925 677.921C386.925 674.018 383.458 670.983 379.557 671.417C379.557 671.417 379.557 671.417 379.124 671.417C376.09 671.85 373.922 674.452 373.922 677.921C373.922 681.39 376.956 684.425 380.424 684.425ZM315.41 493.631C342.716 493.631 356.152 520.516 360.486 529.622C365.254 538.728 373.922 574.285 373.922 591.196C373.922 592.497 373.055 593.364 371.755 593.364C370.455 593.364 369.588 592.497 369.588 591.196C369.588 573.417 360.919 539.595 357.018 531.356C352.684 523.117 340.115 497.967 315.409 497.967C290.704 497.967 278.134 523.117 273.8 531.356C269.899 539.161 261.23 573.417 261.23 591.196C261.23 591.63 261.23 592.063 260.797 592.063C271.199 595.966 287.67 602.904 294.171 614.178C328.846 593.798 377.823 593.364 379.99 593.364C381.29 593.364 382.157 594.232 382.157 595.533C382.157 596.834 381.29 597.701 379.99 597.701C379.557 597.701 327.979 598.134 294.605 618.948C294.171 619.382 293.304 619.382 292.871 619.382C292.438 619.382 292.004 618.948 291.571 618.081C283.336 601.603 249.962 593.364 249.528 593.364C248.228 592.931 247.795 592.063 247.795 590.763C247.795 589.462 249.095 589.028 250.395 589.028C250.829 589.028 252.996 589.896 256.464 590.763C256.464 573.418 265.132 538.728 269.9 529.622C274.668 520.516 288.104 493.631 315.41 493.631ZM315.41 523.985C324.945 523.985 329.713 528.755 330.146 528.755C331.013 529.622 331.013 530.923 330.146 531.79C329.279 532.657 327.979 532.657 327.112 531.79C327.112 531.79 323.211 527.887 315.843 527.887C308.474 527.887 304.574 531.357 304.574 531.79C303.707 532.657 302.406 532.657 301.54 531.79C300.673 530.923 300.673 529.622 301.54 528.755C301.107 528.754 305.874 523.985 315.41 523.985ZM254.73 541.33C256.03 541.33 256.897 542.197 256.897 543.498V547.834C256.897 549.135 256.03 550.002 254.73 550.002C253.429 550.002 252.562 549.135 252.562 547.834V543.498C252.563 542.197 253.429 541.33 254.73 541.33ZM376.09 541.33C377.39 541.33 378.257 542.197 378.257 543.498V547.834C378.257 549.135 377.39 550.002 376.09 550.002C374.789 550.002 373.922 549.135 373.922 547.834V543.498C373.922 542.197 374.789 541.33 376.09 541.33ZM293.738 567.347C295.038 567.347 295.905 568.214 295.905 569.515V575.586C299.373 574.719 300.239 572.551 300.673 572.551C301.107 571.684 302.407 571.25 303.707 571.684C304.574 572.117 305.007 573.418 304.574 574.719C304.574 575.152 301.54 580.356 294.172 580.356C286.803 580.356 283.77 575.152 283.77 574.719C283.336 573.851 283.77 572.55 284.637 571.684C285.504 571.25 286.804 571.684 287.67 572.551C287.67 572.551 288.971 574.719 292.438 575.586V569.515C291.571 568.214 292.438 567.347 293.738 567.347ZM337.081 567.347C338.382 567.347 339.249 568.214 339.249 569.515V575.586C342.716 574.719 343.583 572.551 344.016 572.551C344.45 571.684 345.75 571.25 347.05 571.684C347.917 572.117 348.351 573.418 347.917 574.719C347.917 575.152 344.883 580.356 337.515 580.356C330.147 580.356 327.113 575.152 327.113 574.719C326.679 573.851 327.113 572.55 327.98 571.684C328.847 571.25 330.147 571.684 331.014 572.551C331.014 572.551 332.314 574.719 335.781 575.586V569.515C334.914 568.214 335.781 567.347 337.081 567.347ZM272.067 649.735H272.5L315.41 662.744L358.319 649.735C359.619 649.302 360.486 650.169 360.92 651.036C361.353 652.337 360.486 653.204 359.619 653.638L318.01 666.213V675.753C322.778 676.62 326.679 680.956 326.679 686.16C326.679 692.23 321.911 697 315.843 697C309.776 697 305.007 692.23 305.007 686.16C305.007 680.956 308.908 676.62 313.676 675.753V666.213L272.067 653.638C270.767 653.204 270.333 651.904 270.767 651.036C270.333 650.169 271.2 649.735 272.067 649.735ZM315.41 693.098C318.877 693.098 321.911 690.063 321.911 686.594C321.911 683.124 318.877 680.089 315.41 680.089C311.942 680.089 308.908 683.124 308.908 686.594C308.908 690.063 311.942 693.098 315.41 693.098Z" fill="#51565F"/>
<path d="M286.549 495.577C273.788 492.489 267.644 487.978 258.5 478.5" stroke="#51565F" stroke-width="3"/>
<ellipse rx="1.45082" ry="1.42308" transform="matrix(-1 0 0 1 286.549 495.577)" fill="#51565F"/>
<path d="M343.951 495.577C356.712 492.489 362.856 487.978 372 478.5" stroke="#51565F" stroke-width="3"/>
<ellipse cx="343.951" cy="495.577" rx="1.45082" ry="1.42308" fill="#51565F"/>
<path d="M438.5 432.5C441.574 440.994 441.975 439.6 439 447.5" stroke="#51565F" stroke-width="4"/>
<path d="M438.5 432.5C442.847 439.713 442.714 439.401 438.5 448.5" stroke="#51565F" stroke-width="4"/>
<path d="M191.5 448C188.698 439.299 188.022 440.675 190.711 433" stroke="#51565F" stroke-width="4"/>
<path d="M192 448C187.555 441.004 186.875 441.352 191.211 432" stroke="#51565F" stroke-width="4"/>
<line x1="132" y1="440" x2="498" y2="440" stroke="black" stroke-width="2"/>
</svg>
